<?xml version="1.0" encoding="UTF-8"?>
<!DOCTYPE svg PUBLIC "-//W3C//DTD SVG 1.1//EN" "http://www.w3.org/Graphics/SVG/1.1/DTD/svg11.dtd">
<!-- Creator: CorelDRAW 2020 (64 Bit) -->
<svg xmlns="http://www.w3.org/2000/svg" xml:space="preserve" width="473px" height="300px" version="1.1" style="shape-rendering:geometricPrecision; text-rendering:geometricPrecision; image-rendering:optimizeQuality; fill-rule:evenodd; clip-rule:evenodd"
viewBox="0 0 436.48 276.6"
 xmlns:xlink="http://www.w3.org/1999/xlink"
 xmlns:xodm="http://www.corel.com/coreldraw/odm/2003">
 <defs>
  <style type="text/css">
   <![CDATA[
    .fil74 {fill:#FEFEFE}
    .fil0 {fill:#1A2733}
    .fil31 {fill:#FEFEFE;fill-rule:nonzero}
    .fil29 {fill:#EFEFEF;fill-rule:nonzero}
    .fil30 {fill:#E5E6E5;fill-rule:nonzero}
    .fil27 {fill:#E0E1E0;fill-rule:nonzero}
    .fil68 {fill:#DBF0EE;fill-rule:nonzero}
    .fil28 {fill:#D9DAD9;fill-rule:nonzero}
    .fil39 {fill:#D2D4D4;fill-rule:nonzero}
    .fil71 {fill:#C2C4C4;fill-rule:nonzero}
    .fil49 {fill:#BBE3E3;fill-rule:nonzero}
    .fil67 {fill:#AFDEDD;fill-rule:nonzero}
    .fil47 {fill:#A8B8BB;fill-rule:nonzero}
    .fil63 {fill:#98D6D2;fill-rule:nonzero}
    .fil56 {fill:#95A0A2;fill-rule:nonzero}
    .fil36 {fill:#95A9AF;fill-rule:nonzero}
    .fil57 {fill:#94A7AB;fill-rule:nonzero}
    .fil59 {fill:#919FA2;fill-rule:nonzero}
    .fil64 {fill:#8ED2CE;fill-rule:nonzero}
    .fil46 {fill:#85D0CF;fill-rule:nonzero}
    .fil32 {fill:#6CC9C7;fill-rule:nonzero}
    .fil72 {fill:#6BC8C2;fill-rule:nonzero}
    .fil50 {fill:#637C84;fill-rule:nonzero}
    .fil43 {fill:#55C2B9;fill-rule:nonzero}
    .fil55 {fill:#617980;fill-rule:nonzero}
    .fil58 {fill:#576C72;fill-rule:nonzero}
    .fil60 {fill:#4A5F66;fill-rule:nonzero}
    .fil62 {fill:#465C62;fill-rule:nonzero}
    .fil44 {fill:#3D4E53;fill-rule:nonzero}
    .fil33 {fill:#42616A;fill-rule:nonzero}
    .fil52 {fill:#405D66;fill-rule:nonzero}
    .fil45 {fill:#3A4A4F;fill-rule:nonzero}
    .fil53 {fill:#3D5A63;fill-rule:nonzero}
    .fil61 {fill:#3B535B;fill-rule:nonzero}
    .fil40 {fill:#39545B;fill-rule:nonzero}
    .fil48 {fill:#384E55;fill-rule:nonzero}
    .fil51 {fill:#326166;fill-rule:nonzero}
    .fil26 {fill:#00B3A9;fill-rule:nonzero}
    .fil54 {fill:#1E7C7D;fill-rule:nonzero}
    .fil66 {fill:#2C3C43;fill-rule:nonzero}
    .fil42 {fill:#00B09F;fill-rule:nonzero}
    .fil70 {fill:#009D89;fill-rule:nonzero}
    .fil69 {fill:#007364;fill-rule:nonzero}
    .fil24 {fill:black;fill-rule:nonzero}
    .fil35 {fill:#074669;fill-rule:nonzero}
    .fil37 {fill:#0A6092;fill-rule:nonzero}
    .fil41 {fill:#0B9AC2;fill-rule:nonzero}
    .fil73 {fill:#1A1A1A;fill-rule:nonzero}
    .fil34 {fill:#333333;fill-rule:nonzero}
    .fil25 {fill:#333333;fill-rule:nonzero}
    .fil23 {fill:#4D4D4D;fill-rule:nonzero}
    .fil38 {fill:#791D1F;fill-rule:nonzero}
    .fil22 {fill:#B3B3B3;fill-rule:nonzero}
    .fil65 {fill:#B3B3B3;fill-rule:nonzero}
    .fil75 {fill:white;fill-rule:nonzero}
    .fil17 {fill:url(#id0)}
    .fil4 {fill:url(#id1)}
    .fil16 {fill:url(#id2)}
    .fil14 {fill:url(#id3)}
    .fil15 {fill:url(#id4)}
    .fil3 {fill:url(#id5)}
    .fil21 {fill:url(#id6)}
    .fil2 {fill:url(#id7)}
    .fil1 {fill:url(#id8)}
    .fil13 {fill:url(#id9)}
    .fil12 {fill:url(#id10)}
    .fil20 {fill:url(#id11)}
    .fil6 {fill:url(#id12)}
    .fil11 {fill:url(#id13)}
    .fil19 {fill:url(#id14)}
    .fil10 {fill:url(#id15)}
    .fil18 {fill:url(#id16)}
    .fil8 {fill:url(#id17)}
    .fil9 {fill:url(#id18)}
    .fil5 {fill:url(#id19)}
    .fil7 {fill:url(#id20)}
   ]]>
  </style>
  <radialGradient id="id0" gradientUnits="userSpaceOnUse" gradientTransform="matrix(1.63898 0.0366853 -0.0246448 1.10076 -130 -24)" cx="209.51" cy="159.83" r="218.24" fx="209.51" fy="159.83">
   <stop offset="0" style="stop-opacity:1; stop-color:#283A4D"/>
   <stop offset="0.568627" style="stop-opacity:1; stop-color:#3A5671"/>
   <stop offset="1" style="stop-opacity:1; stop-color:#547EA4"/>
  </radialGradient>
  <radialGradient id="id1" gradientUnits="userSpaceOnUse" gradientTransform="matrix(1.63898 0.0366853 -0.0246448 1.10076 -130 -25)" cx="209.51" cy="170.67" r="218.24" fx="209.51" fy="170.67">
   <stop offset="0" style="stop-opacity:1; stop-color:#1D2C39"/>
   <stop offset="0.568627" style="stop-opacity:1; stop-color:#213242"/>
   <stop offset="1" style="stop-opacity:1; stop-color:#283B4E"/>
  </radialGradient>
  <radialGradient id="id2" gradientUnits="userSpaceOnUse" gradientTransform="matrix(1.63898 0.0366853 -0.0246448 1.10076 -130 -24)" cx="209.51" cy="160.67" r="218.24" fx="209.51" fy="160.67">
   <stop offset="0" style="stop-opacity:1; stop-color:#27394B"/>
   <stop offset="0.568627" style="stop-opacity:1; stop-color:#38536E"/>
   <stop offset="1" style="stop-opacity:1; stop-color:#51799E"/>
  </radialGradient>
  <radialGradient id="id3" gradientUnits="userSpaceOnUse" gradientTransform="matrix(1.63898 0.0366853 -0.024645 1.10077 -130 -24)" cx="209.51" cy="162.33" r="218.24" fx="209.51" fy="162.33">
   <stop offset="0" style="stop-opacity:1; stop-color:#253748"/>
   <stop offset="0.568627" style="stop-opacity:1; stop-color:#344E66"/>
   <stop offset="1" style="stop-opacity:1; stop-color:#4A6E90"/>
  </radialGradient>
  <radialGradient id="id4" gradientUnits="userSpaceOnUse" gradientTransform="matrix(1.63898 0.0366853 -0.024645 1.10077 -130 -24)" cx="209.51" cy="161.5" r="218.24" fx="209.51" fy="161.5">
   <stop offset="0" style="stop-opacity:1; stop-color:#26384A"/>
   <stop offset="0.568627" style="stop-opacity:1; stop-color:#36506A"/>
   <stop offset="1" style="stop-opacity:1; stop-color:#4D7397"/>
  </radialGradient>
  <radialGradient id="id5" gradientUnits="userSpaceOnUse" gradientTransform="matrix(1.63898 0.0366853 -0.0246448 1.10076 -130 -25)" cx="209.51" cy="171.5" r="218.24" fx="209.51" fy="171.5">
   <stop offset="0" style="stop-opacity:1; stop-color:#1C2A38"/>
   <stop offset="0.568627" style="stop-opacity:1; stop-color:#202F3E"/>
   <stop offset="1" style="stop-opacity:1; stop-color:#243647"/>
  </radialGradient>
  <radialGradient id="id6" gradientUnits="userSpaceOnUse" gradientTransform="matrix(1.63898 0.0525099 -0.0246449 1.57559 -130 -101)" cx="209.51" cy="156.5" r="332.92" fx="209.51" fy="156.5">
   <stop offset="0" style="stop-opacity:1; stop-color:#2B3F53"/>
   <stop offset="0.568627" style="stop-opacity:1; stop-color:#416180"/>
   <stop offset="1" style="stop-opacity:1; stop-color:#6292BF"/>
  </radialGradient>
  <radialGradient id="id7" gradientUnits="userSpaceOnUse" gradientTransform="matrix(1.63898 0.0366853 -0.0246448 1.10076 -130 -25)" cx="209.51" cy="172.33" r="218.24" fx="209.51" fy="172.33">
   <stop offset="0" style="stop-opacity:1; stop-color:#1C2936"/>
   <stop offset="0.568627" style="stop-opacity:1; stop-color:#1E2D3A"/>
   <stop offset="1" style="stop-opacity:1; stop-color:#213140"/>
  </radialGradient>
  <radialGradient id="id8" gradientUnits="userSpaceOnUse" gradientTransform="matrix(1.63898 0.0366853 -0.0246448 1.10076 -130 -25)" cx="209.51" cy="173.17" r="218.24" fx="209.51" fy="173.17">
   <stop offset="0" style="stop-opacity:1; stop-color:#1B2835"/>
   <stop offset="0.568627" style="stop-opacity:1; stop-color:#1C2A37"/>
   <stop offset="1" style="stop-opacity:1; stop-color:#1D2C3A"/>
  </radialGradient>
  <radialGradient id="id9" gradientUnits="userSpaceOnUse" gradientTransform="matrix(1.63898 0.0366853 -0.0246448 1.10076 -130 -24)" cx="209.51" cy="163.17" r="218.24" fx="209.51" fy="163.17">
   <stop offset="0" style="stop-opacity:1; stop-color:#253647"/>
   <stop offset="0.568627" style="stop-opacity:1; stop-color:#324B63"/>
   <stop offset="1" style="stop-opacity:1; stop-color:#47698A"/>
  </radialGradient>
  <radialGradient id="id10" gradientUnits="userSpaceOnUse" gradientTransform="matrix(1.63898 0.0366853 -0.0246448 1.10076 -130 -24)" cx="209.51" cy="164" r="218.24" fx="209.51" fy="164">
   <stop offset="0" style="stop-opacity:1; stop-color:#243545"/>
   <stop offset="0.568627" style="stop-opacity:1; stop-color:#30485F"/>
   <stop offset="1" style="stop-opacity:1; stop-color:#436483"/>
  </radialGradient>
  <radialGradient id="id11" gradientUnits="userSpaceOnUse" gradientTransform="matrix(1.63898 0.0366853 -0.0246448 1.10076 -130 -24)" cx="209.51" cy="157.33" r="218.24" fx="209.51" fy="157.33">
   <stop offset="0" style="stop-opacity:1; stop-color:#2A3E51"/>
   <stop offset="0.568627" style="stop-opacity:1; stop-color:#3F5E7C"/>
   <stop offset="1" style="stop-opacity:1; stop-color:#5F8DB8"/>
  </radialGradient>
  <radialGradient id="id12" gradientUnits="userSpaceOnUse" gradientTransform="matrix(1.63898 0.0366853 -0.024645 1.10077 -130 -25)" cx="209.51" cy="169" r="218.24" fx="209.51" fy="169">
   <stop offset="0" style="stop-opacity:1; stop-color:#1F2E3C"/>
   <stop offset="0.568627" style="stop-opacity:1; stop-color:#253849"/>
   <stop offset="1" style="stop-opacity:1; stop-color:#2F465B"/>
  </radialGradient>
  <radialGradient id="id13" gradientUnits="userSpaceOnUse" gradientTransform="matrix(1.63898 0.0366853 -0.0246448 1.10076 -130 -24)" cx="209.51" cy="164.83" r="218.24" fx="209.51" fy="164.83">
   <stop offset="0" style="stop-opacity:1; stop-color:#233444"/>
   <stop offset="0.568627" style="stop-opacity:1; stop-color:#2E455B"/>
   <stop offset="1" style="stop-opacity:1; stop-color:#405F7C"/>
  </radialGradient>
  <radialGradient id="id14" gradientUnits="userSpaceOnUse" gradientTransform="matrix(1.63898 0.0366853 -0.0246448 1.10076 -130 -24)" cx="209.51" cy="158.17" r="218.24" fx="209.51" fy="158.17">
   <stop offset="0" style="stop-opacity:1; stop-color:#293D50"/>
   <stop offset="0.568627" style="stop-opacity:1; stop-color:#3D5B79"/>
   <stop offset="1" style="stop-opacity:1; stop-color:#5B88B2"/>
  </radialGradient>
  <radialGradient id="id15" gradientUnits="userSpaceOnUse" gradientTransform="matrix(1.63898 0.0366853 -0.0246448 1.10076 -130 -24)" cx="209.51" cy="165.67" r="218.24" fx="209.51" fy="165.67">
   <stop offset="0" style="stop-opacity:1; stop-color:#223242"/>
   <stop offset="0.568627" style="stop-opacity:1; stop-color:#2D4358"/>
   <stop offset="1" style="stop-opacity:1; stop-color:#3C5A76"/>
  </radialGradient>
  <radialGradient id="id16" gradientUnits="userSpaceOnUse" gradientTransform="matrix(1.63898 0.0366853 -0.0246448 1.10076 -130 -24)" cx="209.51" cy="159" r="218.24" fx="209.51" fy="159">
   <stop offset="0" style="stop-opacity:1; stop-color:#293C4E"/>
   <stop offset="0.568627" style="stop-opacity:1; stop-color:#3B5975"/>
   <stop offset="1" style="stop-opacity:1; stop-color:#5883AB"/>
  </radialGradient>
  <radialGradient id="id17" gradientUnits="userSpaceOnUse" gradientTransform="matrix(1.63898 0.0366853 -0.0246448 1.10076 -130 -25)" cx="209.51" cy="167.33" r="218.24" fx="209.51" fy="167.33">
   <stop offset="0" style="stop-opacity:1; stop-color:#20303F"/>
   <stop offset="0.568627" style="stop-opacity:1; stop-color:#293D50"/>
   <stop offset="1" style="stop-opacity:1; stop-color:#355068"/>
  </radialGradient>
  <radialGradient id="id18" gradientUnits="userSpaceOnUse" gradientTransform="matrix(1.63898 0.0366853 -0.0246448 1.10076 -130 -24)" cx="209.51" cy="166.5" r="218.24" fx="209.51" fy="166.5">
   <stop offset="0" style="stop-opacity:1; stop-color:#213141"/>
   <stop offset="0.568627" style="stop-opacity:1; stop-color:#2B4054"/>
   <stop offset="1" style="stop-opacity:1; stop-color:#39556F"/>
  </radialGradient>
  <radialGradient id="id19" gradientUnits="userSpaceOnUse" gradientTransform="matrix(1.63898 0.0366853 -0.024645 1.10077 -130 -25)" cx="209.51" cy="169.83" r="218.24" fx="209.51" fy="169.83">
   <stop offset="0" style="stop-opacity:1; stop-color:#1E2D3B"/>
   <stop offset="0.568627" style="stop-opacity:1; stop-color:#233545"/>
   <stop offset="1" style="stop-opacity:1; stop-color:#2B4054"/>
  </radialGradient>
  <radialGradient id="id20" gradientUnits="userSpaceOnUse" gradientTransform="matrix(1.63898 0.0366853 -0.0246448 1.10076 -130 -25)" cx="209.51" cy="168.17" r="218.24" fx="209.51" fy="168.17">
   <stop offset="0" style="stop-opacity:1; stop-color:#202F3E"/>
   <stop offset="0.568627" style="stop-opacity:1; stop-color:#273A4D"/>
   <stop offset="1" style="stop-opacity:1; stop-color:#324B62"/>
  </radialGradient>
 </defs>
 <g id="Camada_x0020_1">
  <metadata id="CorelCorpID_0Corel-Layer"/>
  <ellipse class="fil0" cx="218.24" cy="200.03" rx="218.24" ry="76.56"/>
  <g id="_2382258558352">
   <path class="fil1" d="M218.24 122.63c120.53,0 218.24,34.28 218.24,76.57 0,42.28 -97.71,76.56 -218.24,76.56 -120.53,0 -218.24,-34.28 -218.24,-76.56 0,-42.29 97.71,-76.57 218.24,-76.57z"/>
   <path class="fil2" d="M218.24 121.8c120.53,0 218.24,34.28 218.24,76.57 0,42.28 -97.71,76.56 -218.24,76.56 -120.53,0 -218.24,-34.28 -218.24,-76.56 0,-42.29 97.71,-76.57 218.24,-76.57z"/>
   <path class="fil3" d="M218.24 120.97c120.53,0 218.24,34.28 218.24,76.56 0,42.29 -97.71,76.57 -218.24,76.57 -120.53,0 -218.24,-34.28 -218.24,-76.57 0,-42.28 97.71,-76.56 218.24,-76.56z"/>
   <path class="fil4" d="M218.24 120.13c120.53,0 218.24,34.28 218.24,76.57 0,42.28 -97.71,76.56 -218.24,76.56 -120.53,0 -218.24,-34.28 -218.24,-76.56 0,-42.29 97.71,-76.57 218.24,-76.57z"/>
   <path class="fil5" d="M218.24 119.3c120.53,0 218.24,34.28 218.24,76.57 0,42.28 -97.71,76.56 -218.24,76.56 -120.53,0 -218.24,-34.28 -218.24,-76.56 0,-42.29 97.71,-76.57 218.24,-76.57z"/>
   <path class="fil6" d="M218.24 118.47c120.53,0 218.24,34.28 218.24,76.56 0,42.29 -97.71,76.57 -218.24,76.57 -120.53,0 -218.24,-34.28 -218.24,-76.57 0,-42.28 97.71,-76.56 218.24,-76.56z"/>
   <path class="fil7" d="M218.24 117.63c120.53,0 218.24,34.28 218.24,76.57 0,42.28 -97.71,76.56 -218.24,76.56 -120.53,0 -218.24,-34.28 -218.24,-76.56 0,-42.29 97.71,-76.57 218.24,-76.57z"/>
   <path class="fil8" d="M218.24 116.8c120.53,0 218.24,34.28 218.24,76.57 0,42.28 -97.71,76.56 -218.24,76.56 -120.53,0 -218.24,-34.28 -218.24,-76.56 0,-42.29 97.71,-76.57 218.24,-76.57z"/>
   <path class="fil9" d="M218.24 115.97c120.53,0 218.24,34.28 218.24,76.56 0,42.29 -97.71,76.57 -218.24,76.57 -120.53,0 -218.24,-34.28 -218.24,-76.57 0,-42.28 97.71,-76.56 218.24,-76.56z"/>
   <path class="fil10" d="M218.24 115.13c120.53,0 218.24,34.28 218.24,76.57 0,42.28 -97.71,76.56 -218.24,76.56 -120.53,0 -218.24,-34.28 -218.24,-76.56 0,-42.29 97.71,-76.57 218.24,-76.57z"/>
   <path class="fil11" d="M218.24 114.3c120.53,0 218.24,34.28 218.24,76.57 0,42.28 -97.71,76.56 -218.24,76.56 -120.53,0 -218.24,-34.28 -218.24,-76.56 0,-42.29 97.71,-76.57 218.24,-76.57z"/>
   <path class="fil12" d="M218.24 113.47c120.53,0 218.24,34.28 218.24,76.56 0,42.29 -97.71,76.57 -218.24,76.57 -120.53,0 -218.24,-34.28 -218.24,-76.57 0,-42.28 97.71,-76.56 218.24,-76.56z"/>
   <path class="fil13" d="M218.24 112.63c120.53,0 218.24,34.28 218.24,76.57 0,42.28 -97.71,76.56 -218.24,76.56 -120.53,0 -218.24,-34.28 -218.24,-76.56 0,-42.29 97.71,-76.57 218.24,-76.57z"/>
   <path class="fil14" d="M218.24 111.8c120.53,0 218.24,34.28 218.24,76.57 0,42.28 -97.71,76.56 -218.24,76.56 -120.53,0 -218.24,-34.28 -218.24,-76.56 0,-42.29 97.71,-76.57 218.24,-76.57z"/>
   <path class="fil15" d="M218.24 110.97c120.53,0 218.24,34.28 218.24,76.56 0,42.29 -97.71,76.57 -218.24,76.57 -120.53,0 -218.24,-34.28 -218.24,-76.57 0,-42.28 97.71,-76.56 218.24,-76.56z"/>
   <path class="fil16" d="M218.24 110.13c120.53,0 218.24,34.28 218.24,76.57 0,42.28 -97.71,76.56 -218.24,76.56 -120.53,0 -218.24,-34.28 -218.24,-76.56 0,-42.29 97.71,-76.57 218.24,-76.57z"/>
   <path class="fil17" d="M218.24 109.3c120.53,0 218.24,34.28 218.24,76.57 0,42.28 -97.71,76.56 -218.24,76.56 -120.53,0 -218.24,-34.28 -218.24,-76.56 0,-42.29 97.71,-76.57 218.24,-76.57z"/>
   <path class="fil18" d="M218.24 108.47c120.53,0 218.24,34.28 218.24,76.56 0,42.29 -97.71,76.57 -218.24,76.57 -120.53,0 -218.24,-34.28 -218.24,-76.57 0,-42.28 97.71,-76.56 218.24,-76.56z"/>
   <path class="fil19" d="M218.24 107.63c120.53,0 218.24,34.28 218.24,76.57 0,42.28 -97.71,76.56 -218.24,76.56 -120.53,0 -218.24,-34.28 -218.24,-76.56 0,-42.29 97.71,-76.57 218.24,-76.57z"/>
   <path class="fil20" d="M218.24 106.8c120.53,0 218.24,34.28 218.24,76.57 0,42.28 -97.71,76.56 -218.24,76.56 -120.53,0 -218.24,-34.28 -218.24,-76.56 0,-42.29 97.71,-76.57 218.24,-76.57z"/>
  </g>
  <ellipse class="fil21" cx="218.24" cy="182.53" rx="218.24" ry="76.56"/>
  <g id="_2382258552736">
   <path class="fil22" d="M237.65 215.28c0.54,0 1.08,-0.11 1.49,-0.35l77.08 -45.3 -28.62 -16.76 -78.11 44.9c-0.82,0.47 -0.82,1.24 0,1.72l26.66 15.44c0.41,0.23 0.96,0.35 1.5,0.35z"/>
   <path class="fil23" d="M316.28 165.06c0,-0.31 -0.21,-0.63 -0.62,-0.86l-25.04 -14.46c-0.83,-0.48 -2.17,-0.48 -2.99,0l-76.42 44.19c-0.41,0.24 -0.62,0.55 -0.62,0.86 0,0.32 0,2.32 0,2.63 0,0.31 0.21,0.63 0.62,0.86l25.03 14.46c0.83,0.47 2.17,0.47 2.99,0l76.43 -44.13c0.41,-0.23 0.62,-0.54 0.62,-0.85 0,-0.32 0,-2.39 0,-2.7z"/>
   <path class="fil24" d="M236.24 210.05l-25.03 -14.39c-0.82,-0.48 -0.82,-1.25 0,-1.73l76.42 -44.19c0.82,-0.48 2.16,-0.48 2.99,0l25.04 14.46c0.82,0.47 0.82,1.24 0,1.72l-76.43 44.12c-0.82,0.48 -2.16,0.48 -2.99,0.01z"/>
   <path class="fil25" d="M237.64 210.4l0 2.69c-0.5,-0.01 -1.01,-0.13 -1.4,-0.35l-25.02 -14.45c-0.42,-0.25 -0.62,-0.56 -0.62,-0.87l0 -2.63c0,0.31 0.2,0.62 0.62,0.86l25.02 14.4c0.39,0.22 0.9,0.34 1.4,0.35z"/>
   <path class="fil26" d="M218.68 194.41l-0.01 -0.03 -1.06 -0.62 -2.1 1.21 1.08 0.66 2.09 -1.2 0 -0.02zm3.44 -1.98l-0.02 -0.03 -1.06 -0.62 -2.09 1.21 1.07 0.66 2.09 -1.2 0.01 -0.02zm2.27 5.28l-0.02 -0.04 -2.48 -1.43 -2.1 1.21 2.5 1.48 2.09 -1.21 0.01 -0.01zm1.16 -7.26l-0.02 -0.04 -1.05 -0.62 -2.1 1.22 1.08 0.66 2.08 -1.2 0.01 -0.02zm2.27 5.27l-0.02 -0.03 -2.47 -1.43 -2.1 1.21 2.49 1.48 2.1 -1.21 0 -0.02zm1.16 -7.25l-0.02 -0.04 -1.05 -0.62 -2.1 1.21 1.08 0.67 2.09 -1.21 0 -0.01zm2.27 5.27l-0.01 -0.03 -2.48 -1.43 -2.1 1.21 2.5 1.48 2.09 -1.21 0 -0.02zm0.45 4.22l-0.02 -0.03 -2.47 -1.43 -2.1 1.21 2.49 1.48 2.1 -1.21 0 -0.02zm0.45 4.23l-0.02 -0.04 -6.36 -3.67 -2.1 1.21 6.38 3.72 2.09 -1.21 0.01 -0.01zm1.98 -15.55l-0.01 -0.03 -2.48 -1.43 -2.1 1.21 2.5 1.48 2.09 -1.21 0 -0.02zm0.56 5.12l-0.02 -0.03 -2.48 -1.43 -2.1 1.21 2.5 1.48 2.09 -1.21 0.01 -0.02zm0.45 4.22l-0.02 -0.03 -2.48 -1.43 -2.1 1.21 2.5 1.48 2.09 -1.21 0.01 -0.02zm0.44 4.22l-0.02 -0.03 -2.48 -1.43 -2.09 1.21 2.49 1.48 2.1 -1.21 0 -0.02zm1.99 -15.54l-0.02 -0.03 -2.48 -1.43 -2.1 1.21 2.5 1.48 2.09 -1.21 0.01 -0.02zm1 9.34l-0.02 -0.03 -2.48 -1.43 -2.1 1.21 2.5 1.48 2.09 -1.21 0.01 -0.02zm0.27 -4.64l-0.02 -0.03 -2.47 -1.43 -2.1 1.21 2.49 1.48 2.1 -1.21 0 -0.02zm0.17 8.86l-0.01 -0.03 -2.48 -1.43 -2.1 1.21 2.5 1.48 2.09 -1.21 0 -0.02zm0.45 4.22l-0.02 -0.03 -2.47 -1.43 -2.1 1.21 2.49 1.48 2.1 -1.21 0 -0.02zm0.45 4.23l-0.02 -0.04 -6.36 -3.67 -2.1 1.21 6.38 3.72 2.09 -1.21 0.01 -0.01zm1.09 -23.99l-0.02 -0.03 -2.48 -1.44 -2.09 1.22 2.49 1.47 2.09 -1.2 0.01 -0.02zm1.28 4.7l-0.02 -0.03 -2.48 -1.43 -2.1 1.21 2.5 1.48 2.09 -1.21 0.01 -0.02zm0.17 8.86l-0.02 -0.03 -2.48 -1.43 -2.1 1.21 2.5 1.48 2.09 -1.21 0.01 -0.02zm0.27 -4.64l-0.01 -0.03 -2.48 -1.43 -2.1 1.21 2.49 1.48 2.1 -1.21 0 -0.02zm0.17 8.86l-0.01 -0.03 -2.48 -1.43 -2.1 1.21 2.5 1.48 2.09 -1.21 0 -0.02zm0.45 4.22l-0.02 -0.03 -2.47 -1.43 -2.1 1.21 2.49 1.48 2.1 -1.21 0 -0.02zm1.85 -24.42l-0.02 -0.04 -2.47 -1.43 -2.1 1.21 2.49 1.49 2.1 -1.21 0 -0.02zm0.52 5.14l-0.02 -0.04 -2.48 -1.43 -2.1 1.21 2.5 1.48 2.09 -1.21 0.01 -0.01zm0.45 4.22l-0.02 -0.03 -2.48 -1.43 -2.1 1.21 2.5 1.48 2.09 -1.21 0.01 -0.02zm0.17 8.86l-0.02 -0.03 -2.48 -1.43 -2.1 1.21 2.5 1.48 2.09 -1.21 0.01 -0.02zm2.29 -20.2l-0.01 -0.04 -2.48 -1.43 -2.1 1.21 2.5 1.48 2.09 -1.21 0 -0.01zm0.97 9.36l-0.02 -0.04 -2.48 -1.43 -2.1 1.21 2.5 1.48 2.1 -1.21 0 -0.01zm0.62 13.08l-0.02 -0.03 -2.48 -1.43 -5.53 3.19 2.5 1.48 5.52 -3.19 0.01 -0.02zm1.28 -18.66l-0.02 -0.03 -2.47 -1.43 -3.73 2.15 2.5 1.48 3.72 -2.15 0 -0.02zm0.57 -5.77l-0.02 -0.03 -2.48 -1.43 -2.09 1.21 2.49 1.48 2.09 -1.21 0.01 -0.02zm1.86 17.81l-0.02 -0.03 -2.48 -1.43 -2.1 1.21 2.5 1.48 2.09 -1.21 0.01 -0.02zm0.44 4.22l-0.02 -0.03 -2.47 -1.43 -2.1 1.21 2.5 1.48 2.09 -1.21 0 -0.02zm0.56 -18.25l-0.01 -0.03 -2.48 -1.43 -2.1 1.21 2.5 1.48 2.09 -1.21 0 -0.02zm0.57 -5.76l-0.02 -0.03 -2.48 -1.43 -2.09 1.21 2.49 1.48 2.1 -1.21 0 -0.02zm2.05 8.74l-0.02 -0.04 -2.48 -1.43 -2.09 1.21 2.49 1.48 2.09 -1.21 0.01 -0.01zm0.25 13.29l-0.01 -0.03 -2.48 -1.43 -2.1 1.21 2.5 1.48 2.09 -1.21 0 -0.02zm0.57 -18.25l-0.02 -0.03 -2.48 -1.43 -2.1 1.21 2.5 1.48 2.09 -1.21 0.01 -0.02zm2.06 -6.62l-0.02 -0.04 -2.48 -1.43 -2.1 1.22 2.5 1.47 2.09 -1.21 0.01 -0.01zm0.1 14.34l-0.02 -0.03 -2.48 -1.44 -1.92 1.11c-0.13,0.08 -0.36,0.13 -0.6,0.13 -0.26,0 -0.49,-0.05 -0.64,-0.14l-3.25 -1.88 -2.46 1.42 6.37 3.73 4.99 -2.88 0.01 -0.02zm0.45 -4.75l-0.01 -0.03 -2.48 -1.43 -2.1 1.21 2.49 1.48 2.1 -1.21 0 -0.02zm0.26 13.3l-0.02 -0.03 -2.48 -1.44 -2.09 1.22 2.49 1.47 2.09 -1.2 0.01 -0.02zm0.56 -18.25l-0.02 -0.03 -2.48 -1.43 -2.09 1.21 2.49 1.48 2.09 -1.21 0.01 -0.02zm2.06 -6.62l-0.02 -0.04 -2.47 -1.43 -2.1 1.21 2.49 1.48 2.1 -1.21 0 -0.01zm0.1 14.34l-0.02 -0.04 -2.48 -1.43 -2.09 1.21 2.49 1.48 2.09 -1.21 0.01 -0.01zm0.46 -4.75l-0.02 -0.03 -2.48 -1.43 -2.1 1.21 2.5 1.48 2.09 -1.21 0.01 -0.02zm0.81 -4.95l-0.01 -0.03 -2.48 -1.43 -2.1 1.21 2.5 1.48 2.09 -1.21 0 -0.02zm0.8 12.98l-0.02 -0.03 -2.47 -1.43 -6.62 3.82 2.5 1.48 6.61 -3.82 0 -0.02zm0.63 4.12l-0.02 -0.03 -2.48 -1.44 -3.36 1.95 2.5 1.47 3.36 -1.93 0 -0.02zm0.63 -23.73l-0.01 -0.03 -2.48 -1.43 -2.1 1.21 2.49 1.48 2.1 -1.21 0 -0.02zm0.1 14.34l-0.01 -0.03 -2.49 -1.43 -2.09 1.21 2.49 1.48 2.1 -1.21 0 -0.02zm0.46 -4.74l-0.02 -0.03 -2.48 -1.43 -2.1 1.21 2.5 1.48 2.09 -1.21 0.01 -0.02zm0.82 -4.95l-0.02 -0.04 -2.48 -1.42 -2.1 1.2 2.5 1.49 2.09 -1.21 0.01 -0.02zm0.8 12.98l-0.02 -0.03 -2.48 -1.44 -2.1 1.22 2.5 1.47 2.09 -1.2 0.01 -0.02zm1.16 3.8l-0.01 -0.03 -2.48 -1.43 -2.64 1.52 2.49 1.48 2.64 -1.52 0 -0.02zm0.1 -23.41l-0.02 -0.03 -2.48 -1.43 -2.1 1.21 2.5 1.48 2.09 -1.21 0.01 -0.02zm0.1 14.34l-0.02 -0.03 -2.48 -1.43 -2.1 1.21 2.5 1.48 2.09 -1.21 0.01 -0.02zm0.45 -4.74l-0.02 -0.03 -2.47 -1.44 -2.1 1.22 2.49 1.48 2.1 -1.21 0 -0.02zm0.82 -4.95l-0.02 -0.04 -2.48 -1.43 -2.09 1.21 2.49 1.48 2.09 -1.21 0.01 -0.01zm0.8 12.98l-0.02 -0.04 -2.48 -1.43 -2.1 1.21 2.5 1.48 2.09 -1.21 0.01 -0.01zm1.36 -5.27l-0.02 -0.03 -2.48 -1.43 -2.1 1.21 2.5 1.48 2.09 -1.21 0.01 -0.02zm0.35 8.76l-0.02 -0.04 -2.48 -1.43 -2.64 1.53 2.5 1.48 2.64 -1.52 0 -0.02zm0.11 -13.5l-0.02 -0.04 -2.48 -1.43 -2.1 1.21 2.5 1.48 2.09 -1.21 0.01 -0.01zm0.81 -4.96l-0.02 -0.03 -2.47 -1.43 -2.1 1.21 2.49 1.48 2.1 -1.21 0 -0.02zm0.12 -5.5l-0.01 -0.04 -2.48 -1.43 -2.1 1.21 2.49 1.48 2.1 -1.21 0 -0.01zm0.68 18.48l-0.02 -0.03 -2.48 -1.43 -2.09 1.21 2.49 1.48 2.1 -1.21 0 -0.02zm1.36 -5.26l-0.01 -0.03 -2.49 -1.44 -2.09 1.22 2.49 1.48 2.1 -1.21 0 -0.02zm0.46 -4.75l-0.02 -0.03 -2.48 -1.43 -2.1 1.21 2.5 1.48 2.09 -1.21 0.01 -0.02zm0.43 13.19l-0.01 -0.03 -2.48 -1.43 -2.64 1.52 2.5 1.48 2.63 -1.52 0 -0.02zm0.38 -18.14l-0.01 -0.03 -2.48 -1.43 -2.1 1.21 2.5 1.48 2.09 -1.21 0 -0.02zm0.13 -5.51l-0.02 -0.03 -2.48 -1.43 -2.1 1.21 2.5 1.48 2.09 -1.21 0.01 -0.02zm0.67 18.49l-0.01 -0.03 -2.48 -1.43 -2.1 1.21 2.49 1.48 2.1 -1.21 0 -0.02zm1.37 -5.26l-0.02 -0.04 -2.48 -1.43 -2.1 1.21 2.5 1.48 2.09 -1.21 0.01 -0.01zm0.45 -4.75l-0.02 -0.03 -2.48 -1.43 -2.09 1.21 2.49 1.48 2.1 -1.21 0 -0.02zm0.82 -4.95l-0.02 -0.03 -2.48 -1.43 -2.1 1.21 2.5 1.48 2.09 -1.21 0.01 -0.02zm0.12 -5.51l-0.02 -0.03 -2.48 -1.43 -2.1 1.21 2.5 1.48 2.1 -1.21 0 -0.02zm0.68 18.49l-0.02 -0.03 -2.48 -1.43 -2.1 1.21 2.5 1.48 2.09 -1.21 0.01 -0.02zm1.36 -5.27l-0.02 -0.03 -2.48 -1.43 -2.1 1.21 2.5 1.48 2.09 -1.21 0.01 -0.02zm0.45 -4.74l-0.01 -0.03 -2.48 -1.43 -2.1 1.21 2.5 1.48 2.09 -1.21 0 -0.02zm0.82 -4.95l-0.02 -0.04 -2.48 -1.43 -2.09 1.22 2.49 1.47 2.1 -1.2 0 -0.02zm0.12 -5.51l-0.01 -0.03 -2.48 -1.43 -2.1 1.21 2.49 1.48 2.1 -1.21 0 -0.02zm0.68 18.49l-0.02 -0.04 -2.48 -1.43 -2.09 1.21 2.49 1.48 2.1 -1.2 0 -0.02zm1.36 -5.27l-0.02 -0.03 -2.48 -1.43 -2.09 1.21 2.49 1.48 2.1 -1.21 0 -0.02zm0.46 -4.74l-0.02 -0.03 -2.48 -1.44 -2.1 1.22 2.5 1.48 2.09 -1.21 0.01 -0.02zm0.81 -4.95l-0.01 -0.04 -2.48 -1.43 -2.1 1.21 2.49 1.48 2.1 -1.21 0 -0.01zm0.8 12.97l-0.01 -0.03 -2.48 -1.43 -2.1 1.21 2.49 1.48 2.1 -1.21 0 -0.02zm1.36 -19.66l-0.02 -0.03 -2.48 -1.43 -2.63 1.52 2.49 1.48 2.64 -1.52 0 -0.02zm0 14.4l-0.01 -0.03 -2.48 -1.43 -2.1 1.21 2.49 1.48 2.1 -1.21 0 -0.02zm0.46 -4.74l-0.02 -0.04 -2.48 -1.43 -2.1 1.21 2.5 1.48 2.09 -1.21 0.01 -0.01zm0.82 -4.96l-0.02 -0.03 -2.48 -1.43 -2.1 1.21 2.5 1.48 2.09 -1.21 0.01 -0.02zm0.8 12.98l-0.02 -0.03 -2.48 -1.43 -2.1 1.21 2.5 1.48 2.09 -1.21 0.01 -0.02zm1.36 -5.26l-0.02 -0.04 -2.48 -1.43 -2.1 1.22 2.5 1.48 2.09 -1.21 0.01 -0.02zm0.45 -4.75l-0.02 -0.03 -2.47 -1.43 -2.1 1.21 2.49 1.48 2.1 -1.21 0 -0.02zm0.82 -4.95l-0.02 -0.03 -2.48 -1.43 -2.09 1.21 2.49 1.48 2.1 -1.21 0 -0.02zm0.8 12.98l-0.02 -0.03 -2.48 -1.43 -2.09 1.21 2.49 1.48 2.1 -1.21 0 -0.02zm1.36 -5.26l-0.02 -0.04 -2.48 -1.43 -2.09 1.21 2.49 1.48 2.09 -1.21 0.01 -0.01zm0.71 8.54l-0.01 -0.03 -2.48 -1.43 -19.09 11.02 2.5 1.48 19.08 -11.02 0 -0.02zm1.01 -14.02l-0.02 -0.03 -2.48 -1.43 -3.36 1.94 2.5 1.48 3.35 -1.94 0.01 -0.02zm0.35 8.76l-0.02 -0.03 -2.47 -1.43 -2.1 1.21 2.49 1.48 2.1 -1.21 0 -0.02zm2.62 2.97l-0.02 -0.03 -2.48 -1.43 -2.64 1.52 2.5 1.48 2.63 -1.52 0.01 -0.02zm0.82 -4.95l-0.02 -0.04 -2.48 -1.43 -2.1 1.21 2.5 1.48 2.09 -1.21 0.01 -0.01zm0.09 -4.54l-0.02 -0.03 -2.47 -1.43 -4.27 2.46 2.49 1.48 4.27 -2.46 0 -0.02zm3.06 7.19l-0.01 -0.03 -2.48 -1.43 -2.64 1.53 2.49 1.48 2.64 -1.53 0 -0.02zm0.82 -4.95l-0.02 -0.03 -2.47 -1.43 -2.65 1.52 2.5 1.48 2.64 -1.52 0 -0.02zm3.88 2.24l-0.02 -0.03 -2.47 -1.43 -3.37 1.94 2.5 1.48 3.36 -1.94 0 -0.02z"/>
   <path class="fil27" d="M214.29 180.45l16.74 -9.68c1.73,-1 2.59,-2.3 2.59,-3.61 0,-1.31 0.01,-2.33 0.01,-2.33l-15.75 -8.94c-0.92,-0.53 -1.67,-1.82 -1.67,-2.89l0 -20.64 -29.24 16.9 0 20.64c0,1.06 0.74,2.35 1.66,2.89l13.16 7.66c3.45,1.99 9.05,1.99 12.5,0z"/>
   <path class="fil28" d="M193.99 173.56l0 2.31 -5.36 -3.09c-0.92,-0.52 -1.67,-1.81 -1.67,-2.88l0 -20.64 5.58 -3.21c0.11,1.41 0.23,2.87 0.35,4.3l-3.91 2.26 0 16.13c0,1.06 0.75,2.35 1.67,2.88l3.34 1.94z"/>
   <path class="fil29" d="M188.98 168.74c0,1.06 0.75,2.35 1.67,2.88l11.14 6.5c3.45,1.99 9.05,1.99 12.5,0l16.75 -9.68c3.45,-1.99 3.45,-5.22 0,-7.21l-11.15 -6.5c-0.92,-0.53 -1.66,-1.83 -1.66,-2.89l0 -16.13 -29.25 16.9 0 16.13z"/>
   <path class="fil30" d="M223.29 156.69l0 0 -3.4 -1.96c-0.92,-0.53 -1.66,-1.83 -1.66,-2.89l0 -16.13 -29.25 16.9 0 16.13c0,1.06 0.75,2.35 1.67,2.88l3.34 1.93 29.3 -16.86z"/>
   <path class="fil30" d="M233.63 164.83c0,0 0,1.02 0,2.33 0,1.31 -0.87,2.61 -2.59,3.61l-16.75 9.67c-1.65,0.97 -3.8,1.45 -5.96,1.49l0 -2.32c2.16,-0.03 4.31,-0.53 5.96,-1.48l16.75 -9.69c1.72,-0.99 2.59,-2.3 2.59,-3.61z"/>
   <path class="fil25" d="M142.03 191.01c1.08,0.62 2.89,0.58 4.04,-0.08 14.38,-8.3 98.71,-56.99 113.09,-65.29 1.15,-0.66 2.08,-2.28 2.08,-3.61l0 -98.98c0,-1.33 -0.88,-2.91 -1.95,-3.53 -1.08,-0.63 -2.89,-0.59 -4.04,0.07l-113.09 65.29c-1.15,0.67 -2.08,2.28 -2.08,3.61l0 98.98c0,1.33 0.87,2.91 1.95,3.54z"/>
   <path class="fil24" d="M146.07 190.93l113.09 -65.29c1.15,-0.66 2.08,-2.28 2.08,-3.61l0 -98.98c0,-1.33 -0.93,-1.87 -2.08,-1.21l-113.09 65.29c-1.15,0.67 -2.08,2.28 -2.08,3.61l0 98.99c0,1.32 0.93,1.86 2.08,1.2z"/>
   <path class="fil28" d="M145.76 191.34c-1.15,0.51 -2.75,0.49 -3.73,-0.08 -1.08,-0.62 -1.95,-2.2 -1.95,-3.54l0 -11.13 3.9 2.26 0 11.13c0,1.22 0.77,1.77 1.78,1.36z"/>
   <path class="fil31" d="M143.99 178.85l0 11.13c0,1.33 0.93,1.87 2.08,1.2l113.09 -65.28c1.15,-0.67 2.08,-2.28 2.08,-3.61l0 -11.13 -117.25 67.69z"/>
   <path class="fil26" d="M147.89 170.38l0 -78.34c0,-0.8 0.56,-1.77 1.25,-2.16l106.94 -61.74c0.69,-0.4 1.25,-0.08 1.25,0.72l0 78.34c0,0.8 -0.56,1.77 -1.25,2.17l-106.94 61.73c-0.69,0.4 -1.25,0.08 -1.25,-0.72z"/>
   <path class="fil32" d="M148.59 171.27c0.16,0 0.35,-0.05 0.55,-0.17l106.94 -61.73c0.69,-0.4 1.25,-1.37 1.25,-2.17l0 -78.34c0,-0.57 -0.28,-0.89 -0.69,-0.89 -0.17,0 -0.36,0.05 -0.56,0.17l-13.33 7.69 0 63.03c0,1.28 -0.9,2.82 -2,3.46l-92.86 53.61 0 14.45c0,0.57 0.29,0.89 0.7,0.89z"/>
   <path class="fil33" d="M202.61 149.26c-1.08,0.62 -1.95,2.14 -1.95,3.39 0,1.24 0.87,1.75 1.95,1.12 1.08,-0.62 1.96,-2.14 1.96,-3.38 0,-1.25 -0.88,-1.75 -1.96,-1.13z"/>
   <path class="fil34" d="M144.6 88.68c-0.38,0.66 -0.61,1.4 -0.62,2.06l0 88.11 -3.9 -2.26 0 -88.1c0,-0.66 0.24,-1.41 0.61,-2.06l3.91 2.25z"/>
   <path class="fil33" d="M242.74 2.61l-0.04 -0.18 0 -0.04 -0.05 -0.18 -0.12 -0.25 -0.06 -0.11 -0.06 -0.07 -0.13 -0.13 -0.01 -0.01 -0.17 -0.1c-0.37,-0.17 -0.83,-0.13 -1.35,0.17l-131.97 76.16c-1.1,0.63 -2,2.19 -2,3.46l0 95.51 0.01 0.02 0 0.44c0,0.54 0.3,0.97 0.71,1.19l0.09 0.06 0.1 0.06 0.17 0.06 0.26 0.03c0.2,0.01 0.43,-0.06 0.66,-0.19l0.05 -0.03 0.01 0 1.9 -1.1 130.01 -75.06c1.1,-0.64 2,-2.18 2,-3.46l0 -96 -0.01 -0.25z"/>
   <path class="fil26" d="M242.1 1.54c-0.37,-0.17 -0.83,-0.13 -1.35,0.17l-131.97 76.16c-1.1,0.63 -2,2.19 -2,3.46l0 6.51 -2.54 -1.49 0 -6.47c0,-1.27 0.89,-2.82 1.99,-3.45l131.98 -76.16c0.57,-0.33 1.08,-0.34 1.44,-0.12 0.36,0.22 2.02,1.17 2.45,1.39z"/>
   <path class="fil35" d="M242.74 2.85c0,-1.26 -0.89,-1.77 -1.99,-1.14l-131.97 76.16c-1.1,0.64 -1.99,2.18 -1.99,3.46l0 6.52 135.95 -78.46 0 -6.54z"/>
   <path class="fil31" d="M105.41 77.11c0.25,-0.28 0.52,-0.51 0.82,-0.68l131.98 -76.16c0.3,-0.18 0.59,-0.26 0.85,-0.27 -0.26,0.01 -0.55,0.09 -0.85,0.27l-131.98 76.16c-0.29,0.17 -0.57,0.4 -0.82,0.68zm136.66 -75.59c-0.46,-0.24 -2.06,-1.16 -2.42,-1.37 -0.07,-0.04 -0.15,-0.08 -0.23,-0.1 0.09,0.02 0.16,0.06 0.23,0.1 0.36,0.21 1.95,1.13 2.42,1.37z"/>
   <path class="fil36" d="M107.48 79.17c0.35,-0.54 0.81,-1.01 1.3,-1.3l32.06 -18.5 99.91 -57.66c0.15,-0.09 0.3,-0.15 0.45,-0.2 -0.15,0.05 -0.29,0.11 -0.45,0.2l-131.97 76.16c-0.49,0.29 -0.95,0.75 -1.3,1.3z"/>
   <path class="fil37" d="M107.38 79.34c0.03,-0.05 0.07,-0.11 0.1,-0.17 0.35,-0.55 0.81,-1.01 1.3,-1.3l131.97 -76.16c0.16,-0.09 0.3,-0.15 0.45,-0.2 0.15,-0.05 0.3,-0.07 0.44,-0.07 0.13,0 0.24,0.02 0.35,0.05 0.03,0.01 0.06,0.02 0.08,0.04 0,0 0,-0.01 0,-0.01 -0.47,-0.24 -2.06,-1.16 -2.42,-1.37 -0.07,-0.04 -0.14,-0.08 -0.23,-0.1 -0.1,-0.03 -0.21,-0.05 -0.33,-0.05 -0.01,0 -0.02,0 -0.03,0 -0.26,0.01 -0.55,0.09 -0.85,0.27l-131.98 76.16c-0.3,0.17 -0.57,0.4 -0.82,0.68 -0.21,0.23 -0.4,0.49 -0.57,0.77l0 0 2.54 1.46z"/>
   <path class="fil38" d="M107.38 79.34c0.36,-0.61 0.86,-1.15 1.4,-1.47l32.06 -18.5 -32.06 18.5c-0.49,0.29 -0.95,0.76 -1.3,1.3 -0.03,0.06 -0.07,0.12 -0.1,0.17l0 0zm134.71 -77.81c-0.01,0 -0.01,0 -0.02,0 -0.02,-0.02 -0.05,-0.03 -0.08,-0.04 0.03,0.02 0.06,0.03 0.1,0.04z"/>
   <path class="fil39" d="M106.78 87.84l0 -6.51 0 6.51 -2.54 -1.49 0 -6.47c0,-0.18 0.02,-0.36 0.05,-0.55 -0.04,0.19 -0.05,0.37 -0.05,0.55l0 6.47 2.03 1.2 0.51 0.29z"/>
   <path class="fil40" d="M106.79 87.85l0 0 0 -6.52c0,-0.53 0.15,-1.09 0.4,-1.62 -0.26,0.53 -0.41,1.09 -0.41,1.62l0 6.51 0.01 0.01z"/>
   <path class="fil41" d="M106.78 87.84l0 -6.51c0,-0.53 0.15,-1.09 0.41,-1.62 0.06,-0.13 0.12,-0.24 0.19,-0.36l-2.54 -1.47c-0.27,0.46 -0.46,0.97 -0.55,1.45 -0.03,0.19 -0.05,0.37 -0.05,0.55l0 6.47 2.54 1.49z"/>
   <path class="fil42" d="M106.79 87.85l0 -6.52c0,-0.65 0.22,-1.36 0.59,-1.99l0 0c0,0.01 0,0.01 0,0.01l0 0c-0.07,0.12 -0.13,0.23 -0.19,0.36 -0.25,0.53 -0.4,1.09 -0.4,1.62l0 6.52z"/>
   <path class="fil43" d="M107.38 79.35c0,0 0,-0.01 0,-0.01l-2.54 -1.46 2.54 1.47z"/>
   <path class="fil43" d="M107.38 79.35c0,0 0,0 0,-0.01l0 0c0,0 0,0.01 0,0.01l0 0z"/>
   <path class="fil24" d="M111.28 79.25c-0.62,0.36 -1.12,1.43 -1.12,2.38 0,0.96 0.5,1.45 1.12,1.09 0.62,-0.36 1.13,-1.43 1.13,-2.39 0,-0.96 -0.51,-1.44 -1.13,-1.08z"/>
   <path class="fil24" d="M115.34 76.9c-0.63,0.36 -1.13,1.43 -1.13,2.39 0,0.95 0.5,1.44 1.13,1.08 0.62,-0.36 1.12,-1.43 1.12,-2.38 0,-0.96 -0.5,-1.45 -1.12,-1.09z"/>
   <path class="fil24" d="M119.39 74.56c-0.62,0.36 -1.13,1.42 -1.13,2.38 0,0.96 0.51,1.45 1.13,1.08 0.62,-0.35 1.13,-1.42 1.13,-2.38 0,-0.96 -0.51,-1.44 -1.13,-1.08z"/>
   <polygon class="fil44" points="104.24,121.28 106.78,119.81 106.78,87.84 106.27,87.55 104.24,86.36 104.24,86.35 "/>
   <polygon class="fil45" points="106.27,87.55 104.24,86.35 104.24,86.36 "/>
   <path class="fil26" d="M202.32 43.38l-27.82 16.04c-0.39,0.22 -0.71,0.75 -0.71,1.17 0,0.43 0.32,0.59 0.71,0.36l27.82 -16.03c0.39,-0.23 0.71,-0.75 0.71,-1.18 0,-0.42 -0.32,-0.58 -0.71,-0.36z"/>
   <path class="fil27" d="M191.69 74.08l-10.55 6.06c-0.39,0.23 -0.71,0.75 -0.71,1.18 0,0.42 0.32,0.58 0.71,0.36l10.55 -6.07c0.39,-0.23 0.71,-0.75 0.71,-1.18 0,-0.42 -0.32,-0.58 -0.71,-0.35z"/>
   <path class="fil27" d="M191.69 80.21l-10.55 6.07c-0.39,0.22 -0.71,0.75 -0.71,1.18 0,0.42 0.32,0.58 0.71,0.35l10.55 -6.06c0.39,-0.23 0.71,-0.75 0.71,-1.18 0,-0.42 -0.32,-0.58 -0.71,-0.36z"/>
   <path class="fil26" d="M171.75 61l-55.7 32.08c-0.4,0.23 -0.71,0.76 -0.71,1.18 0,0.42 0.31,0.58 0.71,0.36l55.7 -32.08c0.39,-0.23 0.71,-0.76 0.71,-1.18 0,-0.42 -0.32,-0.58 -0.71,-0.36z"/>
   <path class="fil26" d="M191.46 117.12l-16.96 9.81c-0.39,0.23 -0.71,0.76 -0.71,1.18 0,0.42 0.32,0.58 0.71,0.36l16.96 -9.82c0.39,-0.22 0.71,-0.75 0.71,-1.17 0,-0.43 -0.32,-0.59 -0.71,-0.36z"/>
   <path class="fil26" d="M171.75 128.52l-55.7 32.12c-0.4,0.23 -0.71,0.75 -0.71,1.18 0,0.42 0.31,0.58 0.71,0.36l55.7 -32.13c0.39,-0.22 0.71,-0.75 0.71,-1.17 0,-0.43 -0.32,-0.59 -0.71,-0.36z"/>
   <path class="fil26" d="M202.32 49.54l-14.01 8.05c-0.4,0.22 -0.71,0.75 -0.71,1.17 0,0.43 0.31,0.59 0.71,0.36l14.01 -8.05c0.39,-0.23 0.71,-0.75 0.71,-1.18 0,-0.42 -0.32,-0.58 -0.71,-0.35z"/>
   <path class="fil46" d="M187.97 59.23c0.1,0 0.22,-0.04 0.34,-0.11l14.01 -8.05c0.39,-0.23 0.71,-0.75 0.71,-1.18 0,-0.29 -0.15,-0.46 -0.38,-0.46 -0.1,0 -0.21,0.04 -0.33,0.11l-14.01 8.05c-0.4,0.22 -0.71,0.75 -0.71,1.17 0,0.3 0.15,0.47 0.37,0.47z"/>
   <path class="fil26" d="M202.32 55.66l-6.56 3.78c-0.39,0.23 -0.7,0.76 -0.7,1.18 0,0.42 0.31,0.58 0.7,0.36l6.56 -3.78c0.39,-0.23 0.71,-0.76 0.71,-1.18 0,-0.42 -0.32,-0.58 -0.71,-0.36z"/>
   <path class="fil46" d="M195.43 61.08c0.1,0 0.21,-0.03 0.33,-0.1l6.56 -3.78c0.39,-0.23 0.71,-0.76 0.71,-1.18 0,-0.29 -0.15,-0.46 -0.38,-0.46 -0.1,0 -0.21,0.03 -0.33,0.1l-6.56 3.78c-0.39,0.23 -0.7,0.76 -0.7,1.18 0,0.29 0.15,0.46 0.37,0.46z"/>
   <path class="fil26" d="M202.32 67.94l-6.56 3.78c-0.39,0.23 -0.7,0.75 -0.7,1.18 0,0.42 0.31,0.58 0.7,0.36l6.56 -3.79c0.39,-0.22 0.71,-0.75 0.71,-1.17 0,-0.43 -0.32,-0.59 -0.71,-0.36z"/>
   <path class="fil46" d="M195.43 73.36c0.1,0 0.21,-0.04 0.33,-0.1l6.56 -3.79c0.39,-0.22 0.71,-0.75 0.71,-1.17 0,-0.3 -0.15,-0.46 -0.38,-0.46 -0.1,0 -0.21,0.03 -0.33,0.1l-6.56 3.78c-0.39,0.23 -0.7,0.75 -0.7,1.18 0,0.29 0.15,0.46 0.37,0.46z"/>
   <path class="fil26" d="M202.32 74.08l-6.56 3.78c-0.39,0.22 -0.7,0.75 -0.7,1.17 0,0.43 0.31,0.59 0.7,0.36l6.56 -3.78c0.39,-0.22 0.71,-0.75 0.71,-1.18 0,-0.42 -0.32,-0.58 -0.71,-0.35z"/>
   <path class="fil46" d="M195.43 79.5c0.1,0 0.21,-0.04 0.33,-0.11l6.56 -3.78c0.39,-0.22 0.71,-0.75 0.71,-1.18 0,-0.29 -0.15,-0.45 -0.38,-0.45 -0.1,0 -0.21,0.03 -0.33,0.1l-6.56 3.78c-0.39,0.22 -0.7,0.75 -0.7,1.17 0,0.3 0.15,0.47 0.37,0.47z"/>
   <path class="fil26" d="M185.56 59.17l-8.41 4.87c-0.39,0.23 -0.7,0.75 -0.7,1.18 0,0.42 0.31,0.58 0.7,0.36l8.41 -4.87c0.39,-0.23 0.71,-0.75 0.71,-1.18 0,-0.42 -0.32,-0.58 -0.71,-0.36z"/>
   <path class="fil46" d="M176.82 65.68c0.1,0 0.21,-0.03 0.33,-0.1l8.41 -4.87c0.39,-0.23 0.71,-0.75 0.71,-1.18 0,-0.29 -0.15,-0.46 -0.38,-0.46 -0.1,0 -0.21,0.03 -0.33,0.1l-8.41 4.87c-0.39,0.23 -0.7,0.75 -0.7,1.18 0,0.29 0.15,0.46 0.37,0.46z"/>
   <path class="fil31" d="M172.56 103.55l-56.51 32.54c-0.4,0.22 -0.71,0.75 -0.71,1.17 0,0.43 0.31,0.59 0.71,0.36l56.51 -32.54c0.39,-0.22 0.71,-0.75 0.71,-1.17 0,-0.43 -0.32,-0.59 -0.71,-0.36z"/>
   <path class="fil31" d="M124.45 125.07l-8.4 4.87c-0.4,0.23 -0.71,0.75 -0.71,1.18 0,0.42 0.31,0.58 0.71,0.36l8.4 -4.87c0.39,-0.23 0.71,-0.76 0.71,-1.18 0,-0.42 -0.32,-0.58 -0.71,-0.36z"/>
   <path class="fil31" d="M183.71 90.95l-56.51 32.54c-0.4,0.22 -0.71,0.75 -0.71,1.17 0,0.43 0.31,0.59 0.71,0.36l56.51 -32.54c0.4,-0.22 0.71,-0.75 0.71,-1.17 0,-0.43 -0.31,-0.59 -0.71,-0.36z"/>
   <path class="fil26" d="M191.69 61.8l-14.02 8.05c-0.39,0.23 -0.7,0.76 -0.7,1.18 0,0.42 0.31,0.58 0.7,0.36l14.02 -8.05c0.39,-0.23 0.71,-0.76 0.71,-1.18 0,-0.43 -0.32,-0.58 -0.71,-0.36z"/>
   <path class="fil46" d="M177.34 71.49c0.1,0 0.21,-0.03 0.33,-0.1l14.02 -8.05c0.39,-0.23 0.71,-0.76 0.71,-1.18 0,-0.29 -0.15,-0.46 -0.38,-0.46 -0.1,0 -0.21,0.03 -0.33,0.1l-14.02 8.05c-0.39,0.23 -0.7,0.76 -0.7,1.18 0,0.29 0.15,0.46 0.37,0.46z"/>
   <path class="fil26" d="M174.93 71.44l-58.47 33.82c-0.39,0.23 -0.71,0.75 -0.71,1.18 0,0.42 0.32,0.58 0.71,0.36l58.47 -33.83c0.39,-0.22 0.71,-0.75 0.71,-1.17 0,-0.43 -0.32,-0.59 -0.71,-0.36z"/>
   <path class="fil46" d="M116.13 106.9c0.1,0 0.21,-0.03 0.33,-0.1l58.47 -33.83c0.39,-0.22 0.71,-0.75 0.71,-1.17 0,-0.3 -0.16,-0.46 -0.38,-0.46 -0.1,0 -0.21,0.03 -0.33,0.1l-58.47 33.82c-0.39,0.23 -0.71,0.75 -0.71,1.18 0,0.29 0.16,0.46 0.38,0.46z"/>
   <path class="fil27" d="M191.69 98.76l-75.64 43.62c-0.4,0.22 -0.71,0.75 -0.71,1.17 0,0.43 0.31,0.59 0.71,0.36l75.64 -43.62c0.39,-0.23 0.71,-0.75 0.71,-1.18 0,-0.42 -0.32,-0.58 -0.71,-0.35z"/>
   <path class="fil26" d="M202.32 92.62l-6.56 3.78c-0.39,0.23 -0.7,0.75 -0.7,1.18 0,0.42 0.31,0.58 0.7,0.36l6.56 -3.79c0.39,-0.22 0.71,-0.75 0.71,-1.17 0,-0.43 -0.32,-0.59 -0.71,-0.36z"/>
   <path class="fil46" d="M195.43 98.04c0.1,0 0.21,-0.04 0.33,-0.1l6.56 -3.79c0.39,-0.22 0.71,-0.75 0.71,-1.17 0,-0.3 -0.15,-0.46 -0.38,-0.46 -0.1,0 -0.21,0.03 -0.33,0.1l-6.56 3.78c-0.39,0.23 -0.7,0.75 -0.7,1.18 0,0.29 0.15,0.46 0.37,0.46z"/>
   <path class="fil27" d="M191.69 104.89l-75.64 43.62c-0.4,0.23 -0.71,0.76 -0.71,1.18 0,0.42 0.31,0.58 0.71,0.36l75.64 -43.62c0.39,-0.23 0.71,-0.76 0.71,-1.18 0,-0.42 -0.32,-0.58 -0.71,-0.36z"/>
   <path class="fil26" d="M202.32 98.76l-6.56 3.78c-0.39,0.22 -0.7,0.75 -0.7,1.17 0,0.43 0.31,0.59 0.7,0.36l6.56 -3.78c0.39,-0.23 0.71,-0.75 0.71,-1.18 0,-0.42 -0.32,-0.58 -0.71,-0.35z"/>
   <path class="fil46" d="M195.43 104.17c0.1,0 0.21,-0.03 0.33,-0.1l6.56 -3.78c0.39,-0.23 0.71,-0.75 0.71,-1.18 0,-0.29 -0.15,-0.46 -0.38,-0.46 -0.1,0 -0.21,0.04 -0.33,0.11l-6.56 3.78c-0.39,0.22 -0.7,0.75 -0.7,1.17 0,0.3 0.15,0.46 0.37,0.46z"/>
   <path class="fil27" d="M191.69 111.03l-75.64 43.62c-0.4,0.23 -0.71,0.75 -0.71,1.18 0,0.42 0.31,0.58 0.71,0.35l75.64 -43.62c0.39,-0.22 0.71,-0.75 0.71,-1.17 0,-0.43 -0.32,-0.59 -0.71,-0.36z"/>
   <path class="fil26" d="M202.32 104.89l-6.56 3.78c-0.39,0.23 -0.7,0.76 -0.7,1.18 0,0.42 0.31,0.58 0.7,0.36l6.56 -3.78c0.39,-0.23 0.71,-0.76 0.71,-1.18 0,-0.42 -0.32,-0.58 -0.71,-0.36z"/>
   <path class="fil46" d="M195.43 110.31c0.1,0 0.21,-0.03 0.33,-0.1l6.56 -3.78c0.39,-0.23 0.71,-0.76 0.71,-1.18 0,-0.29 -0.15,-0.46 -0.38,-0.46 -0.1,0 -0.21,0.03 -0.33,0.1l-6.56 3.78c-0.39,0.23 -0.7,0.76 -0.7,1.18 0,0.29 0.15,0.46 0.37,0.46z"/>
   <path class="fil47" d="M208.38 42.58c0.09,0 0.2,-0.03 0.31,-0.09l3.85 -2.23c0.39,-0.22 0.7,-0.76 0.7,-1.21l0 -1.42c0,-0.31 -0.16,-0.5 -0.38,-0.5 -0.1,0 -0.21,0.03 -0.32,0.1l-3.85 2.22c-0.39,0.23 -0.7,0.77 -0.7,1.22l0 1.41c0,0.32 0.16,0.5 0.39,0.5z"/>
   <path class="fil47" d="M208.38 48.78c0.09,0 0.2,-0.03 0.31,-0.1l3.85 -2.22c0.39,-0.22 0.7,-0.77 0.7,-1.21l0 -1.42c0,-0.32 -0.16,-0.5 -0.38,-0.5 -0.1,0 -0.21,0.03 -0.32,0.09l-3.85 2.23c-0.39,0.22 -0.7,0.77 -0.7,1.21l0 1.42c0,0.32 0.16,0.5 0.39,0.5z"/>
   <path class="fil47" d="M208.38 54.98c0.09,0 0.2,-0.04 0.31,-0.1l3.85 -2.22c0.39,-0.23 0.7,-0.77 0.7,-1.22l0 -1.41c0,-0.32 -0.16,-0.5 -0.38,-0.5 -0.1,0 -0.21,0.03 -0.32,0.09l-3.85 2.23c-0.39,0.22 -0.7,0.76 -0.7,1.21l0 1.42c0,0.31 0.16,0.5 0.39,0.5z"/>
   <path class="fil47" d="M208.38 61.17c0.09,0 0.2,-0.03 0.31,-0.09l3.85 -2.23c0.39,-0.22 0.7,-0.77 0.7,-1.21l0 -1.42c0,-0.32 -0.16,-0.5 -0.38,-0.5 -0.1,0 -0.21,0.03 -0.32,0.1l-3.85 2.22c-0.39,0.23 -0.7,0.77 -0.7,1.21l0 1.42c0,0.32 0.16,0.5 0.39,0.5z"/>
   <path class="fil47" d="M208.38 67.37c0.09,0 0.2,-0.03 0.31,-0.1l3.85 -2.22c0.39,-0.23 0.7,-0.77 0.7,-1.22l0 -1.41c0,-0.32 -0.16,-0.5 -0.38,-0.5 -0.1,0 -0.21,0.03 -0.32,0.09l-3.85 2.23c-0.39,0.22 -0.7,0.76 -0.7,1.21l0 1.42c0,0.31 0.16,0.5 0.39,0.5z"/>
   <path class="fil47" d="M208.38 73.56c0.09,0 0.2,-0.03 0.31,-0.09l3.85 -2.23c0.39,-0.22 0.7,-0.76 0.7,-1.21l0 -1.42c0,-0.31 -0.16,-0.5 -0.38,-0.5 -0.1,0 -0.21,0.03 -0.32,0.1l-3.85 2.22c-0.39,0.23 -0.7,0.77 -0.7,1.22l0 1.41c0,0.32 0.16,0.5 0.39,0.5z"/>
   <path class="fil47" d="M208.38 79.76c0.09,0 0.2,-0.03 0.31,-0.1l3.85 -2.22c0.39,-0.22 0.7,-0.77 0.7,-1.21l0 -1.42c0,-0.32 -0.16,-0.5 -0.38,-0.5 -0.1,0 -0.21,0.03 -0.32,0.1l-3.85 2.22c-0.39,0.22 -0.7,0.77 -0.7,1.21l0 1.42c0,0.32 0.16,0.5 0.39,0.5z"/>
   <path class="fil47" d="M208.38 85.96c0.09,0 0.2,-0.03 0.31,-0.1l3.85 -2.22c0.39,-0.23 0.7,-0.77 0.7,-1.22l0 -1.41c0,-0.32 -0.16,-0.5 -0.38,-0.5 -0.1,0 -0.21,0.03 -0.32,0.09l-3.85 2.23c-0.39,0.22 -0.7,0.76 -0.7,1.21l0 1.42c0,0.31 0.16,0.5 0.39,0.5z"/>
   <path class="fil47" d="M208.38 92.15c0.09,0 0.2,-0.03 0.31,-0.09l3.85 -2.23c0.39,-0.22 0.7,-0.77 0.7,-1.21l0 -1.42c0,-0.32 -0.16,-0.5 -0.38,-0.5 -0.1,0 -0.21,0.03 -0.32,0.1l-3.85 2.22c-0.39,0.23 -0.7,0.77 -0.7,1.21l0 1.42c0,0.32 0.16,0.5 0.39,0.5z"/>
   <path class="fil47" d="M208.38 98.35c0.09,0 0.2,-0.03 0.31,-0.1l3.85 -2.22c0.39,-0.23 0.7,-0.77 0.7,-1.22l0 -1.41c0,-0.32 -0.16,-0.5 -0.38,-0.5 -0.1,0 -0.21,0.03 -0.32,0.09l-3.85 2.23c-0.39,0.22 -0.7,0.76 -0.7,1.21l0 1.42c0,0.31 0.16,0.5 0.39,0.5z"/>
   <path class="fil47" d="M208.38 104.54c0.09,0 0.2,-0.03 0.31,-0.09l3.85 -2.23c0.39,-0.22 0.7,-0.76 0.7,-1.21l0 -1.41c0,-0.32 -0.16,-0.5 -0.38,-0.5 -0.1,0 -0.21,0.03 -0.32,0.09l-3.85 2.23c-0.39,0.22 -0.7,0.76 -0.7,1.21l0 1.42c0,0.31 0.16,0.49 0.39,0.49z"/>
   <path class="fil47" d="M208.38 110.74c0.09,0 0.2,-0.03 0.31,-0.09l3.85 -2.23c0.39,-0.22 0.7,-0.77 0.7,-1.21l0 -1.42c0,-0.32 -0.16,-0.5 -0.38,-0.5 -0.1,0 -0.21,0.03 -0.32,0.1l-3.85 2.22c-0.39,0.22 -0.7,0.77 -0.7,1.21l0 1.42c0,0.32 0.16,0.5 0.39,0.5z"/>
   <path class="fil48" d="M238.11 17.1l-20.84 12.03c-0.78,0.45 -1.4,1.54 -1.4,2.43l0 24.06c0,0.9 0.62,1.26 1.4,0.81l20.84 -12.03c0.77,-0.45 1.4,-1.53 1.4,-2.43l0 -24.06c0,-0.89 -0.63,-1.26 -1.4,-0.81z"/>
   <path class="fil26" d="M236.18 40.96l-1.92 1.11c-0.39,0.22 -0.71,0.75 -0.71,1.17 0,0.43 0.32,0.59 0.71,0.36l1.92 -1.11c0.39,-0.23 0.7,-0.75 0.7,-1.18 0,-0.42 -0.31,-0.58 -0.7,-0.35z"/>
   <path class="fil46" d="M233.92 43.7c0.1,0 0.22,-0.03 0.34,-0.1l1.92 -1.11c0.39,-0.23 0.7,-0.75 0.7,-1.18 0,-0.29 -0.15,-0.46 -0.37,-0.46 -0.1,0 -0.21,0.04 -0.33,0.11l-1.92 1.11c-0.39,0.22 -0.71,0.75 -0.71,1.17 0,0.3 0.15,0.46 0.37,0.46z"/>
   <path class="fil26" d="M236.18 21.25l-1.92 1.11c-0.39,0.22 -0.71,0.75 -0.71,1.17 0,0.43 0.32,0.59 0.71,0.36l1.92 -1.11c0.39,-0.22 0.7,-0.75 0.7,-1.17 0,-0.43 -0.31,-0.59 -0.7,-0.36z"/>
   <path class="fil46" d="M233.92 23.99c0.1,0 0.22,-0.03 0.34,-0.1l1.92 -1.11c0.39,-0.22 0.7,-0.75 0.7,-1.17 0,-0.3 -0.15,-0.46 -0.37,-0.46 -0.1,0 -0.21,0.03 -0.33,0.1l-1.92 1.11c-0.39,0.22 -0.71,0.75 -0.71,1.17 0,0.3 0.15,0.46 0.37,0.46z"/>
   <path class="fil26" d="M233.48 26.74l-1.92 1.11c-0.39,0.22 -0.71,0.75 -0.71,1.17 0,0.43 0.32,0.59 0.71,0.36l1.92 -1.11c0.39,-0.22 0.71,-0.75 0.71,-1.17 0,-0.43 -0.32,-0.59 -0.71,-0.36z"/>
   <path class="fil46" d="M231.23 29.48c0.1,0 0.21,-0.03 0.33,-0.1l1.92 -1.11c0.39,-0.22 0.71,-0.75 0.71,-1.17 0,-0.3 -0.16,-0.46 -0.38,-0.46 -0.1,0 -0.21,0.03 -0.33,0.1l-1.92 1.11c-0.39,0.22 -0.71,0.75 -0.71,1.17 0,0.3 0.15,0.46 0.38,0.46z"/>
   <path class="fil26" d="M233.48 30.67l-1.92 1.11c-0.39,0.23 -0.71,0.75 -0.71,1.18 0,0.42 0.32,0.58 0.71,0.35l1.92 -1.11c0.39,-0.22 0.71,-0.75 0.71,-1.17 0,-0.43 -0.32,-0.59 -0.71,-0.36z"/>
   <path class="fil46" d="M231.23 33.42c0.1,0 0.21,-0.04 0.33,-0.11l1.92 -1.11c0.39,-0.22 0.71,-0.75 0.71,-1.17 0,-0.3 -0.16,-0.46 -0.38,-0.46 -0.1,0 -0.21,0.03 -0.33,0.1l-1.92 1.11c-0.39,0.23 -0.71,0.75 -0.71,1.18 0,0.29 0.15,0.46 0.38,0.46z"/>
   <path class="fil26" d="M236.18 33.07l-1.92 1.11c-0.39,0.23 -0.71,0.75 -0.71,1.18 0,0.42 0.32,0.58 0.71,0.35l1.92 -1.11c0.39,-0.22 0.7,-0.75 0.7,-1.17 0,-0.43 -0.31,-0.59 -0.7,-0.36z"/>
   <path class="fil46" d="M233.92 35.82c0.1,0 0.22,-0.04 0.34,-0.11l1.92 -1.11c0.39,-0.22 0.7,-0.75 0.7,-1.17 0,-0.3 -0.15,-0.46 -0.37,-0.46 -0.1,0 -0.21,0.03 -0.33,0.1l-1.92 1.11c-0.39,0.23 -0.71,0.75 -0.71,1.18 0,0.29 0.15,0.46 0.37,0.46z"/>
   <path class="fil26" d="M233.48 38.56l-1.92 1.11c-0.39,0.23 -0.71,0.76 -0.71,1.18 0,0.42 0.32,0.58 0.71,0.36l1.92 -1.11c0.39,-0.23 0.71,-0.75 0.71,-1.18 0,-0.42 -0.32,-0.58 -0.71,-0.36z"/>
   <path class="fil46" d="M231.23 41.31c0.1,0 0.21,-0.03 0.33,-0.1l1.92 -1.11c0.39,-0.23 0.71,-0.75 0.71,-1.18 0,-0.29 -0.16,-0.46 -0.38,-0.46 -0.1,0 -0.21,0.03 -0.33,0.1l-1.92 1.11c-0.39,0.23 -0.71,0.76 -0.71,1.18 0,0.29 0.15,0.46 0.38,0.46z"/>
   <path class="fil26" d="M230.92 24.28l-11.72 6.77c-0.39,0.22 -0.7,0.75 -0.7,1.18 0,0.42 0.31,0.58 0.7,0.35l11.72 -6.76c0.39,-0.23 0.71,-0.75 0.71,-1.18 0,-0.42 -0.32,-0.58 -0.71,-0.36z"/>
   <path class="fil49" d="M218.87 32.69c0.1,0 0.21,-0.04 0.33,-0.11l11.72 -6.76c0.39,-0.23 0.71,-0.75 0.71,-1.18 0,-0.29 -0.15,-0.46 -0.38,-0.46 -0.09,0 -0.21,0.03 -0.33,0.1l-11.72 6.77c-0.39,0.22 -0.7,0.75 -0.7,1.18 0,0.29 0.15,0.46 0.37,0.46z"/>
   <path class="fil26" d="M230.92 43.99l-11.72 6.77c-0.39,0.22 -0.7,0.75 -0.7,1.17 0,0.43 0.31,0.59 0.7,0.36l11.72 -6.76c0.39,-0.23 0.71,-0.76 0.71,-1.18 0,-0.42 -0.32,-0.58 -0.71,-0.36z"/>
   <path class="fil49" d="M218.87 52.39c0.1,0 0.21,-0.03 0.33,-0.1l11.72 -6.76c0.39,-0.23 0.71,-0.76 0.71,-1.18 0,-0.29 -0.15,-0.46 -0.38,-0.46 -0.09,0 -0.21,0.03 -0.33,0.1l-11.72 6.77c-0.39,0.22 -0.7,0.75 -0.7,1.17 0,0.3 0.15,0.46 0.37,0.46z"/>
   <path class="fil26" d="M228.22 29.77l-9.02 5.22c-0.39,0.23 -0.7,0.75 -0.7,1.18 0,0.42 0.31,0.58 0.7,0.36l9.02 -5.22c0.4,-0.23 0.71,-0.76 0.71,-1.18 0,-0.42 -0.31,-0.58 -0.71,-0.36z"/>
   <path class="fil49" d="M218.87 36.63c0.1,0 0.21,-0.04 0.33,-0.1l9.02 -5.22c0.4,-0.23 0.71,-0.76 0.71,-1.18 0,-0.29 -0.15,-0.46 -0.37,-0.46 -0.1,0 -0.21,0.03 -0.34,0.1l-9.02 5.22c-0.39,0.23 -0.7,0.75 -0.7,1.18 0,0.29 0.15,0.46 0.37,0.46z"/>
   <path class="fil26" d="M228.22 33.71l-9.02 5.22c-0.39,0.23 -0.7,0.75 -0.7,1.18 0,0.42 0.31,0.58 0.7,0.36l9.02 -5.22c0.4,-0.23 0.71,-0.75 0.71,-1.18 0,-0.42 -0.31,-0.58 -0.71,-0.36z"/>
   <path class="fil49" d="M218.87 40.57c0.1,0 0.21,-0.03 0.33,-0.1l9.02 -5.22c0.4,-0.23 0.71,-0.75 0.71,-1.18 0,-0.29 -0.15,-0.46 -0.37,-0.46 -0.1,0 -0.21,0.03 -0.34,0.1l-9.02 5.22c-0.39,0.23 -0.7,0.75 -0.7,1.18 0,0.29 0.15,0.46 0.37,0.46z"/>
   <path class="fil26" d="M230.92 36.11l-11.72 6.76c-0.39,0.23 -0.7,0.76 -0.7,1.18 0,0.42 0.31,0.58 0.7,0.36l11.72 -6.77c0.39,-0.22 0.71,-0.75 0.71,-1.17 0,-0.43 -0.32,-0.59 -0.71,-0.36z"/>
   <path class="fil49" d="M218.87 44.51c0.1,0 0.21,-0.03 0.33,-0.1l11.72 -6.77c0.39,-0.22 0.71,-0.75 0.71,-1.17 0,-0.3 -0.15,-0.46 -0.38,-0.46 -0.09,0 -0.21,0.03 -0.33,0.1l-11.72 6.76c-0.39,0.23 -0.7,0.76 -0.7,1.18 0,0.29 0.15,0.46 0.37,0.46z"/>
   <path class="fil26" d="M228.22 41.6l-9.02 5.21c-0.39,0.23 -0.7,0.76 -0.7,1.18 0,0.43 0.31,0.59 0.7,0.36l9.02 -5.22c0.4,-0.22 0.71,-0.75 0.71,-1.17 0,-0.43 -0.31,-0.59 -0.71,-0.36z"/>
   <path class="fil49" d="M218.87 48.45c0.1,0 0.21,-0.03 0.33,-0.1l9.02 -5.22c0.4,-0.22 0.71,-0.75 0.71,-1.17 0,-0.3 -0.15,-0.46 -0.37,-0.46 -0.1,0 -0.21,0.03 -0.34,0.1l-9.02 5.21c-0.39,0.23 -0.7,0.76 -0.7,1.18 0,0.3 0.15,0.46 0.37,0.46z"/>
   <path class="fil48" d="M238.11 48.93l-20.84 12.03c-0.78,0.45 -1.4,1.53 -1.4,2.42l0 47.56c0,0.89 0.62,1.25 1.4,0.81l20.84 -12.04c0.77,-0.44 1.4,-1.53 1.4,-2.42l0 -47.55c0,-0.9 -0.63,-1.26 -1.4,-0.81z"/>
   <path class="fil26" d="M236.18 53.07l-1.92 1.11c-0.39,0.23 -0.71,0.76 -0.71,1.18 0,0.42 0.32,0.59 0.71,0.36l1.92 -1.11c0.39,-0.23 0.7,-0.75 0.7,-1.18 0,-0.42 -0.31,-0.58 -0.7,-0.36z"/>
   <path class="fil46" d="M233.92 55.82c0.1,0 0.22,-0.03 0.34,-0.1l1.92 -1.11c0.39,-0.23 0.7,-0.75 0.7,-1.18 0,-0.29 -0.15,-0.46 -0.37,-0.46 -0.1,0 -0.21,0.04 -0.33,0.1l-1.92 1.11c-0.39,0.23 -0.71,0.76 -0.71,1.18 0,0.29 0.15,0.46 0.37,0.46z"/>
   <path class="fil26" d="M233.48 58.56l-1.92 1.11c-0.39,0.23 -0.71,0.76 -0.71,1.18 0,0.42 0.32,0.58 0.71,0.36l1.92 -1.11c0.39,-0.23 0.71,-0.75 0.71,-1.18 0,-0.42 -0.32,-0.58 -0.71,-0.36z"/>
   <path class="fil46" d="M231.23 61.31c0.1,0 0.21,-0.03 0.33,-0.1l1.92 -1.11c0.39,-0.23 0.71,-0.75 0.71,-1.18 0,-0.29 -0.16,-0.46 -0.38,-0.46 -0.1,0 -0.21,0.03 -0.33,0.1l-1.92 1.11c-0.39,0.23 -0.71,0.76 -0.71,1.18 0,0.29 0.15,0.46 0.38,0.46z"/>
   <path class="fil26" d="M233.48 62.5l-1.92 1.1c-0.39,0.23 -0.71,0.76 -0.71,1.18 0,0.43 0.32,0.59 0.71,0.36l1.92 -1.11c0.39,-0.23 0.71,-0.75 0.71,-1.18 0,-0.42 -0.32,-0.58 -0.71,-0.35z"/>
   <path class="fil46" d="M231.23 65.24c0.1,0 0.21,-0.03 0.33,-0.1l1.92 -1.11c0.39,-0.23 0.71,-0.75 0.71,-1.18 0,-0.29 -0.16,-0.46 -0.38,-0.46 -0.1,0 -0.21,0.04 -0.33,0.11l-1.92 1.1c-0.39,0.23 -0.71,0.76 -0.71,1.18 0,0.3 0.15,0.46 0.38,0.46z"/>
   <path class="fil26" d="M236.18 64.9l-1.92 1.11c-0.39,0.22 -0.71,0.75 -0.71,1.17 0,0.43 0.32,0.59 0.71,0.36l1.92 -1.11c0.39,-0.22 0.7,-0.75 0.7,-1.18 0,-0.42 -0.31,-0.58 -0.7,-0.35z"/>
   <path class="fil46" d="M233.92 67.64c0.1,0 0.22,-0.03 0.34,-0.1l1.92 -1.11c0.39,-0.22 0.7,-0.75 0.7,-1.18 0,-0.29 -0.15,-0.46 -0.37,-0.46 -0.1,0 -0.21,0.04 -0.33,0.11l-1.92 1.11c-0.39,0.22 -0.71,0.75 -0.71,1.17 0,0.3 0.15,0.46 0.37,0.46z"/>
   <path class="fil26" d="M230.92 56.11l-11.72 6.77c-0.39,0.22 -0.7,0.75 -0.7,1.17 0,0.43 0.31,0.59 0.7,0.36l11.72 -6.77c0.39,-0.22 0.71,-0.75 0.71,-1.17 0,-0.42 -0.32,-0.59 -0.71,-0.36z"/>
   <path class="fil49" d="M218.87 64.51c0.1,0 0.21,-0.03 0.33,-0.1l11.72 -6.77c0.39,-0.22 0.71,-0.75 0.71,-1.17 0,-0.29 -0.15,-0.46 -0.38,-0.46 -0.09,0 -0.21,0.03 -0.33,0.1l-11.72 6.77c-0.39,0.22 -0.7,0.75 -0.7,1.17 0,0.29 0.15,0.46 0.37,0.46z"/>
   <path class="fil26" d="M228.22 61.6l-9.02 5.22c-0.39,0.22 -0.7,0.75 -0.7,1.17 0,0.43 0.31,0.59 0.7,0.36l9.02 -5.22c0.4,-0.22 0.71,-0.75 0.71,-1.17 0,-0.43 -0.31,-0.59 -0.71,-0.36z"/>
   <path class="fil49" d="M218.87 68.45c0.1,0 0.21,-0.03 0.33,-0.1l9.02 -5.22c0.4,-0.22 0.71,-0.75 0.71,-1.17 0,-0.3 -0.15,-0.46 -0.37,-0.46 -0.1,0 -0.22,0.03 -0.34,0.1l-9.02 5.22c-0.39,0.22 -0.7,0.75 -0.7,1.17 0,0.3 0.15,0.46 0.37,0.46z"/>
   <path class="fil26" d="M228.22 65.54l-9.02 5.22c-0.39,0.22 -0.7,0.75 -0.7,1.17 0,0.43 0.31,0.59 0.7,0.36l9.02 -5.22c0.4,-0.22 0.71,-0.75 0.71,-1.17 0,-0.43 -0.31,-0.59 -0.71,-0.36z"/>
   <path class="fil49" d="M218.87 72.4c0.1,0 0.21,-0.04 0.33,-0.11l9.02 -5.22c0.4,-0.22 0.71,-0.75 0.71,-1.17 0,-0.29 -0.15,-0.46 -0.37,-0.46 -0.1,0 -0.22,0.03 -0.34,0.1l-9.02 5.22c-0.39,0.22 -0.7,0.75 -0.7,1.17 0,0.3 0.15,0.47 0.37,0.47z"/>
   <path class="fil26" d="M230.92 67.93l-11.72 6.77c-0.39,0.23 -0.7,0.75 -0.7,1.18 0,0.42 0.31,0.58 0.7,0.36l11.72 -6.77c0.39,-0.23 0.71,-0.75 0.71,-1.18 0,-0.42 -0.32,-0.58 -0.71,-0.36z"/>
   <path class="fil49" d="M218.87 76.34c0.1,0 0.21,-0.04 0.33,-0.1l11.72 -6.77c0.39,-0.23 0.71,-0.75 0.71,-1.18 0,-0.29 -0.15,-0.46 -0.38,-0.46 -0.09,0 -0.21,0.03 -0.33,0.1l-11.72 6.77c-0.39,0.23 -0.7,0.75 -0.7,1.18 0,0.29 0.15,0.46 0.37,0.46z"/>
   <path class="fil26" d="M233.48 70.41l-1.92 1.11c-0.39,0.23 -0.71,0.75 -0.71,1.18 0,0.42 0.32,0.58 0.71,0.36l1.92 -1.11c0.39,-0.23 0.71,-0.76 0.71,-1.18 0,-0.42 -0.32,-0.58 -0.71,-0.36z"/>
   <path class="fil46" d="M231.23 73.16c0.1,0 0.21,-0.03 0.33,-0.1l1.92 -1.11c0.39,-0.23 0.71,-0.76 0.71,-1.18 0,-0.29 -0.16,-0.46 -0.38,-0.46 -0.1,0 -0.21,0.03 -0.33,0.1l-1.92 1.11c-0.39,0.23 -0.71,0.75 -0.71,1.18 0,0.29 0.15,0.46 0.38,0.46z"/>
   <path class="fil26" d="M233.48 74.34l-1.92 1.11c-0.39,0.23 -0.71,0.76 -0.71,1.18 0,0.42 0.32,0.58 0.71,0.36l1.92 -1.11c0.39,-0.23 0.71,-0.75 0.71,-1.18 0,-0.42 -0.32,-0.58 -0.71,-0.36z"/>
   <path class="fil46" d="M231.23 77.09c0.1,0 0.21,-0.03 0.33,-0.1l1.92 -1.11c0.39,-0.23 0.71,-0.75 0.71,-1.18 0,-0.29 -0.16,-0.46 -0.38,-0.46 -0.1,0 -0.21,0.03 -0.33,0.1l-1.92 1.11c-0.39,0.23 -0.71,0.76 -0.71,1.18 0,0.29 0.15,0.46 0.38,0.46z"/>
   <path class="fil26" d="M228.22 73.45l-9.02 5.22c-0.39,0.22 -0.7,0.75 -0.7,1.17 0,0.43 0.31,0.59 0.7,0.36l9.02 -5.22c0.4,-0.22 0.71,-0.75 0.71,-1.17 0,-0.43 -0.31,-0.59 -0.71,-0.36z"/>
   <path class="fil49" d="M218.87 80.3c0.1,0 0.21,-0.03 0.33,-0.1l9.02 -5.22c0.4,-0.22 0.71,-0.75 0.71,-1.17 0,-0.3 -0.15,-0.46 -0.37,-0.46 -0.1,0 -0.22,0.03 -0.34,0.1l-9.02 5.22c-0.39,0.22 -0.7,0.75 -0.7,1.17 0,0.29 0.15,0.46 0.37,0.46z"/>
   <path class="fil26" d="M228.22 77.39l-9.02 5.22c-0.39,0.22 -0.7,0.75 -0.7,1.17 0,0.43 0.31,0.59 0.7,0.36l9.02 -5.22c0.4,-0.22 0.71,-0.75 0.71,-1.17 0,-0.43 -0.31,-0.59 -0.71,-0.36z"/>
   <path class="fil49" d="M218.87 84.24c0.1,0 0.21,-0.03 0.33,-0.1l9.02 -5.22c0.4,-0.22 0.71,-0.75 0.71,-1.17 0,-0.3 -0.15,-0.46 -0.37,-0.46 -0.1,0 -0.22,0.03 -0.34,0.1l-9.02 5.22c-0.39,0.22 -0.7,0.75 -0.7,1.17 0,0.3 0.15,0.46 0.37,0.46z"/>
   <path class="fil26" d="M236.18 84.65l-1.92 1.11c-0.39,0.23 -0.71,0.75 -0.71,1.18 0,0.42 0.32,0.58 0.71,0.36l1.92 -1.11c0.39,-0.23 0.7,-0.76 0.7,-1.18 0,-0.42 -0.31,-0.59 -0.7,-0.36z"/>
   <path class="fil46" d="M233.92 87.4c0.1,0 0.22,-0.03 0.34,-0.1l1.92 -1.11c0.39,-0.23 0.7,-0.76 0.7,-1.18 0,-0.29 -0.15,-0.46 -0.37,-0.46 -0.1,0 -0.21,0.03 -0.33,0.1l-1.92 1.11c-0.39,0.23 -0.71,0.75 -0.71,1.18 0,0.29 0.15,0.46 0.37,0.46z"/>
   <path class="fil26" d="M230.92 87.69l-11.72 6.76c-0.39,0.23 -0.7,0.76 -0.7,1.18 0,0.42 0.31,0.58 0.7,0.36l11.72 -6.77c0.39,-0.22 0.71,-0.75 0.71,-1.17 0,-0.43 -0.32,-0.59 -0.71,-0.36z"/>
   <path class="fil49" d="M218.87 96.09c0.1,0 0.21,-0.03 0.33,-0.1l11.72 -6.77c0.39,-0.22 0.71,-0.75 0.71,-1.17 0,-0.3 -0.15,-0.46 -0.38,-0.46 -0.09,0 -0.21,0.03 -0.33,0.1l-11.72 6.76c-0.39,0.23 -0.7,0.76 -0.7,1.18 0,0.29 0.15,0.46 0.37,0.46z"/>
   <path class="fil26" d="M233.48 90.17l-1.92 1.11c-0.39,0.22 -0.71,0.75 -0.71,1.17 0,0.43 0.32,0.59 0.71,0.36l1.92 -1.11c0.39,-0.22 0.71,-0.75 0.71,-1.17 0,-0.43 -0.32,-0.59 -0.71,-0.36z"/>
   <path class="fil46" d="M231.23 92.91c0.1,0 0.21,-0.03 0.33,-0.1l1.92 -1.11c0.39,-0.22 0.71,-0.75 0.71,-1.17 0,-0.3 -0.16,-0.46 -0.38,-0.46 -0.1,0 -0.21,0.03 -0.33,0.1l-1.92 1.11c-0.39,0.22 -0.71,0.75 -0.71,1.17 0,0.3 0.15,0.46 0.38,0.46z"/>
   <path class="fil26" d="M233.48 94.1l-1.92 1.11c-0.39,0.22 -0.71,0.75 -0.71,1.17 0,0.43 0.32,0.59 0.71,0.36l1.92 -1.11c0.39,-0.22 0.71,-0.75 0.71,-1.17 0,-0.43 -0.32,-0.59 -0.71,-0.36z"/>
   <path class="fil46" d="M231.23 96.85c0.1,0 0.21,-0.04 0.33,-0.11l1.92 -1.11c0.39,-0.22 0.71,-0.75 0.71,-1.17 0,-0.3 -0.16,-0.46 -0.38,-0.46 -0.1,0 -0.21,0.03 -0.33,0.1l-1.92 1.11c-0.39,0.22 -0.71,0.75 -0.71,1.17 0,0.3 0.15,0.47 0.38,0.47z"/>
   <path class="fil26" d="M228.22 93.2l-9.02 5.22c-0.39,0.23 -0.7,0.75 -0.7,1.18 0,0.42 0.31,0.58 0.7,0.35l9.02 -5.21c0.4,-0.23 0.71,-0.76 0.71,-1.18 0,-0.42 -0.31,-0.58 -0.71,-0.36z"/>
   <path class="fil49" d="M218.87 100.06c0.1,0 0.21,-0.04 0.33,-0.11l9.02 -5.21c0.4,-0.23 0.71,-0.76 0.71,-1.18 0,-0.29 -0.15,-0.46 -0.37,-0.46 -0.1,0 -0.22,0.03 -0.34,0.1l-9.02 5.22c-0.39,0.23 -0.7,0.75 -0.7,1.18 0,0.29 0.15,0.46 0.37,0.46z"/>
   <path class="fil26" d="M228.22 97.14l-9.02 5.22c-0.39,0.23 -0.7,0.75 -0.7,1.18 0,0.42 0.31,0.58 0.7,0.36l9.02 -5.22c0.4,-0.23 0.71,-0.75 0.71,-1.18 0,-0.42 -0.31,-0.58 -0.71,-0.36z"/>
   <path class="fil49" d="M218.87 104c0.1,0 0.21,-0.03 0.33,-0.1l9.02 -5.22c0.4,-0.23 0.71,-0.75 0.71,-1.18 0,-0.29 -0.15,-0.46 -0.37,-0.46 -0.1,0 -0.22,0.03 -0.34,0.1l-9.02 5.22c-0.39,0.23 -0.7,0.75 -0.7,1.18 0,0.29 0.15,0.46 0.37,0.46z"/>
   <path class="fil26" d="M233.48 78.25l-1.92 1.11c-0.39,0.23 -0.71,0.76 -0.71,1.18 0,0.42 0.32,0.59 0.71,0.36l1.92 -1.11c0.39,-0.23 0.71,-0.75 0.71,-1.18 0,-0.42 -0.32,-0.58 -0.71,-0.36z"/>
   <path class="fil46" d="M231.23 81c0.1,0 0.21,-0.03 0.33,-0.1l1.92 -1.11c0.39,-0.23 0.71,-0.75 0.71,-1.18 0,-0.29 -0.16,-0.46 -0.38,-0.46 -0.1,0 -0.21,0.04 -0.33,0.1l-1.92 1.11c-0.39,0.23 -0.71,0.76 -0.71,1.18 0,0.29 0.15,0.46 0.38,0.46z"/>
   <path class="fil26" d="M236.18 80.65l-1.92 1.11c-0.39,0.23 -0.71,0.76 -0.71,1.18 0,0.42 0.32,0.59 0.71,0.36l1.92 -1.11c0.39,-0.23 0.7,-0.75 0.7,-1.18 0,-0.42 -0.31,-0.58 -0.7,-0.36z"/>
   <path class="fil46" d="M233.92 83.4c0.1,0 0.22,-0.03 0.34,-0.1l1.92 -1.11c0.39,-0.23 0.7,-0.75 0.7,-1.18 0,-0.29 -0.15,-0.46 -0.37,-0.46 -0.1,0 -0.21,0.04 -0.33,0.1l-1.92 1.11c-0.39,0.23 -0.71,0.76 -0.71,1.18 0,0.29 0.15,0.46 0.37,0.46z"/>
   <path class="fil26" d="M228.22 81.3l-9.02 5.22c-0.39,0.22 -0.7,0.75 -0.7,1.17 0,0.43 0.31,0.59 0.7,0.36l9.02 -5.22c0.4,-0.22 0.71,-0.75 0.71,-1.17 0,-0.43 -0.31,-0.59 -0.71,-0.36z"/>
   <path class="fil49" d="M218.87 88.15c0.1,0 0.21,-0.03 0.33,-0.1l9.02 -5.22c0.4,-0.22 0.71,-0.75 0.71,-1.17 0,-0.3 -0.15,-0.46 -0.37,-0.46 -0.1,0 -0.22,0.03 -0.34,0.1l-9.02 5.22c-0.39,0.22 -0.7,0.75 -0.7,1.17 0,0.3 0.15,0.46 0.37,0.46z"/>
   <path class="fil26" d="M230.92 83.69l-11.72 6.77c-0.39,0.22 -0.7,0.75 -0.7,1.17 0,0.43 0.31,0.59 0.7,0.36l11.72 -6.76c0.39,-0.23 0.71,-0.75 0.71,-1.18 0,-0.42 -0.32,-0.58 -0.71,-0.36z"/>
   <path class="fil49" d="M218.87 92.1c0.1,0 0.21,-0.04 0.33,-0.11l11.72 -6.76c0.39,-0.23 0.71,-0.75 0.71,-1.18 0,-0.29 -0.15,-0.46 -0.38,-0.46 -0.09,0 -0.21,0.03 -0.33,0.1l-11.72 6.77c-0.39,0.22 -0.7,0.75 -0.7,1.17 0,0.3 0.15,0.47 0.37,0.47z"/>
   <path class="fil26" d="M236.18 96.55l-1.92 1.11c-0.39,0.23 -0.71,0.76 -0.71,1.18 0,0.42 0.32,0.58 0.71,0.36l1.92 -1.11c0.39,-0.23 0.7,-0.75 0.7,-1.18 0,-0.42 -0.31,-0.58 -0.7,-0.36z"/>
   <path class="fil46" d="M233.92 99.3c0.1,0 0.22,-0.03 0.34,-0.1l1.92 -1.11c0.39,-0.23 0.7,-0.75 0.7,-1.18 0,-0.29 -0.15,-0.46 -0.37,-0.46 -0.1,0 -0.21,0.03 -0.33,0.1l-1.92 1.11c-0.39,0.23 -0.71,0.76 -0.71,1.18 0,0.29 0.15,0.46 0.37,0.46z"/>
   <path class="fil26" d="M230.92 99.59l-11.72 6.77c-0.39,0.22 -0.7,0.75 -0.7,1.17 0,0.43 0.31,0.59 0.7,0.36l11.72 -6.76c0.39,-0.23 0.71,-0.75 0.71,-1.18 0,-0.42 -0.32,-0.58 -0.71,-0.36z"/>
   <path class="fil49" d="M218.87 107.99c0.1,0 0.21,-0.03 0.33,-0.1l11.72 -6.76c0.39,-0.23 0.71,-0.75 0.71,-1.18 0,-0.29 -0.15,-0.46 -0.38,-0.46 -0.09,0 -0.21,0.03 -0.33,0.1l-11.72 6.77c-0.39,0.22 -0.7,0.75 -0.7,1.17 0,0.3 0.15,0.46 0.37,0.46z"/>
   <path class="fil50" d="M75.18 222.64c0.16,0 0.34,-0.06 0.51,-0.16l16.49 -9.51 30.36 -18.09 -0.39 -20.06 0 -4.02 -11.41 6.58 -1.9 1.1 -0.01 0 -0.05 0.03c-0.22,0.13 -0.44,0.19 -0.63,0.19 -0.01,0 -0.02,0 -0.03,0l-0.25 -0.03 -0.18 -0.06 -0.1 -0.06 -0.09 -0.06c0,0 -0.01,0 -0.02,-0.01l0 0 0.02 0.02 -0.1 -0.06 -2.1 -1.21c-0.57,-0.32 -0.95,-0.9 -1.04,-1.55 -0.02,-0.1 -0.02,-0.19 -0.02,-0.29l0 -9.18 -10.66 6.15c-0.1,0.06 -0.19,0.09 -0.27,0.09 -0.18,0 -0.31,-0.14 -0.31,-0.38l0 0c0,-0.34 0.26,-0.77 0.58,-0.96l10.66 -6.14 0 -8.73 -10.66 6.15c-0.1,0.05 -0.19,0.08 -0.27,0.08 -0.18,0 -0.31,-0.14 -0.31,-0.38l0 0c0,-0.34 0.26,-0.77 0.58,-0.95l10.66 -6.15 0 -3.74 -2.02 1.16c-0.1,0.06 -0.19,0.09 -0.27,0.09 -0.18,0 -0.31,-0.14 -0.31,-0.37l0 0c0,-0.35 0.26,-0.78 0.58,-0.96l2.02 -1.16 0 -18.61 -30.16 17.38 -0.01 0 0 72.34c0.02,0.32 0.08,0.59 0.17,0.82l0 0c0.08,0.17 0.17,0.31 0.3,0.43l0.09 0.08 0.1 0.06 0.08 0.05 0.14 0.05 0.21 0.02c0,0.01 0.01,0.01 0.02,0.01zm16.74 -49.94l0 0c0,0.34 -0.26,0.77 -0.57,0.95l-6.84 3.96c-0.09,0.05 -0.19,0.08 -0.27,0.08 -0.18,0 -0.3,-0.13 -0.3,-0.37l0 0c0,-0.35 0.26,-0.78 0.57,-0.96l6.84 -3.96c0.09,-0.05 0.19,-0.08 0.27,-0.08 0.18,0 0.3,0.14 0.3,0.38l0 0zm0 -9.98l0 0c0,0.34 -0.26,0.77 -0.57,0.95l-6.84 3.96c-0.09,0.06 -0.19,0.08 -0.27,0.08 -0.18,0 -0.3,-0.13 -0.3,-0.37l0 0c0,-0.35 0.26,-0.77 0.57,-0.96l6.84 -3.95c0.09,-0.06 0.19,-0.09 0.27,-0.09 0.18,0 0.3,0.14 0.3,0.38l0 0zm8.64 -9.97l0 0c0,0.34 -0.26,0.77 -0.57,0.95l-6.83 3.96c-0.1,0.06 -0.19,0.08 -0.27,0.08 -0.19,0 -0.31,-0.13 -0.31,-0.37l0 0c0,-0.34 0.26,-0.77 0.58,-0.96l6.83 -3.95c0.1,-0.06 0.19,-0.09 0.27,-0.09 0.18,0 0.3,0.14 0.3,0.38l0 0zm6.53 25.4c-0.19,-0.23 -0.3,-0.52 -0.3,-0.85l0 -0.44 0 -0.02 0 -12.1 -0.01 0 0 12.55c0,0.34 0.12,0.63 0.31,0.86zm-0.31 -14.65l0.01 0 0 -8.73 -0.01 0 0 8.73zm0 -9.98l0.01 0 0 -3.74 -0.01 0 0 3.74zm0 -4.98l0.01 0 0 -18.61 -0.01 0 0 18.61z"/>
   <path class="fil51" d="M97.07 210.15l0 0 -12.23 -7.07 12.23 7.07zm-16.84 -10.25c-0.01,-0.06 -0.02,-0.13 -0.02,-0.19 0,-0.28 0.12,-0.56 0.36,-0.81 -0.24,0.24 -0.36,0.52 -0.36,0.79 0,0.07 0.01,0.14 0.02,0.21zm-0.48 -0.08c0.26,-0.39 0.57,-0.74 0.91,-1.02 0.12,-0.1 0.26,-0.2 0.42,-0.29l41.07 -23.69 -41.07 23.69c-0.51,0.29 -0.97,0.76 -1.33,1.31z"/>
   <path class="fil51" d="M79.04 203.47c-0.03,-0.18 -0.04,-0.35 -0.04,-0.52l0 -0.84c0,-0.45 0.11,-0.95 0.3,-1.42 -0.19,0.47 -0.3,0.96 -0.3,1.42l0 0.83c0,0.17 0.01,0.35 0.04,0.53z"/>
   <path class="fil33" d="M108.15 178.7c0.19,0 0.41,-0.06 0.63,-0.19l0.05 -0.03 0.01 0 1.9 -1.1 11.41 -6.58 0 -12.14 -6.1 3.52c-0.12,0.07 -0.24,0.1 -0.34,0.1 -0.22,0 -0.37,-0.17 -0.37,-0.46 0,-0.43 0.31,-0.95 0.71,-1.18l6.1 -3.52 0 -4.45 -6.1 3.51c-0.12,0.07 -0.24,0.11 -0.34,0.11 -0.22,0 -0.37,-0.17 -0.37,-0.46 0,-0.43 0.31,-0.95 0.71,-1.18l6.1 -3.52 0 -4.6 -6.1 3.52c-0.12,0.07 -0.24,0.1 -0.34,0.1 -0.19,0 -0.32,-0.12 -0.36,-0.33l-2.75 1.59c-0.1,0.05 -0.19,0.08 -0.27,0.08 -0.18,0 -0.31,-0.14 -0.31,-0.38l0 0c0,-0.34 0.26,-0.77 0.58,-0.95l5.33 -3.08c0.1,-0.05 0.19,-0.08 0.27,-0.08 0.11,0 0.19,0.05 0.24,0.13l3.71 -2.14 0 -4.6 -3.65 2.11c-0.04,0.32 -0.28,0.69 -0.57,0.85l-11.15 6.43 0 3.74 2.51 -1.45c0.1,-0.05 0.19,-0.08 0.27,-0.08 0.18,0 0.3,0.14 0.3,0.37l0 0c0,0.35 -0.25,0.78 -0.57,0.96l-2.51 1.45 0 8.73 2.51 -1.45c0.1,-0.06 0.19,-0.08 0.27,-0.08 0.18,0 0.3,0.13 0.3,0.37l0 0c0,0.35 -0.25,0.78 -0.57,0.96l-2.51 1.44 0 12.1 0.01 0.02 0 0.44c0,0.33 0.11,0.62 0.3,0.85 0.09,0.11 0.19,0.2 0.31,0.27l0.07 0.05 0.01 0.01c0.01,0.01 0.02,0.01 0.02,0.01l0.09 0.06 0.1 0.06 0.17 0.06 0.26 0.03c0.01,0 0.02,0 0.03,0zm10.36 -16.36l0 0c0,0.35 -0.26,0.78 -0.58,0.96l-5.33 3.07c-0.1,0.06 -0.19,0.09 -0.27,0.09 -0.18,0 -0.31,-0.14 -0.31,-0.38l0 0c0,-0.34 0.26,-0.77 0.58,-0.95l5.33 -3.08c0.1,-0.05 0.19,-0.08 0.27,-0.08 0.18,0 0.31,0.13 0.31,0.37l0 0zm0 -4.99l0 0c0,0.35 -0.26,0.78 -0.58,0.96l-5.33 3.07c-0.1,0.06 -0.19,0.09 -0.27,0.09 -0.18,0 -0.31,-0.14 -0.31,-0.38 0,0 0,0 0,0l0 0c0,-0.34 0.26,-0.77 0.58,-0.96l5.33 -3.07c0.1,-0.05 0.19,-0.08 0.27,-0.08 0.18,0 0.31,0.13 0.31,0.37 0,0 0,0 0,0zm0 -4.99l0 0c0,0.35 -0.26,0.78 -0.58,0.96l-5.33 3.07c-0.1,0.06 -0.19,0.09 -0.27,0.09 -0.18,0 -0.31,-0.14 -0.31,-0.38l0 0c0,-0.34 0.26,-0.77 0.58,-0.95l5.33 -3.08c0.1,-0.05 0.19,-0.08 0.27,-0.08 0.18,0 0.31,0.14 0.31,0.37l0 0zm-11.73 -3.83l8.56 -4.93c0,-0.01 0,-0.03 0,-0.05 0,-0.42 0.31,-0.95 0.71,-1.17l6.1 -3.52 0 -4.75 -6.1 3.51c-0.12,0.07 -0.24,0.11 -0.34,0.11 -0.22,0 -0.37,-0.17 -0.37,-0.47 0,-0.42 0.31,-0.95 0.71,-1.17l6.1 -3.51 0 -4.64 -6.1 3.54c-0.12,0.07 -0.24,0.1 -0.34,0.1 -0.22,0 -0.37,-0.17 -0.37,-0.46 0,-0.43 0.31,-0.95 0.71,-1.18l6.1 -3.53 0 -10.64 -0.01 -0.2 -0.01 -0.05c0.01,0.07 0.01,0.16 0.01,0.24l0 5.32 -15.36 8.85 0 18.6z"/>
   <path class="fil52" d="M107.5 178.5l-0.02 -0.02 0 0c-0.15,-0.08 -0.28,-0.2 -0.39,-0.33 -0.19,-0.23 -0.31,-0.52 -0.31,-0.86l0 -12.55 -2.54 1.47 0 9.18c0,0.1 0,0.19 0.02,0.29 0.09,0.65 0.47,1.23 1.04,1.55l2.1 1.21 0.1 0.06zm-3.26 -13.53l2.54 -1.47 0 -8.73 -2.54 1.47 0 8.73zm0 -9.98l2.54 -1.47 0 -3.74 -2.54 1.47 0 3.74zm0 -4.98l2.54 -1.47 0 -18.61 -2.54 1.47 0 18.61z"/>
   <path class="fil53" d="M107.48 178.48l-0.01 -0.01 -0.07 -0.05c-0.12,-0.07 -0.22,-0.16 -0.31,-0.27 0.11,0.13 0.24,0.25 0.39,0.33z"/>
   <path class="fil54" d="M115.71 162.28c0.1,0 0.22,-0.03 0.34,-0.1l6.1 -3.52 0 -1.54 -6.1 3.52c-0.4,0.23 -0.71,0.75 -0.71,1.18 0,0.29 0.15,0.46 0.37,0.46z"/>
   <path class="fil50" d="M115.71 137.73c0.1,0 0.22,-0.04 0.34,-0.11l6.1 -3.51 0 -1.53 -6.1 3.51c-0.4,0.22 -0.71,0.75 -0.71,1.17 0,0.3 0.15,0.47 0.37,0.47z"/>
   <path class="fil50" d="M115.71 131.58c0.1,0 0.22,-0.03 0.34,-0.1l6.1 -3.54 0 -1.53 -6.1 3.53c-0.4,0.23 -0.71,0.75 -0.71,1.18 0,0.29 0.15,0.46 0.37,0.46z"/>
   <path class="fil55" d="M115.34 143.6l2.59 -1.5c0.1,-0.05 0.19,-0.08 0.27,-0.08 0.18,0 0.31,0.14 0.31,0.38l0 0c0,0.03 -0.01,0.06 -0.01,0.1l3.65 -2.11 0 -1.53 -6.1 3.52c-0.4,0.22 -0.71,0.75 -0.71,1.17 0,0.02 0,0.04 0,0.05z"/>
   <path class="fil55" d="M115.71 150.15c0.1,0 0.22,-0.03 0.34,-0.1l6.1 -3.52 0 -1.54 -3.71 2.14c0.04,0.06 0.07,0.14 0.07,0.25l0 0c0,0.34 -0.26,0.77 -0.58,0.95l-2.58 1.49c0.04,0.21 0.17,0.33 0.36,0.33z"/>
   <path class="fil55" d="M115.71 156.29c0.1,0 0.22,-0.04 0.34,-0.11l6.1 -3.51 0 -1.54 -6.1 3.52c-0.4,0.23 -0.71,0.75 -0.71,1.18 0,0.29 0.15,0.46 0.37,0.46z"/>
   <path class="fil50" d="M89.81 132.54l14.43 -8.31 0 0 -14.43 8.31zm16.97 -9.78l0 0 0 0 0 0 0 0z"/>
   <path class="fil33" d="M106.78 122.76l13.74 -7.92c0.19,-0.11 0.38,-0.18 0.55,-0.21 -0.09,0.02 -0.18,0.04 -0.27,0.08 -0.09,0.03 -0.18,0.08 -0.28,0.13l-13.74 7.92 0 0z"/>
   <polygon class="fil52" points="104.24,124.23 106.78,122.76 106.78,122.76 104.24,124.23 "/>
   <path class="fil33" d="M122.07 115.27l0 -0.02 -0.01 -0.01c0.01,0.01 0.01,0.02 0.01,0.03zm-0.3 -0.47l-0.01 -0.01 -0.01 -0.01 -0.03 -0.02c0.02,0.01 0.04,0.03 0.05,0.04z"/>
   <path class="fil26" d="M121.61 114.7c-0.29,-0.14 -0.67,-0.1 -1.09,0.14l-44.83 25.84c-0.89,0.51 -1.62,1.77 -1.62,2.8l0 5.3 -2.58 -1.49 0 -5.26c0,-1.03 0.72,-2.29 1.62,-2.8l44.83 -25.84c0.46,-0.27 0.88,-0.28 1.18,-0.1 0.29,0.18 2.15,1.23 2.49,1.41z"/>
   <path class="fil35" d="M122.14 115.76c0,-1.02 -0.73,-1.43 -1.62,-0.92l-44.83 25.84c-0.89,0.51 -1.62,1.77 -1.62,2.8l0.01 5.3 48.06 -27.7 0 -5.32z"/>
   <path class="fil31" d="M72.35 139.88c0.22,-0.27 0.48,-0.5 0.76,-0.65l31.13 -17.94 0 -0.01 -31.13 17.94c-0.28,0.16 -0.54,0.39 -0.76,0.66zm34.43 -20.06l0 0 0 -0.01 0 0 0 0.01z"/>
   <path class="fil36" d="M106.78 119.82l11.16 -6.43c0.26,-0.15 0.5,-0.22 0.72,-0.22 0.17,0 0.32,0.04 0.46,0.12 0.28,0.17 2.09,1.2 2.48,1.4 -0.37,-0.2 -2.19,-1.22 -2.48,-1.4 -0.14,-0.08 -0.29,-0.12 -0.46,-0.12 -0.22,0 -0.46,0.07 -0.72,0.22l-11.16 6.42 0 0.01z"/>
   <polygon class="fil56" points="104.24,121.29 106.78,119.82 106.78,119.81 104.24,121.28 "/>
   <path class="fil36" d="M120.54 114.83c0.09,-0.05 0.18,-0.09 0.26,-0.12 0,0 0,0 0,0 -0.08,0.03 -0.17,0.07 -0.26,0.12z"/>
   <path class="fil47" d="M74.56 141.87c0.29,-0.5 0.69,-0.94 1.13,-1.19l14.12 -8.14 14.43 -8.31 0 0 -28.55 16.45c-0.44,0.25 -0.84,0.69 -1.13,1.19l0 0zm32.22 -19.11l0 0 0 0 0 0 0 0z"/>
   <path class="fil36" d="M106.78 122.76l13.74 -7.92c0.1,-0.05 0.19,-0.1 0.28,-0.13 -0.08,0.03 -0.17,0.07 -0.26,0.12 0,0 -0.01,0 -0.02,0.01l-13.74 7.92 0 0z"/>
   <polygon class="fil57" points="104.24,124.23 106.78,122.76 106.78,122.76 104.24,124.23 "/>
   <path class="fil37" d="M74.56 141.87c0.29,-0.5 0.69,-0.94 1.13,-1.19l28.55 -16.45 2.54 -1.47 0 0 13.74 -7.92c0.01,-0.01 0.02,-0.01 0.02,-0.01 0.09,-0.05 0.18,-0.09 0.26,-0.12 0.16,-0.06 0.31,-0.09 0.45,-0.09 0.11,0 0.22,0.02 0.32,0.06 0.01,0 0.02,0.01 0.03,0.01 0,0 0,0 0,0 -0.39,-0.2 -2.2,-1.23 -2.48,-1.4 -0.14,-0.08 -0.29,-0.12 -0.46,-0.12 -0.22,0 -0.46,0.07 -0.72,0.22l-11.16 6.43 0 0 -2.54 1.47 -31.13 17.94c-0.28,0.15 -0.54,0.38 -0.76,0.65 -0.14,0.17 -0.26,0.34 -0.37,0.53l0 0 2.58 1.46z"/>
   <path class="fil32" d="M74.56 141.87c0.29,-0.5 0.69,-0.93 1.14,-1.19l14.11 -8.14 -14.12 8.14c-0.44,0.25 -0.84,0.69 -1.13,1.19l0 0zm47.05 -27.17c0,-0.01 -0.01,-0.01 -0.01,-0.01 -0.01,0 -0.02,-0.01 -0.03,-0.01 0.01,0 0.03,0.01 0.04,0.02z"/>
   <path class="fil39" d="M74.07 148.78l0 -5.3 0 5.3 -2.58 -1.49 0 -5.26c0,-0.16 0.02,-0.32 0.05,-0.48 -0.03,0.16 -0.05,0.32 -0.05,0.48l0 5.27 0 0 0 -0.01 2.58 1.49 0 0z"/>
   <path class="fil58" d="M74.08 148.78l0 0 -0.01 -5.3c0,-0.52 0.19,-1.09 0.48,-1.6l0 0c-0.29,0.51 -0.48,1.09 -0.48,1.6l0 5.3 0.01 0z"/>
   <path class="fil41" d="M74.07 148.78l0 -5.3c0,-0.51 0.19,-1.09 0.48,-1.6l-2.57 -1.47c-0.21,0.36 -0.37,0.75 -0.44,1.14 -0.03,0.16 -0.05,0.32 -0.05,0.48l0 5.26 2.58 1.49z"/>
   <path class="fil42" d="M74.08 148.78l0 -5.29c0,-0.53 0.18,-1.1 0.48,-1.61l0 -0.01c0,0.01 -0.01,0.01 -0.01,0.01l0 0c-0.29,0.51 -0.48,1.08 -0.48,1.6l0.01 5.3z"/>
   <path class="fil59" d="M74.55 141.88c0,0 0.01,0 0.01,-0.01l0 0c0,0.01 -0.01,0.01 -0.01,0.01l0 0z"/>
   <path class="fil43" d="M74.55 141.88c0,0 0.01,0 0.01,-0.01l-2.58 -1.46 2.57 1.47z"/>
   <path class="fil43" d="M74.55 141.88c0,0 0.01,0 0.01,-0.01l0 0c0,0.01 -0.01,0.01 -0.01,0.01l0 0z"/>
   <path class="fil24" d="M76.43 142.86c-0.5,0.29 -0.91,1.16 -0.91,1.94 0,0.77 0.41,1.17 0.91,0.88 0.51,-0.3 0.92,-1.16 0.92,-1.94 0,-0.78 -0.41,-1.17 -0.92,-0.88z"/>
   <path class="fil24" d="M79.73 140.95c-0.51,0.29 -0.92,1.16 -0.92,1.94 0,0.78 0.41,1.17 0.92,0.88 0.5,-0.29 0.91,-1.16 0.91,-1.94 0,-0.78 -0.41,-1.17 -0.91,-0.88z"/>
   <path class="fil24" d="M83.02 139.04c-0.5,0.3 -0.91,1.16 -0.91,1.94 0,0.78 0.41,1.18 0.91,0.88 0.51,-0.29 0.92,-1.16 0.92,-1.94 0,-0.77 -0.41,-1.17 -0.92,-0.88z"/>
   <path class="fil60" d="M74.67 222.49l-0.04 -0.04 -0.09 -0.08c-0.13,-0.12 -0.22,-0.26 -0.3,-0.43l0 0c-0.1,-0.24 -0.17,-0.52 -0.17,-0.82l0 -72.34 -2.58 -1.48 0 72.37c0,0.31 0.07,0.61 0.19,0.85 0.05,0.13 0.13,0.24 0.21,0.33 0.08,0.1 0.18,0.17 0.28,0.23 0.03,0.01 0.11,0.05 0.2,0.11 0.1,0.05 0.73,0.4 0.87,0.48 0.14,0.08 0.28,0.16 0.43,0.25l0.02 0.01 0.27 0.15 0.01 0.01c0.18,0.09 0.35,0.19 0.5,0.28l0.2 0.12z"/>
   <path class="fil61" d="M74.24 221.94c-0.09,-0.23 -0.15,-0.5 -0.17,-0.82 0,0.3 0.07,0.58 0.17,0.82z"/>
   <polygon class="fil62" points="74.07,148.78 74.07,148.78 71.49,147.29 71.49,147.3 74.07,148.78 "/>
   <path class="fil26" d="M118.42 130.03c0,-0.09 -0.03,-0.16 -0.08,-0.2l-1.17 -1.07 -0.05 -0.01 -0.03 0.01 -0.09 0.11 -0.04 0.17 0 0.81c0,0.1 0.01,0.18 0.03,0.22l0.08 0.13 0.61 0.56 -0.61 1.28 -0.08 0.22c-0.02,0.06 -0.03,0.14 -0.03,0.25l0 0.81 0.04 0.11 0.09 0.01 0.03 -0.02 0.05 -0.07 1.17 -2.41c0.05,-0.11 0.08,-0.21 0.08,-0.3l0 -0.61z"/>
   <polygon class="fil26" points="114.16,128.91 114.07,128.77 113.9,128.79 113.46,129.04 113.37,129.15 113.33,129.31 113.34,129.39 115.34,135.6 115.42,135.73 115.6,135.72 116.02,135.48 116.11,135.37 116.15,135.2 116.14,135.13 "/>
   <path class="fil26" d="M111.07 134.88c0,0.1 0.03,0.17 0.08,0.21l1.16 1.06 0.06 0.01 0.03 -0.01 0.09 -0.11 0.04 -0.16 0 -0.81c0,-0.11 -0.01,-0.18 -0.03,-0.23l-0.08 -0.12 -0.61 -0.57 0.61 -1.27 0.08 -0.22c0.02,-0.06 0.03,-0.15 0.03,-0.25l0 -0.81 -0.04 -0.12 -0.09 -0.01 -0.03 0.02 -0.06 0.08 -1.16 2.41c-0.05,0.1 -0.08,0.2 -0.08,0.3l0 0.6z"/>
   <polygon class="fil26" points="107.83,138.06 107.72,138.2 107.67,138.4 107.67,139.29 107.72,139.44 107.83,139.44 108.38,139.13 108.49,138.99 108.54,138.79 108.54,137.9 108.49,137.75 108.38,137.74 "/>
   <polygon class="fil26" points="105.99,139.12 105.88,139.26 105.83,139.46 105.83,140.35 105.88,140.5 105.99,140.51 106.54,140.19 106.65,140.05 106.7,139.85 106.7,138.96 106.65,138.81 106.54,138.8 "/>
   <polygon class="fil26" points="104.15,140.18 104.04,140.32 103.99,140.52 103.99,141.41 104.04,141.56 104.15,141.57 104.7,141.25 104.81,141.11 104.86,140.91 104.86,140.02 104.81,139.87 104.7,139.87 "/>
   <path class="fil26" d="M117.93 137.1l-26.94 15.55c-0.31,0.19 -0.57,0.62 -0.57,0.96 0,0.35 0.26,0.48 0.57,0.29l26.94 -15.55c0.32,-0.18 0.58,-0.61 0.58,-0.96 0,-0.34 -0.26,-0.47 -0.58,-0.29z"/>
   <path class="fil27" d="M109.29 157.06l-26.94 15.55c-0.31,0.19 -0.57,0.61 -0.57,0.96 0,0.34 0.26,0.47 0.57,0.29l26.94 -15.55c0.32,-0.18 0.57,-0.61 0.57,-0.96 0,-0.34 -0.25,-0.47 -0.57,-0.29z"/>
   <path class="fil27" d="M109.29 167.04l-12.89 7.45c-0.32,0.18 -0.58,0.61 -0.58,0.95 0,0.35 0.26,0.48 0.58,0.3l12.89 -7.45c0.32,-0.19 0.57,-0.61 0.57,-0.96 0,-0.34 -0.25,-0.47 -0.57,-0.29z"/>
   <path class="fil26" d="M88.76 153.94l-10.73 6.18c-0.32,0.18 -0.57,0.61 -0.57,0.95 0,0.35 0.25,0.48 0.57,0.29l10.73 -6.17c0.32,-0.18 0.58,-0.61 0.58,-0.96 0,-0.34 -0.26,-0.47 -0.58,-0.29z"/>
   <path class="fil26" d="M117.93 191.98l-26.94 15.55c-0.31,0.19 -0.57,0.62 -0.57,0.96 0,0.34 0.26,0.48 0.57,0.29l26.94 -15.55c0.32,-0.18 0.58,-0.61 0.58,-0.96 0,-0.34 -0.26,-0.47 -0.58,-0.29z"/>
   <path class="fil26" d="M88.76 208.82l-10.73 6.18c-0.32,0.18 -0.57,0.61 -0.57,0.95 0,0.35 0.25,0.48 0.57,0.29l10.73 -6.17c0.32,-0.18 0.58,-0.61 0.58,-0.96 0,-0.34 -0.26,-0.47 -0.58,-0.29z"/>
   <path class="fil26" d="M88.76 193.88l-10.73 6.17c-0.32,0.19 -0.57,0.62 -0.57,0.96 0,0.34 0.25,0.47 0.57,0.29l10.73 -6.17c0.32,-0.19 0.58,-0.61 0.58,-0.96 0,-0.34 -0.26,-0.47 -0.58,-0.29z"/>
   <path class="fil26" d="M88.76 198.87l-10.73 6.17c-0.32,0.18 -0.57,0.61 -0.57,0.96 0,0.34 0.25,0.47 0.57,0.29l10.73 -6.17c0.32,-0.19 0.58,-0.61 0.58,-0.96 0,-0.34 -0.26,-0.48 -0.58,-0.29z"/>
   <path class="fil26" d="M97.91 188.58l-6.03 3.48c-0.31,0.19 -0.57,0.62 -0.57,0.96 0,0.34 0.26,0.47 0.57,0.29l6.03 -3.48c0.32,-0.18 0.58,-0.61 0.58,-0.96 0,-0.34 -0.26,-0.47 -0.58,-0.29z"/>
   <path class="fil26" d="M117.93 142.1l-15.71 9.07c-0.32,0.18 -0.58,0.61 -0.58,0.96 0,0.34 0.26,0.47 0.58,0.29l15.71 -9.07c0.32,-0.18 0.58,-0.61 0.58,-0.95 0,-0.35 -0.26,-0.48 -0.58,-0.3z"/>
   <path class="fil46" d="M101.95 152.5c0.08,0 0.17,-0.03 0.27,-0.08l2.02 -1.17 2.54 -1.47 0 0 11.15 -6.43c0.29,-0.16 0.53,-0.53 0.57,-0.85 0,-0.04 0.01,-0.07 0.01,-0.1 0,-0.24 -0.13,-0.38 -0.31,-0.38 -0.08,0 -0.17,0.03 -0.27,0.08l-15.71 9.07c-0.32,0.18 -0.58,0.61 -0.58,0.96 0,0.23 0.13,0.37 0.31,0.37z"/>
   <path class="fil26" d="M117.93 147.08l-5.33 3.08c-0.32,0.18 -0.58,0.61 -0.58,0.95 0,0.35 0.26,0.48 0.58,0.3l5.33 -3.08c0.32,-0.18 0.58,-0.61 0.58,-0.95 0,-0.35 -0.26,-0.48 -0.58,-0.3z"/>
   <path class="fil46" d="M112.33 151.49c0.08,0 0.17,-0.03 0.27,-0.08l2.75 -1.59 2.58 -1.49c0.32,-0.18 0.58,-0.61 0.58,-0.95 0,-0.24 -0.13,-0.38 -0.31,-0.38 -0.08,0 -0.17,0.03 -0.27,0.08l-5.33 3.08c-0.32,0.18 -0.58,0.61 -0.58,0.95 0,0.24 0.13,0.38 0.31,0.38z"/>
   <path class="fil26" d="M117.93 152.07l-5.33 3.08c-0.32,0.18 -0.58,0.61 -0.58,0.95 0,0.35 0.26,0.48 0.58,0.29l5.33 -3.07c0.32,-0.18 0.58,-0.61 0.58,-0.96 0,-0.34 -0.26,-0.47 -0.58,-0.29z"/>
   <path class="fil46" d="M112.33 156.48c0.08,0 0.17,-0.03 0.27,-0.09l5.33 -3.07c0.32,-0.18 0.58,-0.61 0.58,-0.96 0,-0.23 -0.13,-0.37 -0.31,-0.37 -0.08,0 -0.17,0.03 -0.27,0.08l-5.33 3.08c-0.32,0.18 -0.58,0.61 -0.58,0.95 0,0.24 0.13,0.38 0.31,0.38z"/>
   <path class="fil26" d="M117.93 157.06l-5.33 3.08c-0.32,0.18 -0.58,0.61 -0.58,0.95 0,0.35 0.26,0.48 0.58,0.29l5.33 -3.07c0.32,-0.18 0.58,-0.61 0.58,-0.96 0,-0.34 -0.26,-0.47 -0.58,-0.29z"/>
   <path class="fil47" d="M112.02 161.09c0,-0.34 0.26,-0.77 0.58,-0.95l5.33 -3.08c0.1,-0.05 0.19,-0.08 0.27,-0.08 0.18,0 0.31,0.14 0.31,0.37 0,0 0,0 0,0 0,-0.24 -0.13,-0.37 -0.31,-0.37 -0.08,0 -0.17,0.03 -0.27,0.08l-5.33 3.07c-0.32,0.19 -0.58,0.62 -0.58,0.96l0 0z"/>
   <path class="fil46" d="M112.33 161.47c0.08,0 0.17,-0.03 0.27,-0.09l5.33 -3.07c0.32,-0.18 0.58,-0.61 0.58,-0.96 0,-0.23 -0.13,-0.37 -0.31,-0.37 -0.08,0 -0.17,0.03 -0.27,0.08l-5.33 3.08c-0.32,0.18 -0.58,0.61 -0.58,0.95 0,0.24 0.13,0.38 0.31,0.38z"/>
   <path class="fil63" d="M93.31 172.45c0.08,0 0.17,-0.03 0.27,-0.09l10.66 -6.15 0 -1.24 -10.66 6.14c-0.32,0.19 -0.58,0.62 -0.58,0.96 0,0.24 0.13,0.38 0.31,0.38zm13.47 -7.71l0 0 0 -1.24 0 0 0 1.24z"/>
   <path class="fil64" d="M106.78 164.74l2.51 -1.44c0.32,-0.18 0.57,-0.61 0.57,-0.96 0,-0.24 -0.12,-0.37 -0.3,-0.37 -0.08,0 -0.17,0.02 -0.27,0.08l-2.51 1.45 0 1.24z"/>
   <polygon class="fil64" points="104.24,166.21 106.78,164.74 106.78,163.5 104.24,164.97 "/>
   <path class="fil63" d="M84.24 177.69c0.08,0 0.18,-0.03 0.27,-0.08l6.84 -3.96c0.31,-0.18 0.57,-0.61 0.57,-0.96 0,-0.23 -0.12,-0.37 -0.3,-0.37 -0.08,0 -0.18,0.03 -0.27,0.08l-6.84 3.96c-0.31,0.18 -0.57,0.61 -0.57,0.96 0,0.24 0.12,0.37 0.3,0.37z"/>
   <path class="fil26" d="M117.93 162.05l-5.33 3.08c-0.32,0.18 -0.58,0.61 -0.58,0.95 0,0.35 0.26,0.48 0.58,0.29l5.33 -3.07c0.32,-0.18 0.58,-0.61 0.58,-0.96 0,-0.34 -0.26,-0.47 -0.58,-0.29z"/>
   <path class="fil46" d="M112.33 166.46c0.08,0 0.17,-0.03 0.27,-0.09l5.33 -3.07c0.32,-0.18 0.58,-0.61 0.58,-0.96 0,-0.24 -0.13,-0.37 -0.31,-0.37 -0.08,0 -0.17,0.03 -0.27,0.08l-5.33 3.08c-0.32,0.18 -0.58,0.61 -0.58,0.95 0,0.24 0.13,0.38 0.31,0.38z"/>
   <path class="fil26" d="M99.99 152.46l-6.83 3.95c-0.32,0.19 -0.58,0.62 -0.58,0.96 0,0.34 0.26,0.47 0.58,0.29l6.83 -3.96c0.31,-0.18 0.57,-0.61 0.57,-0.95 0,-0.35 -0.25,-0.48 -0.57,-0.29z"/>
   <path class="fil46" d="M92.89 157.74c0.08,0 0.17,-0.02 0.27,-0.08l6.83 -3.96c0.31,-0.18 0.57,-0.61 0.57,-0.95 0,-0.24 -0.12,-0.38 -0.3,-0.38 -0.08,0 -0.17,0.03 -0.27,0.09l-6.83 3.95c-0.32,0.19 -0.58,0.62 -0.58,0.96 0,0.24 0.12,0.37 0.31,0.37z"/>
   <path class="fil31" d="M102.81 175.77l-15.71 9.06c-0.32,0.18 -0.58,0.61 -0.58,0.96 0,0.34 0.26,0.47 0.58,0.29l15.71 -9.07c0.31,-0.18 0.57,-0.61 0.57,-0.95 0,-0.35 -0.26,-0.48 -0.57,-0.29z"/>
   <path class="fil31" d="M93.74 186.01l-15.71 9.06c-0.32,0.19 -0.58,0.61 -0.58,0.96 0,0.34 0.26,0.47 0.58,0.29l15.71 -9.07c0.32,-0.18 0.58,-0.61 0.58,-0.95 0,-0.35 -0.26,-0.48 -0.58,-0.29z"/>
   <path class="fil31" d="M84.86 186.12l-6.83 3.95c-0.32,0.19 -0.57,0.62 -0.57,0.96 0,0.34 0.25,0.47 0.57,0.29l6.83 -3.96c0.32,-0.18 0.58,-0.61 0.58,-0.95 0,-0.34 -0.26,-0.48 -0.58,-0.29z"/>
   <path class="fil27" d="M84.86 205.88l-6.83 3.96c-0.32,0.18 -0.57,0.61 -0.57,0.95 0,0.35 0.25,0.48 0.57,0.29l6.83 -3.95c0.32,-0.19 0.58,-0.62 0.58,-0.96 0,-0.34 -0.26,-0.47 -0.58,-0.29z"/>
   <path class="fil26" d="M109.29 152.07l-15.71 9.07c-0.32,0.18 -0.58,0.61 -0.58,0.95 0,0.35 0.26,0.48 0.58,0.3l15.71 -9.07c0.32,-0.18 0.57,-0.61 0.57,-0.96 0,-0.34 -0.25,-0.47 -0.57,-0.29z"/>
   <path class="fil46" d="M93.31 162.47c0.08,0 0.17,-0.03 0.27,-0.08l10.66 -6.15 2.54 -1.47 0 0 2.51 -1.45c0.32,-0.18 0.57,-0.61 0.57,-0.96 0,-0.23 -0.12,-0.37 -0.3,-0.37 -0.08,0 -0.17,0.03 -0.27,0.08l-15.71 9.07c-0.32,0.18 -0.58,0.61 -0.58,0.95 0,0.24 0.13,0.38 0.31,0.38z"/>
   <path class="fil26" d="M91.35 162.43l-6.84 3.95c-0.31,0.19 -0.57,0.61 -0.57,0.96 0,0.34 0.26,0.48 0.57,0.29l6.84 -3.96c0.31,-0.18 0.57,-0.61 0.57,-0.95 0,-0.35 -0.26,-0.48 -0.57,-0.29z"/>
   <path class="fil46" d="M84.24 167.71c0.08,0 0.18,-0.02 0.27,-0.08l6.84 -3.96c0.31,-0.18 0.57,-0.61 0.57,-0.95 0,-0.24 -0.12,-0.38 -0.3,-0.38 -0.08,0 -0.18,0.03 -0.27,0.09l-6.84 3.95c-0.31,0.19 -0.57,0.61 -0.57,0.96 0,0.24 0.12,0.37 0.3,0.37z"/>
   <path class="fil65" d="M184.03 226.31c1.72,0 3.42,-0.38 4.77,-1.16l9.63 -5.56c3.04,-1.76 2.96,-4.45 -0.17,-6.02l-19.61 -10.63c-1.46,-0.73 -3.31,-1.09 -5.18,-1.09 -2.17,0 -4.36,0.48 -5.99,1.43l-4.82 2.79c-3.04,1.76 -3.2,4.86 -0.36,6.92l15.88 11.6c1.57,1.14 3.72,1.72 5.85,1.72z"/>
   <path class="fil48" d="M162.03 207.95l10.99 8.59 8.11 6.35c0.79,0.36 1.69,0.57 2.59,0.62 1.37,0.07 2.77,-0.19 3.85,-0.81l8.61 -4.98 0.01 -0.01 0.05 -0.03c3.03,-1.76 3.74,-5.84 1.74,-8.72 -0.08,-0.12 -0.16,-0.23 -0.25,-0.35 -1.64,-2.21 -4.07,-3.81 -6.93,-4.39l-4.36 -0.88c-7.07,-1.43 -12.87,-2.13 -13.54,-1.67l-10.8 6.25 -0.07 0.03z"/>
   <path class="fil26" d="M168.18 212.76l-0.62 -0.49 9.69 -5.59 -8.48 -2.63c0.29,-0.17 0.58,-0.33 0.86,-0.49l8.48 2.62 5.78 -3.34c0.36,0.07 0.72,0.14 1.09,0.21l-16.8 9.71z"/>
   <path class="fil66" d="M180.18 222.37l-0.05 -0.04 -0.01 -0.02 -7.72 -5.57 -10.42 -7.52 0 -1.18 0.05 -0.09 0.07 -0.03c0.77,-0.26 5.29,1.1 10.74,3.27l3.62 1.43c1.13,0.44 2.17,1.07 3.08,1.83 2.61,2.14 4.18,5.38 4.18,8.87l0 0.19c-0.9,-0.05 -1.8,-0.26 -2.59,-0.62l-0.95 -0.52z"/>
   <path class="fil67" d="M328.91 195.49l0 -0.02c-0.07,-0.09 -0.13,-0.18 -0.19,-0.28 0.07,0.1 0.13,0.2 0.19,0.3z"/>
   <path class="fil68" d="M337.63 208.77c-2.74,-4.22 -5.73,-8.8 -8.53,-13l0 0c1.75,2.63 3.58,5.41 5.37,8.15 0.29,0.45 0.58,0.89 0.88,1.34 0.77,1.19 1.53,2.36 2.28,3.51l0 0z"/>
   <path class="fil69" d="M329.1 195.77l0 0c-0.06,-0.1 -0.12,-0.19 -0.19,-0.28l0.02 0.01c0.05,0.09 0.11,0.18 0.17,0.27z"/>
   <path class="fil69" d="M328.72 195.19c-0.8,-1.2 -1.58,-2.37 -2.34,-3.49l0 0c0.24,0.36 0.5,0.73 0.74,1.1 0.53,0.78 1.06,1.58 1.6,2.39z"/>
   <path class="fil70" d="M326.38 191.7l0 0c0,0 0,-0.01 0,-0.01 0,0 0,0 0,0l0 0c0,0 0,0.01 0,0.01z"/>
   <path class="fil26" d="M318.82 100.02l4.64 -8.73 -3.73 -10.79 0 -6.61 11.43 6.61 0 6.6 -4.91 8.52c-0.09,0.14 -0.2,0.23 -0.34,0.29l0.01 0.01 -7.1 4.1z"/>
   <path class="fil41" d="M318.87 99.99l7.05 -4.07 -0.01 -0.01 0 0c0.14,-0.06 0.25,-0.15 0.34,-0.29l1.32 -2.29 -3.59 -2.07 -4.9 8.5c-0.06,0.1 -0.13,0.17 -0.21,0.23z"/>
   <path class="fil35" d="M291.51 21.4c0,-2.18 1.53,-4.84 3.43,-5.94l2.79 -1.61c0.74,-0.43 1.66,-0.69 2.62,-0.78l1.62 0c0.96,0.09 1.88,0.35 2.62,0.78l42.81 24.76c1.9,1.1 3.43,3.76 3.43,5.94l0 47.11c0,2.19 -1.53,4.85 -3.43,5.94l-2.79 1.62c-1.89,1.09 -4.96,1.09 -6.86,0l-13.77 -7.96 -4.9 8.5c-0.32,0.54 -1.12,0.46 -1.33,-0.13l-5.19 -14.97 -17.62 -10.21c-1.9,-1.09 -3.43,-3.75 -3.43,-5.94l0 -47.11z"/>
   <path class="fil71" d="M344.29 99.38l0 0 0 0zm0.02 -0.01c0.01,0 0.02,0 0.02,-0.01 0,0.01 -0.01,0.01 -0.02,0.01zm0.03 -0.01c0.09,-0.04 0.18,-0.09 0.27,-0.14l2.79 -1.62c1.9,-1.09 3.43,-3.75 3.43,-5.94l0 0c0,2.19 -1.53,4.85 -3.43,5.94l-2.79 1.62c-0.09,0.05 -0.18,0.1 -0.27,0.14z"/>
   <path class="fil41" d="M341.2 100.03c1.1,0 2.2,-0.21 3.09,-0.65l0 0c0.01,0 0.02,0 0.02,-0.01 0.01,0 0.02,0 0.02,-0.01 0.01,0 0.01,0 0.01,0 0.09,-0.04 0.18,-0.09 0.27,-0.14l2.79 -1.62c1.9,-1.09 3.43,-3.75 3.43,-5.94l0 -47.11c0,-1.09 -0.38,-2.3 -1,-3.37l-0.01 0c0,0 0,0 0,0l-4.79 2.76 -4.85 2.81c0.62,1.07 1,2.28 1,3.38l0 47.11c0,1.55 -0.77,2.44 -1.89,2.44 -0.3,0 -0.62,-0.06 -0.95,-0.19 0.85,0.36 1.86,0.54 2.86,0.54z"/>
   <path class="fil31" d="M312.82 18.61l-8.23 -4.76c-0.09,-0.05 -0.19,-0.11 -0.3,-0.16 0.1,0.05 0.2,0.11 0.3,0.16l8.23 4.76zm-20.24 -0.7c0.48,-0.81 1.1,-1.53 1.78,-2.06 -0.68,0.53 -1.3,1.25 -1.78,2.06z"/>
   <path class="fil37" d="M340.17 46.75l4.86 -2.81 4.79 -2.76c-0.63,-1.09 -1.48,-2.01 -2.42,-2.56l-34.58 -20.01 -8.23 -4.76c-0.1,-0.05 -0.2,-0.11 -0.3,-0.16 -0.7,-0.34 -1.53,-0.54 -2.39,-0.62l-1.49 0c-0.98,0.09 -1.93,0.35 -2.68,0.78l-2.8 1.62c-0.19,0.11 -0.38,0.24 -0.57,0.38 -0.68,0.53 -1.3,1.25 -1.78,2.06 -0.47,0.79 -0.81,1.67 -0.96,2.52 0.26,-0.95 0.92,-1.48 1.78,-1.48 0.46,0 0.98,0.15 1.53,0.47l42.83 24.77c0.94,0.54 1.8,1.47 2.41,2.56z"/>
   <path class="fil72" d="M345.03 43.94l4.79 -2.76c0,0 0,0 0,0l-4.79 2.76z"/>
   <path class="fil26" d="M378.53 144.74l3.02 -5.68 -2.43 -7.02 0 -4.3 7.44 4.3 0 4.29 -3.2 5.55c-0.06,0.09 -0.13,0.15 -0.22,0.19l0 0 -4.61 2.67z"/>
   <path class="fil73" d="M378.56 144.72l4.58 -2.65 0 0 0 0c0.09,-0.04 0.16,-0.1 0.22,-0.19l0.86 -1.49 -2.34 -1.35 -3.19 5.53c-0.03,0.06 -0.08,0.11 -0.13,0.15z"/>
   <path class="fil24" d="M360.75 93.58c0,-1.42 1,-3.15 2.23,-3.86l1.82 -1.05c0.48,-0.28 1.08,-0.45 1.7,-0.51l1.06 0c0.62,0.06 1.22,0.23 1.7,0.51l27.86 16.11c1.24,0.71 2.24,2.45 2.24,3.87l0 30.65c0,1.43 -1,3.16 -2.24,3.87l-1.81 1.05c-1.23,0.71 -3.23,0.71 -4.46,0l-8.97 -5.18 -3.19 5.53c-0.2,0.36 -0.73,0.3 -0.86,-0.08l-3.38 -9.74 -11.47 -6.65c-1.23,-0.71 -2.23,-2.44 -2.23,-3.86l0 -30.66z"/>
   <path class="fil71" d="M395.1 144.33l0 0 0 0zm0.01 -0.01c0.01,0 0.01,0 0.02,-0.01 -0.01,0.01 -0.01,0.01 -0.02,0.01zm0.02 -0.01c0.06,-0.03 0.12,-0.06 0.18,-0.09l1.81 -1.05c1.24,-0.71 2.24,-2.44 2.24,-3.87l0 0c0,1.43 -1,3.16 -2.24,3.87l-1.81 1.05c-0.06,0.03 -0.12,0.06 -0.18,0.09z"/>
   <path class="fil34" d="M393.09 144.75c0.72,0 1.43,-0.14 2.01,-0.42l0 0c0.01,-0.01 0.01,-0.01 0.01,-0.01 0.01,0 0.01,0 0.02,-0.01 0,0 0,0 0,0 0.06,-0.03 0.12,-0.06 0.18,-0.09l1.81 -1.05c1.24,-0.71 2.24,-2.44 2.24,-3.87l0 -30.65c0,-0.71 -0.25,-1.5 -0.66,-2.2l-0.01 0c0.01,0 0.01,0 0.01,0l-3.12 1.8 -3.16 1.82c0.41,0.7 0.66,1.49 0.66,2.2l0 30.66c0,1.01 -0.51,1.59 -1.24,1.59 -0.19,0 -0.4,-0.04 -0.61,-0.12 0.55,0.23 1.21,0.35 1.86,0.35z"/>
   <path class="fil31" d="M374.62 91.77l-5.35 -3.1c-0.07,-0.04 -0.13,-0.07 -0.2,-0.1 0.07,0.03 0.13,0.06 0.19,0.1l5.36 3.1zm-13.17 -0.46c0.31,-0.53 0.71,-1 1.16,-1.34 -0.45,0.34 -0.85,0.81 -1.16,1.34z"/>
   <path class="fil73" d="M392.42 110.08l3.16 -1.83 3.11 -1.8c-0.4,-0.7 -0.95,-1.31 -1.57,-1.66l-22.5 -13.02 -5.36 -3.1c-0.06,-0.04 -0.12,-0.07 -0.19,-0.1 -0.46,-0.22 -0.99,-0.36 -1.55,-0.41l-0.98 0c-0.63,0.06 -1.25,0.23 -1.74,0.51l-1.82 1.05c-0.13,0.07 -0.25,0.16 -0.37,0.25 -0.45,0.34 -0.85,0.81 -1.16,1.34 -0.31,0.51 -0.53,1.08 -0.62,1.64 0.17,-0.62 0.59,-0.96 1.15,-0.96 0.3,0 0.64,0.1 1,0.3l27.87 16.12c0.61,0.35 1.17,0.96 1.57,1.67z"/>
   <path class="fil72" d="M395.58 108.25l3.12 -1.8c0,0 0,0 -0.01,0l-3.11 1.8z"/>
   <path id="LogoHorizMono" class="fil74" d="M371.67 100.69c-1.5,1.59 -3,3.17 -4.49,4.74 -1.49,1.56 -2.97,3.12 -4.44,4.68 3.24,1.91 6.52,3.84 9.82,5.8 3.32,1.96 6.68,3.94 10.07,5.95 -0.34,-2.69 -0.68,-5.37 -1.03,-8.05 -0.33,-2.67 -0.68,-5.35 -1.01,-8.03 -1.51,-0.85 -3,-1.71 -4.49,-2.56 -1.48,-0.84 -2.95,-1.69 -4.43,-2.53zm12.47 34.73c1.3,0.79 2.61,1.58 3.93,2.38 -0.29,-0.59 -0.65,-1.19 -0.84,-1.82 -0.14,-0.46 -0.22,-0.98 -0.29,-1.48 -0.11,-0.71 -0.22,-1.39 -0.45,-1.73 -0.21,-0.32 -0.39,-0.53 -0.56,-0.67 -0.15,-0.12 -0.3,-0.17 -0.47,-0.16 -0.16,0 -0.25,0.2 -0.35,0.41 -0.11,0.22 -0.22,0.45 -0.43,0.59 -0.18,0.12 -0.43,0.14 -0.69,0.16 -0.36,0.02 -0.72,0.04 -0.81,0.32 -0.07,0.23 -0.01,0.51 0.12,0.79 0.17,0.38 0.55,0.96 0.84,1.21zm3.68 -10.5c-0.58,-0.34 -1.15,-0.68 -1.72,-1.01 0.04,0.34 0.08,0.67 0.13,1 0.46,0.46 0.58,0.95 0.65,1.59 0.04,0.45 0.09,0.88 0.54,1.21 0.21,0.16 0.53,0.35 0.81,0.47 -0.14,-1.08 -0.27,-2.17 -0.41,-3.26zm-1.52 0.57c0.3,2.45 0.61,4.89 0.91,7.34 -0.18,-0.11 -0.36,-0.22 -0.54,-0.33 0.38,0.56 0.48,1.41 0.58,2.04 0.07,0.48 0.15,0.98 0.27,1.39 0.21,0.72 0.7,1.43 0.98,2.14 0.36,0.21 0.72,0.43 1.08,0.65 -0.17,-1.28 -0.33,-2.56 -0.5,-3.85 0,0 0,0 0,0 -0.26,-0.38 -0.49,-0.7 -0.63,-0.94 -0.25,-0.43 -0.39,-1.05 -0.53,-1.7 -0.19,-0.87 -0.34,-1.82 -1.06,-2.27 -0.02,-0.15 -0.04,-0.3 -0.06,-0.45 0.23,0.13 0.44,0.29 0.63,0.52 0.43,0.53 0.62,1.38 0.8,2.2 0.12,0.6 0.25,1.17 0.45,1.51 0.07,0.13 0.19,0.3 0.32,0.49 -0.24,-1.87 -0.48,-3.74 -0.72,-5.61 -0.32,-0.15 -0.69,-0.36 -0.95,-0.55 -0.64,-0.48 -0.7,-1.05 -0.77,-1.63 -0.03,-0.3 -0.11,-0.66 -0.26,-0.95zm-1.15 6.09c-1.3,-0.77 -2.59,-1.55 -3.88,-2.32 -0.21,0.16 -0.37,0.47 -0.48,0.82 -0.15,0.47 -0.2,1.03 -0.18,1.49 0.03,0.65 0.26,1.28 0.37,1.93 0.8,0.49 1.61,0.98 2.41,1.46 -0.13,-0.19 -0.25,-0.4 -0.35,-0.62 -0.18,-0.4 -0.27,-0.81 -0.16,-1.17 0.14,-0.45 0.58,-0.47 1,-0.5 0.23,-0.02 0.46,-0.03 0.6,-0.12 0.16,-0.1 0.26,-0.31 0.35,-0.5 0.09,-0.19 0.17,-0.37 0.32,-0.47zm-4.25 -2.55c-2.08,-1.25 -4.16,-2.5 -6.22,-3.74 0.04,0.37 0.01,0.89 0.22,1.21 0.22,0.35 0.46,0.45 0.72,0.55 0.24,0.1 0.51,0.2 0.82,0.49 0.52,0.5 0.9,1.52 1.07,2.25 0.15,0.61 0.22,1.22 0.16,1.7 0.98,0.6 1.98,1.2 2.97,1.81 -0.12,-0.63 -0.31,-1.19 -0.34,-1.83 -0.03,-0.5 0.03,-1.12 0.19,-1.64 0.1,-0.32 0.23,-0.6 0.41,-0.8zm-6.54 -3.93c-0.6,-0.36 -1.19,-0.72 -1.79,-1.08 -1.1,0.8 -2.2,1.59 -3.29,2.37 1.33,0.81 2.67,1.63 4.01,2.44 1.35,0.82 2.71,1.65 4.07,2.47 0.05,-0.4 -0.01,-0.95 -0.14,-1.5 -0.14,-0.59 -0.48,-1.53 -0.91,-1.93 -0.25,-0.24 -0.48,-0.34 -0.69,-0.42 -0.32,-0.13 -0.61,-0.24 -0.93,-0.72 -0.35,-0.55 -0.25,-1.07 -0.33,-1.63zm-1.35 -4.87c1.12,0.67 2.25,1.35 3.38,2.02 1.14,0.68 2.28,1.36 3.42,2.04 0.04,-0.25 0.07,-0.51 0.11,-0.76 -2.2,-1.31 -4.39,-2.61 -6.56,-3.91 -0.12,0.21 -0.24,0.41 -0.35,0.61zm11.09 -5.53c-0.51,-0.3 -1.01,-0.59 -1.52,-0.88 0.05,0.44 0.1,0.89 0.15,1.33 0.51,0.3 1.03,0.6 1.55,0.9 -0.06,-0.45 -0.12,-0.9 -0.18,-1.35zm-1.34 0.7c0.01,0.16 0.03,0.32 0.05,0.48 0.52,0.3 1.04,0.6 1.56,0.91 -0.02,-0.16 -0.04,-0.33 -0.06,-0.49 -0.52,-0.3 -1.04,-0.6 -1.55,-0.9zm0.07 0.73c0.15,1.37 0.3,2.73 0.45,4.1 0.55,0.32 1.1,0.65 1.65,0.97 -0.17,-1.38 -0.35,-2.77 -0.53,-4.16 -0.14,-0.08 -0.29,-0.17 -0.43,-0.25 0.07,0.81 0.13,1.61 0.2,2.42 -0.06,-0.01 -0.11,-0.02 -0.16,-0.03 -0.07,-0.83 -0.13,-1.65 -0.2,-2.48 -0.32,-0.19 -0.65,-0.38 -0.98,-0.57zm0.48 4.35c0.04,0.33 0.07,0.66 0.11,0.98 0.55,0.33 1.11,0.66 1.67,0.99 -0.04,-0.33 -0.08,-0.66 -0.12,-0.99 -0.56,-0.33 -1.11,-0.65 -1.66,-0.98zm0.13 1.23c0.08,0.69 0.15,1.38 0.23,2.07 -0.55,-0.33 -1.09,-0.65 -1.64,-0.97 -0.09,1.61 -0.19,3.22 -0.28,4.83 -0.05,-0.02 -0.1,-0.05 -0.15,-0.08 1.49,0.9 2.98,1.79 4.49,2.69 -0.16,-1.26 -0.33,-2.52 -0.49,-3.77 -0.15,-1.26 -0.32,-2.52 -0.48,-3.78 -0.56,-0.33 -1.12,-0.66 -1.68,-0.99zm-1.72 0.91c-0.41,-0.24 -0.82,-0.48 -1.23,-0.73 -0.22,1.54 -0.44,3.08 -0.66,4.62 0.54,0.32 1.07,0.64 1.61,0.96 0.09,-1.61 0.19,-3.23 0.28,-4.85zm-1.54 -0.91c-1.01,-0.6 -2.02,-1.2 -3.02,-1.79 -0.11,0.51 -0.22,1.02 -0.33,1.54 1.04,0.61 2.08,1.23 3.12,1.85 0.08,-0.53 0.16,-1.07 0.23,-1.6zm-3.18 -1.88c-0.93,-0.56 -1.86,-1.11 -2.78,-1.65 -0.26,0.42 -0.51,0.85 -0.76,1.27 1.07,0.64 2.14,1.27 3.22,1.91 0.11,-0.51 0.21,-1.02 0.32,-1.53zm-3.12 -1.86c-0.47,-0.27 -0.93,-0.55 -1.39,-0.82 -0.87,1.14 -1.72,2.28 -2.58,3.42 0.61,0.36 1.2,0.72 1.81,1.08 0.72,-1.22 1.44,-2.45 2.16,-3.68zm-1.76 -1.03c-0.99,-0.59 -1.97,-1.18 -2.96,-1.76 -1.09,1 -2.19,1.99 -3.27,2.97 1.22,0.74 2.44,1.47 3.67,2.21 0.34,-0.45 0.67,-0.9 1.01,-1.35 -1.14,-0.68 -2.27,-1.35 -3.4,-2.02 0.06,-0.05 0.1,-0.09 0.16,-0.14 1.11,0.66 2.23,1.33 3.36,2 0.32,-0.43 0.64,-0.86 0.97,-1.29 -1.04,-0.62 -2.07,-1.23 -3.1,-1.84 0.06,-0.04 0.1,-0.09 0.16,-0.14 1.01,0.61 2.03,1.21 3.06,1.82 0.11,-0.16 0.23,-0.31 0.34,-0.46zm-0.06 4.91c1.26,0.75 2.52,1.51 3.79,2.27 1.27,0.76 2.55,1.53 3.83,2.3 -0.05,-0.04 -0.1,-0.07 -0.16,-0.1 0.09,-0.61 0.18,-1.21 0.26,-1.81 -1.15,-0.69 -2.3,-1.38 -3.45,-2.06 -1.15,-0.69 -2.29,-1.37 -3.42,-2.05 -0.29,0.49 -0.57,0.97 -0.85,1.45zm2.68 -14.99c-1.02,-0.59 -2.45,-0.23 -1.6,1.38 0.34,0.66 0.88,1.19 1.38,1.47 0.48,0.29 1.06,0.43 1.49,0.23 0.63,-0.28 0.49,-1.18 -0.05,-1.96 -0.32,-0.47 -0.78,-0.87 -1.22,-1.12zm-0.01 0.82c-0.27,-0.15 -0.57,-0.15 -0.65,0.12 -0.07,0.27 0.21,0.73 0.54,0.92 0.33,0.19 0.66,0.11 0.65,-0.23 0,-0.34 -0.28,-0.66 -0.54,-0.81zm-1.44 -1.72c0.94,-0.17 2.27,0.58 3.08,1.77 0.42,0.61 0.73,1.43 0.65,2.18 -0.06,0.55 -0.33,0.91 -0.72,1.09 -1.09,0.48 -2.77,-0.53 -3.63,-2.16 -0.29,-0.57 -0.45,-1.16 -0.4,-1.68 0.08,-0.73 0.54,-1.12 1.02,-1.2z"/>
   <path class="fil75" d="M325.27 52.68c-2.96,-1.7 -5.92,-3.41 -8.88,-5.12 -2.98,-1.72 -5.96,-3.44 -8.94,-5.16 -0.62,-0.35 -1.11,-1.25 -1.11,-2.02 0,-0.75 0.49,-1.08 1.1,-0.73 2.99,1.73 5.97,3.45 8.94,5.16 2.96,1.72 5.92,3.43 8.87,5.13 0.6,0.35 1.09,1.24 1.09,2 0.01,0.76 -0.47,1.09 -1.07,0.74zm0.04 6.88c-2.96,-1.7 -5.93,-3.4 -8.9,-5.11 -2.98,-1.71 -5.97,-3.43 -8.96,-5.15 -0.61,-0.35 -1.11,-1.25 -1.11,-2.01 0,-0.77 0.49,-1.1 1.11,-0.75 2.99,1.72 5.97,3.44 8.95,5.15 2.97,1.71 5.93,3.41 8.89,5.12 0.6,0.34 1.09,1.23 1.1,2 0,0.76 -0.48,1.1 -1.08,0.75zm0.04 6.91c-2.97,-1.7 -5.94,-3.4 -8.92,-5.1 -2.99,-1.71 -5.98,-3.42 -8.98,-5.14 -0.61,-0.35 -1.11,-1.25 -1.11,-2.02 0,-0.77 0.5,-1.11 1.11,-0.75 3,1.71 5.99,3.42 8.97,5.13 2.98,1.71 5.95,3.41 8.91,5.11 0.61,0.35 1.1,1.24 1.1,2.01 0,0.76 -0.48,1.1 -1.08,0.76zm0.04 6.93c-2.98,-1.69 -5.95,-3.39 -8.94,-5.08 -2.99,-1.71 -5.99,-3.41 -9,-5.12 -0.61,-0.36 -1.11,-1.26 -1.11,-2.03 0,-0.77 0.5,-1.12 1.11,-0.76 3.01,1.71 6,3.42 8.99,5.12 2.99,1.7 5.96,3.4 8.93,5.1 0.61,0.34 1.1,1.24 1.1,2 0.01,0.77 -0.48,1.12 -1.08,0.77zm0.04 6.96c-2.98,-1.68 -5.97,-3.37 -8.96,-5.07 -2.99,-1.7 -6,-3.4 -9.01,-5.11 -0.62,-0.35 -1.12,-1.25 -1.12,-2.03 0,-0.77 0.5,-1.11 1.12,-0.76 3.01,1.71 6.01,3.41 9,5.11 2.99,1.7 5.98,3.39 8.95,5.08 0.61,0.34 1.1,1.24 1.11,2.01 0,0.77 -0.48,1.12 -1.09,0.77zm2.36 -34.41c-3.8,-2.2 -7.61,-4.41 -11.43,-6.63 -3.83,-2.22 -7.68,-4.45 -11.53,-6.68 -0.89,-0.52 -1.66,-0.29 -2.01,0.46 -0.13,0.26 -0.19,0.61 -0.19,1.01 -0.01,5.97 -0.02,11.96 -0.02,17.96 -0.01,6.03 -0.02,12.09 -0.02,18.17 0,1.54 1,3.37 2.23,4.06 3.9,2.2 7.79,4.4 11.67,6.59 3.87,2.18 7.73,4.36 11.58,6.53 0.31,0.18 0.62,0.27 0.89,0.26 0.76,0 1.29,-0.68 1.28,-1.81 -0.04,-6.04 -0.09,-12.06 -0.13,-18.06 -0.04,-5.97 -0.09,-11.93 -0.13,-17.86 -0.01,-1.51 -1,-3.31 -2.19,-4z"/>
  </g>
 </g>
</svg>
