<?xml version="1.0" encoding="UTF-8"?>
<!DOCTYPE svg PUBLIC "-//W3C//DTD SVG 1.1//EN" "http://www.w3.org/Graphics/SVG/1.1/DTD/svg11.dtd">
<!-- Creator: CorelDRAW 2020 (64 Bit) -->
<svg xmlns="http://www.w3.org/2000/svg" xml:space="preserve" width="25.0246mm" height="21.2796mm" version="1.1" style="shape-rendering:geometricPrecision; text-rendering:geometricPrecision; image-rendering:optimizeQuality; fill-rule:evenodd; clip-rule:evenodd"
viewBox="0 0 152.81 129.94"
 xmlns:xlink="http://www.w3.org/1999/xlink"
 xmlns:xodm="http://www.corel.com/coreldraw/odm/2003">
 <defs>
  <style type="text/css">
   <![CDATA[
    .fil9 {fill:#FEFEFE;fill-rule:nonzero}
    .fil7 {fill:#EFEFEF;fill-rule:nonzero}
    .fil8 {fill:#E5E6E5;fill-rule:nonzero}
    .fil5 {fill:#E0E1E0;fill-rule:nonzero}
    .fil46 {fill:#DBF0EE;fill-rule:nonzero}
    .fil6 {fill:#D9DAD9;fill-rule:nonzero}
    .fil17 {fill:#D2D4D4;fill-rule:nonzero}
    .fil27 {fill:#BBE3E3;fill-rule:nonzero}
    .fil45 {fill:#AFDEDD;fill-rule:nonzero}
    .fil25 {fill:#A8B8BB;fill-rule:nonzero}
    .fil41 {fill:#98D6D2;fill-rule:nonzero}
    .fil34 {fill:#95A0A2;fill-rule:nonzero}
    .fil14 {fill:#95A9AF;fill-rule:nonzero}
    .fil35 {fill:#94A7AB;fill-rule:nonzero}
    .fil37 {fill:#919FA2;fill-rule:nonzero}
    .fil42 {fill:#8ED2CE;fill-rule:nonzero}
    .fil24 {fill:#85D0CF;fill-rule:nonzero}
    .fil10 {fill:#6CC9C7;fill-rule:nonzero}
    .fil28 {fill:#637C84;fill-rule:nonzero}
    .fil21 {fill:#55C2B9;fill-rule:nonzero}
    .fil33 {fill:#617980;fill-rule:nonzero}
    .fil36 {fill:#576C72;fill-rule:nonzero}
    .fil38 {fill:#4A5F66;fill-rule:nonzero}
    .fil40 {fill:#465C62;fill-rule:nonzero}
    .fil22 {fill:#3D4E53;fill-rule:nonzero}
    .fil11 {fill:#42616A;fill-rule:nonzero}
    .fil30 {fill:#405D66;fill-rule:nonzero}
    .fil23 {fill:#3A4A4F;fill-rule:nonzero}
    .fil31 {fill:#3D5A63;fill-rule:nonzero}
    .fil39 {fill:#3B535B;fill-rule:nonzero}
    .fil18 {fill:#39545B;fill-rule:nonzero}
    .fil26 {fill:#384E55;fill-rule:nonzero}
    .fil29 {fill:#326166;fill-rule:nonzero}
    .fil4 {fill:#00B3A9;fill-rule:nonzero}
    .fil32 {fill:#1E7C7D;fill-rule:nonzero}
    .fil44 {fill:#2C3C43;fill-rule:nonzero}
    .fil20 {fill:#00B09F;fill-rule:nonzero}
    .fil48 {fill:#009D89;fill-rule:nonzero}
    .fil47 {fill:#007364;fill-rule:nonzero}
    .fil2 {fill:black;fill-rule:nonzero}
    .fil13 {fill:#074669;fill-rule:nonzero}
    .fil15 {fill:#0A6092;fill-rule:nonzero}
    .fil19 {fill:#0B9AC2;fill-rule:nonzero}
    .fil3 {fill:#333333;fill-rule:nonzero}
    .fil12 {fill:#333333;fill-rule:nonzero}
    .fil1 {fill:#4D4D4D;fill-rule:nonzero}
    .fil16 {fill:#791D1F;fill-rule:nonzero}
    .fil43 {fill:#B3B3B3;fill-rule:nonzero}
    .fil0 {fill:#B3B3B3;fill-rule:nonzero}
   ]]>
  </style>
 </defs>
 <g id="Camada_x0020_1">
  <metadata id="CorelCorpID_0Corel-Layer"/>
  <path class="fil0" d="M95.41 123.61c0.31,0 0.62,-0.07 0.86,-0.2l44.26 -26.01 -16.44 -9.62 -44.84 25.78c-0.47,0.27 -0.47,0.72 -0,0.99l15.31 8.86c0.24,0.14 0.55,0.21 0.86,0.21z"/>
  <path class="fil1" d="M140.55 94.77c0,-0.18 -0.12,-0.36 -0.35,-0.5l-14.38 -8.3c-0.47,-0.27 -1.24,-0.27 -1.72,0l-43.88 25.37c-0.24,0.14 -0.35,0.32 -0.35,0.5 0,0.18 0,1.33 0,1.51 -0,0.18 0.12,0.36 0.36,0.5l14.37 8.3c0.47,0.27 1.24,0.27 1.72,-0l43.88 -25.33c0.24,-0.14 0.35,-0.31 0.35,-0.49 0,-0.18 0,-1.37 0,-1.55z"/>
  <path class="fil2" d="M94.6 120.6l-14.37 -8.26c-0.48,-0.27 -0.48,-0.72 -0,-0.99l43.88 -25.37c0.47,-0.27 1.24,-0.27 1.72,0l14.38 8.3c0.47,0.27 0.47,0.72 0,0.99l-43.88 25.33c-0.47,0.27 -1.24,0.27 -1.72,0z"/>
  <path class="fil3" d="M95.4 120.81l0 1.54c-0.29,-0.01 -0.58,-0.07 -0.81,-0.2l-14.37 -8.3c-0.24,-0.14 -0.36,-0.32 -0.36,-0.5l0 -1.51c0,0.18 0.12,0.36 0.36,0.5l14.37 8.27c0.22,0.13 0.52,0.19 0.81,0.2z"/>
  <path class="fil4" d="M84.52 111.63l-0.01 -0.02 -0.6 -0.36 -1.21 0.7 0.62 0.38 1.2 -0.69 0 -0.01zm1.97 -1.14l-0.01 -0.02 -0.6 -0.36 -1.2 0.7 0.62 0.38 1.2 -0.69 0 -0.01zm1.31 3.03l-0.01 -0.02 -1.42 -0.82 -1.2 0.7 1.43 0.85 1.2 -0.69 0 -0.01zm0.67 -4.17l-0.01 -0.02 -0.6 -0.36 -1.2 0.7 0.62 0.38 1.2 -0.69 0 -0.01zm1.31 3.03l-0.01 -0.02 -1.42 -0.82 -1.2 0.7 1.43 0.85 1.2 -0.69 0 -0.01zm0.66 -4.17l-0.01 -0.02 -0.6 -0.36 -1.2 0.7 0.62 0.38 1.2 -0.69 0 -0.01zm1.31 3.03l-0.01 -0.02 -1.42 -0.82 -1.2 0.7 1.43 0.85 1.2 -0.69 0 -0.01zm0.26 2.42l-0.01 -0.02 -1.42 -0.82 -1.2 0.7 1.43 0.85 1.2 -0.69 0 -0.01zm0.26 2.42l-0.01 -0.02 -3.65 -2.11 -1.2 0.7 3.66 2.14 1.2 -0.69 0 -0.01zm1.14 -8.92l-0.01 -0.02 -1.42 -0.82 -1.2 0.7 1.43 0.85 1.2 -0.69 0 -0.01zm0.32 2.94l-0.01 -0.02 -1.42 -0.82 -1.2 0.7 1.43 0.85 1.2 -0.7 0 -0.01zm0.26 2.42l-0.01 -0.02 -1.42 -0.82 -1.2 0.7 1.43 0.85 1.2 -0.69 0 -0.01zm0.26 2.42l-0.01 -0.02 -1.42 -0.82 -1.2 0.7 1.43 0.85 1.2 -0.69 0 -0.01zm1.14 -8.93l-0.01 -0.02 -1.42 -0.82 -1.2 0.7 1.43 0.85 1.2 -0.69 0 -0.01zm0.57 5.36l-0.01 -0.02 -1.42 -0.82 -1.2 0.7 1.43 0.85 1.2 -0.69 0 -0.01zm0.16 -2.66l-0.01 -0.02 -1.42 -0.82 -1.21 0.7 1.43 0.85 1.2 -0.69 0 -0.01zm0.1 5.09l-0.01 -0.02 -1.42 -0.82 -1.2 0.7 1.43 0.85 1.2 -0.69 0 -0.01zm0.26 2.42l-0.01 -0.02 -1.42 -0.82 -1.2 0.69 1.43 0.85 1.2 -0.69 0 -0.01zm0.26 2.42l-0.01 -0.02 -3.65 -2.11 -1.2 0.7 3.66 2.14 1.2 -0.69 0 -0.01zm0.63 -13.77l-0.01 -0.02 -1.42 -0.82 -1.2 0.7 1.43 0.85 1.2 -0.69 0 -0.01zm0.73 2.7l-0.01 -0.02 -1.42 -0.82 -1.21 0.69 1.43 0.85 1.2 -0.69 0 -0.01zm0.1 5.09l-0.01 -0.02 -1.42 -0.82 -1.2 0.69 1.43 0.85 1.2 -0.69 0 -0.01zm0.16 -2.66l-0.01 -0.02 -1.42 -0.82 -1.2 0.7 1.43 0.85 1.2 -0.69 0 -0.01zm0.1 5.09l-0.01 -0.02 -1.42 -0.82 -1.21 0.69 1.43 0.85 1.2 -0.69 0 -0.01zm0.26 2.42l-0.01 -0.02 -1.42 -0.82 -1.21 0.69 1.43 0.85 1.2 -0.7 0 -0.01zm1.06 -14.03l-0.01 -0.02 -1.42 -0.82 -1.2 0.7 1.43 0.85 1.2 -0.69 0 -0.01zm0.3 2.95l-0.01 -0.02 -1.42 -0.82 -1.2 0.7 1.43 0.85 1.2 -0.69 0 -0.01zm0.26 2.42l-0.01 -0.02 -1.42 -0.82 -1.2 0.69 1.43 0.85 1.2 -0.69 0 -0.01zm0.1 5.09l-0.01 -0.02 -1.42 -0.82 -1.21 0.7 1.43 0.85 1.2 -0.69 0 -0.01zm1.32 -11.6l-0.01 -0.02 -1.42 -0.82 -1.2 0.7 1.43 0.85 1.2 -0.69 0 -0.01zm0.55 5.37l-0.01 -0.02 -1.42 -0.82 -1.21 0.7 1.43 0.85 1.2 -0.69 0 -0.01zm0.35 7.51l-0.01 -0.02 -1.42 -0.82 -3.18 1.83 1.43 0.85 3.17 -1.83 0 -0.01zm0.74 -10.72l-0.01 -0.02 -1.42 -0.82 -2.14 1.23 1.43 0.85 2.13 -1.23 0 -0.01zm0.33 -3.31l-0.01 -0.02 -1.42 -0.82 -1.2 0.7 1.43 0.85 1.2 -0.69 0 -0.01zm1.07 10.22l-0.01 -0.02 -1.42 -0.82 -1.2 0.7 1.43 0.85 1.2 -0.69 0 -0.01zm0.26 2.42l-0.01 -0.02 -1.42 -0.82 -1.2 0.7 1.43 0.85 1.2 -0.69 0 -0.01zm0.32 -10.48l-0.01 -0.02 -1.42 -0.82 -1.21 0.7 1.43 0.85 1.2 -0.69 0 -0.01zm0.32 -3.31l-0.01 -0.02 -1.42 -0.82 -1.21 0.7 1.43 0.85 1.2 -0.69 0 -0.01zm1.18 5.02l-0.01 -0.02 -1.42 -0.82 -1.2 0.7 1.43 0.85 1.2 -0.69 0 -0.01zm0.15 7.63l-0.01 -0.02 -1.42 -0.82 -1.2 0.7 1.43 0.85 1.2 -0.69 0 -0.01zm0.32 -10.48l-0.01 -0.02 -1.42 -0.82 -1.21 0.69 1.43 0.85 1.2 -0.69 0 -0.01zm1.18 -3.8l-0.01 -0.02 -1.42 -0.82 -1.21 0.7 1.43 0.85 1.2 -0.69 0 -0.01zm0.06 8.23l-0.01 -0.02 -1.42 -0.82 -1.1 0.64c-0.08,0.04 -0.21,0.07 -0.35,0.07 -0.15,0 -0.28,-0.03 -0.36,-0.08l-1.87 -1.08 -1.41 0.82 3.66 2.14 2.86 -1.65 0 -0.01zm0.26 -2.72l-0.01 -0.02 -1.42 -0.82 -1.2 0.7 1.43 0.85 1.2 -0.69 0 -0.01zm0.15 7.63l-0.01 -0.02 -1.42 -0.82 -1.2 0.7 1.43 0.85 1.2 -0.69 0 -0.01zm0.32 -10.48l-0.01 -0.02 -1.42 -0.82 -1.2 0.7 1.43 0.85 1.2 -0.69 0 -0.01zm1.18 -3.8l-0.01 -0.02 -1.42 -0.82 -1.21 0.7 1.43 0.85 1.2 -0.69 0 -0.01zm0.06 8.23l-0.01 -0.02 -1.42 -0.82 -1.2 0.7 1.43 0.85 1.2 -0.69 0 -0.01zm0.26 -2.72l-0.01 -0.02 -1.42 -0.82 -1.2 0.7 1.43 0.85 1.2 -0.69 0 -0.01zm0.47 -2.84l-0.01 -0.02 -1.42 -0.82 -1.2 0.7 1.43 0.85 1.2 -0.69 0 -0.01zm0.46 7.45l-0.01 -0.02 -1.42 -0.82 -3.8 2.19 1.43 0.85 3.8 -2.19 0 -0.01zm0.36 2.36l-0.01 -0.02 -1.42 -0.82 -1.93 1.12 1.43 0.85 1.93 -1.11 0 -0.01zm0.36 -13.62l-0.01 -0.02 -1.42 -0.82 -1.21 0.7 1.43 0.85 1.2 -0.69 0 -0.01zm0.06 8.24l-0.01 -0.02 -1.42 -0.82 -1.2 0.7 1.43 0.85 1.2 -0.7 0 -0.01zm0.26 -2.72l-0.01 -0.02 -1.42 -0.82 -1.2 0.7 1.43 0.85 1.2 -0.69 0 -0.01zm0.47 -2.84l-0.01 -0.02 -1.42 -0.82 -1.2 0.69 1.43 0.85 1.2 -0.69 0 -0.01zm0.46 7.45l-0.01 -0.02 -1.42 -0.82 -1.2 0.7 1.43 0.85 1.2 -0.69 0 -0.01zm0.67 2.19l-0.01 -0.02 -1.42 -0.82 -1.52 0.88 1.43 0.85 1.52 -0.87 0 -0.01zm0.05 -13.44l-0.01 -0.02 -1.42 -0.82 -1.21 0.7 1.43 0.85 1.2 -0.69 0 -0.01zm0.06 8.23l-0.01 -0.02 -1.42 -0.82 -1.2 0.7 1.43 0.85 1.2 -0.69 0 -0.01zm0.26 -2.72l-0.01 -0.02 -1.42 -0.82 -1.2 0.7 1.43 0.85 1.2 -0.69 0 -0.01zm0.47 -2.84l-0.01 -0.02 -1.42 -0.82 -1.2 0.69 1.43 0.85 1.2 -0.69 0 -0.01zm0.46 7.45l-0.01 -0.02 -1.42 -0.82 -1.2 0.7 1.43 0.85 1.2 -0.69 0 -0.01zm0.78 -3.02l-0.01 -0.02 -1.42 -0.82 -1.2 0.7 1.43 0.85 1.2 -0.69 0 -0.01zm0.2 5.03l-0.01 -0.02 -1.42 -0.82 -1.52 0.88 1.43 0.85 1.51 -0.87 0 -0.01zm0.06 -7.75l-0.01 -0.02 -1.42 -0.82 -1.2 0.7 1.43 0.85 1.2 -0.69 0 -0.01zm0.47 -2.84l-0.01 -0.02 -1.42 -0.82 -1.2 0.7 1.43 0.85 1.2 -0.69 0 -0.01zm0.07 -3.16l-0.01 -0.02 -1.42 -0.82 -1.21 0.7 1.43 0.85 1.2 -0.69 0 -0.01zm0.39 10.61l-0.01 -0.02 -1.42 -0.82 -1.2 0.7 1.43 0.85 1.2 -0.69 0 -0.01zm0.78 -3.02l-0.01 -0.02 -1.42 -0.82 -1.2 0.7 1.43 0.85 1.2 -0.7 0 -0.01zm0.26 -2.72l-0.01 -0.02 -1.42 -0.82 -1.2 0.7 1.43 0.85 1.2 -0.69 0 -0.01zm0.25 7.57l-0.01 -0.02 -1.42 -0.82 -1.52 0.88 1.43 0.85 1.51 -0.87 0 -0.01zm0.22 -10.42l-0.01 -0.02 -1.42 -0.82 -1.2 0.7 1.43 0.85 1.2 -0.69 0 -0.01zm0.07 -3.16l-0.01 -0.02 -1.42 -0.82 -1.2 0.69 1.43 0.85 1.2 -0.69 0 -0.01zm0.39 10.61l-0.01 -0.02 -1.42 -0.82 -1.2 0.7 1.43 0.85 1.2 -0.69 0 -0.01zm0.78 -3.02l-0.01 -0.02 -1.42 -0.82 -1.2 0.7 1.43 0.85 1.2 -0.69 0 -0.01zm0.26 -2.72l-0.01 -0.02 -1.42 -0.82 -1.2 0.7 1.43 0.85 1.2 -0.69 0 -0.01zm0.47 -2.84l-0.01 -0.02 -1.42 -0.82 -1.2 0.7 1.43 0.85 1.2 -0.69 0 -0.01zm0.07 -3.16l-0.01 -0.02 -1.42 -0.82 -1.21 0.7 1.43 0.85 1.2 -0.69 0 -0.01zm0.39 10.61l-0.01 -0.02 -1.42 -0.82 -1.2 0.7 1.43 0.85 1.2 -0.69 0 -0.01zm0.78 -3.02l-0.01 -0.02 -1.42 -0.82 -1.2 0.7 1.43 0.85 1.2 -0.69 0 -0.01zm0.26 -2.72l-0.01 -0.02 -1.42 -0.82 -1.2 0.7 1.43 0.85 1.2 -0.69 0 -0.01zm0.47 -2.84l-0.01 -0.02 -1.42 -0.82 -1.2 0.7 1.43 0.85 1.2 -0.69 0 -0.01zm0.07 -3.16l-0.01 -0.02 -1.42 -0.82 -1.2 0.7 1.43 0.85 1.2 -0.69 0 -0.01zm0.39 10.61l-0.01 -0.02 -1.42 -0.82 -1.2 0.7 1.43 0.85 1.2 -0.69 0 -0.01zm0.78 -3.02l-0.01 -0.02 -1.42 -0.82 -1.2 0.7 1.43 0.85 1.2 -0.69 0 -0.01zm0.26 -2.72l-0.01 -0.02 -1.42 -0.82 -1.21 0.7 1.43 0.85 1.2 -0.69 0 -0.01zm0.47 -2.84l-0.01 -0.02 -1.42 -0.82 -1.2 0.69 1.43 0.85 1.2 -0.69 0 -0.01zm0.46 7.45l-0.01 -0.02 -1.42 -0.82 -1.2 0.7 1.43 0.85 1.2 -0.69 0 -0.01zm0.78 -11.29l-0.01 -0.02 -1.42 -0.82 -1.52 0.88 1.43 0.85 1.51 -0.88 0 -0.01zm0 8.27l-0.01 -0.02 -1.42 -0.82 -1.2 0.7 1.43 0.85 1.2 -0.69 0 -0.01zm0.26 -2.72l-0.01 -0.02 -1.42 -0.82 -1.2 0.7 1.43 0.85 1.2 -0.69 0 -0.01zm0.47 -2.84l-0.01 -0.02 -1.42 -0.82 -1.2 0.7 1.43 0.85 1.2 -0.69 0 -0.01zm0.46 7.45l-0.01 -0.02 -1.42 -0.82 -1.2 0.7 1.43 0.85 1.2 -0.69 0 -0.01zm0.78 -3.02l-0.01 -0.02 -1.42 -0.82 -1.2 0.69 1.43 0.85 1.2 -0.69 0 -0.01zm0.26 -2.72l-0.01 -0.02 -1.42 -0.82 -1.2 0.7 1.43 0.85 1.2 -0.69 0 -0.01zm0.47 -2.84l-0.01 -0.02 -1.42 -0.82 -1.2 0.7 1.43 0.85 1.2 -0.69 0 -0.01zm0.46 7.45l-0.01 -0.02 -1.42 -0.82 -1.2 0.7 1.43 0.85 1.2 -0.69 0 -0.01zm0.78 -3.02l-0.01 -0.02 -1.42 -0.82 -1.2 0.7 1.43 0.85 1.2 -0.69 0 -0.01zm0.41 4.91l-0.01 -0.02 -1.42 -0.82 -10.96 6.33 1.43 0.85 10.95 -6.33 0 -0.01zm0.58 -8.05l-0.01 -0.02 -1.42 -0.82 -1.93 1.11 1.43 0.85 1.93 -1.11 0 -0.01zm0.2 5.03l-0.01 -0.02 -1.42 -0.82 -1.2 0.7 1.43 0.85 1.2 -0.69 0 -0.01zm1.5 1.7l-0.01 -0.02 -1.42 -0.82 -1.52 0.88 1.43 0.85 1.51 -0.88 0 -0.01zm0.47 -2.84l-0.01 -0.02 -1.42 -0.82 -1.2 0.69 1.43 0.85 1.2 -0.69 0 -0.01zm0.05 -2.6l-0.01 -0.02 -1.42 -0.82 -2.45 1.41 1.43 0.85 2.45 -1.41 0 -0.01zm1.76 4.13l-0.01 -0.02 -1.42 -0.82 -1.52 0.87 1.43 0.85 1.51 -0.87 0 -0.01zm0.47 -2.84l-0.01 -0.02 -1.42 -0.82 -1.52 0.88 1.43 0.85 1.51 -0.87 0 -0.01zm2.23 1.29l-0.01 -0.02 -1.42 -0.82 -1.93 1.11 1.43 0.85 1.93 -1.11 0 -0.01z"/>
  <path class="fil5" d="M82 103.61l9.61 -5.56c0.99,-0.57 1.49,-1.32 1.49,-2.07 0,-0.75 0,-1.34 0,-1.34l-9.04 -5.13c-0.53,-0.31 -0.96,-1.05 -0.96,-1.66l0 -11.85 -16.79 9.7 -0 11.85c0,0.61 0.43,1.35 0.96,1.66l7.56 4.4c1.98,1.14 5.19,1.14 7.18,0z"/>
  <path class="fil6" d="M70.34 99.65l0 1.33 -3.08 -1.77c-0.53,-0.3 -0.96,-1.04 -0.96,-1.66l0 -11.85 3.2 -1.84c0.07,0.81 0.14,1.65 0.21,2.47l-2.24 1.3 0 9.26c0,0.61 0.43,1.35 0.96,1.66l1.92 1.11z"/>
  <path class="fil7" d="M67.46 96.89c0,0.61 0.43,1.35 0.96,1.66l6.4 3.73c1.98,1.14 5.2,1.14 7.18,0l9.62 -5.56c1.98,-1.14 1.98,-3 0,-4.14l-6.4 -3.73c-0.53,-0.3 -0.96,-1.05 -0.96,-1.66l0 -9.26 -16.79 9.7 0 9.26z"/>
  <path class="fil8" d="M87.16 89.97l0 -0 -1.95 -1.13c-0.53,-0.3 -0.96,-1.05 -0.96,-1.66l0 -9.26 -16.79 9.7 0 9.26c0,0.61 0.43,1.35 0.96,1.66l1.92 1.11 16.82 -9.68z"/>
  <path class="fil8" d="M93.1 94.64c0,0 0,0.59 0,1.34 0,0.75 -0.5,1.5 -1.49,2.07l-9.61 5.56c-0.95,0.55 -2.18,0.83 -3.43,0.85l0 -1.33c1.24,-0.02 2.47,-0.3 3.43,-0.85l9.61 -5.56c0.99,-0.57 1.49,-1.32 1.49,-2.07z"/>
  <path class="fil3" d="M40.51 109.67c0.62,0.36 1.66,0.34 2.32,-0.04 8.25,-4.77 56.68,-32.72 64.93,-37.49 0.66,-0.38 1.2,-1.31 1.2,-2.07l0 -56.83c0,-0.76 -0.5,-1.67 -1.12,-2.03 -0.62,-0.36 -1.66,-0.34 -2.32,0.04l-64.93 37.49c-0.66,0.38 -1.2,1.31 -1.2,2.07l-0 56.83c0,0.76 0.5,1.67 1.12,2.03z"/>
  <path class="fil2" d="M42.82 109.63l64.93 -37.49c0.66,-0.38 1.2,-1.31 1.2,-2.07l0 -56.84c0,-0.76 -0.54,-1.07 -1.2,-0.69l-64.93 37.49c-0.66,0.38 -1.2,1.31 -1.2,2.07l-0 56.83c0,0.76 0.54,1.07 1.2,0.69z"/>
  <path class="fil6" d="M42.65 109.86c-0.66,0.29 -1.58,0.28 -2.14,-0.04 -0.62,-0.36 -1.12,-1.27 -1.12,-2.03l0 -6.39 2.24 1.3 0 6.39c0,0.7 0.44,1.01 1.02,0.78z"/>
  <path class="fil9" d="M41.63 102.69l0 6.39c0,0.76 0.54,1.07 1.2,0.69l64.93 -37.49c0.66,-0.38 1.2,-1.31 1.2,-2.07l0 -6.39 -67.32 38.87z"/>
  <path class="fil4" d="M43.87 97.83l0 -44.98c0,-0.46 0.32,-1.01 0.72,-1.24l61.4 -35.45c0.4,-0.23 0.72,-0.04 0.72,0.41l0 44.98c0,0.46 -0.32,1.01 -0.72,1.24l-61.4 35.45c-0.4,0.23 -0.72,0.04 -0.72,-0.42z"/>
  <path class="fil10" d="M44.27 98.34c0.1,0 0.21,-0.03 0.32,-0.1l61.4 -35.45c0.4,-0.23 0.72,-0.79 0.72,-1.24l-0 -44.98c0,-0.32 -0.16,-0.51 -0.4,-0.51 -0.1,0 -0.21,0.03 -0.32,0.1l-7.65 4.42 0 36.19c0,0.73 -0.51,1.62 -1.15,1.98l-53.32 30.78 -0 8.3c0,0.33 0.16,0.51 0.4,0.51z"/>
  <path class="fil11" d="M75.29 85.7c-0.62,0.36 -1.12,1.23 -1.12,1.94 0,0.72 0.5,1.01 1.12,0.65 0.62,-0.36 1.12,-1.23 1.12,-1.94 0,-0.72 -0.5,-1.01 -1.12,-0.65z"/>
  <path class="fil12" d="M41.98 50.92c-0.22,0.38 -0.35,0.8 -0.35,1.18l0 50.59 -2.24 -1.3 0 -50.59c0,-0.38 0.14,-0.81 0.35,-1.18l2.24 1.29z"/>
  <path class="fil11" d="M98.33 1.5l-0.02 -0.11 -0 -0.02 -0.03 -0.1 -0.07 -0.15 -0.04 -0.06 -0.03 -0.04 -0.08 -0.08 -0.01 -0.01 -0.1 -0.06c-0.21,-0.1 -0.47,-0.07 -0.77,0.1l-75.78 43.73c-0.63,0.36 -1.15,1.25 -1.15,1.98l0 54.84 0 0.01 0 0.25c0,0.31 0.17,0.56 0.41,0.69l0.05 0.03 0.06 0.03 0.1 0.03 0.15 0.02c0.12,0 0.25,-0.03 0.38,-0.11l0.03 -0.02 0 -0 1.09 -0.63 74.65 -43.1c0.63,-0.36 1.15,-1.25 1.15,-1.98l0 -55.12 -0.01 -0.14z"/>
  <path class="fil4" d="M97.96 0.88c-0.21,-0.1 -0.47,-0.07 -0.77,0.1l-75.78 43.73c-0.63,0.36 -1.15,1.25 -1.15,1.98l0 3.74 -1.46 -0.86 0 -3.72c0,-0.73 0.51,-1.62 1.14,-1.98l75.78 -43.73c0.33,-0.19 0.62,-0.2 0.83,-0.07 0.21,0.12 1.16,0.67 1.4,0.8z"/>
  <path class="fil13" d="M98.33 1.63c-0,-0.72 -0.51,-1.01 -1.14,-0.65l-75.78 43.73c-0.63,0.36 -1.14,1.25 -1.14,1.98l0 3.74 78.06 -45.05 0 -3.76z"/>
  <path class="fil9" d="M19.48 44.27c0.14,-0.16 0.3,-0.29 0.47,-0.39l75.78 -43.73c0.17,-0.1 0.34,-0.15 0.49,-0.16 -0.15,0 -0.31,0.05 -0.49,0.15l-75.78 43.73c-0.17,0.1 -0.33,0.23 -0.47,0.39zm78.47 -43.4c-0.26,-0.14 -1.18,-0.67 -1.38,-0.79 -0.04,-0.03 -0.09,-0.04 -0.13,-0.06 0.05,0.01 0.09,0.03 0.13,0.06 0.2,0.12 1.12,0.65 1.38,0.79z"/>
  <path class="fil14" d="M20.67 45.46c0.2,-0.31 0.46,-0.58 0.74,-0.75l18.41 -10.62 57.37 -33.11c0.09,-0.05 0.17,-0.09 0.25,-0.11 -0.08,0.03 -0.17,0.06 -0.25,0.11l-75.78 43.73c-0.28,0.16 -0.54,0.43 -0.74,0.75z"/>
  <path class="fil15" d="M20.61 45.56c0.02,-0.03 0.04,-0.07 0.06,-0.1 0.2,-0.31 0.46,-0.58 0.74,-0.75l75.78 -43.73c0.09,-0.05 0.17,-0.09 0.25,-0.11 0.09,-0.03 0.18,-0.04 0.26,-0.04 0.07,0 0.14,0.01 0.2,0.03 0.02,0.01 0.03,0.01 0.05,0.02 -0,-0 -0,-0 -0,-0 -0.27,-0.14 -1.18,-0.67 -1.38,-0.79 -0.04,-0.03 -0.09,-0.05 -0.13,-0.06 -0.06,-0.02 -0.12,-0.03 -0.19,-0.03 -0.01,0 -0.01,0 -0.02,0 -0.15,0 -0.31,0.05 -0.49,0.16l-75.78 43.73c-0.17,0.1 -0.33,0.23 -0.47,0.39 -0.12,0.13 -0.23,0.28 -0.32,0.45l0 0 1.46 0.84z"/>
  <path class="fil16" d="M20.61 45.56c0.21,-0.35 0.49,-0.66 0.8,-0.84l18.41 -10.62 -18.41 10.62c-0.28,0.16 -0.54,0.43 -0.74,0.75 -0.02,0.03 -0.04,0.07 -0.06,0.1l0 0zm77.35 -44.68c-0,-0 -0.01,-0 -0.01,-0 -0.02,-0.01 -0.03,-0.01 -0.05,-0.02 0.02,0.01 0.04,0.02 0.06,0.02z"/>
  <path class="fil17" d="M20.27 50.44l0 -3.74 0 3.74 -1.46 -0.86 0 -3.72c0,-0.1 0.01,-0.21 0.03,-0.31 -0.02,0.11 -0.03,0.21 -0.03,0.31l-0 3.72 1.17 0.69 0.29 0.17z"/>
  <path class="fil18" d="M20.27 50.44l0 0 -0 -3.74c0,-0.3 0.09,-0.62 0.23,-0.93 -0.15,0.3 -0.23,0.63 -0.23,0.93l0 3.74 0 0z"/>
  <path class="fil19" d="M20.27 50.44l0 -3.74c0,-0.3 0.09,-0.62 0.23,-0.93 0.03,-0.07 0.07,-0.14 0.11,-0.21l-1.45 -0.84c-0.15,0.26 -0.27,0.55 -0.32,0.83 -0.02,0.11 -0.03,0.21 -0.03,0.31l0 3.72 1.46 0.86z"/>
  <path class="fil20" d="M20.27 50.44l0 -3.74c0,-0.37 0.13,-0.78 0.34,-1.14l-0 -0c-0,0 -0,0 -0,0l-0 -0c-0.04,0.07 -0.08,0.14 -0.11,0.21 -0.15,0.3 -0.23,0.63 -0.23,0.93l0 3.74z"/>
  <path class="fil21" d="M20.61 45.56c0,-0 0,-0 0,-0l-1.46 -0.84 1.45 0.84z"/>
  <path class="fil21" d="M20.61 45.56c0,-0 0,-0 0,-0l-0 -0c-0,0 -0,0 -0,0l0 0z"/>
  <path class="fil2" d="M22.85 45.5c-0.36,0.21 -0.65,0.82 -0.65,1.37 0,0.55 0.29,0.83 0.65,0.62 0.36,-0.21 0.65,-0.82 0.65,-1.37 0,-0.55 -0.29,-0.83 -0.65,-0.62z"/>
  <path class="fil2" d="M25.18 44.16c-0.36,0.21 -0.65,0.82 -0.65,1.37 0,0.55 0.29,0.83 0.65,0.62 0.36,-0.21 0.65,-0.82 0.65,-1.37 0,-0.55 -0.29,-0.83 -0.65,-0.62z"/>
  <path class="fil2" d="M27.51 42.81c-0.36,0.21 -0.65,0.82 -0.65,1.37 0,0.55 0.29,0.83 0.65,0.62 0.36,-0.21 0.65,-0.82 0.65,-1.37 0,-0.55 -0.29,-0.83 -0.65,-0.62z"/>
  <polygon class="fil22" points="18.8,69.64 20.27,68.8 20.27,50.44 19.97,50.27 18.8,49.59 18.8,49.58 "/>
  <polygon class="fil23" points="19.97,50.27 18.8,49.58 18.8,49.59 "/>
  <path class="fil4" d="M75.12 24.91l-15.98 9.21c-0.22,0.13 -0.41,0.43 -0.41,0.67 0,0.24 0.18,0.34 0.41,0.21l15.98 -9.21c0.22,-0.13 0.41,-0.43 0.41,-0.68 0,-0.24 -0.18,-0.34 -0.41,-0.21z"/>
  <path class="fil5" d="M69.02 42.53l-6.06 3.48c-0.22,0.13 -0.41,0.43 -0.41,0.68 0,0.24 0.18,0.34 0.41,0.21l6.06 -3.48c0.22,-0.13 0.41,-0.43 0.41,-0.68 0,-0.24 -0.18,-0.34 -0.41,-0.21z"/>
  <path class="fil5" d="M69.02 46.06l-6.06 3.48c-0.22,0.13 -0.41,0.43 -0.41,0.68 0,0.24 0.18,0.34 0.41,0.21l6.06 -3.48c0.22,-0.13 0.41,-0.43 0.41,-0.68 0,-0.24 -0.18,-0.34 -0.41,-0.21z"/>
  <path class="fil4" d="M57.57 35.03l-31.99 18.42c-0.22,0.13 -0.41,0.43 -0.41,0.68 0,0.24 0.18,0.34 0.41,0.21l31.98 -18.42c0.23,-0.13 0.41,-0.43 0.41,-0.67 0,-0.24 -0.18,-0.34 -0.41,-0.21z"/>
  <path class="fil4" d="M68.89 67.25l-9.74 5.64c-0.22,0.13 -0.41,0.43 -0.41,0.68 0,0.24 0.18,0.34 0.41,0.21l9.74 -5.64c0.22,-0.13 0.41,-0.43 0.41,-0.68 0,-0.24 -0.18,-0.34 -0.41,-0.21z"/>
  <path class="fil4" d="M57.57 73.79l-31.99 18.44c-0.22,0.13 -0.41,0.43 -0.41,0.68 0,0.24 0.18,0.34 0.41,0.21l31.98 -18.44c0.23,-0.13 0.41,-0.43 0.41,-0.68 0,-0.24 -0.18,-0.34 -0.41,-0.21z"/>
  <path class="fil4" d="M75.12 28.44l-8.05 4.62c-0.22,0.13 -0.41,0.43 -0.41,0.68 0,0.24 0.18,0.34 0.41,0.21l8.05 -4.62c0.22,-0.13 0.41,-0.43 0.41,-0.68 0,-0.24 -0.18,-0.34 -0.41,-0.21z"/>
  <path class="fil24" d="M66.88 34.01c0.06,0 0.12,-0.02 0.19,-0.06l8.05 -4.62c0.22,-0.13 0.41,-0.43 0.41,-0.68 0,-0.17 -0.09,-0.26 -0.21,-0.26 -0.06,0 -0.12,0.02 -0.19,0.06l-8.05 4.62c-0.22,0.13 -0.41,0.43 -0.41,0.68 0,0.17 0.09,0.26 0.22,0.26z"/>
  <path class="fil4" d="M75.12 31.96l-3.76 2.17c-0.22,0.13 -0.41,0.43 -0.41,0.67 0,0.24 0.18,0.34 0.41,0.21l3.76 -2.17c0.22,-0.13 0.41,-0.43 0.41,-0.68 0,-0.24 -0.18,-0.33 -0.41,-0.21z"/>
  <path class="fil24" d="M71.17 35.07c0.06,0 0.12,-0.02 0.19,-0.06l3.76 -2.17c0.22,-0.13 0.41,-0.43 0.41,-0.68 0,-0.17 -0.09,-0.26 -0.21,-0.26 -0.06,0 -0.12,0.02 -0.19,0.06l-3.76 2.17c-0.22,0.13 -0.41,0.43 -0.41,0.67 0,0.17 0.09,0.26 0.22,0.26z"/>
  <path class="fil4" d="M75.12 39.01l-3.76 2.17c-0.22,0.13 -0.41,0.43 -0.41,0.68 0,0.24 0.18,0.34 0.41,0.21l3.76 -2.17c0.22,-0.13 0.41,-0.43 0.41,-0.68 0,-0.24 -0.18,-0.34 -0.41,-0.21z"/>
  <path class="fil24" d="M71.17 42.12c0.06,0 0.12,-0.02 0.19,-0.06l3.76 -2.17c0.22,-0.13 0.41,-0.43 0.41,-0.68 0,-0.17 -0.09,-0.27 -0.22,-0.27 -0.06,0 -0.12,0.02 -0.19,0.06l-3.76 2.17c-0.22,0.13 -0.41,0.43 -0.41,0.68 0,0.17 0.09,0.27 0.22,0.27z"/>
  <path class="fil4" d="M75.12 42.53l-3.76 2.17c-0.22,0.13 -0.41,0.43 -0.41,0.68 0,0.24 0.18,0.34 0.41,0.21l3.76 -2.17c0.22,-0.13 0.41,-0.43 0.41,-0.68 0,-0.24 -0.18,-0.34 -0.41,-0.21z"/>
  <path class="fil24" d="M71.17 45.64c0.06,0 0.12,-0.02 0.19,-0.06l3.76 -2.17c0.22,-0.13 0.41,-0.43 0.41,-0.68 0,-0.17 -0.09,-0.26 -0.21,-0.26 -0.06,0 -0.12,0.02 -0.19,0.06l-3.76 2.17c-0.22,0.13 -0.41,0.43 -0.41,0.68 0,0.17 0.09,0.26 0.22,0.26z"/>
  <path class="fil4" d="M65.5 33.98l-4.83 2.79c-0.22,0.13 -0.41,0.43 -0.41,0.68 0,0.24 0.18,0.34 0.41,0.21l4.83 -2.79c0.22,-0.13 0.41,-0.43 0.41,-0.68 0,-0.24 -0.18,-0.34 -0.41,-0.21z"/>
  <path class="fil24" d="M60.48 37.71c0.06,0 0.12,-0.02 0.19,-0.06l4.83 -2.79c0.22,-0.13 0.41,-0.43 0.41,-0.68 0,-0.17 -0.09,-0.26 -0.22,-0.26 -0.06,0 -0.12,0.02 -0.19,0.06l-4.83 2.79c-0.22,0.13 -0.41,0.43 -0.41,0.68 0,0.17 0.09,0.26 0.22,0.26z"/>
  <path class="fil9" d="M58.04 59.46l-32.45 18.68c-0.22,0.13 -0.41,0.43 -0.41,0.68 0,0.24 0.18,0.34 0.41,0.21l32.45 -18.68c0.22,-0.13 0.41,-0.43 0.41,-0.68 0,-0.24 -0.18,-0.34 -0.41,-0.21z"/>
  <path class="fil9" d="M30.41 71.81l-4.83 2.79c-0.22,0.13 -0.41,0.43 -0.41,0.68 0,0.24 0.18,0.34 0.41,0.21l4.83 -2.8c0.22,-0.13 0.41,-0.43 0.41,-0.68 0,-0.24 -0.18,-0.34 -0.41,-0.21z"/>
  <path class="fil9" d="M64.44 52.22l-32.45 18.68c-0.22,0.13 -0.41,0.43 -0.41,0.67 0,0.24 0.18,0.34 0.41,0.21l32.45 -18.68c0.22,-0.13 0.41,-0.43 0.41,-0.68 0,-0.24 -0.18,-0.34 -0.41,-0.21z"/>
  <path class="fil4" d="M69.02 35.49l-8.05 4.62c-0.22,0.13 -0.41,0.43 -0.41,0.68 0,0.24 0.18,0.34 0.41,0.21l8.05 -4.62c0.22,-0.13 0.41,-0.43 0.41,-0.68 0,-0.24 -0.18,-0.34 -0.41,-0.21z"/>
  <path class="fil24" d="M60.78 41.05c0.06,0 0.12,-0.02 0.19,-0.06l8.05 -4.62c0.22,-0.13 0.41,-0.43 0.41,-0.68 0,-0.17 -0.09,-0.26 -0.21,-0.26 -0.06,0 -0.12,0.02 -0.19,0.06l-8.05 4.62c-0.22,0.13 -0.41,0.43 -0.41,0.68 0,0.17 0.09,0.27 0.22,0.27z"/>
  <path class="fil4" d="M59.39 41.02l-33.57 19.42c-0.22,0.13 -0.41,0.43 -0.41,0.68 0,0.24 0.18,0.34 0.41,0.21l33.57 -19.42c0.22,-0.13 0.41,-0.43 0.41,-0.67 0,-0.24 -0.18,-0.34 -0.41,-0.21z"/>
  <path class="fil24" d="M25.63 61.38c0.06,0 0.12,-0.02 0.19,-0.06l33.57 -19.42c0.22,-0.13 0.41,-0.43 0.41,-0.67 0,-0.17 -0.09,-0.27 -0.22,-0.27 -0.06,0 -0.12,0.02 -0.19,0.06l-33.57 19.42c-0.22,0.13 -0.41,0.43 -0.41,0.68 0,0.17 0.09,0.27 0.22,0.27z"/>
  <path class="fil5" d="M69.02 56.7l-43.43 25.05c-0.22,0.13 -0.41,0.43 -0.41,0.68 0,0.24 0.18,0.33 0.41,0.21l43.43 -25.05c0.22,-0.13 0.41,-0.43 0.41,-0.67 0,-0.24 -0.18,-0.34 -0.41,-0.21z"/>
  <path class="fil4" d="M75.12 53.18l-3.76 2.17c-0.22,0.13 -0.41,0.43 -0.41,0.68 0,0.24 0.18,0.34 0.41,0.21l3.76 -2.17c0.22,-0.13 0.41,-0.43 0.41,-0.68 0,-0.24 -0.18,-0.34 -0.41,-0.21z"/>
  <path class="fil24" d="M71.17 56.29c0.06,0 0.12,-0.02 0.19,-0.06l3.76 -2.17c0.22,-0.13 0.41,-0.43 0.41,-0.68 0,-0.17 -0.09,-0.26 -0.21,-0.26 -0.06,0 -0.12,0.02 -0.19,0.06l-3.76 2.17c-0.22,0.13 -0.41,0.43 -0.41,0.68 0,0.17 0.09,0.26 0.22,0.26z"/>
  <path class="fil5" d="M69.02 60.23l-43.43 25.05c-0.22,0.13 -0.41,0.43 -0.41,0.67 0,0.24 0.18,0.34 0.41,0.21l43.43 -25.05c0.22,-0.13 0.41,-0.43 0.41,-0.68 0,-0.24 -0.18,-0.33 -0.41,-0.21z"/>
  <path class="fil4" d="M75.12 56.7l-3.76 2.17c-0.22,0.13 -0.41,0.43 -0.41,0.67 0,0.24 0.18,0.34 0.41,0.21l3.76 -2.17c0.22,-0.13 0.41,-0.43 0.41,-0.67 0,-0.24 -0.18,-0.34 -0.41,-0.21z"/>
  <path class="fil24" d="M71.17 59.82c0.06,0 0.12,-0.02 0.19,-0.06l3.76 -2.17c0.22,-0.13 0.41,-0.43 0.41,-0.67 0,-0.17 -0.09,-0.27 -0.22,-0.27 -0.06,0 -0.12,0.02 -0.19,0.06l-3.76 2.17c-0.22,0.13 -0.41,0.43 -0.41,0.67 0,0.17 0.09,0.27 0.22,0.27z"/>
  <path class="fil5" d="M69.02 63.75l-43.43 25.05c-0.22,0.13 -0.41,0.43 -0.41,0.68 0,0.24 0.18,0.34 0.41,0.21l43.43 -25.05c0.22,-0.13 0.41,-0.43 0.41,-0.67 0,-0.24 -0.18,-0.34 -0.41,-0.21z"/>
  <path class="fil4" d="M75.12 60.23l-3.76 2.17c-0.22,0.13 -0.41,0.43 -0.41,0.68 0,0.24 0.18,0.34 0.41,0.21l3.76 -2.17c0.22,-0.13 0.41,-0.43 0.41,-0.68 0,-0.24 -0.18,-0.33 -0.41,-0.21z"/>
  <path class="fil24" d="M71.17 63.34c0.06,0 0.12,-0.02 0.19,-0.06l3.76 -2.17c0.22,-0.13 0.41,-0.43 0.41,-0.68 0,-0.17 -0.09,-0.26 -0.21,-0.26 -0.06,0 -0.12,0.02 -0.19,0.06l-3.76 2.17c-0.22,0.13 -0.41,0.43 -0.41,0.68 0,0.17 0.09,0.26 0.22,0.26z"/>
  <path class="fil25" d="M78.6 24.45c0.05,0 0.11,-0.02 0.18,-0.05l2.21 -1.28c0.22,-0.13 0.4,-0.44 0.4,-0.7l0 -0.81c0,-0.18 -0.09,-0.29 -0.22,-0.29 -0.05,0 -0.12,0.02 -0.18,0.05l-2.21 1.28c-0.22,0.13 -0.4,0.44 -0.4,0.7l0 0.81c0,0.18 0.09,0.29 0.22,0.29z"/>
  <path class="fil25" d="M78.6 28.01c0.05,0 0.11,-0.02 0.18,-0.05l2.21 -1.28c0.22,-0.13 0.4,-0.44 0.4,-0.7l0 -0.81c0,-0.18 -0.09,-0.29 -0.22,-0.29 -0.05,0 -0.12,0.02 -0.18,0.05l-2.21 1.28c-0.22,0.13 -0.4,0.44 -0.4,0.7l0 0.81c0,0.18 0.09,0.29 0.22,0.29z"/>
  <path class="fil25" d="M78.6 31.57c0.05,0 0.11,-0.02 0.18,-0.06l2.21 -1.28c0.22,-0.13 0.4,-0.44 0.4,-0.7l0 -0.81c0,-0.18 -0.09,-0.29 -0.22,-0.29 -0.05,0 -0.12,0.02 -0.18,0.05l-2.21 1.28c-0.22,0.13 -0.4,0.44 -0.4,0.7l0 0.81c0,0.18 0.09,0.29 0.22,0.29z"/>
  <path class="fil25" d="M78.6 35.12c0.05,0 0.11,-0.02 0.18,-0.05l2.21 -1.28c0.22,-0.13 0.4,-0.44 0.4,-0.7l0 -0.81c0,-0.18 -0.09,-0.29 -0.22,-0.29 -0.05,0 -0.12,0.02 -0.18,0.05l-2.21 1.28c-0.22,0.13 -0.4,0.44 -0.4,0.7l0 0.81c0,0.18 0.09,0.29 0.22,0.29z"/>
  <path class="fil25" d="M78.6 38.68c0.05,0 0.11,-0.02 0.18,-0.05l2.21 -1.28c0.22,-0.13 0.4,-0.44 0.4,-0.7l0 -0.81c0,-0.18 -0.09,-0.29 -0.22,-0.29 -0.05,0 -0.12,0.02 -0.18,0.06l-2.21 1.28c-0.22,0.13 -0.4,0.44 -0.4,0.7l0 0.81c0,0.18 0.09,0.29 0.22,0.29z"/>
  <path class="fil25" d="M78.6 42.24c0.05,0 0.11,-0.02 0.18,-0.05l2.21 -1.28c0.22,-0.13 0.4,-0.44 0.4,-0.7l0 -0.81c0,-0.18 -0.09,-0.29 -0.22,-0.29 -0.05,0 -0.12,0.02 -0.18,0.05l-2.21 1.28c-0.22,0.13 -0.4,0.44 -0.4,0.7l0 0.81c0,0.18 0.09,0.29 0.22,0.29z"/>
  <path class="fil25" d="M78.6 45.8c0.05,0 0.11,-0.02 0.18,-0.05l2.21 -1.28c0.22,-0.13 0.4,-0.44 0.4,-0.7l0 -0.81c0,-0.18 -0.09,-0.29 -0.22,-0.29 -0.05,0 -0.12,0.02 -0.18,0.05l-2.21 1.28c-0.22,0.13 -0.4,0.44 -0.4,0.7l0 0.81c0,0.18 0.09,0.29 0.22,0.29z"/>
  <path class="fil25" d="M78.6 49.35c0.05,0 0.11,-0.02 0.18,-0.05l2.21 -1.28c0.22,-0.13 0.4,-0.44 0.4,-0.7l0 -0.81c0,-0.18 -0.09,-0.29 -0.22,-0.29 -0.05,0 -0.12,0.02 -0.18,0.05l-2.21 1.28c-0.22,0.13 -0.4,0.44 -0.4,0.7l0 0.81c0,0.18 0.09,0.29 0.22,0.29z"/>
  <path class="fil25" d="M78.6 52.91c0.05,0 0.11,-0.02 0.18,-0.05l2.21 -1.28c0.22,-0.13 0.4,-0.44 0.4,-0.7l0 -0.81c0,-0.18 -0.09,-0.29 -0.22,-0.29 -0.05,0 -0.12,0.02 -0.18,0.05l-2.21 1.28c-0.22,0.13 -0.4,0.44 -0.4,0.7l0 0.81c0,0.18 0.09,0.29 0.22,0.29z"/>
  <path class="fil25" d="M78.6 56.47c0.05,0 0.11,-0.02 0.18,-0.05l2.21 -1.28c0.22,-0.13 0.4,-0.44 0.4,-0.7l0 -0.81c0,-0.18 -0.09,-0.29 -0.22,-0.29 -0.05,0 -0.12,0.02 -0.18,0.05l-2.21 1.28c-0.22,0.13 -0.4,0.44 -0.4,0.7l0 0.81c0,0.18 0.09,0.29 0.22,0.29z"/>
  <path class="fil25" d="M78.6 60.03c0.05,0 0.11,-0.02 0.18,-0.05l2.21 -1.28c0.22,-0.13 0.4,-0.44 0.4,-0.7l0 -0.81c0,-0.18 -0.09,-0.29 -0.22,-0.29 -0.05,0 -0.12,0.02 -0.18,0.05l-2.21 1.28c-0.22,0.13 -0.4,0.44 -0.4,0.7l0 0.81c0,0.18 0.09,0.29 0.22,0.29z"/>
  <path class="fil25" d="M78.6 63.59c0.05,0 0.11,-0.02 0.18,-0.06l2.21 -1.28c0.22,-0.13 0.4,-0.44 0.4,-0.7l0 -0.81c0,-0.18 -0.09,-0.29 -0.22,-0.29 -0.05,0 -0.12,0.02 -0.18,0.05l-2.21 1.28c-0.22,0.13 -0.4,0.44 -0.4,0.7l0 0.81c0,0.18 0.09,0.29 0.22,0.29z"/>
  <path class="fil26" d="M95.67 9.82l-11.97 6.91c-0.44,0.26 -0.8,0.88 -0.8,1.39l0 13.82c0,0.51 0.36,0.72 0.8,0.46l11.97 -6.91c0.44,-0.26 0.8,-0.88 0.8,-1.39l0 -13.82c0,-0.51 -0.36,-0.72 -0.8,-0.46z"/>
  <path class="fil4" d="M94.56 23.52l-1.1 0.64c-0.22,0.13 -0.41,0.43 -0.41,0.68 0,0.24 0.18,0.34 0.41,0.21l1.1 -0.64c0.22,-0.13 0.41,-0.43 0.41,-0.68 0,-0.24 -0.18,-0.34 -0.41,-0.21z"/>
  <path class="fil24" d="M93.27 25.09c0.06,0 0.12,-0.02 0.19,-0.06l1.1 -0.64c0.22,-0.13 0.41,-0.43 0.41,-0.68 0,-0.17 -0.09,-0.27 -0.22,-0.27 -0.06,0 -0.12,0.02 -0.19,0.06l-1.1 0.64c-0.22,0.13 -0.41,0.43 -0.41,0.68 0,0.17 0.09,0.26 0.22,0.26z"/>
  <path class="fil4" d="M94.56 12.2l-1.1 0.64c-0.22,0.13 -0.41,0.43 -0.41,0.68 0,0.24 0.18,0.34 0.41,0.21l1.1 -0.64c0.22,-0.13 0.41,-0.43 0.41,-0.68 0,-0.24 -0.18,-0.34 -0.41,-0.21z"/>
  <path class="fil24" d="M93.27 13.78c0.06,0 0.12,-0.02 0.19,-0.06l1.1 -0.64c0.22,-0.13 0.41,-0.43 0.41,-0.68 0,-0.17 -0.09,-0.26 -0.22,-0.26 -0.06,0 -0.12,0.02 -0.19,0.06l-1.1 0.64c-0.22,0.13 -0.41,0.43 -0.41,0.68 0,0.17 0.09,0.26 0.22,0.26z"/>
  <path class="fil4" d="M93.01 15.35l-1.1 0.64c-0.22,0.13 -0.41,0.43 -0.41,0.67 0,0.24 0.18,0.34 0.41,0.21l1.1 -0.64c0.22,-0.13 0.41,-0.43 0.41,-0.68 0,-0.24 -0.18,-0.33 -0.41,-0.21z"/>
  <path class="fil24" d="M91.72 16.93c0.06,0 0.12,-0.02 0.19,-0.06l1.1 -0.64c0.22,-0.13 0.41,-0.43 0.41,-0.68 0,-0.17 -0.09,-0.26 -0.22,-0.26 -0.06,0 -0.12,0.02 -0.19,0.06l-1.1 0.64c-0.22,0.13 -0.41,0.43 -0.41,0.67 0,0.17 0.09,0.26 0.22,0.26z"/>
  <path class="fil4" d="M93.01 17.61l-1.1 0.64c-0.22,0.13 -0.41,0.43 -0.41,0.68 0,0.24 0.18,0.34 0.41,0.21l1.1 -0.64c0.22,-0.13 0.41,-0.43 0.41,-0.68 0,-0.24 -0.18,-0.33 -0.41,-0.21z"/>
  <path class="fil24" d="M91.72 19.19c0.06,0 0.12,-0.02 0.19,-0.06l1.1 -0.64c0.22,-0.13 0.41,-0.43 0.41,-0.68 0,-0.17 -0.09,-0.26 -0.22,-0.26 -0.06,0 -0.12,0.02 -0.19,0.06l-1.1 0.64c-0.22,0.13 -0.41,0.43 -0.41,0.68 0,0.17 0.09,0.26 0.22,0.26z"/>
  <path class="fil4" d="M94.56 18.99l-1.1 0.64c-0.22,0.13 -0.41,0.43 -0.41,0.68 0,0.24 0.18,0.34 0.41,0.21l1.1 -0.64c0.22,-0.13 0.41,-0.43 0.41,-0.68 0,-0.24 -0.18,-0.34 -0.41,-0.21z"/>
  <path class="fil24" d="M93.27 20.57c0.06,0 0.12,-0.02 0.19,-0.06l1.1 -0.64c0.22,-0.13 0.41,-0.43 0.41,-0.68 0,-0.17 -0.09,-0.26 -0.22,-0.26 -0.06,0 -0.12,0.02 -0.19,0.06l-1.1 0.64c-0.22,0.13 -0.41,0.43 -0.41,0.68 0,0.17 0.09,0.26 0.22,0.26z"/>
  <path class="fil4" d="M93.01 22.14l-1.1 0.64c-0.22,0.13 -0.41,0.43 -0.41,0.68 0,0.24 0.18,0.33 0.41,0.21l1.1 -0.64c0.22,-0.13 0.41,-0.43 0.41,-0.68 0,-0.24 -0.18,-0.34 -0.41,-0.21z"/>
  <path class="fil24" d="M91.72 23.72c0.06,0 0.12,-0.02 0.19,-0.06l1.1 -0.64c0.22,-0.13 0.41,-0.43 0.41,-0.68 0,-0.17 -0.09,-0.26 -0.22,-0.26 -0.06,0 -0.12,0.02 -0.19,0.06l-1.1 0.64c-0.22,0.13 -0.41,0.43 -0.41,0.68 0,0.17 0.09,0.26 0.22,0.26z"/>
  <path class="fil4" d="M91.54 13.94l-6.73 3.88c-0.22,0.13 -0.41,0.43 -0.41,0.68 0,0.24 0.18,0.34 0.41,0.21l6.73 -3.88c0.22,-0.13 0.41,-0.43 0.41,-0.68 0,-0.24 -0.18,-0.34 -0.41,-0.21z"/>
  <path class="fil27" d="M84.63 18.77c0.06,0 0.12,-0.02 0.19,-0.06l6.73 -3.88c0.22,-0.13 0.41,-0.43 0.41,-0.68 0,-0.17 -0.09,-0.26 -0.21,-0.26 -0.06,0 -0.12,0.02 -0.19,0.06l-6.73 3.88c-0.22,0.13 -0.41,0.43 -0.41,0.68 0,0.17 0.09,0.26 0.22,0.26z"/>
  <path class="fil4" d="M91.54 25.26l-6.73 3.88c-0.22,0.13 -0.41,0.43 -0.41,0.68 0,0.24 0.18,0.33 0.41,0.21l6.73 -3.88c0.22,-0.13 0.41,-0.43 0.41,-0.68 0,-0.24 -0.18,-0.34 -0.41,-0.21z"/>
  <path class="fil27" d="M84.63 30.08c0.06,0 0.12,-0.02 0.19,-0.06l6.73 -3.88c0.22,-0.13 0.41,-0.43 0.41,-0.68 0,-0.17 -0.09,-0.26 -0.21,-0.26 -0.06,0 -0.12,0.02 -0.19,0.06l-6.73 3.88c-0.22,0.13 -0.41,0.43 -0.41,0.68 0,0.17 0.09,0.26 0.22,0.26z"/>
  <path class="fil4" d="M90 17.1l-5.18 3c-0.22,0.13 -0.41,0.43 -0.41,0.68 0,0.24 0.18,0.34 0.41,0.21l5.18 -3c0.22,-0.13 0.41,-0.43 0.41,-0.68 0,-0.24 -0.18,-0.34 -0.41,-0.21z"/>
  <path class="fil27" d="M84.63 21.03c0.06,0 0.12,-0.02 0.19,-0.06l5.18 -3c0.22,-0.13 0.41,-0.43 0.41,-0.68 0,-0.17 -0.09,-0.26 -0.22,-0.26 -0.06,0 -0.12,0.02 -0.19,0.06l-5.18 3c-0.22,0.13 -0.41,0.43 -0.41,0.68 0,0.17 0.09,0.26 0.22,0.26z"/>
  <path class="fil4" d="M90 19.36l-5.18 3c-0.22,0.13 -0.41,0.43 -0.41,0.68 0,0.24 0.18,0.34 0.41,0.21l5.18 -3c0.22,-0.13 0.41,-0.43 0.41,-0.67 0,-0.24 -0.18,-0.34 -0.41,-0.21z"/>
  <path class="fil27" d="M84.63 23.29c0.06,0 0.12,-0.02 0.19,-0.06l5.18 -3c0.22,-0.13 0.41,-0.43 0.41,-0.67 0,-0.17 -0.09,-0.27 -0.22,-0.27 -0.06,0 -0.12,0.02 -0.19,0.06l-5.18 3c-0.22,0.13 -0.41,0.43 -0.41,0.68 0,0.17 0.09,0.27 0.22,0.27z"/>
  <path class="fil4" d="M91.54 20.73l-6.73 3.88c-0.22,0.13 -0.41,0.43 -0.41,0.67 0,0.24 0.18,0.34 0.41,0.21l6.73 -3.88c0.22,-0.13 0.41,-0.43 0.41,-0.67 0,-0.24 -0.18,-0.34 -0.41,-0.21z"/>
  <path class="fil27" d="M84.63 25.56c0.06,0 0.12,-0.02 0.19,-0.06l6.73 -3.88c0.22,-0.13 0.41,-0.43 0.41,-0.67 0,-0.17 -0.09,-0.27 -0.21,-0.27 -0.06,0 -0.12,0.02 -0.19,0.06l-6.73 3.88c-0.22,0.13 -0.41,0.43 -0.41,0.67 0,0.17 0.09,0.27 0.22,0.27z"/>
  <path class="fil4" d="M90 23.89l-5.18 3c-0.22,0.13 -0.41,0.43 -0.41,0.68 0,0.24 0.18,0.34 0.41,0.21l5.18 -3c0.22,-0.13 0.41,-0.43 0.41,-0.68 0,-0.24 -0.18,-0.34 -0.41,-0.21z"/>
  <path class="fil27" d="M84.63 27.82c0.06,0 0.12,-0.02 0.19,-0.06l5.18 -3c0.22,-0.13 0.41,-0.43 0.41,-0.68 0,-0.17 -0.09,-0.26 -0.22,-0.26 -0.06,0 -0.12,0.02 -0.19,0.06l-5.18 3c-0.22,0.13 -0.41,0.43 -0.41,0.68 0,0.17 0.09,0.26 0.22,0.26z"/>
  <path class="fil26" d="M95.67 28.09l-11.97 6.91c-0.44,0.26 -0.8,0.88 -0.8,1.39l0 27.3c0,0.51 0.36,0.72 0.8,0.46l11.97 -6.91c0.44,-0.26 0.8,-0.88 0.8,-1.39l0 -27.3c0,-0.51 -0.36,-0.72 -0.8,-0.46z"/>
  <path class="fil4" d="M94.56 30.48l-1.1 0.64c-0.22,0.13 -0.41,0.43 -0.41,0.68 0,0.24 0.18,0.34 0.41,0.21l1.1 -0.64c0.22,-0.13 0.41,-0.43 0.41,-0.68 0,-0.24 -0.18,-0.34 -0.41,-0.21z"/>
  <path class="fil24" d="M93.27 32.05c0.06,0 0.12,-0.02 0.19,-0.06l1.1 -0.64c0.22,-0.13 0.41,-0.43 0.41,-0.68 0,-0.17 -0.09,-0.26 -0.22,-0.26 -0.06,0 -0.12,0.02 -0.19,0.06l-1.1 0.64c-0.22,0.13 -0.41,0.43 -0.41,0.68 0,0.17 0.09,0.26 0.22,0.26z"/>
  <path class="fil4" d="M93.01 33.63l-1.1 0.64c-0.22,0.13 -0.41,0.43 -0.41,0.67 0,0.24 0.18,0.34 0.41,0.21l1.1 -0.64c0.22,-0.13 0.41,-0.43 0.41,-0.68 0,-0.24 -0.18,-0.34 -0.41,-0.21z"/>
  <path class="fil24" d="M91.72 35.2c0.06,0 0.12,-0.02 0.19,-0.06l1.1 -0.64c0.22,-0.13 0.41,-0.43 0.41,-0.68 0,-0.17 -0.09,-0.26 -0.22,-0.26 -0.06,0 -0.12,0.02 -0.19,0.06l-1.1 0.64c-0.22,0.13 -0.41,0.43 -0.41,0.67 0,0.17 0.09,0.27 0.22,0.27z"/>
  <path class="fil4" d="M93.01 35.88l-1.1 0.64c-0.22,0.13 -0.41,0.43 -0.41,0.68 0,0.24 0.18,0.34 0.41,0.21l1.1 -0.64c0.22,-0.13 0.41,-0.43 0.41,-0.68 0,-0.24 -0.18,-0.34 -0.41,-0.21z"/>
  <path class="fil24" d="M91.72 37.46c0.06,0 0.12,-0.02 0.19,-0.06l1.1 -0.64c0.22,-0.13 0.41,-0.43 0.41,-0.68 0,-0.17 -0.09,-0.26 -0.22,-0.26 -0.06,0 -0.12,0.02 -0.19,0.06l-1.1 0.64c-0.22,0.13 -0.41,0.43 -0.41,0.68 0,0.17 0.09,0.26 0.22,0.26z"/>
  <path class="fil4" d="M94.56 37.26l-1.1 0.64c-0.22,0.13 -0.41,0.43 -0.41,0.67 0,0.24 0.18,0.34 0.41,0.21l1.1 -0.64c0.22,-0.13 0.41,-0.43 0.41,-0.68 0,-0.24 -0.18,-0.34 -0.41,-0.21z"/>
  <path class="fil24" d="M93.27 38.84c0.06,0 0.12,-0.02 0.19,-0.06l1.1 -0.64c0.22,-0.13 0.41,-0.43 0.41,-0.68 0,-0.17 -0.09,-0.26 -0.22,-0.26 -0.06,0 -0.12,0.02 -0.19,0.06l-1.1 0.64c-0.22,0.13 -0.41,0.43 -0.41,0.67 0,0.17 0.09,0.27 0.22,0.27z"/>
  <path class="fil4" d="M91.54 32.22l-6.73 3.88c-0.22,0.13 -0.41,0.43 -0.41,0.68 0,0.24 0.18,0.34 0.41,0.21l6.73 -3.88c0.22,-0.13 0.41,-0.43 0.41,-0.68 0,-0.24 -0.18,-0.34 -0.41,-0.21z"/>
  <path class="fil27" d="M84.63 37.04c0.06,0 0.12,-0.02 0.19,-0.06l6.73 -3.88c0.22,-0.13 0.41,-0.43 0.41,-0.68 0,-0.17 -0.09,-0.26 -0.21,-0.26 -0.06,0 -0.12,0.02 -0.19,0.06l-6.73 3.88c-0.22,0.13 -0.41,0.43 -0.41,0.68 0,0.17 0.09,0.26 0.22,0.26z"/>
  <path class="fil4" d="M90 35.37l-5.18 3c-0.22,0.13 -0.41,0.43 -0.41,0.68 0,0.24 0.18,0.34 0.41,0.21l5.18 -3c0.22,-0.13 0.41,-0.43 0.41,-0.67 0,-0.24 -0.18,-0.34 -0.41,-0.21z"/>
  <path class="fil27" d="M84.63 39.31c0.06,0 0.12,-0.02 0.19,-0.06l5.18 -3c0.22,-0.13 0.41,-0.43 0.41,-0.67 0,-0.17 -0.09,-0.27 -0.22,-0.27 -0.06,0 -0.12,0.02 -0.19,0.06l-5.18 3c-0.22,0.13 -0.41,0.43 -0.41,0.68 0,0.17 0.09,0.27 0.22,0.27z"/>
  <path class="fil4" d="M90 37.63l-5.18 3c-0.22,0.13 -0.41,0.43 -0.41,0.68 0,0.24 0.18,0.34 0.41,0.21l5.18 -3c0.22,-0.13 0.41,-0.43 0.41,-0.68 0,-0.24 -0.18,-0.34 -0.41,-0.21z"/>
  <path class="fil27" d="M84.63 41.57c0.06,0 0.12,-0.02 0.19,-0.06l5.18 -3c0.22,-0.13 0.41,-0.43 0.41,-0.68 0,-0.17 -0.09,-0.26 -0.22,-0.26 -0.06,0 -0.12,0.02 -0.19,0.06l-5.18 3c-0.22,0.13 -0.41,0.43 -0.41,0.68 0,0.17 0.09,0.27 0.22,0.27z"/>
  <path class="fil4" d="M91.54 39.01l-6.73 3.88c-0.22,0.13 -0.41,0.43 -0.41,0.68 0,0.24 0.18,0.34 0.41,0.21l6.73 -3.89c0.22,-0.13 0.41,-0.43 0.41,-0.67 0,-0.24 -0.18,-0.34 -0.41,-0.21z"/>
  <path class="fil27" d="M84.63 43.83c0.06,0 0.12,-0.02 0.19,-0.06l6.73 -3.89c0.22,-0.13 0.41,-0.43 0.41,-0.67 0,-0.17 -0.09,-0.27 -0.21,-0.27 -0.06,0 -0.12,0.02 -0.19,0.06l-6.73 3.88c-0.22,0.13 -0.41,0.43 -0.41,0.68 0,0.17 0.09,0.27 0.22,0.27z"/>
  <path class="fil4" d="M93.01 40.43l-1.1 0.64c-0.22,0.13 -0.41,0.43 -0.41,0.68 0,0.24 0.18,0.34 0.41,0.21l1.1 -0.64c0.22,-0.13 0.41,-0.43 0.41,-0.68 0,-0.24 -0.18,-0.34 -0.41,-0.21z"/>
  <path class="fil24" d="M91.72 42.01c0.06,0 0.12,-0.02 0.19,-0.06l1.1 -0.64c0.22,-0.13 0.41,-0.43 0.41,-0.68 0,-0.17 -0.09,-0.26 -0.22,-0.26 -0.06,0 -0.12,0.02 -0.19,0.06l-1.1 0.64c-0.22,0.13 -0.41,0.43 -0.41,0.68 0,0.17 0.09,0.26 0.22,0.26z"/>
  <path class="fil4" d="M93.01 42.69l-1.1 0.64c-0.22,0.13 -0.41,0.43 -0.41,0.67 0,0.24 0.18,0.34 0.41,0.21l1.1 -0.64c0.22,-0.13 0.41,-0.43 0.41,-0.67 0,-0.24 -0.18,-0.34 -0.41,-0.21z"/>
  <path class="fil24" d="M91.72 44.26c0.06,0 0.12,-0.02 0.19,-0.06l1.1 -0.64c0.22,-0.13 0.41,-0.43 0.41,-0.67 0,-0.17 -0.09,-0.26 -0.22,-0.26 -0.06,0 -0.12,0.02 -0.19,0.06l-1.1 0.64c-0.22,0.13 -0.41,0.43 -0.41,0.67 0,0.17 0.09,0.27 0.22,0.27z"/>
  <path class="fil4" d="M90 42.17l-5.18 3c-0.22,0.13 -0.41,0.43 -0.41,0.68 0,0.24 0.18,0.34 0.41,0.21l5.18 -3c0.22,-0.13 0.41,-0.43 0.41,-0.68 0,-0.24 -0.18,-0.34 -0.41,-0.21z"/>
  <path class="fil27" d="M84.63 46.11c0.06,0 0.12,-0.02 0.19,-0.06l5.18 -3c0.22,-0.13 0.41,-0.43 0.41,-0.68 0,-0.17 -0.09,-0.26 -0.22,-0.26 -0.06,0 -0.12,0.02 -0.19,0.06l-5.18 3c-0.22,0.13 -0.41,0.43 -0.41,0.68 0,0.17 0.09,0.26 0.22,0.26z"/>
  <path class="fil4" d="M90 44.44l-5.18 3c-0.22,0.13 -0.41,0.43 -0.41,0.68 0,0.24 0.18,0.33 0.41,0.21l5.18 -3c0.22,-0.13 0.41,-0.43 0.41,-0.68 0,-0.24 -0.18,-0.33 -0.41,-0.21z"/>
  <path class="fil27" d="M84.63 48.37c0.06,0 0.12,-0.02 0.19,-0.06l5.18 -3c0.22,-0.13 0.41,-0.43 0.41,-0.68 0,-0.17 -0.09,-0.26 -0.22,-0.26 -0.06,0 -0.12,0.02 -0.19,0.06l-5.18 3c-0.22,0.13 -0.41,0.43 -0.41,0.68 0,0.17 0.09,0.26 0.22,0.26z"/>
  <path class="fil4" d="M94.56 48.61l-1.1 0.64c-0.22,0.13 -0.41,0.43 -0.41,0.67 0,0.24 0.18,0.34 0.41,0.21l1.1 -0.64c0.22,-0.13 0.41,-0.43 0.41,-0.68 0,-0.24 -0.18,-0.34 -0.41,-0.21z"/>
  <path class="fil24" d="M93.27 50.18c0.06,0 0.12,-0.02 0.19,-0.06l1.1 -0.64c0.22,-0.13 0.41,-0.43 0.41,-0.68 0,-0.17 -0.09,-0.26 -0.22,-0.26 -0.06,0 -0.12,0.02 -0.19,0.06l-1.1 0.64c-0.22,0.13 -0.41,0.43 -0.41,0.67 0,0.17 0.09,0.27 0.22,0.27z"/>
  <path class="fil4" d="M91.54 50.35l-6.73 3.88c-0.22,0.13 -0.41,0.43 -0.41,0.68 0,0.24 0.18,0.34 0.41,0.21l6.73 -3.88c0.22,-0.13 0.41,-0.43 0.41,-0.67 0,-0.24 -0.18,-0.34 -0.41,-0.21z"/>
  <path class="fil27" d="M84.63 55.17c0.06,0 0.12,-0.02 0.19,-0.06l6.73 -3.88c0.22,-0.13 0.41,-0.43 0.41,-0.67 0,-0.17 -0.09,-0.26 -0.21,-0.26 -0.06,0 -0.12,0.02 -0.19,0.06l-6.73 3.88c-0.22,0.13 -0.41,0.43 -0.41,0.68 0,0.17 0.09,0.26 0.22,0.26z"/>
  <path class="fil4" d="M93.01 51.77l-1.1 0.64c-0.22,0.13 -0.41,0.43 -0.41,0.68 0,0.24 0.18,0.34 0.41,0.21l1.1 -0.64c0.22,-0.13 0.41,-0.43 0.41,-0.68 0,-0.24 -0.18,-0.34 -0.41,-0.21z"/>
  <path class="fil24" d="M91.72 53.35c0.06,0 0.12,-0.02 0.19,-0.06l1.1 -0.64c0.22,-0.13 0.41,-0.43 0.41,-0.68 0,-0.17 -0.09,-0.26 -0.22,-0.26 -0.06,0 -0.12,0.02 -0.19,0.06l-1.1 0.64c-0.22,0.13 -0.41,0.43 -0.41,0.68 0,0.17 0.09,0.26 0.22,0.26z"/>
  <path class="fil4" d="M93.01 54.03l-1.1 0.64c-0.22,0.13 -0.41,0.43 -0.41,0.67 0,0.24 0.18,0.34 0.41,0.21l1.1 -0.64c0.22,-0.13 0.41,-0.43 0.41,-0.68 0,-0.24 -0.18,-0.34 -0.41,-0.21z"/>
  <path class="fil24" d="M91.72 55.61c0.06,0 0.12,-0.02 0.19,-0.06l1.1 -0.64c0.22,-0.13 0.41,-0.43 0.41,-0.68 0,-0.17 -0.09,-0.26 -0.22,-0.26 -0.06,0 -0.12,0.02 -0.19,0.06l-1.1 0.64c-0.22,0.13 -0.41,0.43 -0.41,0.67 0,0.17 0.09,0.27 0.22,0.27z"/>
  <path class="fil4" d="M90 53.52l-5.18 3c-0.22,0.13 -0.41,0.43 -0.41,0.68 0,0.24 0.18,0.34 0.41,0.21l5.18 -3c0.22,-0.13 0.41,-0.43 0.41,-0.68 0,-0.24 -0.18,-0.34 -0.41,-0.21z"/>
  <path class="fil27" d="M84.63 57.45c0.06,0 0.12,-0.02 0.19,-0.06l5.18 -3c0.22,-0.13 0.41,-0.43 0.41,-0.68 0,-0.17 -0.09,-0.26 -0.22,-0.26 -0.06,0 -0.12,0.02 -0.19,0.06l-5.18 3c-0.22,0.13 -0.41,0.43 -0.41,0.68 0,0.17 0.09,0.26 0.22,0.26z"/>
  <path class="fil4" d="M90 55.78l-5.18 3c-0.22,0.13 -0.41,0.43 -0.41,0.68 0,0.24 0.18,0.33 0.41,0.21l5.18 -3c0.22,-0.13 0.41,-0.43 0.41,-0.67 0,-0.24 -0.18,-0.34 -0.41,-0.21z"/>
  <path class="fil27" d="M84.63 59.71c0.06,0 0.12,-0.02 0.19,-0.06l5.18 -3c0.22,-0.13 0.41,-0.43 0.41,-0.67 0,-0.17 -0.09,-0.27 -0.22,-0.27 -0.06,0 -0.12,0.02 -0.19,0.06l-5.18 3c-0.22,0.13 -0.41,0.43 -0.41,0.68 0,0.17 0.09,0.26 0.22,0.26z"/>
  <path class="fil4" d="M93.01 44.93l-1.1 0.64c-0.22,0.13 -0.41,0.43 -0.41,0.68 0,0.24 0.18,0.34 0.41,0.21l1.1 -0.64c0.22,-0.13 0.41,-0.43 0.41,-0.68 0,-0.24 -0.18,-0.34 -0.41,-0.21z"/>
  <path class="fil24" d="M91.72 46.51c0.06,0 0.12,-0.02 0.19,-0.06l1.1 -0.64c0.22,-0.13 0.41,-0.43 0.41,-0.68 0,-0.17 -0.09,-0.26 -0.22,-0.26 -0.06,0 -0.12,0.02 -0.19,0.06l-1.1 0.64c-0.22,0.13 -0.41,0.43 -0.41,0.68 0,0.17 0.09,0.26 0.22,0.26z"/>
  <path class="fil4" d="M94.56 46.31l-1.1 0.64c-0.22,0.13 -0.41,0.43 -0.41,0.68 0,0.24 0.18,0.34 0.41,0.21l1.1 -0.64c0.22,-0.13 0.41,-0.43 0.41,-0.68 0,-0.24 -0.18,-0.34 -0.41,-0.21z"/>
  <path class="fil24" d="M93.27 47.89c0.06,0 0.12,-0.02 0.19,-0.06l1.1 -0.64c0.22,-0.13 0.41,-0.43 0.41,-0.68 0,-0.17 -0.09,-0.27 -0.22,-0.27 -0.06,0 -0.12,0.02 -0.19,0.06l-1.1 0.64c-0.22,0.13 -0.41,0.43 -0.41,0.68 0,0.17 0.09,0.27 0.22,0.27z"/>
  <path class="fil4" d="M90 46.68l-5.18 3c-0.22,0.13 -0.41,0.43 -0.41,0.67 0,0.24 0.18,0.34 0.41,0.21l5.18 -3c0.22,-0.13 0.41,-0.43 0.41,-0.68 0,-0.24 -0.18,-0.34 -0.41,-0.21z"/>
  <path class="fil27" d="M84.63 50.62c0.06,0 0.12,-0.02 0.19,-0.06l5.18 -3c0.22,-0.13 0.41,-0.43 0.41,-0.68 0,-0.17 -0.09,-0.27 -0.22,-0.27 -0.06,0 -0.12,0.02 -0.19,0.06l-5.18 3c-0.22,0.13 -0.41,0.43 -0.41,0.67 0,0.17 0.09,0.27 0.22,0.27z"/>
  <path class="fil4" d="M91.54 48.06l-6.73 3.88c-0.22,0.13 -0.41,0.43 -0.41,0.68 0,0.24 0.18,0.34 0.41,0.21l6.73 -3.88c0.22,-0.13 0.41,-0.43 0.41,-0.68 0,-0.24 -0.18,-0.34 -0.41,-0.21z"/>
  <path class="fil27" d="M84.63 52.88c0.06,0 0.12,-0.02 0.19,-0.06l6.73 -3.88c0.22,-0.13 0.41,-0.43 0.41,-0.68 0,-0.17 -0.09,-0.26 -0.21,-0.26 -0.06,0 -0.12,0.02 -0.19,0.06l-6.73 3.88c-0.22,0.13 -0.41,0.43 -0.41,0.68 0,0.17 0.09,0.26 0.22,0.26z"/>
  <path class="fil4" d="M94.56 55.44l-1.1 0.64c-0.22,0.13 -0.41,0.43 -0.41,0.68 0,0.24 0.18,0.34 0.41,0.21l1.1 -0.64c0.22,-0.13 0.41,-0.43 0.41,-0.68 0,-0.24 -0.18,-0.34 -0.41,-0.21z"/>
  <path class="fil24" d="M93.27 57.02c0.06,0 0.12,-0.02 0.19,-0.06l1.1 -0.64c0.22,-0.13 0.41,-0.43 0.41,-0.68 0,-0.17 -0.09,-0.26 -0.22,-0.26 -0.06,0 -0.12,0.02 -0.19,0.06l-1.1 0.64c-0.22,0.13 -0.41,0.43 -0.41,0.68 0,0.17 0.09,0.26 0.22,0.26z"/>
  <path class="fil4" d="M91.54 57.18l-6.73 3.88c-0.22,0.13 -0.41,0.43 -0.41,0.67 0,0.24 0.18,0.34 0.41,0.21l6.73 -3.88c0.22,-0.13 0.41,-0.43 0.41,-0.68 0,-0.24 -0.18,-0.33 -0.41,-0.21z"/>
  <path class="fil27" d="M84.63 62.01c0.06,0 0.12,-0.02 0.19,-0.06l6.73 -3.88c0.22,-0.13 0.41,-0.43 0.41,-0.68 0,-0.17 -0.09,-0.26 -0.21,-0.26 -0.06,0 -0.12,0.02 -0.19,0.06l-6.73 3.88c-0.22,0.13 -0.41,0.43 -0.41,0.67 0,0.17 0.09,0.26 0.22,0.26z"/>
  <path class="fil28" d="M2.12 127.83c0.09,0 0.19,-0.03 0.3,-0.09l9.47 -5.46 17.43 -10.38 -0.23 -11.52 0 -2.31 -6.55 3.78 -1.09 0.63 -0 0 -0.03 0.02c-0.12,0.07 -0.25,0.11 -0.36,0.11 -0.01,0 -0.01,0 -0.02,0l-0.15 -0.02 -0.1 -0.03 -0.06 -0.03 -0.05 -0.03c-0,-0 -0.01,-0 -0.01,-0.01l0 0 0.01 0.01 -0.06 -0.03 -1.21 -0.7c-0.33,-0.19 -0.55,-0.52 -0.6,-0.89 -0.01,-0.06 -0.01,-0.11 -0.01,-0.17l0 -5.27 -6.12 3.53c-0.06,0.03 -0.11,0.05 -0.15,0.05 -0.11,0 -0.18,-0.08 -0.18,-0.21l0 0c0,-0.2 0.15,-0.44 0.33,-0.55l6.12 -3.53 0 -5.01 -6.12 3.53c-0.06,0.03 -0.11,0.05 -0.15,0.05 -0.11,0 -0.18,-0.08 -0.18,-0.21l0 0c0,-0.2 0.15,-0.44 0.33,-0.55l6.12 -3.53 0 -2.15 -1.16 0.67c-0.05,0.03 -0.11,0.05 -0.15,0.05 -0.1,0 -0.18,-0.08 -0.18,-0.21l0 0c0,-0.2 0.15,-0.44 0.33,-0.55l1.16 -0.67 0 -10.68 -17.32 9.98 -0 -0 0 41.54c0.01,0.18 0.04,0.34 0.1,0.47l0 0c0.04,0.09 0.1,0.18 0.17,0.24l0.05 0.05 0.05 0.04 0.05 0.03 0.08 0.03 0.12 0.01c0,0 0.01,0 0.01,0zm9.61 -28.67l0 0c0,0.2 -0.15,0.44 -0.33,0.55l-3.92 2.27c-0.06,0.03 -0.11,0.05 -0.16,0.05 -0.1,0 -0.17,-0.08 -0.17,-0.21l0 0c0,-0.2 0.15,-0.44 0.33,-0.55l3.92 -2.27c0.06,-0.03 0.11,-0.05 0.16,-0.05 0.1,0 0.18,0.08 0.18,0.21l0 0zm0 -5.73l0 0c0,0.2 -0.15,0.44 -0.33,0.55l-3.92 2.27c-0.06,0.03 -0.11,0.05 -0.15,0.05 -0.1,0 -0.18,-0.08 -0.18,-0.21l0 0c0,-0.2 0.15,-0.44 0.33,-0.55l3.92 -2.27c0.06,-0.03 0.11,-0.05 0.16,-0.05 0.1,0 0.17,0.08 0.17,0.21l0 0zm4.96 -5.72l0 0c0,0.2 -0.15,0.44 -0.33,0.55l-3.92 2.27c-0.06,0.03 -0.11,0.05 -0.16,0.05 -0.1,0 -0.18,-0.08 -0.18,-0.21l0 0c0,-0.2 0.15,-0.44 0.33,-0.55l3.92 -2.27c0.06,-0.03 0.11,-0.05 0.15,-0.05 0.11,0 0.18,0.08 0.18,0.22l0 0zm3.75 14.58c-0.11,-0.13 -0.17,-0.3 -0.17,-0.49l0 -0.25 0 -0.01 0 -6.95 -0 0 0 7.21c0,0.19 0.07,0.36 0.17,0.49zm-0.17 -8.41l0 0 0 -5.01 -0 0 0 5.01zm0 -5.73l0 -0 0 -2.15 -0 0 0 2.15zm0 -2.86l0 -0 0 -10.68 -0 0 0 10.68z"/>
  <path class="fil29" d="M14.69 120.66l0 0 -7.02 -4.06 7.02 4.06zm-9.67 -5.88c-0.01,-0.04 -0.01,-0.07 -0.01,-0.11 0,-0.16 0.07,-0.32 0.2,-0.46 -0.13,0.14 -0.2,0.3 -0.2,0.46 0,0.04 0,0.08 0.01,0.12zm-0.28 -0.05c0.15,-0.23 0.33,-0.43 0.52,-0.59 0.07,-0.06 0.15,-0.12 0.24,-0.17l23.58 -13.6 -23.58 13.6c-0.29,0.17 -0.56,0.44 -0.76,0.76z"/>
  <path class="fil29" d="M4.34 116.83c-0.02,-0.1 -0.03,-0.2 -0.03,-0.3l0 -0.48c0,-0.26 0.06,-0.55 0.17,-0.82 -0.11,0.27 -0.17,0.56 -0.17,0.82l0 0.48c0,0.1 0.01,0.2 0.03,0.3z"/>
  <path class="fil11" d="M21.05 102.61c0.11,0 0.24,-0.04 0.36,-0.11l0.03 -0.02 0 -0 1.09 -0.63 6.55 -3.78 0 -6.97 -3.5 2.02c-0.07,0.04 -0.13,0.06 -0.19,0.06 -0.13,0 -0.22,-0.1 -0.22,-0.26 0,-0.24 0.18,-0.55 0.41,-0.68l3.5 -2.02 0 -2.56 -3.5 2.02c-0.07,0.04 -0.13,0.06 -0.19,0.06 -0.13,0 -0.22,-0.1 -0.22,-0.26 0,-0.24 0.18,-0.55 0.41,-0.68l3.5 -2.02 0 -2.64 -3.5 2.02c-0.07,0.04 -0.13,0.06 -0.19,0.06 -0.11,0 -0.19,-0.07 -0.21,-0.19l-1.58 0.91c-0.06,0.03 -0.11,0.05 -0.16,0.05 -0.1,0 -0.18,-0.08 -0.18,-0.21l0 0c0,-0.2 0.15,-0.44 0.33,-0.55l3.06 -1.76c0.06,-0.03 0.11,-0.05 0.16,-0.05 0.06,0 0.11,0.03 0.14,0.07l2.13 -1.23 0 -2.64 -2.09 1.21c-0.02,0.19 -0.16,0.4 -0.33,0.49l-6.4 3.69 0 2.15 1.44 -0.83c0.06,-0.03 0.11,-0.05 0.16,-0.05 0.1,0 0.18,0.08 0.18,0.21l0 0c0,0.2 -0.15,0.44 -0.33,0.55l-1.44 0.83 0 5.01 1.44 -0.83c0.06,-0.03 0.11,-0.05 0.16,-0.05 0.1,0 0.18,0.08 0.18,0.21l0 0c0,0.2 -0.15,0.44 -0.33,0.55l-1.44 0.83 0 6.95 0 0.01 0 0.25c0,0.19 0.07,0.36 0.17,0.49 0.05,0.06 0.11,0.12 0.18,0.16l0.04 0.03 0.01 0.01c0,0 0.01,0 0.01,0.01l0.05 0.03 0.06 0.03 0.1 0.03 0.15 0.02c0,0 0.01,0 0.02,0zm5.95 -9.39l0 0c0,0.2 -0.15,0.44 -0.33,0.55l-3.06 1.76c-0.06,0.03 -0.11,0.05 -0.16,0.05 -0.1,0 -0.18,-0.08 -0.18,-0.22l0 0c0,-0.2 0.15,-0.44 0.33,-0.55l3.06 -1.76c0.06,-0.03 0.11,-0.05 0.16,-0.05 0.1,0 0.18,0.08 0.18,0.22l0 0zm0 -2.87l0 0c0,0.2 -0.15,0.44 -0.33,0.55l-3.06 1.76c-0.06,0.03 -0.11,0.05 -0.16,0.05 -0.1,0 -0.18,-0.08 -0.18,-0.21 0,-0 0,-0 0,-0l0 -0c0,-0.2 0.15,-0.44 0.33,-0.55l3.06 -1.76c0.06,-0.03 0.11,-0.05 0.16,-0.05 0.1,0 0.18,0.08 0.18,0.21 0,0 0,0 0,0zm0 -2.86l0 0c0,0.2 -0.15,0.44 -0.33,0.55l-3.06 1.76c-0.06,0.03 -0.11,0.05 -0.16,0.05 -0.1,0 -0.18,-0.08 -0.18,-0.22l0 0c0,-0.2 0.15,-0.44 0.33,-0.55l3.06 -1.76c0.06,-0.03 0.11,-0.05 0.16,-0.05 0.1,0 0.18,0.08 0.18,0.21l0 0zm-6.73 -2.2l4.91 -2.83c-0,-0.01 -0,-0.02 -0,-0.03 0,-0.24 0.18,-0.55 0.41,-0.68l3.5 -2.02 0 -2.73 -3.5 2.02c-0.07,0.04 -0.13,0.06 -0.19,0.06 -0.13,0 -0.22,-0.1 -0.22,-0.26 0,-0.24 0.18,-0.55 0.41,-0.68l3.5 -2.02 0 -2.66 -3.5 2.03c-0.07,0.04 -0.13,0.06 -0.19,0.06 -0.13,0 -0.22,-0.1 -0.22,-0.26 0,-0.24 0.18,-0.55 0.41,-0.68l3.5 -2.03 0 -6.1 -0.01 -0.12 -0.01 -0.03c0.01,0.04 0.01,0.09 0.01,0.14l0 3.05 -8.82 5.08 0 10.68z"/>
  <path class="fil30" d="M20.68 102.49l-0.01 -0.01 -0 -0c-0.09,-0.05 -0.16,-0.11 -0.23,-0.19 -0.11,-0.13 -0.17,-0.3 -0.17,-0.49l0 -7.21 -1.46 0.84 0 5.27c0,0.06 0,0.11 0.01,0.17 0.05,0.37 0.27,0.7 0.6,0.89l1.21 0.7 0.06 0.03zm-1.88 -7.77l1.46 -0.84 0 -5.01 -1.46 0.84 0 5.01zm0 -5.73l1.46 -0.84 0 -2.15 -1.46 0.84 0 2.15zm0 -2.86l1.46 -0.84 0 -10.68 -1.46 0.84 0 10.68z"/>
  <path class="fil31" d="M20.67 102.48l-0.01 -0.01 -0.04 -0.03c-0.07,-0.04 -0.13,-0.1 -0.18,-0.16 0.06,0.08 0.14,0.14 0.23,0.19z"/>
  <path class="fil32" d="M25.39 93.18c0.06,0 0.12,-0.02 0.19,-0.06l3.5 -2.02 0 -0.88 -3.5 2.02c-0.22,0.13 -0.41,0.43 -0.41,0.68 0,0.17 0.09,0.26 0.22,0.26z"/>
  <path class="fil28" d="M25.39 79.08c0.06,0 0.12,-0.02 0.19,-0.06l3.5 -2.02 0 -0.88 -3.5 2.02c-0.22,0.13 -0.41,0.43 -0.41,0.68 0,0.17 0.09,0.26 0.22,0.26z"/>
  <path class="fil28" d="M25.39 75.55c0.06,0 0.12,-0.02 0.19,-0.06l3.5 -2.03 0 -0.88 -3.5 2.03c-0.22,0.13 -0.41,0.43 -0.41,0.68 0,0.17 0.09,0.26 0.22,0.26z"/>
  <path class="fil33" d="M25.18 82.45l1.49 -0.86c0.06,-0.03 0.11,-0.05 0.16,-0.05 0.1,0 0.18,0.08 0.18,0.21l0 0c0,0.02 -0,0.04 -0,0.06l2.09 -1.21 0 -0.88 -3.5 2.02c-0.22,0.13 -0.41,0.43 -0.41,0.68 0,0.01 0,0.02 0,0.03z"/>
  <path class="fil33" d="M25.39 86.21c0.06,0 0.12,-0.02 0.19,-0.06l3.5 -2.02 0 -0.88 -2.13 1.23c0.02,0.04 0.04,0.08 0.04,0.14l0 0c0,0.2 -0.15,0.44 -0.33,0.55l-1.48 0.85c0.02,0.12 0.1,0.19 0.21,0.19z"/>
  <path class="fil33" d="M25.39 89.74c0.06,0 0.12,-0.02 0.19,-0.06l3.5 -2.02 0 -0.88 -3.5 2.02c-0.22,0.13 -0.41,0.43 -0.41,0.68 0,0.17 0.09,0.26 0.22,0.26z"/>
  <path class="fil28" d="M10.52 76.1l8.28 -4.77 0 -0 -8.28 4.77zm9.74 -5.61l0 -0 0 -0 -0 0 0 0z"/>
  <path class="fil11" d="M20.27 70.49l7.89 -4.55c0.11,-0.06 0.21,-0.1 0.31,-0.12 -0.05,0.01 -0.1,0.02 -0.16,0.04 -0.05,0.02 -0.1,0.04 -0.16,0.08l-7.89 4.55 0 0z"/>
  <polygon class="fil30" points="18.8,71.33 20.27,70.49 20.27,70.49 18.8,71.33 "/>
  <path class="fil11" d="M29.05 66.19l-0 -0.01 -0 -0.01c0,0.01 0,0.01 0.01,0.02zm-0.17 -0.27l-0.01 -0.01 -0 -0.01 -0.02 -0.01c0.01,0.01 0.02,0.01 0.03,0.02z"/>
  <path class="fil4" d="M28.78 65.86c-0.17,-0.08 -0.38,-0.06 -0.63,0.08l-25.74 14.84c-0.51,0.3 -0.93,1.02 -0.93,1.61l0 3.04 -1.48 -0.86 0 -3.02c0,-0.59 0.42,-1.31 0.93,-1.61l25.74 -14.84c0.27,-0.16 0.5,-0.16 0.67,-0.06 0.17,0.1 1.24,0.71 1.43,0.81z"/>
  <path class="fil13" d="M29.09 66.47c-0,-0.59 -0.42,-0.82 -0.93,-0.53l-25.74 14.84c-0.51,0.3 -0.93,1.02 -0.93,1.61l0 3.04 27.6 -15.91 0 -3.05z"/>
  <path class="fil9" d="M0.49 80.32c0.13,-0.16 0.28,-0.29 0.44,-0.38l17.87 -10.3 0 -0 -17.87 10.3c-0.16,0.09 -0.31,0.22 -0.44,0.38zm19.77 -11.52l0 -0 0 -0 -0 0 0 0z"/>
  <path class="fil14" d="M20.27 68.8l6.41 -3.69c0.15,-0.09 0.29,-0.13 0.41,-0.13 0.1,0 0.19,0.03 0.26,0.07 0.16,0.1 1.2,0.69 1.42,0.8 -0.21,-0.11 -1.26,-0.7 -1.42,-0.8 -0.08,-0.05 -0.17,-0.07 -0.26,-0.07 -0.12,0 -0.26,0.04 -0.41,0.13l-6.4 3.69 0 0z"/>
  <polygon class="fil34" points="18.8,69.64 20.27,68.8 20.27,68.8 18.8,69.64 "/>
  <path class="fil14" d="M28.17 65.93c0.05,-0.03 0.1,-0.05 0.14,-0.07 0,0 0,-0 0,-0 -0.05,0.02 -0.1,0.04 -0.15,0.07z"/>
  <path class="fil25" d="M1.76 81.46c0.17,-0.29 0.4,-0.54 0.65,-0.69l8.11 -4.67 8.28 -4.77 0 -0 -16.39 9.45c-0.25,0.15 -0.48,0.4 -0.65,0.69l0 0zm18.5 -10.97l0 -0 0 -0 -0 0 0 0z"/>
  <path class="fil14" d="M20.27 70.49l7.89 -4.55c0.05,-0.03 0.11,-0.06 0.16,-0.08 -0.05,0.02 -0.1,0.04 -0.14,0.07 -0,0 -0.01,0 -0.01,0.01l-7.89 4.55 0 0z"/>
  <polygon class="fil35" points="18.8,71.33 20.27,70.49 20.27,70.49 18.8,71.33 "/>
  <path class="fil15" d="M1.76 81.46c0.17,-0.29 0.4,-0.54 0.65,-0.69l16.39 -9.45 1.46 -0.84 0 -0 7.89 -4.55c0,-0 0.01,-0 0.01,-0.01 0.05,-0.03 0.1,-0.05 0.15,-0.07 0.09,-0.03 0.18,-0.05 0.26,-0.05 0.07,0 0.13,0.01 0.18,0.03 0.01,0 0.01,0.01 0.02,0.01 -0,0 -0,-0 -0,-0 -0.22,-0.12 -1.26,-0.7 -1.42,-0.8 -0.08,-0.05 -0.17,-0.07 -0.26,-0.07 -0.12,0 -0.26,0.04 -0.41,0.13l-6.41 3.69 -0 0 -1.46 0.84 -17.87 10.3c-0.16,0.09 -0.31,0.22 -0.44,0.38 -0.08,0.09 -0.15,0.19 -0.21,0.3l0 0 1.48 0.84z"/>
  <path class="fil10" d="M1.76 81.46c0.17,-0.29 0.4,-0.54 0.65,-0.69l8.11 -4.67 -8.11 4.67c-0.25,0.15 -0.49,0.4 -0.65,0.69l0 0zm27.02 -15.61c-0,-0 -0,-0 -0,-0 -0.01,-0 -0.01,-0.01 -0.02,-0.01 0.01,0 0.02,0.01 0.02,0.01z"/>
  <path class="fil17" d="M1.48 85.43l0 -3.04 0 3.04 -1.48 -0.86 0 -3.02c0,-0.09 0.01,-0.18 0.03,-0.28 -0.02,0.09 -0.03,0.19 -0.03,0.28l-0 3.02 0 0 0 -0 1.48 0.86 0 0z"/>
  <path class="fil36" d="M1.49 85.43l0 0 -0 -3.04c0,-0.3 0.11,-0.63 0.28,-0.92l-0 0c-0.17,0.29 -0.28,0.62 -0.28,0.92l0 3.04 0 0z"/>
  <path class="fil19" d="M1.48 85.43l0 -3.04c0,-0.3 0.11,-0.63 0.28,-0.92l-1.48 -0.85c-0.12,0.21 -0.21,0.43 -0.26,0.66 -0.02,0.09 -0.03,0.19 -0.03,0.28l0 3.02 1.48 0.86z"/>
  <path class="fil20" d="M1.49 85.43l0 -3.04c0,-0.3 0.11,-0.63 0.28,-0.92l-0 -0c0,0 -0,0 -0,0l0 0c-0.17,0.29 -0.28,0.62 -0.28,0.92l0 3.04z"/>
  <path class="fil37" d="M1.76 81.46c0,-0 0,-0 0,-0l0 0c-0,0 -0,0 -0,0l0 0z"/>
  <path class="fil21" d="M1.76 81.46c0,-0 0,-0 0,-0l-1.48 -0.84 1.48 0.85z"/>
  <path class="fil21" d="M1.76 81.46c0,-0 0,-0 0,-0l0 -0c-0,0 -0,0 -0,0l0 0z"/>
  <path class="fil2" d="M2.84 82.03c-0.29,0.17 -0.53,0.67 -0.53,1.11 0,0.45 0.24,0.67 0.53,0.51 0.29,-0.17 0.53,-0.67 0.53,-1.11 0,-0.45 -0.24,-0.67 -0.53,-0.51z"/>
  <path class="fil2" d="M4.73 80.93c-0.29,0.17 -0.53,0.67 -0.53,1.11 0,0.45 0.24,0.67 0.53,0.51 0.29,-0.17 0.53,-0.67 0.53,-1.11 0,-0.45 -0.24,-0.67 -0.53,-0.51z"/>
  <path class="fil2" d="M6.62 79.84c-0.29,0.17 -0.53,0.67 -0.53,1.11 0,0.45 0.24,0.67 0.53,0.51 0.29,-0.17 0.53,-0.67 0.53,-1.11 0,-0.45 -0.24,-0.67 -0.53,-0.51z"/>
  <path class="fil38" d="M1.83 127.75l-0.02 -0.02 -0.05 -0.05c-0.07,-0.07 -0.13,-0.15 -0.17,-0.24l0 0c-0.06,-0.14 -0.1,-0.3 -0.1,-0.47l0 -41.54 -1.48 -0.85 0 41.55c0,0.18 0.04,0.35 0.11,0.49 0.03,0.07 0.08,0.14 0.12,0.19 0.05,0.05 0.1,0.1 0.16,0.13 0.02,0.01 0.06,0.03 0.12,0.06 0.05,0.03 0.42,0.23 0.5,0.28 0.08,0.04 0.16,0.09 0.24,0.14l0.01 0.01 0.16 0.09 0 0c0.1,0.05 0.2,0.11 0.29,0.16l0.12 0.07z"/>
  <path class="fil39" d="M1.58 127.44c-0.06,-0.13 -0.09,-0.29 -0.1,-0.47 0,0.17 0.04,0.33 0.1,0.47z"/>
  <polygon class="fil40" points="1.48,85.43 1.48,85.43 0,84.57 0,84.58 1.48,85.43 "/>
  <path class="fil4" d="M26.95 74.66c0,-0.06 -0.02,-0.1 -0.05,-0.12l-0.67 -0.61 -0.03 -0.01 -0.02 0.01 -0.05 0.06 -0.02 0.09 0 0.47c0,0.06 0,0.1 0.01,0.13l0.05 0.07 0.35 0.32 -0.35 0.73 -0.05 0.13c-0.01,0.04 -0.01,0.08 -0.01,0.14l0 0.47 0.02 0.07 0.05 0 0.02 -0.01 0.03 -0.04 0.67 -1.38c0.03,-0.06 0.05,-0.12 0.05,-0.17l0 -0.35z"/>
  <polygon class="fil4" points="24.5,74.02 24.45,73.94 24.35,73.95 24.1,74.09 24.05,74.16 24.03,74.25 24.03,74.29 25.18,77.86 25.23,77.93 25.33,77.93 25.57,77.79 25.62,77.72 25.64,77.63 25.64,77.59 "/>
  <path class="fil4" d="M22.73 77.45c0,0.06 0.02,0.09 0.05,0.12l0.67 0.61 0.03 0 0.02 -0.01 0.05 -0.06 0.02 -0.09 0 -0.46c0,-0.06 -0,-0.1 -0.01,-0.13l-0.05 -0.07 -0.35 -0.32 0.35 -0.73 0.05 -0.13c0.01,-0.04 0.01,-0.08 0.01,-0.14l0 -0.46 -0.02 -0.07 -0.05 -0 -0.02 0.01 -0.03 0.04 -0.67 1.38c-0.03,0.06 -0.05,0.12 -0.05,0.17l0 0.35z"/>
  <polygon class="fil4" points="20.87,79.27 20.8,79.35 20.77,79.47 20.77,79.98 20.8,80.06 20.87,80.07 21.18,79.88 21.25,79.8 21.27,79.69 21.27,79.18 21.25,79.09 21.18,79.09 "/>
  <polygon class="fil4" points="19.81,79.88 19.75,79.96 19.72,80.07 19.72,80.59 19.75,80.67 19.81,80.68 20.13,80.49 20.19,80.41 20.22,80.3 20.22,79.79 20.19,79.7 20.13,79.7 "/>
  <polygon class="fil4" points="18.76,80.49 18.69,80.57 18.66,80.68 18.66,81.2 18.69,81.28 18.76,81.28 19.07,81.1 19.14,81.02 19.16,80.91 19.16,80.4 19.14,80.31 19.07,80.31 "/>
  <path class="fil4" d="M26.67 78.72l-15.47 8.93c-0.18,0.11 -0.33,0.35 -0.33,0.55 0,0.2 0.15,0.27 0.33,0.17l15.47 -8.93c0.18,-0.11 0.33,-0.35 0.33,-0.55 0,-0.2 -0.15,-0.27 -0.33,-0.17z"/>
  <path class="fil5" d="M21.7 90.18l-15.47 8.93c-0.18,0.11 -0.33,0.35 -0.33,0.55 0,0.2 0.15,0.27 0.33,0.17l15.47 -8.93c0.18,-0.11 0.33,-0.35 0.33,-0.55 0,-0.2 -0.15,-0.27 -0.33,-0.17z"/>
  <path class="fil5" d="M21.7 95.91l-7.4 4.28c-0.18,0.11 -0.33,0.35 -0.33,0.55 0,0.2 0.15,0.27 0.33,0.17l7.4 -4.28c0.18,-0.11 0.33,-0.35 0.33,-0.55 0,-0.2 -0.15,-0.27 -0.33,-0.17z"/>
  <path class="fil4" d="M9.92 88.39l-6.16 3.54c-0.18,0.11 -0.33,0.35 -0.33,0.55 0,0.2 0.15,0.27 0.33,0.17l6.16 -3.54c0.18,-0.1 0.33,-0.35 0.33,-0.55 0,-0.2 -0.15,-0.27 -0.33,-0.17z"/>
  <path class="fil4" d="M26.67 110.23l-15.47 8.93c-0.18,0.11 -0.33,0.35 -0.33,0.55 0,0.2 0.15,0.27 0.33,0.17l15.47 -8.93c0.18,-0.11 0.33,-0.35 0.33,-0.55 0,-0.2 -0.15,-0.27 -0.33,-0.17z"/>
  <path class="fil4" d="M9.92 119.9l-6.16 3.54c-0.18,0.11 -0.33,0.35 -0.33,0.55 0,0.2 0.15,0.27 0.33,0.17l6.16 -3.54c0.18,-0.11 0.33,-0.35 0.33,-0.55 0,-0.2 -0.15,-0.27 -0.33,-0.17z"/>
  <path class="fil4" d="M9.92 111.32l-6.16 3.54c-0.18,0.11 -0.33,0.35 -0.33,0.55 0,0.2 0.15,0.27 0.33,0.17l6.16 -3.54c0.18,-0.11 0.33,-0.35 0.33,-0.55 0,-0.2 -0.15,-0.27 -0.33,-0.17z"/>
  <path class="fil4" d="M9.92 114.19l-6.16 3.54c-0.18,0.11 -0.33,0.35 -0.33,0.55 0,0.2 0.15,0.27 0.33,0.17l6.16 -3.54c0.18,-0.11 0.33,-0.35 0.33,-0.55 0,-0.2 -0.15,-0.27 -0.33,-0.17z"/>
  <path class="fil4" d="M15.17 108.28l-3.46 2c-0.18,0.11 -0.33,0.35 -0.33,0.55 0,0.2 0.15,0.27 0.33,0.17l3.46 -2c0.18,-0.11 0.33,-0.35 0.33,-0.55 0,-0.2 -0.15,-0.27 -0.33,-0.17z"/>
  <path class="fil4" d="M26.67 81.59l-9.02 5.2c-0.18,0.11 -0.33,0.35 -0.33,0.55 0,0.2 0.15,0.27 0.33,0.17l9.02 -5.2c0.18,-0.11 0.33,-0.35 0.33,-0.55 0,-0.2 -0.15,-0.27 -0.33,-0.17z"/>
  <path class="fil24" d="M17.49 87.56c0.05,0 0.1,-0.02 0.16,-0.05l1.16 -0.67 1.46 -0.84 0 -0 6.4 -3.69c0.17,-0.1 0.3,-0.31 0.33,-0.49 0,-0.02 0,-0.04 0,-0.06 0,-0.14 -0.07,-0.21 -0.18,-0.21 -0.05,0 -0.1,0.02 -0.16,0.05l-9.02 5.2c-0.18,0.11 -0.33,0.35 -0.33,0.55 0,0.14 0.07,0.21 0.18,0.21z"/>
  <path class="fil4" d="M26.67 84.45l-3.06 1.76c-0.18,0.11 -0.33,0.35 -0.33,0.55 0,0.2 0.15,0.27 0.33,0.17l3.06 -1.76c0.18,-0.11 0.33,-0.35 0.33,-0.55 0,-0.2 -0.15,-0.27 -0.33,-0.17z"/>
  <path class="fil24" d="M23.45 86.98c0.05,0 0.1,-0.02 0.16,-0.05l1.58 -0.91 1.48 -0.85c0.18,-0.11 0.33,-0.35 0.33,-0.55 0,-0.14 -0.07,-0.21 -0.18,-0.21 -0.05,0 -0.1,0.02 -0.16,0.05l-3.06 1.76c-0.18,0.11 -0.33,0.35 -0.33,0.55 0,0.14 0.07,0.21 0.18,0.21z"/>
  <path class="fil4" d="M26.67 87.32l-3.06 1.76c-0.18,0.11 -0.33,0.35 -0.33,0.55 0,0.2 0.15,0.27 0.33,0.17l3.06 -1.76c0.18,-0.11 0.33,-0.35 0.33,-0.55 0,-0.2 -0.15,-0.27 -0.33,-0.17z"/>
  <path class="fil24" d="M23.45 89.85c0.05,0 0.1,-0.02 0.16,-0.05l3.06 -1.76c0.18,-0.11 0.33,-0.35 0.33,-0.55 0,-0.14 -0.07,-0.21 -0.18,-0.21 -0.05,0 -0.1,0.02 -0.16,0.05l-3.06 1.76c-0.18,0.11 -0.33,0.35 -0.33,0.55 0,0.14 0.07,0.22 0.18,0.22z"/>
  <path class="fil4" d="M26.67 90.18l-3.06 1.77c-0.18,0.11 -0.33,0.35 -0.33,0.55 0,0.2 0.15,0.27 0.33,0.17l3.06 -1.76c0.18,-0.11 0.33,-0.35 0.33,-0.55 0,-0.2 -0.15,-0.27 -0.33,-0.17z"/>
  <path class="fil25" d="M23.28 92.5c0,-0.2 0.15,-0.44 0.33,-0.55l3.06 -1.77c0.06,-0.03 0.11,-0.05 0.16,-0.05 0.1,0 0.18,0.08 0.18,0.21 0,-0 0,-0 0,-0 0,-0.14 -0.07,-0.21 -0.18,-0.21 -0.05,0 -0.1,0.02 -0.16,0.05l-3.06 1.76c-0.18,0.11 -0.33,0.35 -0.33,0.55l0 0z"/>
  <path class="fil24" d="M23.45 92.71c0.05,0 0.1,-0.02 0.16,-0.05l3.06 -1.76c0.18,-0.11 0.33,-0.35 0.33,-0.55 0,-0.14 -0.07,-0.21 -0.18,-0.21 -0.05,0 -0.1,0.02 -0.16,0.05l-3.06 1.77c-0.18,0.11 -0.33,0.35 -0.33,0.55 0,0.14 0.07,0.21 0.18,0.21z"/>
  <path class="fil41" d="M12.53 99.02c0.05,0 0.1,-0.02 0.16,-0.05l6.12 -3.53 0 -0.72 -6.12 3.53c-0.18,0.11 -0.33,0.35 -0.33,0.55 0,0.14 0.07,0.22 0.18,0.22zm7.74 -4.42l0 -0 0 -0.72 -0 0 0 0.72z"/>
  <path class="fil42" d="M20.27 94.59l1.44 -0.83c0.18,-0.11 0.33,-0.35 0.33,-0.55 0,-0.14 -0.07,-0.21 -0.18,-0.21 -0.05,0 -0.1,0.01 -0.16,0.05l-1.44 0.83 0 0.72z"/>
  <polygon class="fil42" points="18.8,95.44 20.27,94.59 20.27,93.88 18.8,94.72 "/>
  <path class="fil41" d="M7.32 102.03c0.05,0 0.1,-0.02 0.16,-0.05l3.92 -2.27c0.18,-0.11 0.33,-0.35 0.33,-0.55 0,-0.14 -0.07,-0.21 -0.18,-0.21 -0.05,0 -0.1,0.02 -0.15,0.05l-3.92 2.27c-0.18,0.11 -0.33,0.35 -0.33,0.55 0,0.14 0.07,0.22 0.17,0.22z"/>
  <path class="fil4" d="M26.67 93.05l-3.06 1.76c-0.18,0.11 -0.33,0.35 -0.33,0.55 0,0.2 0.15,0.27 0.33,0.17l3.06 -1.76c0.18,-0.11 0.33,-0.35 0.33,-0.55 0,-0.2 -0.15,-0.27 -0.33,-0.17z"/>
  <path class="fil24" d="M23.45 95.58c0.05,0 0.1,-0.02 0.16,-0.05l3.06 -1.76c0.18,-0.11 0.33,-0.35 0.33,-0.55 0,-0.14 -0.07,-0.22 -0.18,-0.22 -0.05,0 -0.1,0.02 -0.16,0.05l-3.06 1.76c-0.18,0.11 -0.33,0.35 -0.33,0.55 0,0.14 0.07,0.22 0.18,0.22z"/>
  <path class="fil4" d="M16.36 87.54l-3.92 2.27c-0.18,0.11 -0.33,0.35 -0.33,0.55 0,0.2 0.15,0.27 0.33,0.17l3.92 -2.27c0.18,-0.11 0.33,-0.35 0.33,-0.55 0,-0.2 -0.15,-0.27 -0.33,-0.17z"/>
  <path class="fil24" d="M12.29 90.57c0.05,0 0.1,-0.02 0.16,-0.05l3.92 -2.27c0.18,-0.11 0.33,-0.35 0.33,-0.55 0,-0.14 -0.07,-0.22 -0.18,-0.22 -0.05,0 -0.1,0.02 -0.16,0.05l-3.92 2.27c-0.18,0.11 -0.33,0.35 -0.33,0.55 0,0.14 0.07,0.21 0.18,0.21z"/>
  <path class="fil9" d="M17.98 100.92l-9.02 5.2c-0.18,0.11 -0.33,0.35 -0.33,0.55 0,0.2 0.15,0.27 0.33,0.17l9.02 -5.2c0.18,-0.11 0.33,-0.35 0.33,-0.55 0,-0.2 -0.15,-0.27 -0.33,-0.17z"/>
  <path class="fil9" d="M12.78 106.8l-9.02 5.2c-0.18,0.11 -0.33,0.35 -0.33,0.55 0,0.2 0.15,0.27 0.33,0.17l9.02 -5.2c0.18,-0.11 0.33,-0.35 0.33,-0.55 0,-0.2 -0.15,-0.27 -0.33,-0.17z"/>
  <path class="fil9" d="M7.68 106.86l-3.92 2.27c-0.18,0.11 -0.33,0.35 -0.33,0.55 0,0.2 0.15,0.27 0.33,0.17l3.92 -2.27c0.18,-0.11 0.33,-0.35 0.33,-0.55 0,-0.2 -0.15,-0.27 -0.33,-0.17z"/>
  <path class="fil5" d="M7.68 118.21l-3.92 2.27c-0.18,0.11 -0.33,0.35 -0.33,0.55 0,0.2 0.15,0.27 0.33,0.17l3.92 -2.27c0.18,-0.11 0.33,-0.35 0.33,-0.55 0,-0.2 -0.15,-0.27 -0.33,-0.17z"/>
  <path class="fil4" d="M21.7 87.32l-9.02 5.2c-0.18,0.11 -0.33,0.35 -0.33,0.55 0,0.2 0.15,0.27 0.33,0.17l9.02 -5.2c0.18,-0.11 0.33,-0.35 0.33,-0.55 0,-0.2 -0.15,-0.27 -0.33,-0.17z"/>
  <path class="fil24" d="M12.53 93.29c0.05,0 0.1,-0.02 0.16,-0.05l6.12 -3.53 1.46 -0.84 0 -0 1.44 -0.83c0.18,-0.11 0.33,-0.35 0.33,-0.55 0,-0.14 -0.07,-0.21 -0.18,-0.21 -0.05,0 -0.1,0.02 -0.16,0.05l-9.02 5.2c-0.18,0.11 -0.33,0.35 -0.33,0.55 0,0.14 0.07,0.21 0.18,0.21z"/>
  <path class="fil4" d="M11.4 93.26l-3.92 2.27c-0.18,0.11 -0.33,0.35 -0.33,0.55 0,0.2 0.15,0.27 0.33,0.17l3.92 -2.27c0.18,-0.11 0.33,-0.35 0.33,-0.55 0,-0.2 -0.15,-0.27 -0.33,-0.17z"/>
  <path class="fil24" d="M7.32 96.3c0.05,0 0.1,-0.02 0.16,-0.05l3.92 -2.27c0.18,-0.11 0.33,-0.35 0.33,-0.55 0,-0.14 -0.07,-0.22 -0.18,-0.22 -0.05,0 -0.1,0.02 -0.16,0.05l-3.92 2.27c-0.18,0.11 -0.33,0.35 -0.33,0.55 0,0.14 0.07,0.21 0.18,0.21z"/>
  <path class="fil43" d="M64.62 129.94c0.99,0 1.96,-0.22 2.74,-0.67l5.53 -3.19c1.74,-1.01 1.7,-2.55 -0.1,-3.45l-11.26 -6.1c-0.83,-0.42 -1.9,-0.62 -2.97,-0.62 -1.24,0 -2.5,0.28 -3.44,0.82l-2.77 1.61c-1.74,1.01 -1.83,2.79 -0.21,3.97l9.12 6.66c0.9,0.66 2.14,0.99 3.36,0.99z"/>
  <path class="fil26" d="M51.99 119.4l6.31 4.93 4.66 3.64c0.45,0.21 0.97,0.33 1.49,0.36 0.79,0.04 1.59,-0.11 2.21,-0.47l4.95 -2.86 0.01 -0.01 0.03 -0.02c1.74,-1.01 2.15,-3.36 1,-5.01 -0.05,-0.07 -0.1,-0.14 -0.15,-0.2 -0.94,-1.27 -2.34,-2.19 -3.98,-2.52l-2.51 -0.5c-4.06,-0.82 -7.39,-1.22 -7.77,-0.96l-6.2 3.59 -0.04 0.01z"/>
  <path class="fil4" d="M55.52 122.16l-0.35 -0.28 5.56 -3.21 -4.87 -1.51c0.17,-0.1 0.33,-0.19 0.49,-0.28l4.87 1.51 3.32 -1.92c0.21,0.04 0.42,0.08 0.63,0.12l-9.65 5.57z"/>
  <path class="fil44" d="M62.41 127.68l-0.03 -0.02 -0.01 -0.01 -4.43 -3.2 -5.98 -4.32 0 -0.68 0.03 -0.05 0.04 -0.01c0.44,-0.15 3.04,0.63 6.17,1.87l2.08 0.82c0.65,0.26 1.25,0.61 1.77,1.05 1.49,1.23 2.4,3.09 2.4,5.09l0 0.11c-0.52,-0.03 -1.04,-0.15 -1.49,-0.36l-0.55 -0.3z"/>
  <path class="fil45" d="M147.81 112.24l-0 -0.01c-0.04,-0.05 -0.07,-0.11 -0.11,-0.16 0.04,0.06 0.07,0.11 0.11,0.17z"/>
  <path class="fil46" d="M152.81 119.87c-1.57,-2.42 -3.29,-5.05 -4.9,-7.47l0 0c1,1.51 2.05,3.1 3.08,4.68 0.17,0.26 0.34,0.51 0.5,0.77 0.44,0.68 0.88,1.36 1.31,2.02l0 0z"/>
  <path class="fil47" d="M147.92 112.41l0 0c-0.04,-0.05 -0.07,-0.11 -0.11,-0.16l0.01 0.01c0.03,0.05 0.07,0.1 0.1,0.15z"/>
  <path class="fil47" d="M147.7 112.08c-0.46,-0.69 -0.91,-1.36 -1.34,-2.01l0 0c0.14,0.21 0.28,0.42 0.42,0.63 0.3,0.45 0.61,0.9 0.92,1.37z"/>
  <path class="fil48" d="M146.36 110.07l0 0c-0,-0 -0,-0 -0,-0 -0,-0 -0,-0 -0,-0l0 0c0,0 0,0 0,0z"/>
 </g>
</svg>
