<?xml version="1.0" encoding="UTF-8"?>
<!DOCTYPE svg PUBLIC "-//W3C//DTD SVG 1.1//EN" "http://www.w3.org/Graphics/SVG/1.1/DTD/svg11.dtd">
<!-- Creator: CorelDRAW 2020 (64 Bit) -->
<svg xmlns="http://www.w3.org/2000/svg" xml:space="preserve" width="30.8286mm" height="21.2796mm" version="1.1" style="shape-rendering:geometricPrecision; text-rendering:geometricPrecision; image-rendering:optimizeQuality; fill-rule:evenodd; clip-rule:evenodd"
viewBox="0 0 231.92 160.08"
 xmlns:xlink="http://www.w3.org/1999/xlink"
 xmlns:xodm="http://www.corel.com/coreldraw/odm/2003">
 <defs>
  <style type="text/css">
   <![CDATA[
    .fil52 {fill:#FEFEFE}
    .fil9 {fill:#FEFEFE;fill-rule:nonzero}
    .fil7 {fill:#EFEFEF;fill-rule:nonzero}
    .fil8 {fill:#E5E6E5;fill-rule:nonzero}
    .fil5 {fill:#E0E1E0;fill-rule:nonzero}
    .fil46 {fill:#DBF0EE;fill-rule:nonzero}
    .fil6 {fill:#D9DAD9;fill-rule:nonzero}
    .fil17 {fill:#D2D4D4;fill-rule:nonzero}
    .fil49 {fill:#C2C4C4;fill-rule:nonzero}
    .fil27 {fill:#BBE3E3;fill-rule:nonzero}
    .fil45 {fill:#AFDEDD;fill-rule:nonzero}
    .fil25 {fill:#A8B8BB;fill-rule:nonzero}
    .fil41 {fill:#98D6D2;fill-rule:nonzero}
    .fil34 {fill:#95A0A2;fill-rule:nonzero}
    .fil14 {fill:#95A9AF;fill-rule:nonzero}
    .fil35 {fill:#94A7AB;fill-rule:nonzero}
    .fil37 {fill:#919FA2;fill-rule:nonzero}
    .fil42 {fill:#8ED2CE;fill-rule:nonzero}
    .fil24 {fill:#85D0CF;fill-rule:nonzero}
    .fil10 {fill:#6CC9C7;fill-rule:nonzero}
    .fil50 {fill:#6BC8C2;fill-rule:nonzero}
    .fil28 {fill:#637C84;fill-rule:nonzero}
    .fil21 {fill:#55C2B9;fill-rule:nonzero}
    .fil33 {fill:#617980;fill-rule:nonzero}
    .fil36 {fill:#576C72;fill-rule:nonzero}
    .fil38 {fill:#4A5F66;fill-rule:nonzero}
    .fil40 {fill:#465C62;fill-rule:nonzero}
    .fil22 {fill:#3D4E53;fill-rule:nonzero}
    .fil11 {fill:#42616A;fill-rule:nonzero}
    .fil30 {fill:#405D66;fill-rule:nonzero}
    .fil23 {fill:#3A4A4F;fill-rule:nonzero}
    .fil31 {fill:#3D5A63;fill-rule:nonzero}
    .fil39 {fill:#3B535B;fill-rule:nonzero}
    .fil18 {fill:#39545B;fill-rule:nonzero}
    .fil26 {fill:#384E55;fill-rule:nonzero}
    .fil29 {fill:#326166;fill-rule:nonzero}
    .fil4 {fill:#00B3A9;fill-rule:nonzero}
    .fil32 {fill:#1E7C7D;fill-rule:nonzero}
    .fil44 {fill:#2C3C43;fill-rule:nonzero}
    .fil20 {fill:#00B09F;fill-rule:nonzero}
    .fil48 {fill:#009D89;fill-rule:nonzero}
    .fil47 {fill:#007364;fill-rule:nonzero}
    .fil2 {fill:black;fill-rule:nonzero}
    .fil13 {fill:#074669;fill-rule:nonzero}
    .fil15 {fill:#0A6092;fill-rule:nonzero}
    .fil19 {fill:#0B9AC2;fill-rule:nonzero}
    .fil51 {fill:#1A1A1A;fill-rule:nonzero}
    .fil3 {fill:#333333;fill-rule:nonzero}
    .fil12 {fill:#333333;fill-rule:nonzero}
    .fil1 {fill:#4D4D4D;fill-rule:nonzero}
    .fil16 {fill:#791D1F;fill-rule:nonzero}
    .fil43 {fill:#B3B3B3;fill-rule:nonzero}
    .fil0 {fill:#B3B3B3;fill-rule:nonzero}
    .fil53 {fill:white;fill-rule:nonzero}
   ]]>
  </style>
 </defs>
 <g id="Camada_x0020_1">
  <metadata id="CorelCorpID_0Corel-Layer"/>
  <path class="fil0" d="M117.53 152.28c0.38,0 0.76,-0.08 1.05,-0.25l54.52 -32.04 -20.25 -11.86 -55.24 31.76c-0.58,0.34 -0.58,0.88 -0,1.22l18.86 10.92c0.29,0.17 0.68,0.25 1.06,0.25z"/>
  <path class="fil1" d="M173.15 116.75c0,-0.22 -0.15,-0.44 -0.44,-0.61l-17.72 -10.23c-0.58,-0.34 -1.53,-0.34 -2.11,0l-54.05 31.26c-0.29,0.17 -0.44,0.39 -0.44,0.61 0,0.22 0,1.64 0,1.86 -0,0.22 0.15,0.44 0.44,0.61l17.71 10.22c0.58,0.34 1.53,0.34 2.11,-0l54.06 -31.21c0.29,-0.17 0.44,-0.39 0.44,-0.61 0,-0.22 0,-1.69 0,-1.91z"/>
  <path class="fil2" d="M116.54 148.58l-17.71 -10.18c-0.59,-0.34 -0.59,-0.88 -0,-1.22l54.05 -31.26c0.58,-0.34 1.53,-0.34 2.11,0l17.72 10.23c0.58,0.34 0.58,0.88 0,1.22l-54.06 31.21c-0.58,0.34 -1.53,0.34 -2.11,0z"/>
  <path class="fil3" d="M117.53 148.83l0 1.9c-0.36,-0.01 -0.72,-0.09 -0.99,-0.24l-17.7 -10.22c-0.29,-0.17 -0.44,-0.39 -0.44,-0.61l0 -1.86c0,0.22 0.15,0.44 0.44,0.61l17.7 10.18c0.28,0.15 0.63,0.24 0.99,0.25z"/>
  <path class="fil4" d="M104.12 137.52l-0.01 -0.02 -0.74 -0.44 -1.49 0.86 0.76 0.47 1.48 -0.85 0 -0.01zm2.43 -1.4l-0.01 -0.02 -0.74 -0.44 -1.48 0.86 0.76 0.47 1.48 -0.85 0 -0.01zm1.61 3.73l-0.01 -0.02 -1.75 -1.01 -1.48 0.86 1.77 1.05 1.48 -0.86 0 -0.01zm0.82 -5.13l-0.01 -0.02 -0.74 -0.44 -1.48 0.86 0.76 0.47 1.48 -0.85 0 -0.01zm1.61 3.73l-0.01 -0.02 -1.75 -1.01 -1.48 0.86 1.76 1.05 1.48 -0.86 0 -0.01zm0.82 -5.13l-0.01 -0.02 -0.74 -0.44 -1.48 0.86 0.76 0.47 1.48 -0.85 0 -0.01zm1.61 3.73l-0.01 -0.02 -1.75 -1.01 -1.48 0.86 1.77 1.05 1.48 -0.86 0 -0.01zm0.32 2.99l-0.01 -0.02 -1.75 -1.01 -1.48 0.86 1.76 1.05 1.48 -0.86 0 -0.01zm0.31 2.99l-0.01 -0.02 -4.5 -2.6 -1.48 0.86 4.51 2.63 1.48 -0.86 0 -0.01zm1.41 -10.99l-0.01 -0.02 -1.75 -1.01 -1.48 0.86 1.76 1.05 1.48 -0.86 0 -0.01zm0.39 3.62l-0.01 -0.02 -1.75 -1.01 -1.48 0.86 1.76 1.05 1.48 -0.86 0 -0.01zm0.32 2.99l-0.01 -0.02 -1.75 -1.01 -1.48 0.86 1.76 1.05 1.48 -0.86 0 -0.01zm0.32 2.99l-0.01 -0.02 -1.75 -1.01 -1.48 0.86 1.76 1.05 1.48 -0.86 0 -0.01zm1.41 -11l-0.01 -0.02 -1.75 -1.01 -1.48 0.86 1.76 1.05 1.48 -0.85 0 -0.01zm0.71 6.61l-0.01 -0.02 -1.76 -1.01 -1.48 0.86 1.77 1.05 1.48 -0.85 0 -0.01zm0.19 -3.28l-0.01 -0.02 -1.75 -1.01 -1.49 0.86 1.76 1.05 1.48 -0.85 0 -0.01zm0.12 6.27l-0.01 -0.02 -1.75 -1.01 -1.48 0.86 1.76 1.05 1.48 -0.86 0 -0.01zm0.32 2.99l-0.01 -0.02 -1.75 -1.01 -1.48 0.86 1.77 1.05 1.48 -0.86 0 -0.01zm0.32 2.99l-0.01 -0.02 -4.5 -2.6 -1.48 0.86 4.51 2.63 1.48 -0.86 0 -0.01zm0.77 -16.97l-0.01 -0.02 -1.75 -1.01 -1.48 0.86 1.77 1.05 1.48 -0.85 0 -0.01zm0.9 3.33l-0.01 -0.02 -1.75 -1.01 -1.49 0.86 1.77 1.05 1.48 -0.86 0 -0.01zm0.12 6.27l-0.01 -0.02 -1.75 -1.01 -1.48 0.86 1.76 1.05 1.48 -0.86 0 -0.01zm0.2 -3.28l-0.01 -0.02 -1.75 -1.01 -1.48 0.86 1.76 1.05 1.48 -0.86 0 -0.01zm0.12 6.27l-0.01 -0.02 -1.75 -1.01 -1.49 0.86 1.77 1.05 1.48 -0.85 0 -0.01zm0.32 2.99l-0.01 -0.02 -1.75 -1.01 -1.49 0.86 1.77 1.05 1.48 -0.86 0 -0.01zm1.31 -17.28l-0.01 -0.02 -1.75 -1.01 -1.48 0.86 1.76 1.05 1.48 -0.86 0 -0.01zm0.37 3.64l-0.01 -0.02 -1.75 -1.01 -1.48 0.86 1.77 1.05 1.48 -0.86 0 -0.01zm0.32 2.99l-0.01 -0.02 -1.75 -1.01 -1.48 0.86 1.76 1.05 1.48 -0.86 0 -0.01zm0.12 6.27l-0.01 -0.02 -1.75 -1.01 -1.49 0.86 1.76 1.05 1.48 -0.86 0 -0.01zm1.62 -14.29l-0.01 -0.02 -1.75 -1.01 -1.48 0.86 1.76 1.05 1.48 -0.86 0 -0.01zm0.68 6.62l-0.01 -0.02 -1.75 -1.01 -1.49 0.86 1.76 1.05 1.48 -0.86 0 -0.01zm0.44 9.26l-0.01 -0.02 -1.75 -1.01 -3.91 2.26 1.76 1.05 3.91 -2.26 0 -0.01zm0.91 -13.2l-0.01 -0.02 -1.75 -1.01 -2.63 1.52 1.77 1.05 2.63 -1.52 0 -0.01zm0.4 -4.08l-0.01 -0.02 -1.75 -1.01 -1.48 0.86 1.76 1.05 1.48 -0.85 0 -0.01zm1.31 12.59l-0.01 -0.02 -1.75 -1.01 -1.48 0.86 1.76 1.05 1.48 -0.86 0 -0.01zm0.32 2.99l-0.01 -0.02 -1.75 -1.01 -1.48 0.86 1.77 1.05 1.48 -0.86 0 -0.01zm0.4 -12.91l-0.01 -0.02 -1.75 -1.01 -1.49 0.86 1.77 1.05 1.48 -0.86 0 -0.01zm0.4 -4.08l-0.01 -0.02 -1.75 -1.01 -1.49 0.86 1.77 1.05 1.48 -0.86 0 -0.01zm1.45 6.18l-0.01 -0.02 -1.75 -1.01 -1.48 0.86 1.77 1.05 1.48 -0.85 0 -0.01zm0.18 9.4l-0.01 -0.02 -1.75 -1.01 -1.48 0.86 1.76 1.05 1.48 -0.86 0 -0.01zm0.4 -12.91l-0.01 -0.02 -1.75 -1.01 -1.49 0.86 1.77 1.05 1.48 -0.86 0 -0.01zm1.46 -4.69l-0.01 -0.02 -1.75 -1.01 -1.49 0.86 1.76 1.05 1.48 -0.86 0 -0.01zm0.07 10.14l-0.01 -0.02 -1.75 -1.01 -1.36 0.78c-0.09,0.05 -0.25,0.09 -0.43,0.09 -0.18,0 -0.35,-0.03 -0.45,-0.09l-2.3 -1.33 -1.74 1 4.51 2.63 3.53 -2.04 0 -0.01zm0.32 -3.36l-0.01 -0.02 -1.75 -1.01 -1.48 0.86 1.76 1.05 1.48 -0.86 0 -0.01zm0.18 9.4l-0.01 -0.02 -1.75 -1.01 -1.48 0.86 1.76 1.05 1.48 -0.86 0 -0.01zm0.4 -12.91l-0.01 -0.02 -1.75 -1.01 -1.48 0.86 1.76 1.05 1.48 -0.86 0 -0.01zm1.46 -4.69l-0.01 -0.02 -1.75 -1.01 -1.49 0.86 1.77 1.05 1.48 -0.86 0 -0.01zm0.07 10.14l-0.01 -0.02 -1.75 -1.01 -1.48 0.86 1.77 1.05 1.48 -0.86 0 -0.01zm0.32 -3.36l-0.01 -0.02 -1.75 -1.01 -1.48 0.86 1.77 1.05 1.48 -0.86 0 -0.01zm0.58 -3.5l-0.01 -0.02 -1.75 -1.01 -1.48 0.86 1.77 1.05 1.48 -0.86 0 -0.01zm0.57 9.18l-0.01 -0.02 -1.75 -1.01 -4.68 2.7 1.76 1.05 4.68 -2.7 0 -0.01zm0.44 2.91l-0.01 -0.02 -1.75 -1.01 -2.38 1.37 1.77 1.05 2.38 -1.37 0 -0.01zm0.45 -16.78l-0.01 -0.02 -1.75 -1.01 -1.49 0.86 1.77 1.05 1.48 -0.86 0 -0.01zm0.07 10.15l-0.01 -0.02 -1.76 -1.01 -1.48 0.86 1.77 1.05 1.48 -0.86 0 -0.01zm0.32 -3.36l-0.01 -0.02 -1.75 -1.01 -1.48 0.86 1.76 1.05 1.48 -0.86 0 -0.01zm0.58 -3.5l-0.01 -0.02 -1.75 -1.01 -1.48 0.86 1.76 1.05 1.48 -0.86 0 -0.01zm0.57 9.18l-0.01 -0.02 -1.75 -1.01 -1.48 0.86 1.76 1.05 1.48 -0.86 0 -0.01zm0.83 2.69l-0.01 -0.02 -1.75 -1.01 -1.87 1.08 1.76 1.05 1.87 -1.08 0 -0.01zm0.07 -16.56l-0.01 -0.02 -1.75 -1.01 -1.49 0.86 1.77 1.05 1.48 -0.86 0 -0.01zm0.07 10.14l-0.01 -0.02 -1.75 -1.01 -1.48 0.86 1.76 1.05 1.48 -0.86 0 -0.01zm0.32 -3.36l-0.01 -0.02 -1.75 -1.01 -1.48 0.86 1.76 1.05 1.48 -0.86 0 -0.01zm0.58 -3.5l-0.01 -0.02 -1.75 -1.01 -1.48 0.86 1.76 1.05 1.48 -0.86 0 -0.01zm0.56 9.18l-0.01 -0.02 -1.75 -1.01 -1.48 0.86 1.76 1.05 1.48 -0.86 0 -0.01zm0.96 -3.72l-0.01 -0.02 -1.75 -1.01 -1.48 0.86 1.77 1.05 1.48 -0.86 0 -0.01zm0.25 6.19l-0.01 -0.02 -1.75 -1.01 -1.87 1.08 1.76 1.05 1.86 -1.08 0 -0.01zm0.07 -9.55l-0.01 -0.02 -1.75 -1.01 -1.48 0.86 1.77 1.05 1.48 -0.86 0 -0.01zm0.58 -3.5l-0.01 -0.02 -1.75 -1.01 -1.48 0.86 1.77 1.05 1.48 -0.86 0 -0.01zm0.09 -3.9l-0.01 -0.02 -1.75 -1.01 -1.49 0.86 1.77 1.05 1.48 -0.86 0 -0.01zm0.48 13.08l-0.01 -0.02 -1.75 -1.01 -1.48 0.86 1.77 1.05 1.48 -0.86 0 -0.01zm0.96 -3.72l-0.01 -0.02 -1.75 -1.01 -1.48 0.86 1.76 1.05 1.48 -0.86 0 -0.01zm0.32 -3.36l-0.01 -0.02 -1.75 -1.01 -1.48 0.86 1.76 1.05 1.48 -0.86 0 -0.01zm0.31 9.33l-0.01 -0.02 -1.75 -1.01 -1.87 1.08 1.77 1.05 1.86 -1.08 0 -0.01zm0.27 -12.83l-0.01 -0.02 -1.75 -1.01 -1.48 0.86 1.76 1.05 1.48 -0.86 0 -0.01zm0.09 -3.9l-0.01 -0.02 -1.75 -1.01 -1.48 0.86 1.76 1.05 1.48 -0.86 0 -0.01zm0.48 13.08l-0.01 -0.02 -1.75 -1.01 -1.48 0.86 1.76 1.05 1.48 -0.86 0 -0.01zm0.96 -3.72l-0.01 -0.02 -1.75 -1.01 -1.48 0.86 1.76 1.05 1.48 -0.86 0 -0.01zm0.32 -3.36l-0.01 -0.02 -1.75 -1.01 -1.48 0.86 1.77 1.05 1.48 -0.86 0 -0.01zm0.58 -3.5l-0.01 -0.02 -1.75 -1.01 -1.48 0.86 1.77 1.05 1.48 -0.86 0 -0.01zm0.09 -3.9l-0.01 -0.02 -1.75 -1.01 -1.49 0.86 1.77 1.05 1.48 -0.86 0 -0.01zm0.48 13.08l-0.01 -0.02 -1.75 -1.01 -1.48 0.86 1.77 1.05 1.48 -0.86 0 -0.01zm0.96 -3.72l-0.01 -0.02 -1.75 -1.01 -1.48 0.86 1.77 1.05 1.48 -0.86 0 -0.01zm0.32 -3.36l-0.01 -0.02 -1.75 -1.01 -1.48 0.86 1.76 1.05 1.48 -0.86 0 -0.01zm0.58 -3.5l-0.01 -0.02 -1.75 -1.01 -1.48 0.86 1.77 1.05 1.48 -0.86 0 -0.01zm0.09 -3.9l-0.01 -0.02 -1.75 -1.01 -1.48 0.86 1.77 1.05 1.48 -0.86 0 -0.01zm0.48 13.08l-0.01 -0.02 -1.75 -1.01 -1.48 0.86 1.76 1.05 1.48 -0.86 0 -0.01zm0.96 -3.72l-0.01 -0.02 -1.75 -1.01 -1.48 0.86 1.76 1.05 1.48 -0.86 0 -0.01zm0.32 -3.36l-0.01 -0.02 -1.75 -1.01 -1.49 0.86 1.77 1.05 1.48 -0.86 0 -0.01zm0.58 -3.5l-0.01 -0.02 -1.75 -1.01 -1.48 0.86 1.76 1.05 1.48 -0.85 0 -0.01zm0.56 9.18l-0.01 -0.02 -1.75 -1.01 -1.48 0.86 1.76 1.05 1.48 -0.86 0 -0.01zm0.96 -13.91l-0.01 -0.02 -1.75 -1.01 -1.87 1.08 1.77 1.05 1.86 -1.08 0 -0.01zm0 10.18l-0.01 -0.02 -1.75 -1.01 -1.48 0.86 1.76 1.05 1.48 -0.86 0 -0.01zm0.32 -3.36l-0.01 -0.02 -1.75 -1.01 -1.48 0.86 1.77 1.05 1.48 -0.86 0 -0.01zm0.58 -3.5l-0.01 -0.02 -1.75 -1.01 -1.48 0.86 1.76 1.05 1.48 -0.86 0 -0.01zm0.56 9.18l-0.01 -0.02 -1.75 -1.01 -1.48 0.86 1.77 1.05 1.48 -0.86 0 -0.01zm0.96 -3.72l-0.01 -0.02 -1.75 -1.01 -1.48 0.86 1.77 1.05 1.48 -0.86 0 -0.01zm0.32 -3.36l-0.01 -0.02 -1.75 -1.01 -1.48 0.86 1.77 1.05 1.48 -0.86 0 -0.01zm0.58 -3.5l-0.01 -0.02 -1.75 -1.01 -1.48 0.86 1.76 1.05 1.48 -0.86 0 -0.01zm0.57 9.18l-0.01 -0.02 -1.75 -1.01 -1.48 0.86 1.76 1.05 1.48 -0.86 0 -0.01zm0.96 -3.72l-0.01 -0.02 -1.75 -1.01 -1.48 0.86 1.76 1.05 1.48 -0.86 0 -0.01zm0.51 6.05l-0.01 -0.02 -1.75 -1.01 -13.5 7.79 1.77 1.05 13.49 -7.79 0 -0.01zm0.71 -9.92l-0.01 -0.02 -1.75 -1.01 -2.38 1.37 1.76 1.05 2.38 -1.37 0 -0.01zm0.25 6.2l-0.01 -0.02 -1.75 -1.01 -1.48 0.86 1.76 1.05 1.48 -0.86 0 -0.01zm1.85 2.1l-0.01 -0.02 -1.75 -1.01 -1.87 1.08 1.77 1.05 1.86 -1.08 0 -0.01zm0.58 -3.5l-0.01 -0.02 -1.75 -1.01 -1.48 0.86 1.77 1.05 1.48 -0.86 0 -0.01zm0.07 -3.21l-0.01 -0.02 -1.75 -1.01 -3.02 1.74 1.76 1.05 3.02 -1.74 0 -0.01zm2.17 5.09l-0.01 -0.02 -1.75 -1.01 -1.87 1.08 1.76 1.05 1.86 -1.08 0 -0.01zm0.58 -3.5l-0.01 -0.02 -1.75 -1.01 -1.87 1.08 1.76 1.05 1.87 -1.08 0 -0.01zm2.74 1.58l-0.01 -0.02 -1.75 -1.01 -2.38 1.37 1.76 1.05 2.38 -1.37 0 -0.01z"/>
  <path class="fil5" d="M101.01 127.64l11.84 -6.85c1.22,-0.7 1.83,-1.63 1.83,-2.55 0,-0.92 0,-1.65 0,-1.65l-11.14 -6.32c-0.65,-0.38 -1.18,-1.29 -1.18,-2.04l0 -14.6 -20.68 11.95 -0 14.6c0,0.75 0.53,1.67 1.18,2.04l9.31 5.42c2.44,1.41 6.4,1.41 8.84,0z"/>
  <path class="fil6" d="M86.65 122.76l0 1.64 -3.79 -2.18c-0.65,-0.37 -1.18,-1.29 -1.18,-2.04l0 -14.6 3.94 -2.27c0.08,1 0.17,2.03 0.25,3.04l-2.76 1.6 0 11.41c0,0.76 0.52,1.67 1.18,2.04l2.36 1.37z"/>
  <path class="fil7" d="M83.11 119.36c0,0.75 0.53,1.67 1.18,2.04l7.88 4.59c2.44,1.41 6.4,1.41 8.84,0l11.85 -6.85c2.44,-1.41 2.44,-3.69 0,-5.1l-7.89 -4.6c-0.65,-0.38 -1.18,-1.29 -1.18,-2.04l0 -11.41 -20.68 11.95 0 11.41z"/>
  <path class="fil8" d="M107.38 110.83l0 -0 -2.4 -1.39c-0.65,-0.38 -1.18,-1.29 -1.18,-2.04l0 -11.41 -20.69 11.95 0 11.41c0,0.75 0.53,1.67 1.18,2.04l2.36 1.36 20.73 -11.93z"/>
  <path class="fil8" d="M114.69 116.59c0,0 0,0.72 0,1.65 0,0.93 -0.61,1.84 -1.83,2.55l-11.84 6.84c-1.17,0.68 -2.69,1.02 -4.22,1.05l0 -1.64c1.53,-0.02 3.05,-0.37 4.22,-1.05l11.84 -6.85c1.22,-0.7 1.83,-1.63 1.83,-2.55z"/>
  <path class="fil3" d="M49.9 135.11c0.76,0.44 2.04,0.42 2.86,-0.05 10.17,-5.87 69.82,-40.31 79.99,-46.18 0.81,-0.47 1.47,-1.61 1.47,-2.55l0 -70.02c0,-0.94 -0.62,-2.06 -1.38,-2.5 -0.76,-0.44 -2.04,-0.42 -2.85,0.05l-79.99 46.18c-0.81,0.47 -1.47,1.61 -1.47,2.55l-0 70.01c0,0.94 0.62,2.06 1.38,2.5z"/>
  <path class="fil2" d="M52.76 135.05l79.99 -46.18c0.81,-0.47 1.47,-1.61 1.47,-2.55l0 -70.02c0,-0.94 -0.66,-1.32 -1.47,-0.85l-79.99 46.18c-0.81,0.47 -1.47,1.61 -1.47,2.55l-0 70.02c0,0.94 0.66,1.32 1.47,0.85z"/>
  <path class="fil6" d="M52.54 135.35c-0.82,0.36 -1.95,0.35 -2.64,-0.05 -0.76,-0.44 -1.38,-1.56 -1.38,-2.51l0 -7.87 2.76 1.6 0 7.87c0,0.86 0.54,1.25 1.26,0.96z"/>
  <path class="fil9" d="M51.28 126.51l0 7.87c0,0.94 0.66,1.32 1.47,0.85l79.99 -46.18c0.81,-0.47 1.47,-1.61 1.47,-2.55l0 -7.87 -82.94 47.88z"/>
  <path class="fil4" d="M54.05 120.52l0 -55.41c0,-0.56 0.39,-1.25 0.88,-1.53l75.64 -43.67c0.49,-0.28 0.88,-0.05 0.88,0.51l0 55.42c0,0.56 -0.39,1.25 -0.88,1.53l-75.64 43.67c-0.49,0.28 -0.88,0.05 -0.88,-0.51z"/>
  <path class="fil10" d="M54.54 121.15c0.12,0 0.25,-0.04 0.39,-0.12l75.64 -43.67c0.49,-0.28 0.88,-0.97 0.88,-1.53l-0 -55.42c0,-0.4 -0.2,-0.63 -0.49,-0.63 -0.12,0 -0.25,0.04 -0.39,0.12l-9.43 5.44 0 44.58c0,0.9 -0.63,2 -1.41,2.44l-65.68 37.92 -0 10.22c0,0.4 0.2,0.63 0.49,0.63z"/>
  <path class="fil11" d="M92.75 105.58c-0.76,0.44 -1.38,1.51 -1.38,2.39 0,0.88 0.62,1.24 1.38,0.8 0.76,-0.44 1.38,-1.51 1.38,-2.39 0,-0.88 -0.62,-1.24 -1.38,-0.8z"/>
  <path class="fil12" d="M51.72 62.73c-0.27,0.46 -0.43,0.99 -0.44,1.46l0 62.33 -2.76 -1.6 0 -62.32c0,-0.47 0.17,-0.99 0.44,-1.46l2.76 1.59z"/>
  <path class="fil11" d="M121.13 1.85l-0.02 -0.13 -0 -0.03 -0.03 -0.12 -0.09 -0.18 -0.05 -0.07 -0.04 -0.05 -0.09 -0.09 -0.01 -0.01 -0.12 -0.07c-0.26,-0.12 -0.58,-0.09 -0.95,0.12l-93.35 53.87c-0.78,0.45 -1.41,1.55 -1.41,2.44l0 67.56 0 0.01 0 0.31c0,0.38 0.21,0.69 0.51,0.85l0.06 0.04 0.07 0.04 0.12 0.04 0.18 0.02c0.14,0 0.31,-0.04 0.47,-0.13l0.04 -0.02 0 -0 1.35 -0.78 91.97 -53.1c0.78,-0.45 1.41,-1.54 1.41,-2.44l0 -67.91 -0.01 -0.18z"/>
  <path class="fil4" d="M120.68 1.09c-0.26,-0.12 -0.58,-0.09 -0.95,0.12l-93.35 53.87c-0.78,0.45 -1.41,1.55 -1.41,2.44l0 4.61 -1.8 -1.06 0 -4.58c0,-0.9 0.63,-1.99 1.41,-2.44l93.36 -53.87c0.4,-0.24 0.76,-0.24 1.02,-0.08 0.25,0.15 1.43,0.82 1.73,0.98z"/>
  <path class="fil13" d="M121.14 2.01c-0,-0.89 -0.63,-1.25 -1.41,-0.8l-93.35 53.87c-0.78,0.45 -1.41,1.54 -1.41,2.44l0 4.61 96.17 -55.49 0 -4.63z"/>
  <path class="fil9" d="M23.99 54.54c0.18,-0.19 0.37,-0.36 0.58,-0.48l93.36 -53.87c0.22,-0.13 0.42,-0.19 0.6,-0.19 -0.18,0 -0.39,0.06 -0.6,0.19l-93.35 53.87c-0.21,0.12 -0.4,0.29 -0.58,0.48zm96.67 -53.46c-0.32,-0.17 -1.46,-0.82 -1.71,-0.97 -0.05,-0.03 -0.11,-0.05 -0.16,-0.07 0.06,0.02 0.11,0.04 0.16,0.07 0.25,0.15 1.38,0.8 1.71,0.97z"/>
  <path class="fil14" d="M25.46 56c0.25,-0.38 0.57,-0.72 0.92,-0.92l22.68 -13.09 70.67 -40.79c0.11,-0.06 0.21,-0.11 0.31,-0.14 -0.1,0.03 -0.2,0.08 -0.31,0.14l-93.35 53.87c-0.35,0.2 -0.67,0.53 -0.92,0.92z"/>
  <path class="fil15" d="M25.39 56.12c0.02,-0.04 0.05,-0.08 0.07,-0.12 0.25,-0.39 0.57,-0.72 0.92,-0.92l93.35 -53.87c0.11,-0.06 0.21,-0.11 0.31,-0.14 0.11,-0.03 0.22,-0.05 0.32,-0.05 0.09,0 0.17,0.01 0.24,0.04 0.02,0.01 0.04,0.02 0.06,0.02 -0,-0 -0,-0 -0.01,-0 -0.33,-0.18 -1.46,-0.82 -1.71,-0.97 -0.05,-0.03 -0.11,-0.06 -0.16,-0.07 -0.07,-0.02 -0.15,-0.03 -0.24,-0.03 -0.01,0 -0.01,0 -0.02,0 -0.18,0.01 -0.39,0.07 -0.6,0.19l-93.36 53.87c-0.21,0.12 -0.4,0.29 -0.58,0.48 -0.15,0.16 -0.28,0.35 -0.4,0.55l0 0 1.79 1.03z"/>
  <path class="fil16" d="M25.39 56.12c0.25,-0.44 0.61,-0.82 0.99,-1.04l22.68 -13.09 -22.68 13.09c-0.35,0.2 -0.67,0.53 -0.92,0.92 -0.02,0.04 -0.05,0.08 -0.07,0.12l0 0zm95.29 -55.04c-0,-0 -0.01,-0 -0.01,-0.01 -0.02,-0.01 -0.04,-0.02 -0.06,-0.02 0.02,0.01 0.05,0.02 0.07,0.03z"/>
  <path class="fil17" d="M24.97 62.14l0 -4.61 0 4.61 -1.8 -1.06 0 -4.58c0,-0.12 0.01,-0.25 0.04,-0.39 -0.02,0.13 -0.04,0.26 -0.04,0.39l-0 4.58 1.44 0.85 0.36 0.21z"/>
  <path class="fil18" d="M24.97 62.14l0 0 -0 -4.61c0,-0.37 0.11,-0.77 0.29,-1.14 -0.18,0.38 -0.29,0.78 -0.29,1.14l0 4.61 0 0z"/>
  <path class="fil19" d="M24.97 62.14l0 -4.61c0,-0.37 0.11,-0.77 0.29,-1.14 0.04,-0.09 0.08,-0.17 0.13,-0.25l-1.79 -1.04c-0.19,0.32 -0.33,0.68 -0.39,1.02 -0.02,0.13 -0.04,0.26 -0.04,0.39l0 4.58 1.8 1.06z"/>
  <path class="fil20" d="M24.97 62.14l0 -4.61c0,-0.46 0.16,-0.96 0.42,-1.4l-0 -0c-0,0 -0,0 -0,0.01l-0 -0c-0.05,0.08 -0.09,0.17 -0.13,0.25 -0.18,0.38 -0.29,0.78 -0.29,1.14l0 4.61z"/>
  <path class="fil21" d="M25.39 56.13c0,-0 0,-0 0,-0.01l-1.79 -1.03 1.79 1.04z"/>
  <path class="fil21" d="M25.39 56.13c0,-0 0,-0 0,-0.01l-0 -0c-0,0 -0,0 -0,0.01l0 0z"/>
  <path class="fil2" d="M28.15 56.06c-0.44,0.25 -0.8,1.01 -0.8,1.69 0,0.68 0.36,1.02 0.8,0.77 0.44,-0.25 0.8,-1.01 0.8,-1.69 0,-0.68 -0.36,-1.02 -0.8,-0.77z"/>
  <path class="fil2" d="M31.02 54.4c-0.44,0.25 -0.8,1.01 -0.8,1.69 0,0.68 0.36,1.02 0.8,0.77 0.44,-0.25 0.8,-1.01 0.8,-1.69 0,-0.68 -0.36,-1.02 -0.8,-0.77z"/>
  <path class="fil2" d="M33.89 52.74c-0.44,0.25 -0.8,1.01 -0.8,1.69 0,0.68 0.36,1.02 0.8,0.77 0.44,-0.25 0.8,-1.01 0.8,-1.69 0,-0.68 -0.36,-1.02 -0.8,-0.77z"/>
  <polygon class="fil22" points="23.16,85.79 24.97,84.75 24.97,62.14 24.61,61.93 23.16,61.09 23.16,61.08 "/>
  <polygon class="fil23" points="24.61,61.93 23.16,61.08 23.16,61.09 "/>
  <path class="fil4" d="M92.54 30.69l-19.68 11.34c-0.28,0.16 -0.5,0.53 -0.5,0.83 0,0.3 0.22,0.41 0.5,0.25l19.68 -11.34c0.28,-0.16 0.5,-0.53 0.5,-0.83 0,-0.3 -0.22,-0.41 -0.5,-0.25z"/>
  <path class="fil5" d="M85.02 52.4l-7.46 4.29c-0.28,0.16 -0.5,0.53 -0.5,0.83 0,0.3 0.22,0.41 0.5,0.25l7.46 -4.29c0.28,-0.16 0.5,-0.53 0.5,-0.83 0,-0.3 -0.22,-0.41 -0.5,-0.25z"/>
  <path class="fil5" d="M85.02 56.74l-7.46 4.29c-0.28,0.16 -0.5,0.53 -0.5,0.83 0,0.3 0.22,0.41 0.5,0.25l7.46 -4.29c0.28,-0.16 0.5,-0.53 0.5,-0.83 0,-0.3 -0.22,-0.41 -0.5,-0.25z"/>
  <path class="fil4" d="M70.92 43.15l-39.4 22.69c-0.28,0.16 -0.5,0.53 -0.5,0.83 0,0.3 0.22,0.41 0.5,0.25l39.4 -22.69c0.28,-0.16 0.5,-0.53 0.5,-0.83 0,-0.3 -0.22,-0.41 -0.5,-0.25z"/>
  <path class="fil4" d="M84.86 82.85l-12 6.94c-0.28,0.16 -0.5,0.53 -0.5,0.83 0,0.3 0.22,0.41 0.5,0.25l12 -6.94c0.28,-0.16 0.5,-0.53 0.5,-0.83 0,-0.3 -0.22,-0.41 -0.5,-0.25z"/>
  <path class="fil4" d="M70.92 90.91l-39.4 22.72c-0.28,0.16 -0.5,0.53 -0.5,0.83 0,0.3 0.22,0.41 0.5,0.25l39.4 -22.72c0.28,-0.16 0.5,-0.53 0.5,-0.83 0,-0.3 -0.22,-0.41 -0.5,-0.25z"/>
  <path class="fil4" d="M92.54 35.04l-9.91 5.7c-0.28,0.16 -0.5,0.53 -0.5,0.83 0,0.3 0.22,0.41 0.5,0.25l9.91 -5.7c0.28,-0.16 0.5,-0.53 0.5,-0.83 0,-0.3 -0.22,-0.41 -0.5,-0.25z"/>
  <path class="fil24" d="M82.4 41.89c0.07,0 0.15,-0.02 0.23,-0.07l9.91 -5.7c0.28,-0.16 0.5,-0.53 0.5,-0.83 0,-0.21 -0.11,-0.33 -0.26,-0.33 -0.07,0 -0.15,0.02 -0.24,0.07l-9.91 5.7c-0.28,0.16 -0.5,0.53 -0.5,0.83 0,0.21 0.11,0.33 0.27,0.33z"/>
  <path class="fil4" d="M92.54 39.37l-4.64 2.68c-0.28,0.16 -0.5,0.53 -0.5,0.83 0,0.3 0.22,0.41 0.5,0.25l4.64 -2.67c0.28,-0.16 0.5,-0.53 0.5,-0.83 0,-0.3 -0.22,-0.41 -0.5,-0.25z"/>
  <path class="fil24" d="M87.67 43.21c0.07,0 0.15,-0.02 0.24,-0.07l4.64 -2.67c0.28,-0.16 0.5,-0.53 0.5,-0.83 0,-0.21 -0.11,-0.33 -0.26,-0.33 -0.07,0 -0.15,0.02 -0.24,0.07l-4.64 2.68c-0.28,0.16 -0.5,0.53 -0.5,0.83 0,0.21 0.11,0.33 0.27,0.33z"/>
  <path class="fil4" d="M92.54 48.06l-4.64 2.68c-0.28,0.16 -0.5,0.53 -0.5,0.83 0,0.3 0.22,0.41 0.5,0.25l4.64 -2.67c0.28,-0.16 0.5,-0.53 0.5,-0.83 0,-0.3 -0.22,-0.41 -0.5,-0.25z"/>
  <path class="fil24" d="M87.67 51.89c0.07,0 0.15,-0.02 0.24,-0.07l4.64 -2.67c0.28,-0.16 0.5,-0.53 0.5,-0.83 0,-0.21 -0.11,-0.33 -0.27,-0.33 -0.07,0 -0.15,0.02 -0.23,0.07l-4.64 2.68c-0.28,0.16 -0.5,0.53 -0.5,0.83 0,0.21 0.11,0.33 0.27,0.33z"/>
  <path class="fil4" d="M92.54 52.4l-4.64 2.67c-0.28,0.16 -0.5,0.53 -0.5,0.83 0,0.3 0.22,0.41 0.5,0.25l4.64 -2.68c0.28,-0.16 0.5,-0.53 0.5,-0.83 0,-0.3 -0.22,-0.41 -0.5,-0.25z"/>
  <path class="fil24" d="M87.67 56.23c0.07,0 0.15,-0.02 0.24,-0.07l4.64 -2.68c0.28,-0.16 0.5,-0.53 0.5,-0.83 0,-0.21 -0.11,-0.32 -0.26,-0.32 -0.07,0 -0.15,0.02 -0.24,0.07l-4.64 2.67c-0.28,0.16 -0.5,0.53 -0.5,0.83 0,0.21 0.11,0.33 0.27,0.33z"/>
  <path class="fil4" d="M80.69 41.86l-5.95 3.44c-0.28,0.16 -0.5,0.53 -0.5,0.83 0,0.3 0.22,0.41 0.5,0.25l5.95 -3.44c0.28,-0.16 0.5,-0.53 0.5,-0.83 0,-0.3 -0.22,-0.41 -0.5,-0.25z"/>
  <path class="fil24" d="M74.51 46.46c0.07,0 0.15,-0.02 0.24,-0.07l5.95 -3.44c0.28,-0.16 0.5,-0.53 0.5,-0.83 0,-0.21 -0.11,-0.33 -0.27,-0.33 -0.07,0 -0.15,0.02 -0.24,0.07l-5.95 3.44c-0.28,0.16 -0.5,0.53 -0.5,0.83 0,0.21 0.11,0.33 0.27,0.33z"/>
  <path class="fil9" d="M71.5 73.25l-39.98 23.02c-0.28,0.16 -0.5,0.53 -0.5,0.83 0,0.3 0.22,0.41 0.5,0.25l39.98 -23.02c0.28,-0.16 0.5,-0.53 0.5,-0.83 0,-0.3 -0.22,-0.41 -0.5,-0.25z"/>
  <path class="fil9" d="M37.46 88.47l-5.95 3.44c-0.28,0.16 -0.5,0.53 -0.5,0.83 0,0.3 0.22,0.41 0.5,0.25l5.95 -3.44c0.28,-0.16 0.5,-0.53 0.5,-0.83 0,-0.3 -0.22,-0.41 -0.5,-0.25z"/>
  <path class="fil9" d="M79.38 64.33l-39.98 23.02c-0.28,0.16 -0.5,0.53 -0.5,0.83 0,0.3 0.22,0.41 0.5,0.25l39.98 -23.02c0.28,-0.16 0.5,-0.53 0.5,-0.83 0,-0.3 -0.22,-0.41 -0.5,-0.25z"/>
  <path class="fil4" d="M85.02 43.72l-9.91 5.7c-0.28,0.16 -0.5,0.53 -0.5,0.83 0,0.3 0.22,0.41 0.5,0.25l9.91 -5.7c0.28,-0.16 0.5,-0.53 0.5,-0.83 0,-0.3 -0.22,-0.41 -0.5,-0.25z"/>
  <path class="fil24" d="M74.88 50.57c0.07,0 0.15,-0.02 0.24,-0.07l9.91 -5.7c0.28,-0.16 0.5,-0.53 0.5,-0.83 0,-0.21 -0.11,-0.33 -0.26,-0.33 -0.07,0 -0.15,0.02 -0.24,0.07l-9.91 5.7c-0.28,0.16 -0.5,0.53 -0.5,0.83 0,0.21 0.11,0.33 0.27,0.33z"/>
  <path class="fil4" d="M73.17 50.53l-41.35 23.92c-0.28,0.16 -0.5,0.53 -0.5,0.83 0,0.3 0.22,0.41 0.5,0.25l41.35 -23.93c0.28,-0.16 0.5,-0.53 0.5,-0.83 0,-0.3 -0.22,-0.41 -0.5,-0.25z"/>
  <path class="fil24" d="M31.58 75.62c0.07,0 0.15,-0.02 0.24,-0.07l41.35 -23.93c0.28,-0.16 0.5,-0.53 0.5,-0.83 0,-0.21 -0.11,-0.33 -0.27,-0.33 -0.07,0 -0.15,0.02 -0.24,0.07l-41.35 23.92c-0.28,0.16 -0.5,0.53 -0.5,0.83 0,0.21 0.11,0.33 0.27,0.33z"/>
  <path class="fil5" d="M85.02 69.86l-53.51 30.86c-0.28,0.16 -0.5,0.53 -0.5,0.83 0,0.3 0.22,0.41 0.5,0.25l53.51 -30.86c0.28,-0.16 0.5,-0.53 0.5,-0.83 0,-0.3 -0.22,-0.41 -0.5,-0.25z"/>
  <path class="fil4" d="M92.54 65.52l-4.64 2.67c-0.28,0.16 -0.5,0.53 -0.5,0.83 0,0.3 0.22,0.41 0.5,0.25l4.64 -2.68c0.28,-0.16 0.5,-0.53 0.5,-0.83 0,-0.3 -0.22,-0.41 -0.5,-0.25z"/>
  <path class="fil24" d="M87.67 69.35c0.07,0 0.15,-0.02 0.24,-0.07l4.64 -2.68c0.28,-0.16 0.5,-0.53 0.5,-0.83 0,-0.21 -0.11,-0.33 -0.26,-0.33 -0.07,0 -0.15,0.02 -0.24,0.07l-4.64 2.67c-0.28,0.16 -0.5,0.53 -0.5,0.83 0,0.21 0.11,0.33 0.27,0.33z"/>
  <path class="fil5" d="M85.02 74.2l-53.51 30.86c-0.28,0.16 -0.5,0.53 -0.5,0.83 0,0.3 0.22,0.41 0.5,0.25l53.51 -30.86c0.28,-0.16 0.5,-0.53 0.5,-0.83 0,-0.3 -0.22,-0.41 -0.5,-0.25z"/>
  <path class="fil4" d="M92.54 69.86l-4.64 2.68c-0.28,0.16 -0.5,0.53 -0.5,0.83 0,0.3 0.22,0.41 0.5,0.25l4.64 -2.67c0.28,-0.16 0.5,-0.53 0.5,-0.83 0,-0.3 -0.22,-0.41 -0.5,-0.25z"/>
  <path class="fil24" d="M87.67 73.69c0.07,0 0.15,-0.02 0.23,-0.07l4.64 -2.67c0.28,-0.16 0.5,-0.53 0.5,-0.83 0,-0.21 -0.11,-0.33 -0.27,-0.33 -0.07,0 -0.15,0.02 -0.23,0.07l-4.64 2.68c-0.28,0.16 -0.5,0.53 -0.5,0.83 0,0.21 0.11,0.33 0.27,0.33z"/>
  <path class="fil5" d="M85.02 78.54l-53.51 30.85c-0.28,0.16 -0.5,0.53 -0.5,0.83 0,0.3 0.22,0.41 0.5,0.25l53.51 -30.86c0.28,-0.16 0.5,-0.53 0.5,-0.83 0,-0.3 -0.22,-0.41 -0.5,-0.25z"/>
  <path class="fil4" d="M92.54 74.2l-4.64 2.67c-0.28,0.16 -0.5,0.53 -0.5,0.83 0,0.3 0.22,0.41 0.5,0.25l4.64 -2.67c0.28,-0.16 0.5,-0.53 0.5,-0.83 0,-0.3 -0.22,-0.41 -0.5,-0.25z"/>
  <path class="fil24" d="M87.67 78.03c0.07,0 0.15,-0.02 0.24,-0.07l4.64 -2.67c0.28,-0.16 0.5,-0.53 0.5,-0.83 0,-0.21 -0.11,-0.32 -0.26,-0.32 -0.07,0 -0.15,0.02 -0.24,0.07l-4.64 2.67c-0.28,0.16 -0.5,0.53 -0.5,0.83 0,0.21 0.11,0.33 0.27,0.33z"/>
  <path class="fil25" d="M96.83 30.12c0.07,0 0.14,-0.02 0.22,-0.07l2.73 -1.57c0.27,-0.16 0.49,-0.54 0.49,-0.86l0 -1c0,-0.22 -0.11,-0.35 -0.27,-0.35 -0.07,0 -0.14,0.02 -0.22,0.07l-2.73 1.57c-0.27,0.16 -0.49,0.54 -0.49,0.86l0 1c0,0.22 0.11,0.35 0.27,0.35z"/>
  <path class="fil25" d="M96.83 34.5c0.07,0 0.14,-0.02 0.22,-0.07l2.73 -1.57c0.27,-0.16 0.49,-0.54 0.49,-0.86l0 -1c0,-0.22 -0.11,-0.35 -0.27,-0.35 -0.07,0 -0.14,0.02 -0.22,0.07l-2.73 1.57c-0.27,0.16 -0.49,0.54 -0.49,0.86l0 1c0,0.22 0.11,0.35 0.27,0.35z"/>
  <path class="fil25" d="M96.83 38.89c0.07,0 0.14,-0.02 0.22,-0.07l2.73 -1.57c0.27,-0.16 0.49,-0.54 0.49,-0.86l0 -1c0,-0.22 -0.11,-0.35 -0.27,-0.35 -0.07,0 -0.14,0.02 -0.22,0.07l-2.73 1.57c-0.27,0.16 -0.49,0.54 -0.49,0.86l0 1c0,0.22 0.11,0.35 0.27,0.35z"/>
  <path class="fil25" d="M96.83 43.27c0.07,0 0.14,-0.02 0.22,-0.07l2.73 -1.57c0.27,-0.16 0.49,-0.54 0.49,-0.86l0 -1c0,-0.22 -0.11,-0.35 -0.27,-0.35 -0.07,0 -0.14,0.02 -0.22,0.07l-2.73 1.57c-0.27,0.16 -0.49,0.54 -0.49,0.86l0 1c0,0.22 0.11,0.35 0.27,0.35z"/>
  <path class="fil25" d="M96.83 47.65c0.07,0 0.14,-0.02 0.22,-0.07l2.73 -1.57c0.27,-0.16 0.49,-0.54 0.49,-0.86l0 -1c0,-0.22 -0.11,-0.35 -0.27,-0.35 -0.07,0 -0.14,0.02 -0.22,0.07l-2.73 1.57c-0.27,0.16 -0.49,0.54 -0.49,0.86l0 1c0,0.22 0.11,0.35 0.27,0.35z"/>
  <path class="fil25" d="M96.83 52.04c0.07,0 0.14,-0.02 0.22,-0.07l2.73 -1.57c0.27,-0.16 0.49,-0.54 0.49,-0.86l0 -1c0,-0.22 -0.11,-0.35 -0.27,-0.35 -0.07,0 -0.14,0.02 -0.22,0.07l-2.73 1.57c-0.27,0.16 -0.49,0.54 -0.49,0.86l0 1c0,0.22 0.11,0.35 0.27,0.35z"/>
  <path class="fil25" d="M96.83 56.42c0.07,0 0.14,-0.02 0.22,-0.07l2.73 -1.57c0.27,-0.16 0.49,-0.54 0.49,-0.86l0 -1c0,-0.22 -0.11,-0.35 -0.27,-0.35 -0.07,0 -0.14,0.02 -0.22,0.07l-2.73 1.57c-0.27,0.16 -0.49,0.54 -0.49,0.86l0 1c0,0.22 0.11,0.35 0.27,0.35z"/>
  <path class="fil25" d="M96.83 60.8c0.07,0 0.14,-0.02 0.22,-0.07l2.73 -1.57c0.27,-0.16 0.49,-0.54 0.49,-0.86l0 -1c0,-0.22 -0.11,-0.35 -0.27,-0.35 -0.07,0 -0.14,0.02 -0.22,0.07l-2.73 1.57c-0.27,0.16 -0.49,0.54 -0.49,0.86l0 1c0,0.22 0.11,0.35 0.27,0.35z"/>
  <path class="fil25" d="M96.83 65.18c0.07,0 0.14,-0.02 0.22,-0.07l2.73 -1.57c0.27,-0.16 0.49,-0.54 0.49,-0.86l0 -1c0,-0.22 -0.11,-0.35 -0.27,-0.35 -0.07,0 -0.14,0.02 -0.22,0.07l-2.73 1.57c-0.27,0.16 -0.49,0.54 -0.49,0.86l0 1c0,0.22 0.11,0.35 0.27,0.35z"/>
  <path class="fil25" d="M96.83 69.57c0.07,0 0.14,-0.02 0.22,-0.07l2.73 -1.57c0.27,-0.16 0.49,-0.54 0.49,-0.86l0 -1c0,-0.22 -0.11,-0.35 -0.27,-0.35 -0.07,0 -0.14,0.02 -0.22,0.07l-2.73 1.57c-0.27,0.16 -0.49,0.54 -0.49,0.86l0 1c0,0.22 0.11,0.35 0.27,0.35z"/>
  <path class="fil25" d="M96.83 73.95c0.07,0 0.14,-0.02 0.22,-0.07l2.73 -1.57c0.27,-0.16 0.49,-0.54 0.49,-0.86l0 -1c0,-0.22 -0.11,-0.35 -0.27,-0.35 -0.07,0 -0.14,0.02 -0.22,0.07l-2.73 1.57c-0.27,0.16 -0.49,0.54 -0.49,0.86l0 1c0,0.22 0.11,0.35 0.27,0.35z"/>
  <path class="fil25" d="M96.83 78.33c0.07,0 0.14,-0.02 0.22,-0.07l2.73 -1.57c0.27,-0.16 0.49,-0.54 0.49,-0.86l0 -1c0,-0.22 -0.11,-0.35 -0.27,-0.35 -0.07,0 -0.14,0.02 -0.22,0.07l-2.73 1.57c-0.27,0.16 -0.49,0.54 -0.49,0.86l0 1c0,0.22 0.11,0.35 0.27,0.35z"/>
  <path class="fil26" d="M117.86 12.1l-14.74 8.51c-0.55,0.32 -0.99,1.08 -0.99,1.72l0 17.02c0,0.63 0.44,0.89 0.99,0.57l14.74 -8.51c0.55,-0.32 0.99,-1.08 0.99,-1.72l0 -17.02c0,-0.63 -0.44,-0.89 -0.99,-0.57z"/>
  <path class="fil4" d="M116.49 28.97l-1.36 0.78c-0.28,0.16 -0.5,0.53 -0.5,0.83 0,0.3 0.22,0.41 0.5,0.25l1.36 -0.78c0.28,-0.16 0.5,-0.53 0.5,-0.83 0,-0.3 -0.22,-0.41 -0.5,-0.25z"/>
  <path class="fil24" d="M114.9 30.91c0.07,0 0.15,-0.02 0.24,-0.07l1.36 -0.78c0.28,-0.16 0.5,-0.53 0.5,-0.83 0,-0.21 -0.11,-0.33 -0.27,-0.33 -0.07,0 -0.15,0.02 -0.23,0.07l-1.36 0.78c-0.28,0.16 -0.5,0.53 -0.5,0.83 0,0.21 0.11,0.32 0.27,0.32z"/>
  <path class="fil4" d="M116.49 15.03l-1.36 0.78c-0.28,0.16 -0.5,0.53 -0.5,0.83 0,0.3 0.22,0.41 0.5,0.25l1.36 -0.79c0.28,-0.16 0.5,-0.53 0.5,-0.83 0,-0.3 -0.22,-0.41 -0.5,-0.25z"/>
  <path class="fil24" d="M114.9 16.97c0.07,0 0.15,-0.02 0.24,-0.07l1.36 -0.79c0.28,-0.16 0.5,-0.53 0.5,-0.83 0,-0.21 -0.11,-0.33 -0.27,-0.33 -0.07,0 -0.15,0.02 -0.23,0.07l-1.36 0.78c-0.28,0.16 -0.5,0.53 -0.5,0.83 0,0.21 0.11,0.33 0.27,0.33z"/>
  <path class="fil4" d="M114.58 18.91l-1.36 0.79c-0.28,0.16 -0.5,0.53 -0.5,0.83 0,0.3 0.22,0.41 0.5,0.25l1.36 -0.78c0.28,-0.16 0.5,-0.53 0.5,-0.83 0,-0.3 -0.22,-0.41 -0.5,-0.25z"/>
  <path class="fil24" d="M112.99 20.86c0.07,0 0.15,-0.02 0.24,-0.07l1.36 -0.78c0.28,-0.16 0.5,-0.53 0.5,-0.83 0,-0.21 -0.11,-0.33 -0.27,-0.33 -0.07,0 -0.15,0.02 -0.24,0.07l-1.36 0.79c-0.28,0.16 -0.5,0.53 -0.5,0.83 0,0.21 0.11,0.33 0.27,0.33z"/>
  <path class="fil4" d="M114.58 21.7l-1.36 0.78c-0.28,0.16 -0.5,0.53 -0.5,0.83 0,0.3 0.22,0.41 0.5,0.25l1.36 -0.78c0.28,-0.16 0.5,-0.53 0.5,-0.83 0,-0.3 -0.22,-0.41 -0.5,-0.25z"/>
  <path class="fil24" d="M112.99 23.64c0.07,0 0.15,-0.02 0.23,-0.07l1.36 -0.78c0.28,-0.16 0.5,-0.53 0.5,-0.83 0,-0.21 -0.11,-0.33 -0.27,-0.33 -0.07,0 -0.15,0.02 -0.24,0.07l-1.36 0.78c-0.28,0.16 -0.5,0.53 -0.5,0.83 0,0.21 0.11,0.33 0.27,0.33z"/>
  <path class="fil4" d="M116.49 23.39l-1.36 0.79c-0.28,0.16 -0.5,0.53 -0.5,0.83 0,0.3 0.22,0.41 0.5,0.25l1.36 -0.79c0.28,-0.16 0.5,-0.53 0.5,-0.83 0,-0.3 -0.22,-0.41 -0.5,-0.25z"/>
  <path class="fil24" d="M114.9 25.34c0.07,0 0.15,-0.02 0.24,-0.07l1.36 -0.79c0.28,-0.16 0.5,-0.53 0.5,-0.83 0,-0.21 -0.11,-0.33 -0.27,-0.33 -0.07,0 -0.15,0.02 -0.23,0.07l-1.36 0.79c-0.28,0.16 -0.5,0.53 -0.5,0.83 0,0.21 0.11,0.33 0.27,0.33z"/>
  <path class="fil4" d="M114.58 27.28l-1.36 0.78c-0.28,0.16 -0.5,0.53 -0.5,0.83 0,0.3 0.22,0.41 0.5,0.25l1.36 -0.78c0.28,-0.16 0.5,-0.53 0.5,-0.83 0,-0.3 -0.22,-0.41 -0.5,-0.25z"/>
  <path class="fil24" d="M112.99 29.22c0.07,0 0.15,-0.02 0.24,-0.07l1.36 -0.78c0.28,-0.16 0.5,-0.53 0.5,-0.83 0,-0.21 -0.11,-0.33 -0.27,-0.33 -0.07,0 -0.15,0.02 -0.24,0.07l-1.36 0.78c-0.28,0.16 -0.5,0.53 -0.5,0.83 0,0.21 0.11,0.33 0.27,0.33z"/>
  <path class="fil4" d="M112.78 17.18l-8.29 4.79c-0.28,0.16 -0.5,0.53 -0.5,0.83 0,0.3 0.22,0.41 0.5,0.25l8.29 -4.79c0.28,-0.16 0.5,-0.53 0.5,-0.83 0,-0.3 -0.22,-0.41 -0.5,-0.25z"/>
  <path class="fil27" d="M104.25 23.12c0.07,0 0.15,-0.02 0.23,-0.07l8.29 -4.79c0.28,-0.16 0.5,-0.53 0.5,-0.83 0,-0.21 -0.11,-0.33 -0.26,-0.33 -0.07,0 -0.15,0.02 -0.24,0.07l-8.29 4.79c-0.28,0.16 -0.5,0.53 -0.5,0.83 0,0.21 0.11,0.33 0.27,0.33z"/>
  <path class="fil4" d="M112.78 31.12l-8.29 4.78c-0.28,0.16 -0.5,0.53 -0.5,0.83 0,0.3 0.22,0.41 0.5,0.25l8.29 -4.79c0.28,-0.16 0.5,-0.53 0.5,-0.83 0,-0.3 -0.22,-0.41 -0.5,-0.25z"/>
  <path class="fil27" d="M104.25 37.06c0.07,0 0.15,-0.02 0.23,-0.07l8.29 -4.79c0.28,-0.16 0.5,-0.53 0.5,-0.83 0,-0.21 -0.11,-0.33 -0.26,-0.33 -0.07,0 -0.15,0.02 -0.24,0.07l-8.29 4.78c-0.28,0.16 -0.5,0.53 -0.5,0.83 0,0.21 0.11,0.33 0.27,0.33z"/>
  <path class="fil4" d="M110.87 21.06l-6.38 3.69c-0.28,0.16 -0.5,0.53 -0.5,0.83 0,0.3 0.22,0.41 0.5,0.25l6.38 -3.69c0.28,-0.16 0.5,-0.53 0.5,-0.83 0,-0.3 -0.22,-0.41 -0.5,-0.25z"/>
  <path class="fil27" d="M104.25 25.91c0.07,0 0.15,-0.02 0.23,-0.07l6.38 -3.69c0.28,-0.16 0.5,-0.53 0.5,-0.83 0,-0.21 -0.11,-0.33 -0.27,-0.33 -0.07,0 -0.15,0.02 -0.24,0.07l-6.38 3.69c-0.28,0.16 -0.5,0.53 -0.5,0.83 0,0.21 0.11,0.33 0.27,0.33z"/>
  <path class="fil4" d="M110.87 23.85l-6.38 3.69c-0.28,0.16 -0.5,0.53 -0.5,0.83 0,0.3 0.22,0.41 0.5,0.25l6.38 -3.69c0.28,-0.16 0.5,-0.53 0.5,-0.83 0,-0.3 -0.22,-0.41 -0.5,-0.25z"/>
  <path class="fil27" d="M104.25 28.7c0.07,0 0.15,-0.02 0.23,-0.07l6.38 -3.69c0.28,-0.16 0.5,-0.53 0.5,-0.83 0,-0.21 -0.11,-0.33 -0.27,-0.33 -0.07,0 -0.15,0.02 -0.24,0.07l-6.38 3.69c-0.28,0.16 -0.5,0.53 -0.5,0.83 0,0.21 0.11,0.33 0.27,0.33z"/>
  <path class="fil4" d="M112.78 25.54l-8.29 4.79c-0.28,0.16 -0.5,0.53 -0.5,0.83 0,0.3 0.22,0.41 0.5,0.25l8.29 -4.79c0.28,-0.16 0.5,-0.53 0.5,-0.83 0,-0.3 -0.22,-0.41 -0.5,-0.25z"/>
  <path class="fil27" d="M104.25 31.49c0.07,0 0.15,-0.02 0.23,-0.07l8.29 -4.79c0.28,-0.16 0.5,-0.53 0.5,-0.83 0,-0.21 -0.11,-0.33 -0.26,-0.33 -0.07,0 -0.15,0.02 -0.24,0.07l-8.29 4.79c-0.28,0.16 -0.5,0.53 -0.5,0.83 0,0.21 0.11,0.33 0.27,0.33z"/>
  <path class="fil4" d="M110.87 29.43l-6.38 3.69c-0.28,0.16 -0.5,0.53 -0.5,0.83 0,0.3 0.22,0.41 0.5,0.25l6.38 -3.69c0.28,-0.16 0.5,-0.53 0.5,-0.83 0,-0.3 -0.22,-0.41 -0.5,-0.25z"/>
  <path class="fil27" d="M104.25 34.27c0.07,0 0.15,-0.02 0.23,-0.07l6.38 -3.69c0.28,-0.16 0.5,-0.53 0.5,-0.83 0,-0.21 -0.11,-0.33 -0.27,-0.33 -0.07,0 -0.15,0.02 -0.24,0.07l-6.38 3.69c-0.28,0.16 -0.5,0.53 -0.5,0.83 0,0.21 0.11,0.33 0.27,0.33z"/>
  <path class="fil26" d="M117.86 34.61l-14.74 8.51c-0.55,0.32 -0.99,1.08 -0.99,1.72l0 33.64c0,0.63 0.44,0.89 0.99,0.57l14.74 -8.51c0.55,-0.31 0.99,-1.08 0.99,-1.71l0 -33.64c0,-0.63 -0.44,-0.89 -0.99,-0.57z"/>
  <path class="fil4" d="M116.49 37.54l-1.36 0.78c-0.28,0.16 -0.5,0.53 -0.5,0.83 0,0.3 0.22,0.41 0.5,0.25l1.36 -0.78c0.28,-0.16 0.5,-0.53 0.5,-0.83 0,-0.3 -0.22,-0.41 -0.5,-0.25z"/>
  <path class="fil24" d="M114.9 39.49c0.07,0 0.15,-0.02 0.24,-0.07l1.36 -0.78c0.28,-0.16 0.5,-0.53 0.5,-0.83 0,-0.21 -0.11,-0.33 -0.27,-0.33 -0.07,0 -0.15,0.02 -0.23,0.07l-1.36 0.78c-0.28,0.16 -0.5,0.53 -0.5,0.83 0,0.21 0.11,0.33 0.27,0.33z"/>
  <path class="fil4" d="M114.58 41.43l-1.36 0.79c-0.28,0.16 -0.5,0.53 -0.5,0.83 0,0.3 0.22,0.41 0.5,0.25l1.36 -0.78c0.28,-0.16 0.5,-0.53 0.5,-0.83 0,-0.3 -0.22,-0.41 -0.5,-0.25z"/>
  <path class="fil24" d="M112.99 43.37c0.07,0 0.15,-0.02 0.24,-0.07l1.36 -0.78c0.28,-0.16 0.5,-0.53 0.5,-0.83 0,-0.21 -0.11,-0.33 -0.27,-0.33 -0.07,0 -0.15,0.02 -0.24,0.07l-1.36 0.79c-0.28,0.16 -0.5,0.53 -0.5,0.83 0,0.21 0.11,0.33 0.27,0.33z"/>
  <path class="fil4" d="M114.58 44.21l-1.36 0.78c-0.28,0.16 -0.5,0.53 -0.5,0.83 0,0.3 0.22,0.41 0.5,0.25l1.36 -0.78c0.28,-0.16 0.5,-0.53 0.5,-0.83 0,-0.3 -0.22,-0.41 -0.5,-0.25z"/>
  <path class="fil24" d="M112.99 46.15c0.07,0 0.15,-0.02 0.23,-0.07l1.36 -0.78c0.28,-0.16 0.5,-0.53 0.5,-0.83 0,-0.21 -0.11,-0.33 -0.27,-0.33 -0.07,0 -0.15,0.02 -0.24,0.07l-1.36 0.78c-0.28,0.16 -0.5,0.53 -0.5,0.83 0,0.21 0.11,0.33 0.27,0.33z"/>
  <path class="fil4" d="M116.49 45.9l-1.36 0.79c-0.28,0.16 -0.5,0.53 -0.5,0.83 0,0.3 0.22,0.41 0.5,0.25l1.36 -0.79c0.28,-0.16 0.5,-0.53 0.5,-0.83 0,-0.3 -0.22,-0.41 -0.5,-0.25z"/>
  <path class="fil24" d="M114.9 47.85c0.07,0 0.15,-0.02 0.24,-0.07l1.36 -0.79c0.28,-0.16 0.5,-0.53 0.5,-0.83 0,-0.21 -0.11,-0.33 -0.27,-0.33 -0.07,0 -0.15,0.02 -0.23,0.07l-1.36 0.79c-0.28,0.16 -0.5,0.53 -0.5,0.83 0,0.21 0.11,0.33 0.27,0.33z"/>
  <path class="fil4" d="M112.78 39.69l-8.29 4.78c-0.28,0.16 -0.5,0.53 -0.5,0.83 0,0.3 0.22,0.41 0.5,0.25l8.29 -4.79c0.28,-0.16 0.5,-0.53 0.5,-0.83 0,-0.3 -0.22,-0.41 -0.5,-0.25z"/>
  <path class="fil27" d="M104.25 45.63c0.07,0 0.15,-0.02 0.23,-0.07l8.29 -4.79c0.28,-0.16 0.5,-0.53 0.5,-0.83 0,-0.21 -0.11,-0.32 -0.26,-0.32 -0.07,0 -0.15,0.02 -0.24,0.07l-8.29 4.78c-0.28,0.16 -0.5,0.53 -0.5,0.83 0,0.21 0.11,0.33 0.27,0.33z"/>
  <path class="fil4" d="M110.87 43.57l-6.38 3.69c-0.28,0.16 -0.5,0.53 -0.5,0.83 0,0.3 0.22,0.41 0.5,0.25l6.38 -3.69c0.28,-0.16 0.5,-0.53 0.5,-0.83 0,-0.3 -0.22,-0.41 -0.5,-0.25z"/>
  <path class="fil27" d="M104.25 48.42c0.07,0 0.15,-0.02 0.23,-0.07l6.38 -3.69c0.28,-0.16 0.5,-0.53 0.5,-0.83 0,-0.21 -0.11,-0.33 -0.27,-0.33 -0.07,0 -0.15,0.02 -0.24,0.07l-6.38 3.69c-0.28,0.16 -0.5,0.53 -0.5,0.83 0,0.21 0.11,0.33 0.27,0.33z"/>
  <path class="fil4" d="M110.87 46.36l-6.38 3.69c-0.28,0.16 -0.5,0.53 -0.5,0.83 0,0.3 0.22,0.41 0.5,0.25l6.38 -3.69c0.28,-0.16 0.5,-0.53 0.5,-0.83 0,-0.3 -0.22,-0.41 -0.5,-0.25z"/>
  <path class="fil27" d="M104.25 51.21c0.07,0 0.15,-0.02 0.23,-0.07l6.38 -3.69c0.28,-0.16 0.5,-0.53 0.5,-0.83 0,-0.21 -0.11,-0.33 -0.27,-0.33 -0.07,0 -0.15,0.02 -0.24,0.07l-6.38 3.69c-0.28,0.16 -0.5,0.53 -0.5,0.83 0,0.21 0.11,0.33 0.27,0.33z"/>
  <path class="fil4" d="M112.78 48.05l-8.29 4.79c-0.28,0.16 -0.5,0.53 -0.5,0.83 0,0.3 0.22,0.41 0.5,0.25l8.29 -4.79c0.28,-0.16 0.5,-0.53 0.5,-0.83 0,-0.3 -0.22,-0.41 -0.5,-0.25z"/>
  <path class="fil27" d="M104.25 54c0.07,0 0.15,-0.02 0.23,-0.07l8.29 -4.79c0.28,-0.16 0.5,-0.53 0.5,-0.83 0,-0.21 -0.11,-0.33 -0.26,-0.33 -0.07,0 -0.15,0.02 -0.24,0.07l-8.29 4.79c-0.28,0.16 -0.5,0.53 -0.5,0.83 0,0.21 0.11,0.33 0.27,0.33z"/>
  <path class="fil4" d="M114.58 49.81l-1.36 0.78c-0.28,0.16 -0.5,0.53 -0.5,0.83 0,0.3 0.22,0.41 0.5,0.25l1.36 -0.78c0.28,-0.16 0.5,-0.53 0.5,-0.83 0,-0.3 -0.22,-0.41 -0.5,-0.25z"/>
  <path class="fil24" d="M112.99 51.75c0.07,0 0.15,-0.02 0.23,-0.07l1.36 -0.78c0.28,-0.16 0.5,-0.53 0.5,-0.83 0,-0.21 -0.11,-0.33 -0.27,-0.33 -0.07,0 -0.15,0.02 -0.24,0.07l-1.36 0.78c-0.28,0.16 -0.5,0.53 -0.5,0.83 0,0.21 0.11,0.32 0.27,0.32z"/>
  <path class="fil4" d="M114.58 52.59l-1.36 0.78c-0.28,0.16 -0.5,0.53 -0.5,0.83 0,0.3 0.22,0.41 0.5,0.25l1.36 -0.79c0.28,-0.16 0.5,-0.53 0.5,-0.83 0,-0.3 -0.22,-0.41 -0.5,-0.25z"/>
  <path class="fil24" d="M112.99 54.53c0.07,0 0.15,-0.02 0.24,-0.07l1.36 -0.79c0.28,-0.16 0.5,-0.53 0.5,-0.83 0,-0.21 -0.11,-0.33 -0.27,-0.33 -0.07,0 -0.15,0.02 -0.24,0.07l-1.36 0.78c-0.28,0.16 -0.5,0.53 -0.5,0.83 0,0.21 0.11,0.33 0.27,0.33z"/>
  <path class="fil4" d="M110.87 51.95l-6.38 3.69c-0.28,0.16 -0.5,0.53 -0.5,0.83 0,0.3 0.22,0.41 0.5,0.25l6.38 -3.69c0.28,-0.16 0.5,-0.53 0.5,-0.83 0,-0.3 -0.22,-0.41 -0.5,-0.25z"/>
  <path class="fil27" d="M104.25 56.8c0.07,0 0.15,-0.02 0.23,-0.07l6.38 -3.69c0.28,-0.16 0.5,-0.53 0.5,-0.83 0,-0.21 -0.11,-0.33 -0.27,-0.33 -0.07,0 -0.15,0.02 -0.24,0.07l-6.38 3.69c-0.28,0.16 -0.5,0.53 -0.5,0.83 0,0.21 0.11,0.32 0.27,0.32z"/>
  <path class="fil4" d="M110.87 54.74l-6.38 3.69c-0.28,0.16 -0.5,0.53 -0.5,0.83 0,0.3 0.22,0.41 0.5,0.25l6.38 -3.69c0.28,-0.16 0.5,-0.53 0.5,-0.83 0,-0.3 -0.22,-0.41 -0.5,-0.25z"/>
  <path class="fil27" d="M104.25 59.59c0.07,0 0.15,-0.02 0.23,-0.07l6.38 -3.69c0.28,-0.16 0.5,-0.53 0.5,-0.83 0,-0.21 -0.11,-0.32 -0.27,-0.32 -0.07,0 -0.15,0.02 -0.24,0.07l-6.38 3.69c-0.28,0.16 -0.5,0.53 -0.5,0.83 0,0.21 0.11,0.32 0.27,0.32z"/>
  <path class="fil4" d="M116.49 59.88l-1.36 0.79c-0.28,0.16 -0.5,0.53 -0.5,0.83 0,0.3 0.22,0.41 0.5,0.25l1.36 -0.79c0.28,-0.16 0.5,-0.53 0.5,-0.83 0,-0.3 -0.22,-0.41 -0.5,-0.25z"/>
  <path class="fil24" d="M114.9 61.82c0.07,0 0.15,-0.02 0.24,-0.07l1.36 -0.79c0.28,-0.16 0.5,-0.53 0.5,-0.83 0,-0.21 -0.11,-0.32 -0.27,-0.32 -0.07,0 -0.15,0.02 -0.23,0.07l-1.36 0.79c-0.28,0.16 -0.5,0.53 -0.5,0.83 0,0.21 0.11,0.33 0.27,0.33z"/>
  <path class="fil4" d="M112.78 62.03l-8.29 4.79c-0.28,0.16 -0.5,0.53 -0.5,0.83 0,0.3 0.22,0.41 0.5,0.25l8.29 -4.79c0.28,-0.16 0.5,-0.53 0.5,-0.83 0,-0.3 -0.22,-0.41 -0.5,-0.25z"/>
  <path class="fil27" d="M104.25 67.97c0.07,0 0.15,-0.02 0.23,-0.07l8.29 -4.79c0.28,-0.16 0.5,-0.53 0.5,-0.83 0,-0.21 -0.11,-0.33 -0.26,-0.33 -0.07,0 -0.15,0.02 -0.24,0.07l-8.29 4.79c-0.28,0.16 -0.5,0.53 -0.5,0.83 0,0.21 0.11,0.33 0.27,0.33z"/>
  <path class="fil4" d="M114.58 63.78l-1.36 0.78c-0.28,0.16 -0.5,0.53 -0.5,0.83 0,0.3 0.22,0.41 0.5,0.25l1.36 -0.78c0.28,-0.16 0.5,-0.53 0.5,-0.83 0,-0.3 -0.22,-0.41 -0.5,-0.25z"/>
  <path class="fil24" d="M112.99 65.72c0.07,0 0.15,-0.02 0.23,-0.07l1.36 -0.78c0.28,-0.16 0.5,-0.53 0.5,-0.83 0,-0.21 -0.11,-0.33 -0.27,-0.33 -0.07,0 -0.15,0.02 -0.24,0.07l-1.36 0.78c-0.28,0.16 -0.5,0.53 -0.5,0.83 0,0.21 0.11,0.33 0.27,0.33z"/>
  <path class="fil4" d="M114.58 66.56l-1.36 0.78c-0.28,0.16 -0.5,0.53 -0.5,0.83 0,0.3 0.22,0.41 0.5,0.25l1.36 -0.78c0.28,-0.16 0.5,-0.53 0.5,-0.83 0,-0.3 -0.22,-0.41 -0.5,-0.25z"/>
  <path class="fil24" d="M112.99 68.5c0.07,0 0.15,-0.02 0.23,-0.07l1.36 -0.78c0.28,-0.16 0.5,-0.53 0.5,-0.83 0,-0.21 -0.11,-0.32 -0.27,-0.32 -0.07,0 -0.15,0.02 -0.24,0.07l-1.36 0.78c-0.28,0.16 -0.5,0.53 -0.5,0.83 0,0.21 0.11,0.33 0.27,0.33z"/>
  <path class="fil4" d="M110.87 65.93l-6.38 3.69c-0.28,0.16 -0.5,0.53 -0.5,0.83 0,0.3 0.22,0.41 0.5,0.25l6.38 -3.69c0.28,-0.16 0.5,-0.53 0.5,-0.83 0,-0.3 -0.22,-0.41 -0.5,-0.25z"/>
  <path class="fil27" d="M104.25 70.78c0.07,0 0.15,-0.02 0.23,-0.07l6.38 -3.69c0.28,-0.16 0.5,-0.53 0.5,-0.83 0,-0.21 -0.11,-0.33 -0.27,-0.33 -0.07,0 -0.15,0.02 -0.24,0.07l-6.38 3.69c-0.28,0.16 -0.5,0.53 -0.5,0.83 0,0.21 0.11,0.33 0.27,0.33z"/>
  <path class="fil4" d="M110.87 68.71l-6.38 3.69c-0.28,0.16 -0.5,0.53 -0.5,0.83 0,0.3 0.22,0.41 0.5,0.25l6.38 -3.69c0.28,-0.16 0.5,-0.53 0.5,-0.83 0,-0.3 -0.22,-0.41 -0.5,-0.25z"/>
  <path class="fil27" d="M104.25 73.56c0.07,0 0.15,-0.02 0.23,-0.07l6.38 -3.69c0.28,-0.16 0.5,-0.53 0.5,-0.83 0,-0.21 -0.11,-0.33 -0.27,-0.33 -0.07,0 -0.15,0.02 -0.24,0.07l-6.38 3.69c-0.28,0.16 -0.5,0.53 -0.5,0.83 0,0.21 0.11,0.33 0.27,0.33z"/>
  <path class="fil4" d="M114.58 55.35l-1.36 0.78c-0.28,0.16 -0.5,0.53 -0.5,0.83 0,0.3 0.22,0.41 0.5,0.25l1.36 -0.78c0.28,-0.16 0.5,-0.53 0.5,-0.83 0,-0.3 -0.22,-0.41 -0.5,-0.25z"/>
  <path class="fil24" d="M112.99 57.3c0.07,0 0.15,-0.02 0.23,-0.07l1.36 -0.78c0.28,-0.16 0.5,-0.53 0.5,-0.83 0,-0.21 -0.11,-0.33 -0.27,-0.33 -0.07,0 -0.15,0.02 -0.24,0.07l-1.36 0.78c-0.28,0.16 -0.5,0.53 -0.5,0.83 0,0.21 0.11,0.33 0.27,0.33z"/>
  <path class="fil4" d="M116.49 57.05l-1.36 0.78c-0.28,0.16 -0.5,0.53 -0.5,0.83 0,0.3 0.22,0.41 0.5,0.25l1.36 -0.78c0.28,-0.16 0.5,-0.53 0.5,-0.83 0,-0.3 -0.22,-0.41 -0.5,-0.25z"/>
  <path class="fil24" d="M114.9 59c0.07,0 0.15,-0.02 0.24,-0.07l1.36 -0.78c0.28,-0.16 0.5,-0.53 0.5,-0.83 0,-0.21 -0.11,-0.33 -0.27,-0.33 -0.07,0 -0.15,0.02 -0.23,0.07l-1.36 0.78c-0.28,0.16 -0.5,0.53 -0.5,0.83 0,0.21 0.11,0.33 0.27,0.33z"/>
  <path class="fil4" d="M110.87 57.51l-6.38 3.69c-0.28,0.16 -0.5,0.53 -0.5,0.83 0,0.3 0.22,0.41 0.5,0.25l6.38 -3.69c0.28,-0.16 0.5,-0.53 0.5,-0.83 0,-0.3 -0.22,-0.41 -0.5,-0.25z"/>
  <path class="fil27" d="M104.25 62.36c0.07,0 0.15,-0.02 0.23,-0.07l6.38 -3.69c0.28,-0.16 0.5,-0.53 0.5,-0.83 0,-0.21 -0.11,-0.33 -0.27,-0.33 -0.07,0 -0.15,0.02 -0.24,0.07l-6.38 3.69c-0.28,0.16 -0.5,0.53 -0.5,0.83 0,0.21 0.11,0.33 0.27,0.33z"/>
  <path class="fil4" d="M112.78 59.2l-8.29 4.79c-0.28,0.16 -0.5,0.53 -0.5,0.83 0,0.3 0.22,0.41 0.5,0.25l8.29 -4.79c0.28,-0.16 0.5,-0.53 0.5,-0.83 0,-0.3 -0.22,-0.41 -0.5,-0.25z"/>
  <path class="fil27" d="M104.25 65.14c0.07,0 0.15,-0.02 0.23,-0.07l8.29 -4.79c0.28,-0.16 0.5,-0.53 0.5,-0.83 0,-0.21 -0.11,-0.33 -0.26,-0.33 -0.07,0 -0.15,0.02 -0.24,0.07l-8.29 4.79c-0.28,0.16 -0.5,0.53 -0.5,0.83 0,0.21 0.11,0.33 0.27,0.33z"/>
  <path class="fil4" d="M116.49 68.3l-1.36 0.78c-0.28,0.16 -0.5,0.53 -0.5,0.83 0,0.3 0.22,0.41 0.5,0.25l1.36 -0.79c0.28,-0.16 0.5,-0.53 0.5,-0.83 0,-0.3 -0.22,-0.41 -0.5,-0.25z"/>
  <path class="fil24" d="M114.9 70.24c0.07,0 0.15,-0.02 0.24,-0.07l1.36 -0.79c0.28,-0.16 0.5,-0.53 0.5,-0.83 0,-0.21 -0.11,-0.33 -0.27,-0.33 -0.07,0 -0.15,0.02 -0.23,0.07l-1.36 0.78c-0.28,0.16 -0.5,0.53 -0.5,0.83 0,0.21 0.11,0.33 0.27,0.33z"/>
  <path class="fil4" d="M112.78 70.45l-8.29 4.79c-0.28,0.16 -0.5,0.53 -0.5,0.83 0,0.3 0.22,0.41 0.5,0.25l8.29 -4.79c0.28,-0.16 0.5,-0.53 0.5,-0.83 0,-0.3 -0.22,-0.41 -0.5,-0.25z"/>
  <path class="fil27" d="M104.25 76.39c0.07,0 0.15,-0.02 0.23,-0.07l8.29 -4.79c0.28,-0.16 0.5,-0.53 0.5,-0.83 0,-0.21 -0.11,-0.32 -0.26,-0.32 -0.07,0 -0.15,0.02 -0.24,0.07l-8.29 4.79c-0.28,0.16 -0.5,0.53 -0.5,0.83 0,0.21 0.11,0.33 0.27,0.33z"/>
  <path class="fil28" d="M2.61 157.48c0.11,0 0.24,-0.04 0.36,-0.11l11.66 -6.73 21.47 -12.79 -0.28 -14.19 0 -2.84 -8.07 4.66 -1.35 0.78 -0 0 -0.04 0.02c-0.15,0.09 -0.31,0.13 -0.45,0.13 -0.01,0 -0.01,0 -0.02,0l-0.18 -0.02 -0.12 -0.04 -0.07 -0.04 -0.06 -0.04c-0.01,-0 -0.01,-0.01 -0.02,-0.01l0 0 0.01 0.01 -0.07 -0.04 -1.49 -0.86c-0.4,-0.23 -0.67,-0.64 -0.73,-1.09 -0.01,-0.07 -0.01,-0.14 -0.01,-0.21l0 -6.49 -7.54 4.35c-0.07,0.04 -0.13,0.06 -0.19,0.06 -0.13,0 -0.22,-0.1 -0.22,-0.26l0 0c0,-0.24 0.18,-0.55 0.41,-0.68l7.54 -4.35 0 -6.17 -7.54 4.35c-0.07,0.04 -0.13,0.06 -0.19,0.06 -0.13,0 -0.22,-0.1 -0.22,-0.26l0 0c0,-0.24 0.18,-0.55 0.41,-0.68l7.54 -4.35 0 -2.64 -1.43 0.82c-0.07,0.04 -0.13,0.06 -0.19,0.06 -0.13,0 -0.22,-0.1 -0.22,-0.26l0 0c0,-0.24 0.18,-0.55 0.41,-0.68l1.43 -0.82 0 -13.16 -21.33 12.3 -0 -0 0 51.17c0.01,0.22 0.05,0.42 0.12,0.58l0 0c0.05,0.12 0.12,0.22 0.21,0.3l0.06 0.06 0.07 0.05 0.06 0.03 0.1 0.03 0.15 0.02c0.01,0 0.01,0 0.01,0zm11.84 -35.33l0 0c0,0.24 -0.18,0.55 -0.41,0.68l-4.83 2.8c-0.07,0.04 -0.13,0.06 -0.19,0.06 -0.13,0 -0.22,-0.1 -0.22,-0.26l0 0c0,-0.24 0.18,-0.55 0.41,-0.68l4.83 -2.8c0.07,-0.04 0.13,-0.06 0.19,-0.06 0.13,0 0.22,0.1 0.22,0.26l0 0zm0 -7.06l0 0c0,0.24 -0.18,0.55 -0.41,0.68l-4.83 2.8c-0.07,0.04 -0.13,0.06 -0.19,0.06 -0.13,0 -0.22,-0.1 -0.22,-0.26l0 0c0,-0.24 0.18,-0.55 0.41,-0.68l4.83 -2.8c0.07,-0.04 0.13,-0.06 0.19,-0.06 0.13,0 0.22,0.1 0.22,0.26l0 0zm6.11 -7.05l0 0c0,0.24 -0.18,0.55 -0.41,0.68l-4.83 2.8c-0.07,0.04 -0.13,0.06 -0.19,0.06 -0.13,0 -0.22,-0.1 -0.22,-0.26l0 0c0,-0.24 0.18,-0.55 0.41,-0.68l4.83 -2.8c0.07,-0.04 0.13,-0.06 0.19,-0.06 0.13,0 0.22,0.1 0.22,0.27l0 0zm4.61 17.97c-0.13,-0.16 -0.21,-0.37 -0.21,-0.6l0 -0.31 0 -0.01 0 -8.56 -0 0 0 8.88c0,0.24 0.08,0.45 0.21,0.61zm-0.21 -10.36l0 0 0 -6.18 -0 0 0 6.17zm0 -7.06l0 -0 0 -2.64 -0 0 0 2.64zm0 -3.53l0 -0 0 -13.16 -0 0 0 13.16z"/>
  <path class="fil29" d="M18.1 148.65l0 0 -8.65 -5 8.65 5zm-11.91 -7.25c-0.01,-0.05 -0.01,-0.09 -0.01,-0.14 0,-0.2 0.08,-0.39 0.25,-0.57 -0.17,0.17 -0.25,0.37 -0.25,0.56 0,0.05 0,0.1 0.02,0.15zm-0.34 -0.06c0.18,-0.28 0.4,-0.53 0.65,-0.72 0.08,-0.07 0.18,-0.15 0.29,-0.21l29.05 -16.76 -29.05 16.76c-0.36,0.21 -0.68,0.54 -0.94,0.93z"/>
  <path class="fil29" d="M5.34 143.93c-0.02,-0.13 -0.03,-0.25 -0.03,-0.37l0 -0.59c0,-0.32 0.08,-0.67 0.21,-1.01 -0.14,0.34 -0.21,0.68 -0.21,1.01l0 0.59c0,0.12 0.01,0.25 0.03,0.37z"/>
  <path class="fil11" d="M25.93 126.4c0.14,0 0.29,-0.05 0.45,-0.13l0.04 -0.02 0 -0 1.35 -0.78 8.07 -4.66 0 -8.59 -4.32 2.49c-0.09,0.05 -0.16,0.07 -0.24,0.07 -0.16,0 -0.27,-0.12 -0.27,-0.33 0,-0.3 0.22,-0.67 0.5,-0.83l4.32 -2.49 0 -3.15 -4.32 2.49c-0.09,0.05 -0.16,0.07 -0.24,0.07 -0.16,0 -0.27,-0.12 -0.27,-0.33 0,-0.3 0.22,-0.67 0.5,-0.83l4.32 -2.49 0 -3.26 -4.32 2.49c-0.09,0.05 -0.16,0.07 -0.24,0.07 -0.13,0 -0.23,-0.08 -0.26,-0.23l-1.94 1.12c-0.07,0.04 -0.13,0.06 -0.19,0.06 -0.13,0 -0.22,-0.1 -0.22,-0.26l0 0c0,-0.24 0.18,-0.55 0.41,-0.68l3.77 -2.17c0.07,-0.04 0.13,-0.06 0.19,-0.06 0.07,0 0.13,0.03 0.17,0.09l2.62 -1.51 0 -3.26 -2.58 1.49c-0.03,0.23 -0.2,0.49 -0.4,0.61l-7.88 4.55 0 2.64 1.77 -1.02c0.07,-0.04 0.13,-0.06 0.19,-0.06 0.13,0 0.22,0.1 0.22,0.26l0 0c0,0.24 -0.18,0.55 -0.41,0.68l-1.77 1.02 0 6.18 1.77 -1.02c0.07,-0.04 0.13,-0.06 0.19,-0.06 0.13,0 0.22,0.1 0.22,0.26l0 0c0,0.24 -0.18,0.55 -0.41,0.68l-1.77 1.02 0 8.56 0 0.01 0 0.31c0,0.24 0.08,0.44 0.21,0.6 0.06,0.08 0.14,0.14 0.22,0.2l0.05 0.03 0.01 0.01c0.01,0 0.01,0.01 0.02,0.01l0.06 0.04 0.07 0.04 0.12 0.04 0.18 0.02c0.01,0 0.01,0 0.02,0zm7.33 -11.57l0 0c0,0.24 -0.18,0.55 -0.41,0.68l-3.77 2.17c-0.07,0.04 -0.13,0.06 -0.19,0.06 -0.13,0 -0.22,-0.1 -0.22,-0.27l0 0c0,-0.24 0.18,-0.55 0.41,-0.68l3.77 -2.17c0.07,-0.04 0.13,-0.06 0.19,-0.06 0.13,0 0.22,0.1 0.22,0.27l0 0zm0 -3.53l0 0c0,0.24 -0.18,0.55 -0.41,0.68l-3.77 2.17c-0.07,0.04 -0.13,0.06 -0.19,0.06 -0.13,0 -0.22,-0.1 -0.22,-0.26 0,-0 0,-0 0,-0l0 -0c0,-0.24 0.18,-0.55 0.41,-0.68l3.77 -2.17c0.07,-0.04 0.13,-0.06 0.19,-0.06 0.13,0 0.22,0.1 0.22,0.26 0,0 0,0 0,0zm0 -3.53l0 0c0,0.24 -0.18,0.55 -0.41,0.68l-3.77 2.17c-0.07,0.04 -0.13,0.06 -0.19,0.06 -0.13,0 -0.22,-0.1 -0.22,-0.27l0 0c0,-0.24 0.18,-0.55 0.41,-0.68l3.77 -2.17c0.07,-0.04 0.13,-0.06 0.19,-0.06 0.13,0 0.22,0.1 0.22,0.26l0 0zm-8.29 -2.71l6.05 -3.49c-0,-0.01 -0,-0.02 -0,-0.03 0,-0.3 0.22,-0.67 0.5,-0.83l4.32 -2.49 0 -3.36 -4.32 2.48c-0.09,0.05 -0.16,0.07 -0.24,0.07 -0.16,0 -0.27,-0.12 -0.27,-0.33 0,-0.3 0.22,-0.67 0.5,-0.83l4.32 -2.48 0 -3.28 -4.32 2.5c-0.09,0.05 -0.16,0.07 -0.24,0.07 -0.16,0 -0.27,-0.12 -0.27,-0.33 0,-0.3 0.22,-0.67 0.5,-0.83l4.32 -2.5 0 -7.52 -0.01 -0.14 -0.01 -0.04c0.01,0.05 0.01,0.11 0.01,0.17l0 3.76 -10.86 6.26 0 13.16z"/>
  <path class="fil30" d="M25.48 126.26l-0.01 -0.01 -0 -0c-0.11,-0.06 -0.2,-0.14 -0.28,-0.24 -0.13,-0.16 -0.21,-0.37 -0.21,-0.6l0 -8.88 -1.8 1.04 0 6.49c0,0.07 0.01,0.14 0.02,0.21 0.06,0.46 0.33,0.87 0.73,1.09l1.49 0.86 0.07 0.04zm-2.31 -9.58l1.8 -1.04 0 -6.17 -1.8 1.04 0 6.17zm0 -7.06l1.8 -1.04 0 -2.64 -1.8 1.04 0 2.64zm0 -3.53l1.8 -1.04 0 -13.16 -1.8 1.04 0 13.16z"/>
  <path class="fil31" d="M25.46 126.25l-0.01 -0.01 -0.05 -0.03c-0.09,-0.05 -0.16,-0.12 -0.22,-0.2 0.08,0.1 0.17,0.18 0.28,0.24z"/>
  <path class="fil32" d="M31.28 114.79c0.07,0 0.15,-0.02 0.24,-0.07l4.32 -2.49 0 -1.09 -4.32 2.49c-0.28,0.16 -0.5,0.53 -0.5,0.83 0,0.21 0.11,0.33 0.27,0.33z"/>
  <path class="fil28" d="M31.28 97.42c0.07,0 0.15,-0.02 0.24,-0.07l4.32 -2.48 0 -1.09 -4.32 2.48c-0.28,0.16 -0.5,0.53 -0.5,0.83 0,0.21 0.11,0.33 0.27,0.33z"/>
  <path class="fil28" d="M31.28 93.07c0.07,0 0.15,-0.02 0.24,-0.07l4.32 -2.5 0 -1.09 -4.32 2.5c-0.28,0.16 -0.5,0.53 -0.5,0.83 0,0.21 0.11,0.33 0.27,0.33z"/>
  <path class="fil33" d="M31.02 101.58l1.83 -1.06c0.07,-0.04 0.13,-0.06 0.19,-0.06 0.13,0 0.22,0.1 0.22,0.26l0 0c0,0.02 -0,0.05 -0.01,0.07l2.58 -1.49 0 -1.08 -4.32 2.49c-0.28,0.16 -0.5,0.53 -0.5,0.83 0,0.01 0,0.02 0,0.03z"/>
  <path class="fil33" d="M31.28 106.21c0.07,0 0.15,-0.02 0.24,-0.07l4.32 -2.49 0 -1.09 -2.62 1.51c0.03,0.04 0.04,0.1 0.04,0.17l0 0c0,0.24 -0.18,0.55 -0.41,0.68l-1.83 1.05c0.03,0.15 0.12,0.23 0.26,0.23z"/>
  <path class="fil33" d="M31.28 110.55c0.07,0 0.15,-0.02 0.24,-0.07l4.32 -2.49 0 -1.09 -4.32 2.49c-0.28,0.16 -0.5,0.53 -0.5,0.83 0,0.21 0.11,0.33 0.27,0.33z"/>
  <path class="fil28" d="M12.96 93.75l10.2 -5.88 0 -0 -10.2 5.88zm12 -6.92l0 -0 0 -0 -0 0 0 0z"/>
  <path class="fil11" d="M24.97 86.83l9.72 -5.6c0.14,-0.08 0.26,-0.13 0.38,-0.15 -0.06,0.01 -0.12,0.03 -0.19,0.05 -0.06,0.02 -0.13,0.05 -0.19,0.09l-9.72 5.6 0 0z"/>
  <polygon class="fil30" points="23.16,87.87 24.97,86.83 24.97,86.83 23.16,87.87 "/>
  <path class="fil11" d="M35.78 81.54l-0 -0.02 -0 -0.01c0,0.01 0.01,0.02 0.01,0.03zm-0.21 -0.33l-0.01 -0.01 -0.01 -0.01 -0.02 -0.01c0.01,0.01 0.02,0.02 0.04,0.03z"/>
  <path class="fil4" d="M35.46 81.13c-0.21,-0.1 -0.47,-0.07 -0.77,0.1l-31.71 18.28c-0.63,0.37 -1.15,1.26 -1.15,1.99l0 3.75 -1.83 -1.06 0 -3.72c0,-0.73 0.51,-1.62 1.14,-1.98l31.71 -18.28c0.33,-0.19 0.62,-0.2 0.83,-0.07 0.21,0.12 1.52,0.87 1.77,1z"/>
  <path class="fil13" d="M35.83 81.89c-0,-0.72 -0.51,-1.02 -1.14,-0.65l-31.71 18.28c-0.63,0.37 -1.15,1.25 -1.15,1.99l0 3.75 34 -19.6 0 -3.76z"/>
  <path class="fil9" d="M0.61 98.95c0.16,-0.19 0.34,-0.35 0.54,-0.47l22.02 -12.69 0 -0 -22.02 12.69c-0.19,0.11 -0.38,0.27 -0.54,0.47zm24.36 -14.19l0 -0 0 -0 -0 0 0 0z"/>
  <path class="fil14" d="M24.97 84.75l7.89 -4.55c0.18,-0.11 0.35,-0.16 0.51,-0.16 0.12,0 0.23,0.03 0.32,0.09 0.2,0.12 1.48,0.84 1.75,0.99 -0.26,-0.14 -1.55,-0.87 -1.75,-0.99 -0.09,-0.06 -0.2,-0.09 -0.33,-0.09 -0.15,0 -0.32,0.05 -0.51,0.15l-7.89 4.55 0 0z"/>
  <polygon class="fil34" points="23.16,85.79 24.97,84.75 24.97,84.75 23.16,85.79 "/>
  <path class="fil14" d="M34.7 81.22c0.06,-0.03 0.12,-0.06 0.18,-0.08 0,0 0,-0 0,-0 -0.06,0.02 -0.12,0.05 -0.18,0.08z"/>
  <path class="fil25" d="M2.17 100.35c0.21,-0.35 0.49,-0.66 0.8,-0.84l9.99 -5.76 10.2 -5.88 0 -0 -20.19 11.64c-0.31,0.18 -0.6,0.49 -0.8,0.85l0 0zm22.79 -13.52l0 -0 0 -0 -0 0 0 0z"/>
  <path class="fil14" d="M24.97 86.83l9.72 -5.6c0.07,-0.04 0.13,-0.07 0.19,-0.09 -0.06,0.02 -0.12,0.05 -0.18,0.08 -0.01,0 -0.01,0.01 -0.02,0.01l-9.72 5.6 0 0z"/>
  <polygon class="fil35" points="23.16,87.87 24.97,86.83 24.97,86.83 23.16,87.87 "/>
  <path class="fil15" d="M2.17 100.35c0.21,-0.36 0.49,-0.67 0.8,-0.85l20.19 -11.64 1.8 -1.04 0 -0 9.72 -5.6c0.01,-0 0.01,-0.01 0.02,-0.01 0.06,-0.03 0.12,-0.06 0.18,-0.08 0.11,-0.04 0.22,-0.06 0.32,-0.06 0.08,0 0.16,0.01 0.23,0.04 0.01,0 0.02,0.01 0.03,0.01 -0,0 -0,-0 -0,-0 -0.27,-0.15 -1.55,-0.87 -1.75,-0.99 -0.09,-0.06 -0.2,-0.09 -0.32,-0.09 -0.15,0 -0.32,0.05 -0.51,0.16l-7.89 4.55 -0 0 -1.8 1.04 -22.02 12.69c-0.19,0.11 -0.38,0.27 -0.54,0.47 -0.09,0.11 -0.18,0.24 -0.26,0.37l0 0 1.82 1.04z"/>
  <path class="fil10" d="M2.17 100.35c0.21,-0.35 0.49,-0.66 0.81,-0.85l9.99 -5.76 -9.99 5.76c-0.31,0.18 -0.6,0.49 -0.8,0.84l0 0zm33.28 -19.22c-0,-0 -0,-0 -0,-0 -0.01,-0 -0.02,-0.01 -0.03,-0.01 0.01,0 0.02,0.01 0.03,0.01z"/>
  <path class="fil17" d="M1.83 105.24l0 -3.75 0 3.75 -1.83 -1.06 0 -3.72c0,-0.11 0.01,-0.22 0.03,-0.34 -0.02,0.12 -0.03,0.23 -0.03,0.34l-0 3.73 0 0 0 -0.01 1.83 1.06 0 0z"/>
  <path class="fil36" d="M1.83 105.24l0 0 -0 -3.75c0,-0.37 0.13,-0.77 0.34,-1.14l-0 0c-0.21,0.36 -0.34,0.77 -0.34,1.14l0 3.75 0 0z"/>
  <path class="fil19" d="M1.83 105.24l0 -3.75c0,-0.37 0.13,-0.77 0.34,-1.14l-1.82 -1.04c-0.15,0.26 -0.26,0.53 -0.31,0.81 -0.02,0.12 -0.03,0.23 -0.03,0.34l0 3.72 1.83 1.06z"/>
  <path class="fil20" d="M1.83 105.24l0 -3.75c0,-0.37 0.13,-0.78 0.34,-1.14l-0 -0c0,0 -0,0 -0,0l0 0c-0.21,0.36 -0.34,0.77 -0.34,1.14l0 3.75z"/>
  <path class="fil37" d="M2.17 100.36c0,-0 0,-0 0,-0l0 0c-0,0 -0,0 -0,0l0 0z"/>
  <path class="fil21" d="M2.17 100.36c0,-0 0,-0 0,-0l-1.82 -1.04 1.82 1.04z"/>
  <path class="fil21" d="M2.17 100.36c0,-0 0,-0 0,-0l0 -0c-0,0 -0,0 -0,0l0 0z"/>
  <path class="fil2" d="M3.5 101.05c-0.36,0.21 -0.65,0.82 -0.65,1.37 0,0.55 0.29,0.83 0.65,0.62 0.36,-0.21 0.65,-0.82 0.65,-1.37 0,-0.55 -0.29,-0.83 -0.65,-0.62z"/>
  <path class="fil2" d="M5.83 99.7c-0.36,0.21 -0.65,0.82 -0.65,1.37 0,0.55 0.29,0.83 0.65,0.62 0.36,-0.21 0.65,-0.82 0.65,-1.37 0,-0.55 -0.29,-0.83 -0.65,-0.62z"/>
  <path class="fil2" d="M8.16 98.35c-0.36,0.21 -0.65,0.82 -0.65,1.37 0,0.55 0.29,0.83 0.65,0.62 0.36,-0.21 0.65,-0.82 0.65,-1.37 0,-0.55 -0.29,-0.83 -0.65,-0.62z"/>
  <path class="fil38" d="M2.25 157.37l-0.03 -0.03 -0.06 -0.06c-0.09,-0.08 -0.16,-0.18 -0.21,-0.3l0 0c-0.08,-0.17 -0.12,-0.37 -0.12,-0.58l0 -51.17 -1.83 -1.05 0 51.19c0,0.22 0.05,0.43 0.13,0.61 0.04,0.09 0.09,0.17 0.15,0.23 0.06,0.07 0.12,0.12 0.2,0.16 0.02,0.01 0.08,0.04 0.14,0.08 0.07,0.04 0.52,0.29 0.62,0.34 0.09,0.05 0.2,0.11 0.3,0.17l0.02 0.01 0.19 0.11 0 0c0.13,0.07 0.25,0.13 0.35,0.2l0.14 0.08z"/>
  <path class="fil39" d="M1.95 156.99c-0.07,-0.16 -0.11,-0.35 -0.12,-0.58 0,0.21 0.05,0.41 0.12,0.58z"/>
  <polygon class="fil40" points="1.83,105.24 1.83,105.24 0,104.19 0,104.19 1.83,105.24 "/>
  <path class="fil4" d="M33.2 91.98c0,-0.07 -0.02,-0.12 -0.06,-0.15l-0.82 -0.75 -0.04 -0.01 -0.02 0.01 -0.06 0.08 -0.03 0.12 0 0.57c0,0.07 0.01,0.13 0.02,0.16l0.06 0.09 0.43 0.4 -0.43 0.9 -0.06 0.16c-0.01,0.05 -0.02,0.1 -0.02,0.18l0 0.57 0.03 0.08 0.06 0 0.02 -0.02 0.04 -0.05 0.82 -1.71c0.04,-0.07 0.06,-0.15 0.06,-0.21l0 -0.43z"/>
  <polygon class="fil4" points="30.18,91.18 30.12,91.09 30,91.1 29.69,91.28 29.63,91.36 29.6,91.47 29.61,91.52 31.02,95.91 31.08,96.01 31.2,96 31.5,95.83 31.57,95.75 31.59,95.64 31.58,95.58 "/>
  <path class="fil4" d="M28 95.41c0,0.07 0.02,0.12 0.06,0.15l0.82 0.75 0.04 0.01 0.02 -0.01 0.06 -0.08 0.03 -0.12 0 -0.57c0,-0.07 -0.01,-0.13 -0.02,-0.16l-0.06 -0.09 -0.43 -0.4 0.43 -0.9 0.06 -0.16c0.01,-0.04 0.02,-0.1 0.02,-0.18l0 -0.57 -0.03 -0.08 -0.06 -0 -0.02 0.02 -0.04 0.05 -0.82 1.71c-0.04,0.07 -0.06,0.15 -0.06,0.21l0 0.43z"/>
  <polygon class="fil4" points="25.71,97.66 25.63,97.75 25.59,97.9 25.59,98.53 25.63,98.63 25.71,98.64 26.1,98.41 26.17,98.31 26.21,98.17 26.21,97.54 26.17,97.44 26.1,97.43 "/>
  <polygon class="fil4" points="24.41,98.41 24.33,98.51 24.29,98.65 24.29,99.28 24.33,99.38 24.41,99.39 24.8,99.16 24.87,99.06 24.91,98.92 24.91,98.29 24.87,98.19 24.8,98.18 "/>
  <polygon class="fil4" points="23.11,99.16 23.03,99.26 22.99,99.4 22.99,100.03 23.03,100.13 23.11,100.14 23.5,99.91 23.57,99.82 23.61,99.67 23.61,99.04 23.57,98.94 23.5,98.93 "/>
  <path class="fil4" d="M32.85 96.98l-19.05 11c-0.22,0.13 -0.41,0.43 -0.41,0.68 0,0.24 0.18,0.34 0.41,0.21l19.05 -11c0.23,-0.13 0.41,-0.43 0.41,-0.68 0,-0.24 -0.18,-0.34 -0.41,-0.21z"/>
  <path class="fil5" d="M26.74 111.1l-19.05 11c-0.22,0.13 -0.41,0.43 -0.41,0.68 0,0.24 0.18,0.34 0.41,0.21l19.05 -11c0.22,-0.13 0.41,-0.43 0.41,-0.68 0,-0.24 -0.18,-0.34 -0.41,-0.21z"/>
  <path class="fil5" d="M26.74 118.16l-9.12 5.27c-0.22,0.13 -0.41,0.43 -0.41,0.68 0,0.24 0.18,0.34 0.41,0.21l9.12 -5.27c0.22,-0.13 0.41,-0.43 0.41,-0.68 0,-0.24 -0.18,-0.34 -0.41,-0.21z"/>
  <path class="fil4" d="M12.22 108.89l-7.59 4.37c-0.23,0.13 -0.41,0.43 -0.41,0.68 0,0.24 0.18,0.34 0.41,0.21l7.59 -4.37c0.22,-0.13 0.41,-0.43 0.41,-0.68 0,-0.24 -0.18,-0.33 -0.41,-0.21z"/>
  <path class="fil4" d="M32.85 135.8l-19.05 11c-0.22,0.13 -0.41,0.43 -0.41,0.68 0,0.24 0.18,0.34 0.41,0.21l19.05 -11c0.23,-0.13 0.41,-0.43 0.41,-0.68 0,-0.24 -0.18,-0.34 -0.41,-0.21z"/>
  <path class="fil4" d="M12.22 147.71l-7.59 4.37c-0.23,0.13 -0.41,0.43 -0.41,0.68 0,0.24 0.18,0.34 0.41,0.21l7.59 -4.37c0.22,-0.13 0.41,-0.43 0.41,-0.68 0,-0.24 -0.18,-0.34 -0.41,-0.21z"/>
  <path class="fil4" d="M12.22 137.14l-7.59 4.37c-0.23,0.13 -0.41,0.43 -0.41,0.68 0,0.24 0.18,0.34 0.41,0.21l7.59 -4.37c0.22,-0.13 0.41,-0.43 0.41,-0.68 0,-0.24 -0.18,-0.34 -0.41,-0.21z"/>
  <path class="fil4" d="M12.22 140.67l-7.59 4.37c-0.23,0.13 -0.41,0.43 -0.41,0.68 0,0.24 0.18,0.34 0.41,0.21l7.59 -4.37c0.22,-0.13 0.41,-0.43 0.41,-0.68 0,-0.24 -0.18,-0.34 -0.41,-0.21z"/>
  <path class="fil4" d="M18.69 133.39l-4.27 2.46c-0.22,0.13 -0.41,0.43 -0.41,0.68 0,0.24 0.18,0.34 0.41,0.21l4.27 -2.46c0.22,-0.13 0.41,-0.43 0.41,-0.68 0,-0.24 -0.18,-0.34 -0.41,-0.21z"/>
  <path class="fil4" d="M32.85 100.52l-11.11 6.41c-0.22,0.13 -0.41,0.43 -0.41,0.68 0,0.24 0.18,0.34 0.41,0.21l11.11 -6.41c0.23,-0.13 0.41,-0.43 0.41,-0.68 0,-0.24 -0.18,-0.33 -0.41,-0.21z"/>
  <path class="fil24" d="M21.55 107.87c0.06,0 0.12,-0.02 0.19,-0.06l1.43 -0.82 1.8 -1.04 0 -0 7.88 -4.55c0.2,-0.12 0.37,-0.38 0.4,-0.61 0,-0.02 0.01,-0.05 0.01,-0.07 0,-0.17 -0.09,-0.26 -0.22,-0.26 -0.06,0 -0.12,0.02 -0.19,0.06l-11.11 6.41c-0.22,0.13 -0.41,0.43 -0.41,0.68 0,0.17 0.09,0.26 0.22,0.26z"/>
  <path class="fil4" d="M32.85 104.04l-3.77 2.17c-0.22,0.13 -0.41,0.43 -0.41,0.68 0,0.24 0.18,0.33 0.41,0.21l3.77 -2.17c0.23,-0.13 0.41,-0.43 0.41,-0.68 0,-0.24 -0.18,-0.33 -0.41,-0.2z"/>
  <path class="fil24" d="M28.89 107.16c0.06,0 0.12,-0.02 0.19,-0.06l1.94 -1.12 1.83 -1.05c0.23,-0.13 0.41,-0.43 0.41,-0.68 0,-0.17 -0.09,-0.26 -0.22,-0.26 -0.06,0 -0.12,0.02 -0.19,0.06l-3.77 2.17c-0.22,0.13 -0.41,0.43 -0.41,0.68 0,0.17 0.09,0.26 0.22,0.26z"/>
  <path class="fil4" d="M32.85 107.57l-3.77 2.17c-0.22,0.13 -0.41,0.43 -0.41,0.68 0,0.24 0.18,0.34 0.41,0.21l3.77 -2.17c0.23,-0.13 0.41,-0.43 0.41,-0.68 0,-0.24 -0.18,-0.34 -0.41,-0.21z"/>
  <path class="fil24" d="M28.89 110.69c0.06,0 0.12,-0.02 0.19,-0.06l3.77 -2.17c0.23,-0.13 0.41,-0.43 0.41,-0.68 0,-0.17 -0.09,-0.26 -0.22,-0.26 -0.06,0 -0.12,0.02 -0.19,0.06l-3.77 2.17c-0.22,0.13 -0.41,0.43 -0.41,0.68 0,0.17 0.09,0.27 0.22,0.27z"/>
  <path class="fil4" d="M32.85 111.1l-3.77 2.17c-0.22,0.13 -0.41,0.43 -0.41,0.68 0,0.24 0.18,0.34 0.41,0.21l3.77 -2.17c0.23,-0.13 0.41,-0.43 0.41,-0.68 0,-0.24 -0.18,-0.34 -0.41,-0.21z"/>
  <path class="fil25" d="M28.67 113.95c0,-0.24 0.18,-0.55 0.41,-0.68l3.77 -2.17c0.07,-0.04 0.13,-0.06 0.19,-0.06 0.13,0 0.22,0.1 0.22,0.26 0,-0 0,-0 0,-0 0,-0.17 -0.09,-0.26 -0.22,-0.26 -0.06,0 -0.12,0.02 -0.19,0.06l-3.77 2.17c-0.22,0.13 -0.41,0.43 -0.41,0.68l0 0z"/>
  <path class="fil24" d="M28.89 114.21c0.06,0 0.12,-0.02 0.19,-0.06l3.77 -2.17c0.23,-0.13 0.41,-0.43 0.41,-0.68 0,-0.17 -0.09,-0.26 -0.22,-0.26 -0.06,0 -0.12,0.02 -0.19,0.06l-3.77 2.17c-0.22,0.13 -0.41,0.43 -0.41,0.68 0,0.17 0.09,0.26 0.22,0.26z"/>
  <path class="fil41" d="M15.43 121.98c0.06,0 0.12,-0.02 0.19,-0.06l7.54 -4.35 0 -0.88 -7.54 4.35c-0.22,0.13 -0.41,0.43 -0.41,0.68 0,0.17 0.09,0.27 0.22,0.27zm9.53 -5.45l0 -0 0 -0.88 -0 0 0 0.88z"/>
  <path class="fil42" d="M24.97 116.53l1.77 -1.02c0.22,-0.13 0.41,-0.43 0.41,-0.68 0,-0.17 -0.09,-0.26 -0.22,-0.26 -0.06,0 -0.12,0.02 -0.19,0.06l-1.77 1.02 0 0.88z"/>
  <polygon class="fil42" points="23.16,117.57 24.97,116.53 24.97,115.65 23.16,116.69 "/>
  <path class="fil41" d="M9.02 125.69c0.06,0 0.12,-0.02 0.19,-0.06l4.83 -2.8c0.22,-0.13 0.41,-0.43 0.41,-0.68 0,-0.17 -0.09,-0.26 -0.22,-0.26 -0.06,0 -0.12,0.02 -0.19,0.06l-4.83 2.8c-0.22,0.13 -0.41,0.43 -0.41,0.68 0,0.17 0.09,0.27 0.22,0.27z"/>
  <path class="fil4" d="M32.85 114.63l-3.77 2.17c-0.22,0.13 -0.41,0.43 -0.41,0.68 0,0.24 0.18,0.34 0.41,0.21l3.77 -2.17c0.23,-0.13 0.41,-0.43 0.41,-0.68 0,-0.24 -0.18,-0.34 -0.41,-0.21z"/>
  <path class="fil24" d="M28.89 117.74c0.06,0 0.12,-0.02 0.19,-0.06l3.77 -2.17c0.23,-0.13 0.41,-0.43 0.41,-0.68 0,-0.17 -0.09,-0.27 -0.22,-0.27 -0.06,0 -0.12,0.02 -0.19,0.06l-3.77 2.17c-0.22,0.13 -0.41,0.43 -0.41,0.68 0,0.17 0.09,0.27 0.22,0.27z"/>
  <path class="fil4" d="M20.16 107.84l-4.83 2.8c-0.22,0.13 -0.41,0.43 -0.41,0.68 0,0.24 0.18,0.33 0.41,0.21l4.83 -2.8c0.22,-0.13 0.41,-0.43 0.41,-0.68 0,-0.24 -0.18,-0.34 -0.41,-0.21z"/>
  <path class="fil24" d="M15.14 111.58c0.06,0 0.12,-0.02 0.19,-0.06l4.83 -2.8c0.22,-0.13 0.41,-0.43 0.41,-0.68 0,-0.17 -0.09,-0.27 -0.22,-0.27 -0.06,0 -0.12,0.02 -0.19,0.06l-4.83 2.8c-0.22,0.13 -0.41,0.43 -0.41,0.68 0,0.17 0.09,0.26 0.22,0.26z"/>
  <path class="fil9" d="M22.15 124.33l-11.11 6.41c-0.22,0.13 -0.41,0.43 -0.41,0.68 0,0.24 0.18,0.34 0.41,0.21l11.11 -6.41c0.22,-0.13 0.41,-0.43 0.41,-0.68 0,-0.24 -0.18,-0.34 -0.41,-0.21z"/>
  <path class="fil9" d="M15.74 131.57l-11.11 6.41c-0.23,0.13 -0.41,0.43 -0.41,0.68 0,0.24 0.18,0.34 0.41,0.21l11.11 -6.41c0.22,-0.13 0.41,-0.43 0.41,-0.68 0,-0.24 -0.18,-0.34 -0.41,-0.21z"/>
  <path class="fil9" d="M9.46 131.65l-4.83 2.8c-0.23,0.13 -0.41,0.43 -0.41,0.68 0,0.24 0.18,0.34 0.41,0.21l4.83 -2.8c0.22,-0.13 0.41,-0.43 0.41,-0.68 0,-0.24 -0.18,-0.34 -0.41,-0.21z"/>
  <path class="fil5" d="M9.46 145.63l-4.83 2.8c-0.23,0.13 -0.41,0.43 -0.41,0.68 0,0.24 0.18,0.34 0.41,0.21l4.83 -2.8c0.22,-0.13 0.41,-0.43 0.41,-0.68 0,-0.24 -0.18,-0.34 -0.41,-0.21z"/>
  <path class="fil4" d="M26.74 107.57l-11.11 6.41c-0.22,0.13 -0.41,0.43 -0.41,0.68 0,0.24 0.18,0.33 0.41,0.21l11.11 -6.41c0.22,-0.13 0.41,-0.43 0.41,-0.68 0,-0.24 -0.18,-0.34 -0.41,-0.21z"/>
  <path class="fil24" d="M15.43 114.92c0.06,0 0.12,-0.02 0.19,-0.06l7.54 -4.35 1.8 -1.04 0 -0 1.77 -1.02c0.22,-0.13 0.41,-0.43 0.41,-0.68 0,-0.17 -0.09,-0.26 -0.22,-0.26 -0.06,0 -0.12,0.02 -0.19,0.06l-11.11 6.41c-0.22,0.13 -0.41,0.43 -0.41,0.68 0,0.17 0.09,0.26 0.22,0.26z"/>
  <path class="fil4" d="M14.05 114.89l-4.83 2.8c-0.22,0.13 -0.41,0.43 -0.41,0.68 0,0.24 0.18,0.34 0.41,0.21l4.83 -2.8c0.22,-0.13 0.41,-0.43 0.41,-0.68 0,-0.24 -0.18,-0.34 -0.41,-0.21z"/>
  <path class="fil24" d="M9.02 118.63c0.06,0 0.12,-0.02 0.19,-0.06l4.83 -2.8c0.22,-0.13 0.41,-0.43 0.41,-0.68 0,-0.17 -0.09,-0.27 -0.22,-0.27 -0.06,0 -0.12,0.02 -0.19,0.06l-4.83 2.8c-0.22,0.13 -0.41,0.43 -0.41,0.68 0,0.17 0.09,0.26 0.22,0.26z"/>
  <path class="fil43" d="M79.61 160.08c1.22,0 2.42,-0.27 3.38,-0.83l6.81 -3.93c2.15,-1.24 2.09,-3.15 -0.13,-4.26l-13.87 -7.52c-1.03,-0.52 -2.34,-0.77 -3.66,-0.77 -1.53,0 -3.09,0.34 -4.24,1.01l-3.41 1.98c-2.14,1.24 -2.26,3.43 -0.25,4.89l11.23 8.2c1.11,0.81 2.63,1.22 4.14,1.22z"/>
  <path class="fil26" d="M64.05 147.09l7.77 6.08 5.74 4.49c0.56,0.26 1.19,0.4 1.83,0.44 0.97,0.05 1.96,-0.13 2.72,-0.57l6.09 -3.52 0.01 -0.01 0.03 -0.02c2.14,-1.25 2.64,-4.13 1.23,-6.17 -0.06,-0.08 -0.12,-0.17 -0.18,-0.25 -1.16,-1.56 -2.88,-2.69 -4.9,-3.11l-3.09 -0.62c-5,-1.01 -9.1,-1.51 -9.58,-1.19l-7.64 4.43 -0.05 0.02z"/>
  <path class="fil4" d="M68.39 150.49l-0.44 -0.34 6.85 -3.96 -6 -1.86c0.21,-0.12 0.41,-0.24 0.61,-0.35l6 1.86 4.09 -2.36c0.26,0.05 0.51,0.1 0.77,0.15l-11.89 6.86z"/>
  <path class="fil44" d="M76.88 157.29l-0.04 -0.03 -0.01 -0.01 -5.46 -3.94 -7.37 -5.32 0 -0.83 0.04 -0.06 0.05 -0.02c0.55,-0.19 3.74,0.77 7.6,2.31l2.56 1.01c0.8,0.31 1.54,0.75 2.18,1.29 1.84,1.52 2.95,3.81 2.95,6.27l0 0.13c-0.64,-0.04 -1.28,-0.18 -1.83,-0.44l-0.67 -0.37z"/>
  <path class="fil45" d="M182.09 138.28l-0.01 -0.01c-0.04,-0.07 -0.09,-0.13 -0.13,-0.2 0.05,0.07 0.09,0.14 0.14,0.21z"/>
  <path class="fil46" d="M188.26 147.68c-1.93,-2.99 -4.06,-6.22 -6.03,-9.2l0 0c1.24,1.86 2.53,3.82 3.8,5.77 0.21,0.32 0.41,0.63 0.62,0.95 0.55,0.84 1.09,1.67 1.61,2.48l0 0z"/>
  <path class="fil47" d="M182.22 138.48l0 0c-0.04,-0.07 -0.09,-0.13 -0.13,-0.2l0.01 0.01c0.04,0.06 0.08,0.12 0.12,0.19z"/>
  <path class="fil47" d="M181.95 138.07c-0.57,-0.85 -1.12,-1.68 -1.65,-2.47l0 0c0.17,0.25 0.35,0.52 0.52,0.78 0.37,0.55 0.75,1.11 1.13,1.69z"/>
  <path class="fil48" d="M180.3 135.6l0 0c-0,-0 -0,-0 -0,-0 -0,-0 -0,-0 -0,-0l0 0c0,0 0,0 0,0z"/>
  <path class="fil4" d="M174.95 70.75l3.28 -6.18 -2.64 -7.63 0 -4.67 8.09 4.67 0 4.67 -3.48 6.02c-0.06,0.1 -0.14,0.17 -0.24,0.21l0 0 -5.02 2.9z"/>
  <path class="fil19" d="M174.99 70.73l4.98 -2.88 -0 -0 0 0c0.09,-0.04 0.18,-0.11 0.24,-0.21l0.93 -1.62 -2.54 -1.46 -3.47 6.01c-0.04,0.07 -0.09,0.12 -0.15,0.16z"/>
  <path class="fil13" d="M155.63 15.14c0,-1.55 1.09,-3.43 2.43,-4.2l1.97 -1.14c0.52,-0.3 1.17,-0.49 1.85,-0.55l1.15 0c0.68,0.07 1.33,0.25 1.85,0.55l30.29 17.52c1.34,0.77 2.43,2.65 2.43,4.2l0 33.32c0,1.55 -1.09,3.43 -2.43,4.2l-1.98 1.14c-1.34,0.77 -3.51,0.77 -4.85,0l-9.74 -5.63 -3.47 6.01c-0.22,0.38 -0.79,0.33 -0.94,-0.09l-3.67 -10.59 -12.47 -7.22c-1.34,-0.77 -2.43,-2.65 -2.43,-4.2l0 -33.32z"/>
  <path class="fil49" d="M192.97 70.3l0 0 0 0zm0.02 -0.01c0.01,-0 0.01,-0 0.01,-0.01 -0,0 -0.01,0 -0.01,0.01zm0.02 -0.01c0.07,-0.03 0.13,-0.07 0.19,-0.1l1.98 -1.14c1.34,-0.77 2.43,-2.65 2.43,-4.2l0 0c0,1.55 -1.09,3.43 -2.43,4.2l-1.98 1.14c-0.06,0.04 -0.13,0.07 -0.19,0.1z"/>
  <path class="fil19" d="M190.78 70.76c0.78,0 1.55,-0.15 2.18,-0.46l0 0c0.01,-0 0.01,-0.01 0.02,-0.01 0.01,-0 0.01,-0 0.01,-0.01 0,-0 0,-0 0,-0 0.07,-0.03 0.13,-0.07 0.19,-0.1l1.98 -1.14c1.34,-0.77 2.43,-2.65 2.43,-4.2l0 -33.32c0,-0.77 -0.27,-1.63 -0.71,-2.39l-0.01 0c0,0 0,0 0,0l-3.39 1.95 -3.43 1.98c0.44,0.76 0.71,1.62 0.71,2.39l0 33.32c0,1.1 -0.55,1.73 -1.34,1.73 -0.21,0 -0.43,-0.04 -0.67,-0.13 0.6,0.25 1.31,0.38 2.03,0.38z"/>
  <path class="fil9" d="M170.71 13.17l-5.82 -3.37c-0.07,-0.04 -0.14,-0.08 -0.21,-0.11 0.07,0.04 0.14,0.07 0.21,0.11l5.83 3.37zm-14.32 -0.5c0.34,-0.57 0.78,-1.08 1.26,-1.45 -0.48,0.37 -0.92,0.88 -1.26,1.45z"/>
  <path class="fil15" d="M190.05 33.07l3.44 -1.99 3.38 -1.95c-0.44,-0.77 -1.04,-1.42 -1.71,-1.81l-24.46 -14.15 -5.83 -3.37c-0.07,-0.04 -0.14,-0.08 -0.21,-0.11 -0.5,-0.24 -1.08,-0.39 -1.69,-0.44l-1.06 0c-0.69,0.06 -1.36,0.25 -1.89,0.55l-1.98 1.14c-0.14,0.08 -0.27,0.17 -0.4,0.27 -0.48,0.37 -0.92,0.88 -1.26,1.45 -0.33,0.56 -0.58,1.18 -0.68,1.78 0.18,-0.67 0.65,-1.04 1.26,-1.04 0.33,0 0.69,0.11 1.08,0.33l30.29 17.52c0.67,0.38 1.28,1.04 1.71,1.81z"/>
  <path class="fil50" d="M193.49 31.08l3.39 -1.95c0,0 0,0 -0,-0l-3.38 1.95z"/>
  <path class="fil4" d="M217.18 102.38l2.14 -4.02 -1.72 -4.97 0 -3.04 5.26 3.04 0 3.04 -2.26 3.92c-0.04,0.07 -0.09,0.11 -0.15,0.14l0 0 -3.27 1.89z"/>
  <path class="fil51" d="M217.21 102.37l3.24 -1.87 -0 -0 0 0c0.06,-0.03 0.12,-0.07 0.15,-0.14l0.61 -1.05 -1.65 -0.95 -2.26 3.91c-0.03,0.04 -0.06,0.08 -0.09,0.11z"/>
  <path class="fil2" d="M204.61 66.2c0,-1.01 0.71,-2.23 1.58,-2.73l1.28 -0.74c0.34,-0.2 0.76,-0.32 1.21,-0.36l0.75 0c0.44,0.04 0.86,0.16 1.21,0.36l19.71 11.4c0.87,0.5 1.58,1.73 1.58,2.73l0 21.68c0,1.01 -0.71,2.23 -1.58,2.73l-1.29 0.74c-0.87,0.5 -2.29,0.5 -3.16,0l-6.34 -3.66 -2.26 3.91c-0.14,0.25 -0.52,0.21 -0.61,-0.06l-2.39 -6.89 -8.11 -4.7c-0.87,-0.5 -1.58,-1.73 -1.58,-2.73l0 -21.68z"/>
  <path class="fil49" d="M228.91 102.09l0 0 0 0zm0.01 -0.01c0,-0 0.01,-0 0.01,-0 -0,0 -0.01,0 -0.01,0zm0.01 -0c0.04,-0.02 0.09,-0.04 0.13,-0.07l1.29 -0.74c0.87,-0.5 1.58,-1.73 1.58,-2.73l0 0c0,1.01 -0.71,2.23 -1.58,2.73l-1.29 0.74c-0.04,0.02 -0.08,0.05 -0.13,0.07z"/>
  <path class="fil12" d="M227.49 102.39c0.51,0 1.01,-0.1 1.42,-0.3l0 0c0,-0 0.01,-0 0.01,-0.01 0,-0 0.01,-0 0.01,-0 0,0 0,0 0,0 0.04,-0.02 0.09,-0.04 0.13,-0.07l1.29 -0.74c0.87,-0.5 1.58,-1.73 1.58,-2.73l0 -21.68c0,-0.5 -0.18,-1.06 -0.46,-1.56l-0.01 0c0,0 0,0 0,0l-2.2 1.27 -2.23 1.29c0.29,0.5 0.46,1.05 0.46,1.56l0 21.68c0,0.71 -0.36,1.13 -0.87,1.13 -0.13,0 -0.28,-0.03 -0.44,-0.09 0.39,0.17 0.86,0.25 1.32,0.25z"/>
  <path class="fil9" d="M214.42 64.91l-3.79 -2.19c-0.05,-0.02 -0.09,-0.05 -0.14,-0.07 0.05,0.02 0.09,0.05 0.14,0.07l3.79 2.19zm-9.32 -0.33c0.22,-0.37 0.51,-0.7 0.82,-0.95 -0.32,0.24 -0.6,0.57 -0.82,0.95z"/>
  <path class="fil51" d="M227.01 77.86l2.24 -1.29 2.2 -1.27c-0.29,-0.5 -0.68,-0.93 -1.11,-1.18l-15.92 -9.21 -3.79 -2.19c-0.04,-0.03 -0.09,-0.05 -0.14,-0.07 -0.32,-0.16 -0.7,-0.25 -1.1,-0.29l-0.69 0c-0.45,0.04 -0.89,0.16 -1.23,0.36l-1.29 0.74c-0.09,0.05 -0.18,0.11 -0.26,0.18 -0.31,0.24 -0.6,0.58 -0.82,0.95 -0.22,0.37 -0.37,0.77 -0.44,1.16 0.12,-0.44 0.42,-0.68 0.82,-0.68 0.21,0 0.45,0.07 0.71,0.22l19.71 11.4c0.43,0.25 0.83,0.68 1.11,1.18z"/>
  <path class="fil50" d="M229.25 76.57l2.2 -1.27c0,0 0,0 -0,0l-2.2 1.27z"/>
  <path id="LogoHorizMono" class="fil52" d="M212.34 71.23c-1.06,1.12 -2.13,2.24 -3.18,3.35 -1.05,1.11 -2.1,2.21 -3.14,3.31 2.29,1.36 4.61,2.72 6.94,4.1 2.35,1.39 4.73,2.79 7.13,4.21 -0.24,-1.9 -0.48,-3.8 -0.72,-5.69 -0.24,-1.89 -0.48,-3.78 -0.72,-5.68 -1.06,-0.61 -2.12,-1.21 -3.17,-1.81 -1.05,-0.6 -2.09,-1.19 -3.13,-1.79zm8.82 24.56c0.92,0.56 1.85,1.12 2.78,1.69 -0.2,-0.42 -0.46,-0.84 -0.59,-1.29 -0.1,-0.32 -0.15,-0.69 -0.21,-1.04 -0.08,-0.5 -0.15,-0.98 -0.31,-1.22 -0.15,-0.22 -0.28,-0.37 -0.39,-0.47 -0.11,-0.09 -0.21,-0.12 -0.33,-0.12 -0.12,0 -0.18,0.14 -0.25,0.29 -0.07,0.15 -0.15,0.32 -0.3,0.42 -0.13,0.08 -0.31,0.09 -0.49,0.11 -0.25,0.02 -0.51,0.03 -0.57,0.23 -0.05,0.16 -0.01,0.36 0.08,0.56 0.12,0.27 0.39,0.67 0.59,0.85zm2.6 -7.42c-0.4,-0.24 -0.81,-0.48 -1.21,-0.72 0.03,0.24 0.06,0.48 0.09,0.71 0.33,0.32 0.41,0.67 0.46,1.12 0.03,0.31 0.07,0.62 0.38,0.86 0.15,0.11 0.38,0.24 0.57,0.33 -0.1,-0.77 -0.2,-1.54 -0.29,-2.31zm-1.07 0.4c0.22,1.73 0.43,3.46 0.65,5.19 -0.13,-0.08 -0.26,-0.15 -0.38,-0.23 0.27,0.39 0.34,1 0.41,1.44 0.05,0.34 0.11,0.69 0.19,0.99 0.15,0.51 0.49,1.01 0.69,1.51 0.25,0.15 0.51,0.31 0.77,0.46 -0.12,-0.91 -0.23,-1.81 -0.35,-2.73 0,0 0,0 0,0 -0.19,-0.27 -0.35,-0.49 -0.45,-0.66 -0.18,-0.3 -0.27,-0.75 -0.37,-1.2 -0.13,-0.62 -0.24,-1.29 -0.75,-1.61 -0.02,-0.1 -0.03,-0.21 -0.04,-0.31 0.16,0.09 0.31,0.2 0.44,0.36 0.31,0.37 0.44,0.98 0.56,1.56 0.09,0.42 0.18,0.82 0.32,1.06 0.05,0.09 0.13,0.21 0.23,0.35 -0.17,-1.32 -0.34,-2.65 -0.51,-3.97 -0.23,-0.1 -0.49,-0.25 -0.67,-0.39 -0.46,-0.34 -0.5,-0.74 -0.55,-1.16 -0.02,-0.21 -0.08,-0.47 -0.19,-0.67zm-0.81 4.31c-0.92,-0.55 -1.83,-1.1 -2.74,-1.65 -0.15,0.12 -0.27,0.33 -0.35,0.58 -0.11,0.34 -0.14,0.73 -0.13,1.06 0.02,0.46 0.18,0.9 0.26,1.37 0.57,0.34 1.14,0.69 1.71,1.03 -0.09,-0.14 -0.18,-0.29 -0.25,-0.44 -0.13,-0.29 -0.19,-0.57 -0.11,-0.83 0.1,-0.31 0.41,-0.33 0.71,-0.35 0.16,-0.01 0.33,-0.02 0.43,-0.08 0.11,-0.07 0.18,-0.22 0.24,-0.35 0.07,-0.13 0.13,-0.26 0.23,-0.33zm-3 -1.81c-1.47,-0.89 -2.94,-1.77 -4.4,-2.64 0.02,0.26 0,0.63 0.15,0.85 0.16,0.25 0.33,0.31 0.51,0.39 0.17,0.07 0.36,0.14 0.58,0.35 0.37,0.35 0.64,1.07 0.76,1.59 0.11,0.43 0.15,0.87 0.11,1.2 0.7,0.43 1.4,0.85 2.11,1.28 -0.09,-0.45 -0.22,-0.84 -0.25,-1.29 -0.02,-0.36 0.02,-0.8 0.14,-1.16 0.07,-0.22 0.16,-0.42 0.29,-0.56zm-4.63 -2.78c-0.42,-0.25 -0.84,-0.51 -1.26,-0.76 -0.78,0.56 -1.56,1.12 -2.33,1.68 0.94,0.57 1.89,1.15 2.84,1.72 0.95,0.58 1.91,1.16 2.88,1.75 0.04,-0.29 -0.01,-0.68 -0.1,-1.06 -0.1,-0.42 -0.34,-1.08 -0.64,-1.37 -0.18,-0.17 -0.34,-0.24 -0.49,-0.3 -0.23,-0.09 -0.43,-0.17 -0.65,-0.51 -0.25,-0.38 -0.18,-0.76 -0.24,-1.15zm-0.96 -3.44c0.8,0.47 1.59,0.95 2.4,1.43 0.8,0.48 1.61,0.96 2.42,1.44 0.02,-0.18 0.05,-0.36 0.08,-0.54 -1.55,-0.93 -3.1,-1.85 -4.64,-2.76 -0.08,0.14 -0.17,0.29 -0.25,0.43zm7.85 -3.92c-0.36,-0.21 -0.72,-0.42 -1.07,-0.62 0.03,0.32 0.07,0.63 0.1,0.94 0.36,0.21 0.73,0.42 1.09,0.64 -0.04,-0.32 -0.08,-0.64 -0.12,-0.96zm-0.95 0.5c0.01,0.11 0.02,0.23 0.04,0.34 0.37,0.21 0.73,0.43 1.11,0.64 -0.02,-0.11 -0.03,-0.23 -0.04,-0.34 -0.37,-0.21 -0.73,-0.43 -1.1,-0.64zm0.06 0.52c0.1,0.97 0.21,1.94 0.32,2.9 0.39,0.23 0.78,0.46 1.17,0.69 -0.12,-0.98 -0.25,-1.96 -0.38,-2.94 -0.1,-0.06 -0.2,-0.12 -0.3,-0.17 0.05,0.57 0.09,1.14 0.14,1.71 -0.04,-0.01 -0.07,-0.01 -0.11,-0.02 -0.05,-0.58 -0.09,-1.17 -0.14,-1.75 -0.23,-0.14 -0.46,-0.27 -0.69,-0.4zm0.34 3.08c0.03,0.23 0.05,0.46 0.08,0.69 0.39,0.23 0.79,0.46 1.19,0.7 -0.03,-0.23 -0.06,-0.47 -0.09,-0.7 -0.39,-0.23 -0.78,-0.46 -1.17,-0.69zm0.09 0.87c0.05,0.49 0.11,0.98 0.16,1.46 -0.39,-0.23 -0.77,-0.46 -1.16,-0.69 -0.07,1.14 -0.13,2.28 -0.2,3.42 -0.04,-0.02 -0.07,-0.04 -0.11,-0.05 1.05,0.63 2.11,1.27 3.18,1.9 -0.11,-0.89 -0.23,-1.78 -0.34,-2.67 -0.11,-0.89 -0.23,-1.78 -0.34,-2.67 -0.4,-0.23 -0.79,-0.47 -1.19,-0.7zm-1.22 0.65c-0.29,-0.17 -0.58,-0.34 -0.87,-0.52 -0.15,1.09 -0.31,2.18 -0.46,3.26 0.38,0.23 0.76,0.45 1.14,0.68 0.06,-1.14 0.13,-2.29 0.2,-3.43zm-1.09 -0.65c-0.72,-0.42 -1.43,-0.85 -2.14,-1.27 -0.08,0.36 -0.16,0.73 -0.23,1.09 0.73,0.44 1.47,0.87 2.21,1.31 0.05,-0.38 0.11,-0.76 0.16,-1.13zm-2.25 -1.33c-0.66,-0.39 -1.32,-0.78 -1.97,-1.17 -0.18,0.3 -0.36,0.6 -0.53,0.9 0.75,0.45 1.51,0.9 2.27,1.35 0.08,-0.36 0.15,-0.73 0.23,-1.09zm-2.21 -1.31c-0.33,-0.19 -0.66,-0.39 -0.99,-0.58 -0.61,0.81 -1.21,1.61 -1.82,2.42 0.43,0.25 0.85,0.51 1.28,0.76 0.51,-0.86 1.02,-1.73 1.53,-2.6zm-1.24 -0.73c-0.7,-0.42 -1.4,-0.83 -2.1,-1.24 -0.77,0.7 -1.55,1.41 -2.31,2.1 0.86,0.52 1.73,1.04 2.6,1.56 0.24,-0.32 0.47,-0.63 0.71,-0.95 -0.8,-0.48 -1.6,-0.96 -2.4,-1.43 0.04,-0.03 0.07,-0.06 0.11,-0.1 0.79,0.47 1.58,0.94 2.38,1.42 0.23,-0.3 0.46,-0.61 0.69,-0.92 -0.73,-0.43 -1.46,-0.87 -2.19,-1.3 0.04,-0.03 0.07,-0.06 0.11,-0.1 0.72,0.43 1.44,0.86 2.16,1.28 0.08,-0.11 0.16,-0.22 0.25,-0.33zm-0.05 3.47c0.89,0.53 1.79,1.07 2.68,1.61 0.9,0.54 1.8,1.08 2.71,1.62 -0.04,-0.02 -0.07,-0.05 -0.11,-0.07 0.06,-0.43 0.12,-0.85 0.18,-1.28 -0.82,-0.49 -1.63,-0.97 -2.44,-1.46 -0.81,-0.48 -1.62,-0.96 -2.42,-1.44 -0.2,0.34 -0.4,0.68 -0.6,1.02zm1.9 -10.6c-0.72,-0.42 -1.73,-0.16 -1.13,0.98 0.24,0.46 0.62,0.84 0.97,1.04 0.34,0.2 0.75,0.3 1.06,0.16 0.45,-0.2 0.34,-0.84 -0.04,-1.39 -0.23,-0.33 -0.55,-0.62 -0.86,-0.8zm-0.01 0.58c-0.19,-0.11 -0.4,-0.11 -0.46,0.08 -0.05,0.19 0.15,0.51 0.38,0.65 0.23,0.13 0.47,0.08 0.46,-0.16 -0.01,-0.24 -0.2,-0.46 -0.39,-0.57zm-1.02 -1.22c0.67,-0.12 1.61,0.41 2.18,1.25 0.3,0.43 0.51,1.01 0.46,1.54 -0.04,0.39 -0.23,0.65 -0.5,0.77 -0.77,0.34 -1.96,-0.37 -2.57,-1.52 -0.21,-0.4 -0.32,-0.82 -0.29,-1.19 0.05,-0.52 0.38,-0.79 0.72,-0.85z"/>
  <path class="fil53" d="M179.51 37.26c-2.09,-1.21 -4.18,-2.41 -6.28,-3.62 -2.1,-1.21 -4.21,-2.43 -6.32,-3.65 -0.43,-0.25 -0.78,-0.88 -0.78,-1.43 0,-0.54 0.35,-0.77 0.78,-0.52 2.11,1.22 4.22,2.44 6.32,3.65 2.1,1.21 4.19,2.42 6.28,3.63 0.42,0.25 0.77,0.87 0.77,1.41 0,0.54 -0.34,0.77 -0.76,0.53zm0.03 4.87c-2.1,-1.2 -4.19,-2.41 -6.3,-3.62 -2.11,-1.21 -4.22,-2.42 -6.34,-3.64 -0.43,-0.25 -0.78,-0.89 -0.78,-1.43 0,-0.54 0.35,-0.78 0.78,-0.53 2.12,1.22 4.23,2.43 6.33,3.64 2.1,1.21 4.2,2.41 6.29,3.62 0.43,0.24 0.77,0.88 0.77,1.42 0,0.54 -0.34,0.78 -0.76,0.53zm0.03 4.89c-2.1,-1.2 -4.2,-2.4 -6.31,-3.61 -2.11,-1.21 -4.23,-2.42 -6.35,-3.63 -0.43,-0.25 -0.78,-0.89 -0.78,-1.43 0,-0.54 0.35,-0.78 0.78,-0.53 2.12,1.21 4.24,2.42 6.34,3.63 2.11,1.21 4.21,2.41 6.3,3.61 0.43,0.24 0.77,0.88 0.78,1.42 0,0.54 -0.34,0.78 -0.77,0.54zm0.03 4.9c-2.1,-1.2 -4.21,-2.4 -6.32,-3.6 -2.12,-1.2 -4.24,-2.41 -6.36,-3.62 -0.43,-0.25 -0.79,-0.89 -0.79,-1.43 0,-0.55 0.35,-0.79 0.79,-0.54 2.13,1.21 4.25,2.42 6.36,3.62 2.11,1.2 4.22,2.41 6.32,3.61 0.43,0.24 0.77,0.88 0.78,1.42 0,0.54 -0.34,0.79 -0.77,0.54zm0.03 4.92c-2.11,-1.19 -4.22,-2.39 -6.34,-3.59 -2.12,-1.2 -4.24,-2.41 -6.38,-3.61 -0.44,-0.25 -0.79,-0.89 -0.79,-1.44 0,-0.55 0.35,-0.79 0.79,-0.54 2.13,1.21 4.25,2.41 6.37,3.62 2.11,1.2 4.22,2.4 6.33,3.59 0.43,0.24 0.78,0.88 0.78,1.42 0,0.55 -0.34,0.79 -0.77,0.55zm1.67 -24.34c-2.69,-1.56 -5.38,-3.12 -8.08,-4.69 -2.71,-1.57 -5.43,-3.15 -8.15,-4.73 -0.63,-0.37 -1.18,-0.21 -1.42,0.32 -0.09,0.19 -0.14,0.43 -0.14,0.72 -0,4.22 -0.01,8.46 -0.01,12.71 -0,4.26 -0.01,8.55 -0.01,12.85 -0,1.09 0.71,2.38 1.58,2.88 2.76,1.56 5.51,3.11 8.26,4.66 2.74,1.54 5.47,3.09 8.19,4.62 0.22,0.13 0.44,0.19 0.63,0.19 0.54,-0.01 0.91,-0.48 0.91,-1.28 -0.03,-4.27 -0.06,-8.53 -0.09,-12.77 -0.03,-4.23 -0.06,-8.44 -0.09,-12.64 -0.01,-1.06 -0.7,-2.34 -1.55,-2.82z"/>
 </g>
</svg>
