<?xml version="1.0" encoding="UTF-8"?>
<!DOCTYPE svg PUBLIC "-//W3C//DTD SVG 1.1//EN" "http://www.w3.org/Graphics/SVG/1.1/DTD/svg11.dtd">
<!-- Creator: CorelDRAW 2020 (64 Bit) -->
<svg xmlns="http://www.w3.org/2000/svg" xml:space="preserve" width="68px" height="83px" version="1.1" style="shape-rendering:geometricPrecision; text-rendering:geometricPrecision; image-rendering:optimizeQuality; fill-rule:evenodd; clip-rule:evenodd"
viewBox="0 0 6.4 7.82"
 xmlns:xlink="http://www.w3.org/1999/xlink"
 xmlns:xodm="http://www.corel.com/coreldraw/odm/2003">
 <defs>
  <style type="text/css">
   <![CDATA[
    .fil10 {fill:#FEFEFE}
    .fil4 {fill:#FEFEFE;fill-rule:nonzero}
    .fil3 {fill:#C2C4C4;fill-rule:nonzero}
    .fil6 {fill:#6BC8C2;fill-rule:nonzero}
    .fil0 {fill:#00B3A9;fill-rule:nonzero}
    .fil8 {fill:black;fill-rule:nonzero}
    .fil2 {fill:#074669;fill-rule:nonzero}
    .fil5 {fill:#0A6092;fill-rule:nonzero}
    .fil1 {fill:#0B9AC2;fill-rule:nonzero}
    .fil7 {fill:#1A1A1A;fill-rule:nonzero}
    .fil9 {fill:#333333;fill-rule:nonzero}
    .fil11 {fill:white;fill-rule:nonzero}
   ]]>
  </style>
 </defs>
 <g id="Camada_x0020_1">
  <metadata id="CorelCorpID_0Corel-Layer"/>
  <path class="fil0" d="M1.62 5.16l0.28 -0.52 -0.23 -0.64 0 -0.39 0.68 0.39 0 0.39 -0.29 0.51c0,0.01 -0.01,0.01 -0.02,0.02l0 0 -0.42 0.24z"/>
  <path class="fil1" d="M1.62 5.16l0.42 -0.24 0 0 0 0c0.01,-0.01 0.02,-0.01 0.02,-0.02l0.08 -0.14 -0.21 -0.12 -0.29 0.5c-0.01,0.01 -0.01,0.02 -0.02,0.02z"/>
  <path class="fil2" d="M0 0.49c0,-0.13 0.09,-0.28 0.2,-0.35l0.17 -0.09c0.04,-0.03 0.1,-0.04 0.15,-0.05l0.1 0c0.06,0.01 0.11,0.02 0.16,0.05l2.54 1.47c0.11,0.06 0.2,0.22 0.2,0.35l0 2.79c0,0.13 -0.09,0.29 -0.2,0.36l-0.17 0.09c-0.11,0.07 -0.29,0.07 -0.41,0l-0.81 -0.47 -0.29 0.5c-0.02,0.04 -0.07,0.03 -0.08,0l-0.31 -0.89 -1.05 -0.61c-0.11,-0.06 -0.2,-0.22 -0.2,-0.35l0 -2.8z"/>
  <path class="fil3" d="M3.13 5.12l0 0 0 0zm0 0c0,0 0.01,0 0.01,0 0,0 -0.01,0 -0.01,0zm0.01 0c0,0 0.01,0 0.01,-0.01l0.17 -0.09c0.11,-0.07 0.2,-0.23 0.2,-0.36l0 0c0,0.13 -0.09,0.29 -0.2,0.36l-0.17 0.09c0,0.01 -0.01,0.01 -0.01,0.01z"/>
  <path class="fil1" d="M2.95 5.16c0.06,0 0.13,-0.01 0.18,-0.04l0 0c0,0 0,0 0,0 0,0 0.01,0 0.01,0 0,0 0,0 0,0 0,0 0.01,0 0.01,-0.01l0.17 -0.09c0.11,-0.07 0.2,-0.23 0.2,-0.36l0 -2.79c0,-0.07 -0.02,-0.14 -0.06,-0.2l0 0c0,0 0,0 0,0l-0.28 0.16 -0.29 0.17c0.04,0.06 0.06,0.13 0.06,0.2l0 2.8c0,0.09 -0.05,0.14 -0.11,0.14 -0.02,0 -0.04,0 -0.06,-0.01 0.05,0.02 0.11,0.03 0.17,0.03z"/>
  <path class="fil4" d="M1.27 0.33l-0.49 -0.28c-0.01,-0.01 -0.02,-0.01 -0.02,-0.01 0,0 0.01,0 0.02,0.01l0.49 0.28zm-1.21 -0.04c0.03,-0.05 0.07,-0.09 0.11,-0.13 -0.04,0.04 -0.08,0.08 -0.11,0.13z"/>
  <path class="fil5" d="M2.89 2l0.29 -0.17 0.28 -0.16c-0.04,-0.07 -0.09,-0.12 -0.14,-0.15l-2.05 -1.19 -0.49 -0.28c-0.01,-0.01 -0.02,-0.01 -0.02,-0.01 -0.04,-0.02 -0.09,-0.04 -0.14,-0.04l-0.09 0c-0.06,0.01 -0.12,0.02 -0.16,0.05l-0.17 0.09c-0.01,0.01 -0.02,0.02 -0.03,0.02 -0.04,0.04 -0.08,0.08 -0.11,0.13 -0.02,0.04 -0.04,0.1 -0.05,0.15 0.01,-0.06 0.05,-0.09 0.1,-0.09 0.03,0 0.06,0.01 0.09,0.03l2.54 1.47c0.06,0.03 0.11,0.08 0.15,0.15z"/>
  <path class="fil6" d="M3.18 1.83l0.28 -0.16c0,0 0,0 0,0l-0.28 0.16z"/>
  <path class="fil0" d="M5.16 7.81l0.18 -0.33 -0.14 -0.42 0 -0.25 0.44 0.25 0 0.26 -0.19 0.32c0,0.01 -0.01,0.01 -0.01,0.02l0 0 -0.28 0.15z"/>
  <path class="fil7" d="M5.17 7.81l0.27 -0.15 0 0 0 0c0,-0.01 0.01,-0.01 0.01,-0.02l0.05 -0.08 -0.14 -0.08 -0.19 0.32c0,0.01 0,0.01 0,0.01z"/>
  <path class="fil8" d="M4.11 4.78c0,-0.09 0.06,-0.19 0.13,-0.23l0.11 -0.06c0.03,-0.02 0.06,-0.03 0.1,-0.03l0.06 0c0.04,0 0.08,0.01 0.1,0.03l1.66 0.95c0.07,0.05 0.13,0.15 0.13,0.23l0 1.82c0,0.09 -0.06,0.19 -0.13,0.23l-0.11 0.06c-0.07,0.05 -0.19,0.05 -0.26,0l-0.54 -0.3 -0.19 0.32c-0.01,0.03 -0.04,0.02 -0.05,0l-0.2 -0.58 -0.68 -0.39c-0.07,-0.05 -0.13,-0.15 -0.13,-0.23l0 -1.82z"/>
  <path class="fil3" d="M6.15 7.79l0 0 0 0zm0 0c0,0 0,0 0,0 0,0 0,0 0,0zm0 0c0,0 0.01,0 0.01,-0.01l0.11 -0.06c0.07,-0.04 0.13,-0.14 0.13,-0.23l0 0c0,0.09 -0.06,0.19 -0.13,0.23l-0.11 0.06c0,0.01 -0.01,0.01 -0.01,0.01z"/>
  <path class="fil9" d="M6.03 7.81c0.04,0 0.08,0 0.12,-0.02l0 0c0,0 0,0 0,0 0,0 0,0 0,0 0,0 0,0 0,0 0,0 0.01,0 0.01,-0.01l0.11 -0.06c0.07,-0.04 0.13,-0.14 0.13,-0.23l0 -1.82c0,-0.04 -0.01,-0.09 -0.04,-0.13l0 0c0,0 0,0 0,0l-0.18 0.11 -0.19 0.11c0.02,0.04 0.04,0.09 0.04,0.13l0 1.82c0,0.06 -0.03,0.09 -0.08,0.09 -0.01,0 -0.02,0 -0.03,-0.01 0.03,0.02 0.07,0.02 0.11,0.02z"/>
  <path class="fil4" d="M4.93 4.67l-0.31 -0.18c-0.01,-0.01 -0.01,-0.01 -0.02,-0.01 0.01,0 0.01,0 0.01,0.01l0.32 0.18zm-0.78 -0.03c0.02,-0.03 0.04,-0.06 0.07,-0.08 -0.03,0.02 -0.05,0.05 -0.07,0.08z"/>
  <path class="fil7" d="M5.99 5.76l0.19 -0.11 0.18 -0.11c-0.02,-0.04 -0.06,-0.08 -0.09,-0.1l-1.34 -0.77 -0.32 -0.18c0,-0.01 0,-0.01 -0.01,-0.01 -0.02,-0.01 -0.06,-0.02 -0.09,-0.02l-0.06 0c-0.03,0 -0.07,0.01 -0.1,0.03l-0.11 0.06c-0.01,0 -0.01,0.01 -0.02,0.01 -0.03,0.02 -0.05,0.05 -0.07,0.08 -0.02,0.03 -0.03,0.07 -0.04,0.1 0.01,-0.04 0.04,-0.06 0.07,-0.06 0.02,0 0.04,0.01 0.06,0.02l1.66 0.96c0.03,0.02 0.07,0.06 0.09,0.1z"/>
  <path class="fil6" d="M6.18 5.65l0.18 -0.11c0,0 0,0 0,0l-0.18 0.11z"/>
  <path id="LogoHorizMono" class="fil10" d="M4.76 5.2c-0.09,0.09 -0.18,0.19 -0.27,0.28 -0.09,0.09 -0.18,0.19 -0.26,0.28 0.19,0.11 0.38,0.23 0.58,0.34 0.2,0.12 0.4,0.24 0.6,0.36 -0.02,-0.16 -0.04,-0.32 -0.06,-0.48 -0.02,-0.16 -0.04,-0.32 -0.06,-0.48 -0.09,-0.05 -0.18,-0.1 -0.27,-0.15 -0.09,-0.05 -0.17,-0.1 -0.26,-0.15zm0.74 2.06c0.08,0.05 0.15,0.1 0.23,0.14 -0.02,-0.03 -0.04,-0.07 -0.05,-0.11 -0.01,-0.02 -0.01,-0.05 -0.02,-0.08 0,-0.05 -0.01,-0.09 -0.02,-0.11 -0.02,-0.01 -0.03,-0.03 -0.04,-0.04 0,0 -0.01,-0.01 -0.02,-0.01 -0.01,0.01 -0.02,0.02 -0.02,0.03 -0.01,0.01 -0.02,0.03 -0.03,0.03 -0.01,0.01 -0.03,0.01 -0.04,0.01 -0.02,0 -0.04,0.01 -0.05,0.02 0,0.02 0,0.03 0.01,0.05 0.01,0.02 0.03,0.06 0.05,0.07zm0.22 -0.62c-0.04,-0.02 -0.07,-0.04 -0.11,-0.06 0.01,0.02 0.01,0.04 0.01,0.06 0.03,0.03 0.04,0.05 0.04,0.09 0,0.03 0.01,0.05 0.03,0.07 0.02,0.01 0.03,0.02 0.05,0.03 -0.01,-0.06 -0.02,-0.13 -0.02,-0.19zm-0.09 0.03c0.01,0.15 0.03,0.29 0.05,0.44 -0.01,-0.01 -0.02,-0.02 -0.03,-0.02 0.02,0.03 0.03,0.08 0.03,0.12 0.01,0.03 0.01,0.06 0.02,0.08 0.01,0.04 0.04,0.09 0.06,0.13 0.02,0.01 0.04,0.02 0.06,0.04 -0.01,-0.08 -0.02,-0.15 -0.03,-0.23 0,0 0,0 0,0 -0.01,-0.02 -0.03,-0.04 -0.04,-0.06 -0.01,-0.02 -0.02,-0.06 -0.03,-0.1 -0.01,-0.05 -0.02,-0.11 -0.06,-0.13 0,-0.01 0,-0.02 0,-0.03 0.01,0.01 0.02,0.02 0.03,0.03 0.03,0.03 0.04,0.08 0.05,0.13 0.01,0.04 0.02,0.07 0.03,0.09 0,0.01 0.01,0.02 0.02,0.03 -0.02,-0.11 -0.03,-0.22 -0.05,-0.33 -0.02,-0.01 -0.04,-0.02 -0.05,-0.03 -0.04,-0.03 -0.04,-0.07 -0.05,-0.1 0,-0.02 -0.01,-0.04 -0.01,-0.06zm-0.07 0.36c-0.08,-0.04 -0.16,-0.09 -0.23,-0.13 -0.02,0.01 -0.02,0.02 -0.03,0.04 -0.01,0.03 -0.01,0.07 -0.01,0.09 0,0.04 0.01,0.08 0.02,0.12 0.05,0.03 0.1,0.06 0.14,0.08 0,-0.01 -0.01,-0.02 -0.02,-0.03 -0.01,-0.03 -0.01,-0.05 -0.01,-0.07 0.01,-0.03 0.04,-0.03 0.06,-0.03 0.02,0 0.03,0 0.04,-0.01 0.01,-0.01 0.01,-0.02 0.02,-0.03 0,-0.01 0.01,-0.02 0.02,-0.03zm-0.25 -0.15c-0.13,-0.07 -0.25,-0.15 -0.37,-0.22 0,0.02 0,0.05 0.01,0.07 0.01,0.02 0.03,0.03 0.04,0.03 0.02,0.01 0.03,0.02 0.05,0.03 0.03,0.03 0.05,0.09 0.06,0.14 0.01,0.03 0.02,0.07 0.01,0.1 0.06,0.03 0.12,0.07 0.18,0.11 -0.01,-0.04 -0.02,-0.08 -0.02,-0.11 0,-0.03 0,-0.07 0.01,-0.1 0.01,-0.02 0.01,-0.04 0.03,-0.05zm-0.39 -0.23c-0.04,-0.02 -0.07,-0.04 -0.11,-0.07 -0.06,0.05 -0.13,0.1 -0.19,0.15 0.07,0.04 0.15,0.09 0.23,0.14 0.08,0.05 0.16,0.1 0.25,0.15 0,-0.03 -0.01,-0.06 -0.01,-0.09 -0.01,-0.04 -0.03,-0.09 -0.06,-0.12 -0.01,-0.01 -0.03,-0.02 -0.04,-0.02 -0.02,-0.01 -0.03,-0.02 -0.05,-0.04 -0.02,-0.04 -0.02,-0.07 -0.02,-0.1zm-0.08 -0.29c0.06,0.04 0.13,0.08 0.2,0.12 0.07,0.04 0.13,0.08 0.2,0.12 0,-0.01 0.01,-0.03 0.01,-0.04 -0.13,-0.08 -0.26,-0.16 -0.39,-0.24 -0.01,0.02 -0.02,0.03 -0.02,0.04zm0.66 -0.33c-0.03,-0.02 -0.06,-0.03 -0.09,-0.05 0,0.03 0,0.05 0,0.08 0.03,0.02 0.07,0.03 0.1,0.05 -0.01,-0.02 -0.01,-0.05 -0.01,-0.08zm-0.08 0.04c0,0.01 0,0.02 0,0.03 0.03,0.02 0.06,0.04 0.09,0.06 0,-0.01 0,-0.02 0,-0.03 -0.03,-0.02 -0.06,-0.04 -0.09,-0.06zm0 0.05c0.01,0.08 0.02,0.16 0.03,0.24 0.03,0.02 0.06,0.04 0.09,0.06 -0.01,-0.08 -0.02,-0.17 -0.03,-0.25 -0.01,0 -0.01,-0.01 -0.02,-0.01 0,0.04 0.01,0.09 0.01,0.14 0,0 -0.01,0 -0.01,0 0,-0.05 -0.01,-0.1 -0.01,-0.15 -0.02,-0.01 -0.04,-0.02 -0.06,-0.03zm0.03 0.25c0,0.02 0,0.04 0,0.06 0.04,0.02 0.07,0.04 0.1,0.06 0,-0.02 0,-0.04 0,-0.06 -0.04,-0.02 -0.07,-0.04 -0.1,-0.06zm0.01 0.08c0,0.04 0.01,0.08 0.01,0.12 -0.03,-0.02 -0.06,-0.04 -0.1,-0.06 0,0.1 -0.01,0.19 -0.01,0.29 -0.01,0 -0.01,0 -0.01,0 0.09,0.05 0.17,0.1 0.26,0.15 -0.01,-0.07 -0.02,-0.14 -0.03,-0.22 0,-0.07 -0.01,-0.15 -0.02,-0.22 -0.04,-0.02 -0.07,-0.04 -0.1,-0.06zm-0.11 0.05c-0.02,-0.01 -0.04,-0.03 -0.07,-0.04 -0.01,0.09 -0.02,0.18 -0.04,0.27 0.03,0.02 0.07,0.04 0.1,0.06 0,-0.1 0.01,-0.19 0.01,-0.29zm-0.09 -0.05c-0.06,-0.04 -0.12,-0.07 -0.18,-0.11 0,0.03 -0.01,0.06 -0.02,0.09 0.07,0.04 0.13,0.08 0.19,0.11 0,-0.03 0.01,-0.06 0.01,-0.09zm-0.19 -0.11c-0.05,-0.04 -0.11,-0.07 -0.16,-0.1 -0.02,0.02 -0.03,0.05 -0.05,0.07 0.07,0.04 0.13,0.08 0.19,0.12 0.01,-0.03 0.02,-0.06 0.02,-0.09zm-0.18 -0.11c-0.03,-0.02 -0.06,-0.04 -0.08,-0.05 -0.06,0.06 -0.11,0.13 -0.16,0.2 0.04,0.02 0.07,0.04 0.11,0.06 0.04,-0.07 0.09,-0.14 0.13,-0.21zm-0.11 -0.07c-0.05,-0.03 -0.11,-0.07 -0.17,-0.1 -0.07,0.06 -0.13,0.12 -0.2,0.18 0.08,0.04 0.15,0.08 0.22,0.13 0.02,-0.03 0.04,-0.06 0.06,-0.08 -0.07,-0.04 -0.13,-0.08 -0.2,-0.12 0,-0.01 0.01,-0.01 0.01,-0.01 0.07,0.04 0.13,0.08 0.2,0.12 0.02,-0.03 0.04,-0.05 0.06,-0.08 -0.06,-0.04 -0.13,-0.07 -0.19,-0.11 0.01,0 0.01,0 0.01,-0.01 0.06,0.04 0.12,0.08 0.18,0.11 0.01,-0.01 0.02,-0.02 0.02,-0.03zm0 0.3c0.08,0.04 0.15,0.09 0.23,0.13 0.07,0.05 0.15,0.09 0.22,0.14 0,-0.01 0,-0.01 -0.01,-0.01 0.01,-0.03 0.01,-0.07 0.02,-0.11 -0.07,-0.04 -0.14,-0.08 -0.21,-0.12 -0.06,-0.04 -0.13,-0.08 -0.2,-0.12 -0.02,0.03 -0.03,0.06 -0.05,0.09zm0.16 -0.89c-0.06,-0.04 -0.15,-0.02 -0.09,0.08 0.02,0.04 0.05,0.07 0.08,0.09 0.03,0.01 0.06,0.02 0.09,0.01 0.03,-0.02 0.02,-0.07 -0.01,-0.12 -0.02,-0.02 -0.04,-0.05 -0.07,-0.06zm0 0.05c-0.02,-0.01 -0.03,-0.01 -0.04,0 0,0.02 0.01,0.05 0.03,0.06 0.02,0.01 0.04,0 0.04,-0.02 0,-0.02 -0.02,-0.04 -0.03,-0.04zm-0.09 -0.11c0.06,-0.01 0.14,0.04 0.19,0.11 0.02,0.03 0.04,0.08 0.04,0.13 -0.01,0.03 -0.02,0.05 -0.05,0.06 -0.06,0.03 -0.16,-0.03 -0.21,-0.13 -0.02,-0.03 -0.03,-0.07 -0.03,-0.1 0.01,-0.04 0.04,-0.06 0.06,-0.07z"/>
  <path class="fil11" d="M2 2.35c-0.17,-0.1 -0.35,-0.2 -0.52,-0.3 -0.18,-0.1 -0.36,-0.21 -0.53,-0.31 -0.04,-0.02 -0.07,-0.07 -0.07,-0.12 0,-0.04 0.03,-0.06 0.07,-0.04 0.17,0.1 0.35,0.2 0.53,0.3 0.17,0.11 0.35,0.21 0.52,0.31 0.04,0.02 0.07,0.07 0.07,0.12 0,0.04 -0.03,0.06 -0.07,0.04zm0.01 0.41c-0.18,-0.1 -0.36,-0.2 -0.53,-0.3 -0.18,-0.11 -0.36,-0.21 -0.53,-0.31 -0.04,-0.02 -0.07,-0.07 -0.07,-0.12 0,-0.04 0.03,-0.06 0.07,-0.04 0.17,0.1 0.35,0.2 0.53,0.3 0.17,0.1 0.35,0.2 0.53,0.31 0.03,0.02 0.06,0.07 0.06,0.11 0,0.05 -0.03,0.07 -0.06,0.05zm0 0.41c-0.18,-0.1 -0.35,-0.2 -0.53,-0.3 -0.18,-0.11 -0.36,-0.21 -0.53,-0.31 -0.04,-0.02 -0.07,-0.07 -0.07,-0.12 0,-0.04 0.03,-0.06 0.07,-0.04 0.17,0.1 0.35,0.2 0.53,0.3 0.18,0.1 0.35,0.2 0.53,0.3 0.03,0.03 0.06,0.08 0.06,0.12 0,0.05 -0.03,0.07 -0.06,0.05zm0 0.41c-0.18,-0.1 -0.35,-0.2 -0.53,-0.3 -0.18,-0.1 -0.35,-0.2 -0.53,-0.31 -0.04,-0.02 -0.07,-0.07 -0.07,-0.12 0,-0.04 0.03,-0.06 0.07,-0.04 0.17,0.1 0.35,0.2 0.53,0.3 0.18,0.1 0.35,0.21 0.53,0.31 0.04,0.02 0.06,0.07 0.07,0.12 0,0.04 -0.03,0.06 -0.07,0.04zm0 0.41c-0.17,-0.1 -0.35,-0.2 -0.53,-0.3 -0.18,-0.1 -0.35,-0.2 -0.53,-0.3 -0.04,-0.02 -0.07,-0.07 -0.07,-0.12 0,-0.05 0.03,-0.07 0.07,-0.05 0.18,0.11 0.35,0.21 0.53,0.31 0.18,0.1 0.36,0.2 0.53,0.3 0.04,0.02 0.07,0.07 0.07,0.12 0,0.04 -0.03,0.06 -0.07,0.04zm0.14 -2.04c-0.22,-0.13 -0.45,-0.26 -0.67,-0.39 -0.23,-0.13 -0.46,-0.27 -0.69,-0.4 -0.05,-0.03 -0.1,-0.02 -0.12,0.03 -0.01,0.01 -0.01,0.03 -0.01,0.06 0,0.35 0,0.71 0,1.06 0,0.36 0,0.72 0,1.08 0,0.09 0.06,0.2 0.13,0.24 0.23,0.13 0.46,0.27 0.69,0.4 0.23,0.12 0.46,0.25 0.69,0.38 0.02,0.01 0.04,0.02 0.05,0.02 0.05,0 0.08,-0.04 0.08,-0.11 0,-0.36 -0.01,-0.72 -0.01,-1.07 0,-0.36 0,-0.71 -0.01,-1.06 0,-0.09 -0.06,-0.2 -0.13,-0.24z"/>
 </g>
</svg>
