<?xml version="1.0" encoding="UTF-8"?>
<!DOCTYPE svg PUBLIC "-//W3C//DTD SVG 1.1//EN" "http://www.w3.org/Graphics/SVG/1.1/DTD/svg11.dtd">
<!-- Creator: CorelDRAW 2020 (64 Bit) -->
<svg xmlns="http://www.w3.org/2000/svg" xml:space="preserve" width="8.4409mm" height="10.3108mm" version="1.1" style="shape-rendering:geometricPrecision; text-rendering:geometricPrecision; image-rendering:optimizeQuality; fill-rule:evenodd; clip-rule:evenodd"
viewBox="0 0 23.23 28.38"
 xmlns:xlink="http://www.w3.org/1999/xlink"
 xmlns:xodm="http://www.corel.com/coreldraw/odm/2003">
 <defs>
  <style type="text/css">
   <![CDATA[
    .fil10 {fill:#FEFEFE}
    .fil4 {fill:#FEFEFE;fill-rule:nonzero}
    .fil3 {fill:#C2C4C4;fill-rule:nonzero}
    .fil6 {fill:#6BC8C2;fill-rule:nonzero}
    .fil0 {fill:#00B3A9;fill-rule:nonzero}
    .fil8 {fill:black;fill-rule:nonzero}
    .fil2 {fill:#074669;fill-rule:nonzero}
    .fil5 {fill:#0A6092;fill-rule:nonzero}
    .fil1 {fill:#0B9AC2;fill-rule:nonzero}
    .fil7 {fill:#1A1A1A;fill-rule:nonzero}
    .fil9 {fill:#333333;fill-rule:nonzero}
    .fil11 {fill:white;fill-rule:nonzero}
   ]]>
  </style>
 </defs>
 <g id="Camada_x0020_1">
  <metadata id="CorelCorpID_0Corel-Layer"/>
  <g id="_1865874572768">
   <path class="fil0" d="M5.88 18.73l1 -1.88 -0.81 -2.32 0 -1.42 2.46 1.42 0 1.42 -1.06 1.83c-0.02,0.03 -0.04,0.05 -0.07,0.06l0 0 -1.53 0.88z"/>
   <path class="fil1" d="M5.89 18.72l1.52 -0.88 -0 -0 0 0c0.03,-0.01 0.05,-0.03 0.07,-0.06l0.28 -0.49 -0.77 -0.45 -1.06 1.83c-0.01,0.02 -0.03,0.04 -0.04,0.05z"/>
   <path class="fil2" d="M-0 1.79c0,-0.47 0.33,-1.04 0.74,-1.28l0.6 -0.35c0.16,-0.09 0.36,-0.15 0.56,-0.17l0.35 0c0.21,0.02 0.4,0.08 0.56,0.17l9.22 5.34c0.41,0.24 0.74,0.81 0.74,1.28l0 10.15c0,0.47 -0.33,1.04 -0.74,1.28l-0.6 0.35c-0.41,0.24 -1.07,0.24 -1.48,0l-2.97 -1.71 -1.06 1.83c-0.07,0.12 -0.24,0.1 -0.29,-0.03l-1.12 -3.22 -3.8 -2.2c-0.41,-0.24 -0.74,-0.81 -0.74,-1.28l0 -10.15z"/>
   <path class="fil3" d="M11.37 18.59l0 0 0 0zm0 -0c0,-0 0,-0 0,-0 -0,0 -0,0 -0,0zm0 -0c0.02,-0.01 0.04,-0.02 0.06,-0.03l0.6 -0.35c0.41,-0.24 0.74,-0.81 0.74,-1.28l0 0c0,0.47 -0.33,1.04 -0.74,1.28l-0.6 0.35c-0.02,0.01 -0.04,0.02 -0.06,0.03z"/>
   <path class="fil1" d="M10.71 18.73c0.24,0 0.47,-0.05 0.66,-0.14l0 0c0,-0 0,-0 0,-0 0,-0 0,-0 0,-0 0,-0 0,-0 0,-0 0.02,-0.01 0.04,-0.02 0.06,-0.03l0.6 -0.35c0.41,-0.24 0.74,-0.81 0.74,-1.28l0 -10.15c0,-0.24 -0.08,-0.5 -0.22,-0.73l-0 0c0,0 0,0 0,0l-1.03 0.59 -1.05 0.6c0.13,0.23 0.22,0.49 0.22,0.73l0 10.15c0,0.33 -0.17,0.53 -0.41,0.53 -0.06,0 -0.13,-0.01 -0.2,-0.04 0.18,0.08 0.4,0.12 0.62,0.12z"/>
   <path class="fil4" d="M4.59 1.19l-1.77 -1.03c-0.02,-0.01 -0.04,-0.02 -0.06,-0.03 0.02,0.01 0.04,0.02 0.06,0.03l1.77 1.03zm-4.36 -0.15c0.1,-0.17 0.24,-0.33 0.38,-0.44 -0.15,0.11 -0.28,0.27 -0.38,0.44z"/>
   <path class="fil5" d="M10.48 7.26l1.05 -0.6 1.03 -0.6c-0.13,-0.23 -0.32,-0.43 -0.52,-0.55l-7.45 -4.31 -1.77 -1.03c-0.02,-0.01 -0.04,-0.02 -0.06,-0.03 -0.15,-0.07 -0.33,-0.12 -0.51,-0.13l-0.32 0c-0.21,0.02 -0.41,0.08 -0.58,0.17l-0.6 0.35c-0.04,0.02 -0.08,0.05 -0.12,0.08 -0.15,0.11 -0.28,0.27 -0.38,0.44 -0.1,0.17 -0.18,0.36 -0.21,0.54 0.06,-0.2 0.2,-0.32 0.38,-0.32 0.1,0 0.21,0.03 0.33,0.1l9.23 5.34c0.2,0.12 0.39,0.32 0.52,0.55z"/>
   <path class="fil6" d="M11.53 6.65l1.03 -0.59c0,0 0,0 -0,-0l-1.03 0.6z"/>
   <path class="fil0" d="M18.75 28.36l0.65 -1.22 -0.52 -1.51 0 -0.93 1.6 0.93 0 0.93 -0.69 1.19c-0.01,0.02 -0.03,0.03 -0.05,0.04l0 0 -0.99 0.57z"/>
   <path class="fil7" d="M18.75 28.36l0.99 -0.57 -0 -0 0 0c0.02,-0.01 0.04,-0.02 0.05,-0.04l0.18 -0.32 -0.5 -0.29 -0.69 1.19c-0.01,0.01 -0.02,0.02 -0.03,0.03z"/>
   <path class="fil8" d="M14.92 17.34c0,-0.31 0.22,-0.68 0.48,-0.83l0.39 -0.23c0.1,-0.06 0.23,-0.1 0.37,-0.11l0.23 0c0.13,0.01 0.26,0.05 0.37,0.11l6 3.47c0.27,0.15 0.48,0.53 0.48,0.83l0 6.6c0,0.31 -0.21,0.68 -0.48,0.83l-0.39 0.23c-0.27,0.15 -0.7,0.15 -0.96,0l-1.93 -1.12 -0.69 1.19c-0.04,0.08 -0.16,0.07 -0.19,-0.02l-0.73 -2.1 -2.47 -1.43c-0.27,-0.15 -0.48,-0.53 -0.48,-0.83l0 -6.6z"/>
   <path class="fil3" d="M22.32 28.28l0 0 0 0zm0 -0c0,-0 0,-0 0,-0 -0,0 -0,0 -0,0zm0 -0c0.01,-0.01 0.03,-0.01 0.04,-0.02l0.39 -0.23c0.27,-0.15 0.48,-0.53 0.48,-0.83l0 0c0,0.31 -0.21,0.68 -0.48,0.83l-0.39 0.23c-0.01,0.01 -0.03,0.01 -0.04,0.02z"/>
   <path class="fil9" d="M21.88 28.37c0.15,0 0.31,-0.03 0.43,-0.09l0 0c0,-0 0,-0 0,-0 0,-0 0,-0 0,-0 0,-0 0,-0 0,-0 0.01,-0.01 0.03,-0.01 0.04,-0.02l0.39 -0.23c0.27,-0.15 0.48,-0.53 0.48,-0.83l0 -6.6c0,-0.15 -0.05,-0.32 -0.14,-0.47l-0 0c0,0 0,0 0,0l-0.67 0.39 -0.68 0.39c0.09,0.15 0.14,0.32 0.14,0.47l0 6.6c0,0.22 -0.11,0.34 -0.27,0.34 -0.04,0 -0.09,-0.01 -0.13,-0.03 0.12,0.05 0.26,0.08 0.4,0.08z"/>
   <path class="fil4" d="M17.9 16.95l-1.15 -0.67c-0.01,-0.01 -0.03,-0.02 -0.04,-0.02 0.01,0.01 0.03,0.01 0.04,0.02l1.15 0.67zm-2.84 -0.1c0.07,-0.11 0.15,-0.21 0.25,-0.29 -0.1,0.07 -0.18,0.18 -0.25,0.29z"/>
   <path class="fil7" d="M21.74 20.9l0.68 -0.39 0.67 -0.39c-0.09,-0.15 -0.21,-0.28 -0.34,-0.36l-4.85 -2.8 -1.15 -0.67c-0.01,-0.01 -0.03,-0.02 -0.04,-0.02 -0.1,-0.05 -0.21,-0.08 -0.33,-0.09l-0.21 0c-0.14,0.01 -0.27,0.05 -0.38,0.11l-0.39 0.23c-0.03,0.02 -0.05,0.03 -0.08,0.05 -0.1,0.07 -0.18,0.18 -0.25,0.29 -0.07,0.11 -0.11,0.23 -0.13,0.35 0.04,-0.13 0.13,-0.21 0.25,-0.21 0.06,0 0.14,0.02 0.21,0.07l6 3.47c0.13,0.08 0.25,0.21 0.34,0.36z"/>
   <path class="fil6" d="M22.42 20.5l0.67 -0.39c0,0 0,0 0,-0l-0.67 0.39z"/>
   <path id="LogoHorizMono" class="fil10" d="M17.27 18.88c-0.32,0.34 -0.65,0.68 -0.97,1.02 -0.32,0.34 -0.64,0.67 -0.96,1.01 0.7,0.41 1.4,0.83 2.11,1.25 0.72,0.42 1.44,0.85 2.17,1.28 -0.07,-0.58 -0.15,-1.16 -0.22,-1.73 -0.07,-0.58 -0.15,-1.15 -0.22,-1.73 -0.32,-0.18 -0.65,-0.37 -0.97,-0.55 -0.32,-0.18 -0.64,-0.36 -0.95,-0.54zm2.69 7.48c0.28,0.17 0.56,0.34 0.85,0.51 -0.06,-0.13 -0.14,-0.26 -0.18,-0.39 -0.03,-0.1 -0.05,-0.21 -0.06,-0.32 -0.02,-0.15 -0.05,-0.3 -0.1,-0.37 -0.05,-0.07 -0.08,-0.11 -0.12,-0.14 -0.03,-0.03 -0.07,-0.04 -0.1,-0.04 -0.04,0 -0.05,0.04 -0.08,0.09 -0.02,0.05 -0.05,0.1 -0.09,0.13 -0.04,0.03 -0.09,0.03 -0.15,0.03 -0.08,0 -0.16,0.01 -0.17,0.07 -0.02,0.05 -0,0.11 0.03,0.17 0.04,0.08 0.12,0.21 0.18,0.26zm0.79 -2.26c-0.12,-0.07 -0.25,-0.15 -0.37,-0.22 0.01,0.07 0.02,0.14 0.03,0.22 0.1,0.1 0.13,0.2 0.14,0.34 0.01,0.1 0.02,0.19 0.12,0.26 0.05,0.03 0.11,0.07 0.18,0.1 -0.03,-0.23 -0.06,-0.47 -0.09,-0.7zm-0.33 0.12c0.07,0.53 0.13,1.05 0.2,1.58 -0.04,-0.02 -0.08,-0.05 -0.12,-0.07 0.08,0.12 0.1,0.3 0.12,0.44 0.02,0.1 0.03,0.21 0.06,0.3 0.05,0.15 0.15,0.31 0.21,0.46 0.08,0.05 0.15,0.09 0.23,0.14 -0.04,-0.28 -0.07,-0.55 -0.11,-0.83 0,0 0,0 0,0 -0.06,-0.08 -0.11,-0.15 -0.14,-0.2 -0.05,-0.09 -0.08,-0.23 -0.11,-0.37 -0.04,-0.19 -0.07,-0.39 -0.23,-0.49 -0,-0.03 -0.01,-0.06 -0.01,-0.1 0.05,0.03 0.1,0.06 0.14,0.11 0.09,0.11 0.13,0.3 0.17,0.48 0.03,0.13 0.05,0.25 0.1,0.32 0.02,0.03 0.04,0.06 0.07,0.11 -0.05,-0.4 -0.1,-0.81 -0.15,-1.21 -0.07,-0.03 -0.15,-0.08 -0.21,-0.12 -0.14,-0.1 -0.15,-0.23 -0.17,-0.35 -0.01,-0.06 -0.02,-0.14 -0.06,-0.2zm-0.25 1.31c-0.28,-0.17 -0.56,-0.33 -0.83,-0.5 -0.05,0.04 -0.08,0.1 -0.1,0.18 -0.03,0.1 -0.04,0.22 -0.04,0.32 0.01,0.14 0.06,0.28 0.08,0.42 0.17,0.1 0.35,0.21 0.52,0.32 -0.03,-0.04 -0.06,-0.09 -0.08,-0.13 -0.04,-0.09 -0.06,-0.17 -0.03,-0.25 0.03,-0.1 0.12,-0.1 0.21,-0.11 0.05,-0 0.1,-0.01 0.13,-0.03 0.03,-0.02 0.05,-0.07 0.07,-0.11 0.02,-0.04 0.04,-0.08 0.07,-0.1zm-0.91 -0.55c-0.45,-0.27 -0.9,-0.54 -1.34,-0.81 0.01,0.08 0,0.19 0.05,0.26 0.05,0.07 0.1,0.1 0.16,0.12 0.05,0.02 0.11,0.04 0.18,0.11 0.11,0.11 0.19,0.33 0.23,0.48 0.03,0.13 0.05,0.26 0.03,0.37 0.21,0.13 0.43,0.26 0.64,0.39 -0.03,-0.14 -0.07,-0.26 -0.07,-0.39 -0.01,-0.11 0.01,-0.24 0.04,-0.35 0.02,-0.07 0.05,-0.13 0.09,-0.17zm-1.41 -0.85c-0.13,-0.08 -0.26,-0.15 -0.39,-0.23 -0.24,0.17 -0.47,0.34 -0.71,0.51 0.29,0.17 0.58,0.35 0.87,0.53 0.29,0.18 0.58,0.35 0.88,0.53 0.01,-0.09 -0,-0.21 -0.03,-0.32 -0.03,-0.13 -0.1,-0.33 -0.19,-0.42 -0.06,-0.05 -0.1,-0.07 -0.15,-0.09 -0.07,-0.03 -0.13,-0.05 -0.2,-0.16 -0.08,-0.12 -0.05,-0.23 -0.07,-0.35zm-0.29 -1.05c0.24,0.14 0.49,0.29 0.73,0.44 0.24,0.15 0.49,0.29 0.74,0.44 0.01,-0.05 0.01,-0.11 0.02,-0.16 -0.47,-0.28 -0.95,-0.56 -1.41,-0.84 -0.03,0.04 -0.05,0.09 -0.08,0.13zm2.39 -1.19c-0.11,-0.06 -0.22,-0.13 -0.33,-0.19 0.01,0.1 0.02,0.19 0.03,0.29 0.11,0.06 0.22,0.13 0.33,0.19 -0.01,-0.1 -0.02,-0.19 -0.04,-0.29zm-0.29 0.15c0,0.03 0.01,0.07 0.01,0.1 0.11,0.07 0.22,0.13 0.34,0.2 -0,-0.03 -0.01,-0.07 -0.01,-0.1 -0.11,-0.06 -0.22,-0.13 -0.33,-0.19zm0.02 0.16c0.03,0.3 0.06,0.59 0.1,0.88 0.12,0.07 0.24,0.14 0.36,0.21 -0.04,-0.3 -0.08,-0.6 -0.11,-0.9 -0.03,-0.02 -0.06,-0.04 -0.09,-0.05 0.01,0.17 0.03,0.35 0.04,0.52 -0.01,-0 -0.02,-0 -0.03,-0.01 -0.01,-0.18 -0.03,-0.36 -0.04,-0.53 -0.07,-0.04 -0.14,-0.08 -0.21,-0.12zm0.1 0.94c0.01,0.07 0.02,0.14 0.02,0.21 0.12,0.07 0.24,0.14 0.36,0.21 -0.01,-0.07 -0.02,-0.14 -0.03,-0.21 -0.12,-0.07 -0.24,-0.14 -0.36,-0.21zm0.03 0.26c0.02,0.15 0.03,0.3 0.05,0.45 -0.12,-0.07 -0.24,-0.14 -0.35,-0.21 -0.02,0.35 -0.04,0.69 -0.06,1.04 -0.01,-0.01 -0.02,-0.01 -0.03,-0.02 0.32,0.19 0.64,0.39 0.97,0.58 -0.03,-0.27 -0.07,-0.54 -0.1,-0.81 -0.03,-0.27 -0.07,-0.54 -0.1,-0.81 -0.12,-0.07 -0.24,-0.14 -0.36,-0.21zm-0.37 0.2c-0.09,-0.05 -0.18,-0.11 -0.27,-0.16 -0.05,0.33 -0.09,0.66 -0.14,0.99 0.12,0.07 0.23,0.14 0.35,0.21 0.02,-0.35 0.04,-0.7 0.06,-1.04zm-0.33 -0.2c-0.22,-0.13 -0.44,-0.26 -0.65,-0.39 -0.02,0.11 -0.05,0.22 -0.07,0.33 0.22,0.13 0.45,0.27 0.67,0.4 0.02,-0.12 0.03,-0.23 0.05,-0.35zm-0.68 -0.41c-0.2,-0.12 -0.4,-0.24 -0.6,-0.36 -0.05,0.09 -0.11,0.18 -0.16,0.27 0.23,0.14 0.46,0.27 0.69,0.41 0.02,-0.11 0.05,-0.22 0.07,-0.33zm-0.67 -0.4c-0.1,-0.06 -0.2,-0.12 -0.3,-0.18 -0.19,0.25 -0.37,0.49 -0.55,0.74 0.13,0.08 0.26,0.15 0.39,0.23 0.15,-0.26 0.31,-0.53 0.47,-0.79zm-0.38 -0.22c-0.21,-0.13 -0.43,-0.25 -0.64,-0.38 -0.24,0.21 -0.47,0.43 -0.7,0.64 0.26,0.16 0.53,0.32 0.79,0.47 0.07,-0.1 0.14,-0.19 0.22,-0.29 -0.24,-0.15 -0.49,-0.29 -0.73,-0.44 0.01,-0.01 0.02,-0.02 0.03,-0.03 0.24,0.14 0.48,0.29 0.72,0.43 0.07,-0.09 0.14,-0.19 0.21,-0.28 -0.22,-0.13 -0.45,-0.26 -0.67,-0.4 0.01,-0.01 0.02,-0.02 0.03,-0.03 0.22,0.13 0.44,0.26 0.66,0.39 0.02,-0.03 0.05,-0.07 0.07,-0.1zm-0.01 1.06c0.27,0.16 0.54,0.33 0.82,0.49 0.27,0.16 0.55,0.33 0.83,0.49 -0.01,-0.01 -0.02,-0.01 -0.03,-0.02 0.02,-0.13 0.04,-0.26 0.06,-0.39 -0.25,-0.15 -0.5,-0.3 -0.74,-0.44 -0.25,-0.15 -0.49,-0.29 -0.74,-0.44 -0.06,0.1 -0.12,0.21 -0.18,0.31zm0.58 -3.23c-0.22,-0.13 -0.53,-0.05 -0.34,0.3 0.07,0.14 0.19,0.25 0.3,0.32 0.1,0.06 0.23,0.09 0.32,0.05 0.14,-0.06 0.1,-0.25 -0.01,-0.42 -0.07,-0.1 -0.17,-0.19 -0.26,-0.24zm-0 0.18c-0.06,-0.03 -0.12,-0.03 -0.14,0.02 -0.02,0.06 0.04,0.16 0.12,0.2 0.07,0.04 0.14,0.02 0.14,-0.05 -0,-0.07 -0.06,-0.14 -0.12,-0.17zm-0.31 -0.37c0.2,-0.04 0.49,0.13 0.67,0.38 0.09,0.13 0.16,0.31 0.14,0.47 -0.01,0.12 -0.07,0.2 -0.15,0.24 -0.24,0.1 -0.6,-0.11 -0.78,-0.46 -0.06,-0.12 -0.1,-0.25 -0.09,-0.36 0.02,-0.16 0.12,-0.24 0.22,-0.26z"/>
   <path class="fil11" d="M7.27 8.53c-0.64,-0.37 -1.27,-0.73 -1.91,-1.1 -0.64,-0.37 -1.28,-0.74 -1.93,-1.11 -0.13,-0.08 -0.24,-0.27 -0.24,-0.43 0,-0.16 0.11,-0.23 0.24,-0.16 0.64,0.37 1.28,0.74 1.92,1.11 0.64,0.37 1.28,0.74 1.91,1.11 0.13,0.07 0.23,0.27 0.24,0.43 0,0.16 -0.1,0.24 -0.23,0.16zm0.01 1.48c-0.64,-0.37 -1.28,-0.73 -1.92,-1.1 -0.64,-0.37 -1.29,-0.74 -1.93,-1.11 -0.13,-0.08 -0.24,-0.27 -0.24,-0.43 0,-0.17 0.11,-0.24 0.24,-0.16 0.64,0.37 1.29,0.74 1.93,1.11 0.64,0.37 1.28,0.74 1.92,1.1 0.13,0.07 0.23,0.27 0.24,0.43 0,0.16 -0.1,0.24 -0.23,0.16zm0.01 1.49c-0.64,-0.37 -1.28,-0.73 -1.92,-1.1 -0.64,-0.37 -1.29,-0.74 -1.93,-1.11 -0.13,-0.08 -0.24,-0.27 -0.24,-0.44 0,-0.17 0.11,-0.24 0.24,-0.16 0.65,0.37 1.29,0.74 1.93,1.11 0.64,0.37 1.28,0.73 1.92,1.1 0.13,0.07 0.24,0.27 0.24,0.43 0,0.17 -0.1,0.24 -0.23,0.16zm0.01 1.49c-0.64,-0.36 -1.28,-0.73 -1.93,-1.1 -0.64,-0.37 -1.29,-0.73 -1.94,-1.1 -0.13,-0.08 -0.24,-0.27 -0.24,-0.44 0,-0.17 0.11,-0.24 0.24,-0.16 0.65,0.37 1.29,0.74 1.94,1.1 0.64,0.37 1.28,0.73 1.92,1.1 0.13,0.07 0.24,0.27 0.24,0.43 0,0.17 -0.1,0.24 -0.23,0.17zm0.01 1.5c-0.64,-0.36 -1.29,-0.73 -1.93,-1.09 -0.65,-0.37 -1.29,-0.73 -1.94,-1.1 -0.13,-0.08 -0.24,-0.27 -0.24,-0.44 0,-0.17 0.11,-0.24 0.24,-0.16 0.65,0.37 1.3,0.74 1.94,1.1 0.64,0.37 1.29,0.73 1.93,1.09 0.13,0.07 0.24,0.27 0.24,0.43 0,0.17 -0.1,0.24 -0.23,0.17zm0.51 -7.41c-0.82,-0.47 -1.64,-0.95 -2.46,-1.43 -0.82,-0.48 -1.65,-0.96 -2.48,-1.44 -0.19,-0.11 -0.36,-0.06 -0.43,0.1 -0.03,0.06 -0.04,0.13 -0.04,0.22 -0,1.29 -0,2.58 -0,3.87 -0,1.3 -0,2.6 -0,3.91 -0,0.33 0.21,0.73 0.48,0.88 0.84,0.47 1.68,0.95 2.51,1.42 0.83,0.47 1.66,0.94 2.49,1.41 0.07,0.04 0.13,0.06 0.19,0.06 0.16,-0 0.28,-0.15 0.28,-0.39 -0.01,-1.3 -0.02,-2.6 -0.03,-3.89 -0.01,-1.29 -0.02,-2.57 -0.03,-3.85 -0,-0.32 -0.21,-0.71 -0.47,-0.86z"/>
  </g>
 </g>
</svg>
