<?xml version="1.0" encoding="UTF-8"?>
<!DOCTYPE svg PUBLIC "-//W3C//DTD SVG 1.1//EN" "http://www.w3.org/Graphics/SVG/1.1/DTD/svg11.dtd">
<!-- Creator: CorelDRAW 2020 (64 Bit) -->
<svg xmlns="http://www.w3.org/2000/svg" xml:space="preserve" width="32.3393mm" height="38.8057mm" version="1.1" style="shape-rendering:geometricPrecision; text-rendering:geometricPrecision; image-rendering:optimizeQuality; fill-rule:evenodd; clip-rule:evenodd"
viewBox="0 0 52.77 63.33"
 xmlns:xlink="http://www.w3.org/1999/xlink"
 xmlns:xodm="http://www.corel.com/coreldraw/odm/2003">
 <defs>
  <style type="text/css">
   <![CDATA[
    .fil0 {fill:white;fill-rule:nonzero}
   ]]>
  </style>
 </defs>
 <g id="Camada_x0020_1">
  <metadata id="CorelCorpID_0Corel-Layer"/>
  <path class="fil0" d="M43.55 12.67l-34.33 0c-1.17,0 -2.11,-0.94 -2.11,-2.11 0,-1.17 0.94,-2.11 2.11,-2.11l34.33 0c1.16,0 2.1,0.95 2.1,2.11 0,1.17 -0.94,2.11 -2.1,2.11zm0 10.56l-34.33 0c-1.17,0 -2.11,-0.95 -2.11,-2.11 0,-1.17 0.94,-2.11 2.11,-2.11l34.33 0c1.16,0 2.1,0.94 2.1,2.11 0,1.17 -0.94,2.11 -2.1,2.11zm0 10.55l-34.33 0c-1.17,0 -2.11,-0.94 -2.11,-2.11 0,-1.17 0.94,-2.11 2.11,-2.11l34.33 0c1.16,0 2.1,0.95 2.1,2.11 0,1.17 -0.94,2.11 -2.1,2.11zm0 10.55l-34.33 0c-1.17,0 -2.11,-0.94 -2.11,-2.11 0,-1.17 0.94,-2.11 2.11,-2.11l34.33 0c1.16,0 2.1,0.94 2.1,2.11 0,1.17 -0.94,2.11 -2.1,2.11zm0 10.55l-34.33 0c-1.17,0 -2.11,-0.94 -2.11,-2.11 0,-1.16 0.94,-2.11 2.11,-2.11l34.33 0c1.16,0 2.1,0.95 2.1,2.11 0,1.17 -0.94,2.11 -2.1,2.11zm5 -54.88l-44.33 0c-1.71,0 -3.18,1.03 -3.85,2.49 -0.24,0.53 -0.38,1.12 -0.38,1.73l0 54.88c0,2.32 1.9,4.22 4.22,4.22l44.33 0c0.61,0 1.2,-0.14 1.73,-0.38 1.47,-0.67 2.5,-2.14 2.5,-3.84l0 -54.88c0,-2.32 -1.9,-4.22 -4.22,-4.22z"/>
 </g>
</svg>
