<?xml version="1.0" encoding="UTF-8"?>
<!DOCTYPE svg PUBLIC "-//W3C//DTD SVG 1.1//EN" "http://www.w3.org/Graphics/SVG/1.1/DTD/svg11.dtd">
<!-- Creator: CorelDRAW 2020 (64 Bit) -->
<svg xmlns="http://www.w3.org/2000/svg" xml:space="preserve" width="300px" height="256px" version="1.1" style="shape-rendering:geometricPrecision; text-rendering:geometricPrecision; image-rendering:optimizeQuality; fill-rule:evenodd; clip-rule:evenodd"
viewBox="0 0 2084.75 1779.03"
 xmlns:xlink="http://www.w3.org/1999/xlink"
 xmlns:xodm="http://www.corel.com/coreldraw/odm/2003">
 <defs>
  <style type="text/css">
   <![CDATA[
    .fil0 {fill:white}
   ]]>
  </style>
 </defs>
 <g id="Camada_x0020_1">
  <metadata id="CorelCorpID_0Corel-Layer"/>
  <path id="LogoVertMono" class="fil0" d="M851.94 0.01l-393.69 438.65 864.07 0 -86.73 -438.66 -383.65 0.01zm1142.24 1744.82l17.11 0 26.36 -130.81 -17.1 0 -26.37 130.81zm-1877.96 -94.32c-13.71,0 -24.93,4.59 -33.3,12.53l2.31 -11.65 -16.4 0 -25.65 127.64 17.1 0 9.98 -50.07c6.06,10.93 18,16.93 34.21,16.93 30.65,0 53.45,-23.1 53.45,-55.18 0,-25.21 -17.64,-40.2 -41.7,-40.2zm-12.46 80.57c-18,0 -28.15,-9.87 -28.15,-26.27 0,-23.08 15.5,-39.48 36.88,-39.48 17.99,0 28.15,9.69 28.15,26.26 0,23.1 -15.68,39.49 -36.88,39.49zm1455.12 -122.29c-40.72,0 37.34,0 0,0zm-1299.61 42.6l-3.21 15.87c-6.05,-10.92 -17.81,-16.75 -34.02,-16.75 -30.64,0 -53.46,22.92 -53.46,55.01 0,25.21 17.64,40.37 41.7,40.37 13.53,0 24.94,-4.58 33.32,-12.52l-2.32 11.46 16.38 0 18.72 -93.44 -17.11 0zm-45.25 79.69c-18,0 -28.15,-9.87 -28.15,-26.27 0,-23.08 15.67,-39.48 36.88,-39.48 17.99,0 28.15,9.69 28.15,26.26 0,23.1 -15.51,39.49 -36.88,39.49zm105.8 -65.75l2.67 -13.94 -16.38 0 -18.71 93.44 17.1 0 9.44 -46.72c4.28,-21.51 16.75,-31.38 35.63,-31.38 1.79,0 2.85,0 4.46,0.18l3.21 -16.4c-16.93,0 -28.86,4.24 -37.42,14.82zm126.12 -13.94l-3.21 15.87c-6.06,-10.92 -17.81,-16.75 -34.03,-16.75 -30.64,0 -53.45,22.92 -53.45,55.01 0,25.21 17.64,40.37 41.69,40.37 13.54,0 24.95,-4.58 33.32,-12.52l-2.32 11.46 16.4 0 18.7 -93.44 -17.1 0zm-45.25 79.69c-18,0 -28.16,-9.87 -28.16,-26.27 0,-23.08 15.68,-39.48 36.89,-39.48 17.99,0 28.14,9.69 28.14,26.26 0,23.1 -15.5,39.49 -36.87,39.49zm217.54 -8.29c-8.37,5.12 -17.64,7.76 -28.15,7.76 -28.87,0 -43.66,-15.16 -43.66,-37.37 0,-31.91 22.63,-57.47 58.27,-57.47 15.86,0 27.61,4.41 35.99,14.1l12.83 -10.75c-9.8,-12.16 -26.38,-19.04 -48.11,-19.04 -47.04,0 -76.79,33.14 -76.79,74.22 0,31.02 22.45,52 59.51,52 16.93,0 33.5,-5.65 45.43,-15.34l9.8 -48.47 -17.11 0 -8.01 40.36zm135.39 -19.39c0.7,-3.88 1.23,-8.11 1.23,-12.51 0,-25.21 -16.74,-40.38 -42.22,-40.38 -30.82,0 -53.27,23.1 -53.27,54.83 0,24.68 17.28,40.55 45.25,40.55 14.43,0 28.69,-4.76 37.95,-13.4l-7.3 -12.17c-6.77,6.53 -17.46,10.76 -29.22,10.76 -20.31,0 -29.93,-9.52 -29.93,-26.62l0 -1.06 77.51 0zm-41.71 -38.78c16.76,0 27.8,9.34 26.91,26.44l-60.93 0c4.28,-16.22 16.92,-26.44 34.02,-26.44zm83.36 81.27c25.65,0 43.3,-10.93 43.3,-30.33 0,-30.97 -52.2,-17.75 -52.2,-36.63 0,-8.14 8.19,-13.96 24.05,-13.96 9.62,0 20.13,2.12 27.79,7.41l6.77 -13.4c-7.66,-5.29 -20.48,-8.47 -32.96,-8.47 -25.83,0 -42.75,11.82 -42.75,30.35 0,31.53 52.37,18.51 52.37,36.64 0,8.65 -8.38,13.75 -24.77,13.75 -12.82,0 -25.47,-3.7 -32.77,-9.51l-7.67 13.39c7.67,6.18 22.81,10.76 38.84,10.76zm92.1 -80.56l27.08 0 2.84 -13.94 -27.08 0 4.1 -20.44 -17.1 0 -4.1 20.44 -16.22 0 -2.67 13.94 16.04 0 -10.16 50.06c-0.53,2.47 -0.72,4.93 -0.72,7.05 0,14.63 10.16,23.45 24.95,23.45 7.49,0 15.5,-1.42 21.91,-5.82l-3.56 -12.87c-3.91,2.82 -8.9,4.4 -13.53,4.4 -8.56,0 -12.49,-4.4 -12.49,-11.62 0,-1.59 0.19,-3.18 0.55,-4.95l10.16 -49.7zm87.27 -39.85c7.84,0 12.29,11.81 23.87,11.81 10.16,0 17.46,-7.93 19.6,-20.97l-9.62 0c-1.07,6.17 -4.81,10.58 -9.98,10.58 -7.83,0 -12.3,-12 -23.69,-12 -10.16,0 -17.64,7.94 -19.78,21.51l9.8 0c1.07,-6.52 4.63,-10.93 9.8,-10.93zm35.46 25.91l-3.21 15.87c-6.06,-10.92 -17.82,-16.75 -34.03,-16.75 -30.66,0 -53.45,22.92 -53.45,55.01 0,25.21 17.63,40.37 41.68,40.37 13.55,0 24.95,-4.58 33.33,-12.52l-2.32 11.46 16.39 0 18.72 -93.44 -17.11 0zm-45.26 79.69c-18,0 -28.15,-9.87 -28.15,-26.27 0,-23.08 15.68,-39.48 36.87,-39.48 18,0 28.16,9.69 28.16,26.26 0,23.1 -15.51,39.49 -36.88,39.49zm117.56 14.81c32.25,0 55.23,-23.45 55.23,-55.18 0,-24.5 -17.28,-40.2 -44.18,-40.2 -32.25,0 -55.42,23.45 -55.42,55.01 0,24.32 17.47,40.37 44.37,40.37zm1.07 -14.81c-18,0 -28.15,-9.87 -28.15,-26.27 0,-23.08 15.68,-39.48 36.88,-39.48 17.99,0 28.15,9.69 28.15,26.26 0,23.1 -15.5,39.49 -36.88,39.49zm142.9 13.75l17.63 0 21.91 -108.06 42.59 0 3.2 -15.34 -103.15 0 -3.04 15.34 42.59 0 -21.73 108.06zm158.89 -41.43c0.71,-3.88 1.25,-8.11 1.25,-12.51 0,-25.21 -16.75,-40.38 -42.22,-40.38 -30.82,0 -53.28,23.1 -53.28,54.83 0,24.68 17.28,40.55 45.26,40.55 14.42,0 28.68,-4.76 37.94,-13.4l-7.3 -12.17c-6.77,6.53 -17.47,10.76 -29.22,10.76 -20.31,0 -29.93,-9.52 -29.93,-26.62l0 -1.06 77.5 0zm-41.68 -38.78c16.74,0 27.79,9.34 26.89,26.44l-60.93 0c4.28,-16.22 16.92,-26.44 34.04,-26.44zm86.02 0.71l2.67 -13.94 -16.39 0 -18.71 93.44 17.11 0 9.44 -46.72c4.27,-21.51 16.74,-31.38 35.63,-31.38 1.79,0 2.85,0 4.46,0.18l3.2 -16.4c-16.92,0 -28.85,4.24 -37.41,14.82zm68.92 0l2.67 -13.94 -16.38 0 -18.71 93.44 17.1 0 9.45 -46.72c4.27,-21.51 16.74,-31.38 35.63,-31.38 1.79,0 2.85,0 4.45,0.18l3.21 -16.4c-16.93,0 -28.86,4.24 -37.42,14.82zm68.75 -31.91c7.31,0 12.47,-4.94 12.47,-12.17 0,-5.29 -4.63,-9.87 -10.86,-9.87 -7.31,0 -12.31,5.28 -12.31,11.81 0,5.64 4.46,10.23 10.7,10.23zm-32.25 111.41l17.11 0 18.7 -93.44 -17.1 0 -18.71 93.44zm82.29 -79.5l27.08 0 2.85 -13.94 -27.08 0 4.09 -20.44 -17.1 0 -4.09 20.44 -16.22 0 -2.67 13.94 16.03 0 -10.15 50.06c-0.54,2.47 -0.72,4.93 -0.72,7.05 0,14.63 10.16,23.45 24.95,23.45 7.48,0 15.5,-1.42 21.92,-5.82l-3.57 -12.87c-3.92,2.82 -8.91,4.4 -13.54,4.4 -8.55,0 -12.47,-4.4 -12.47,-11.62 0,-1.59 0.18,-3.18 0.53,-4.95l10.16 -49.7zm76.41 80.56c32.24,0 55.23,-23.45 55.23,-55.18 0,-24.5 -17.28,-40.2 -44.19,-40.2 -32.25,0 -55.41,23.45 -55.41,55.01 0,24.32 17.47,40.37 44.37,40.37zm1.07 -14.81c-18,0 -28.15,-9.87 -28.15,-26.27 0,-23.08 15.67,-39.48 36.88,-39.48 17.99,0 28.15,9.69 28.15,26.26 0,23.1 -15.51,39.49 -36.88,39.49zm97.43 -65.75l2.67 -13.94 -16.39 0 -18.71 93.44 17.1 0 9.45 -46.72c4.27,-21.51 16.74,-31.38 35.63,-31.38 1.78,0 2.85,0 4.46,0.18l3.2 -16.4c-16.93,0 -28.86,4.24 -37.41,14.82zm68.74 -31.91c7.3,0 12.47,-4.94 12.47,-12.17 0,-5.29 -4.63,-9.87 -10.86,-9.87 -7.31,0 -12.3,5.28 -12.3,11.81 0,5.64 4.45,10.23 10.69,10.23zm-32.25 111.41l17.11 0 18.71 -93.44 -17.1 0 -18.72 93.44zm137.35 -93.44l-3.21 15.87c-6.06,-10.92 -17.82,-16.75 -34.03,-16.75 -30.64,0 -53.45,22.92 -53.45,55.01 0,25.21 17.64,40.37 41.69,40.37 13.54,0 24.95,-4.58 33.32,-12.52l-2.32 11.46 16.39 0 18.71 -93.44 -17.1 0zm-45.26 79.69c-18,0 -28.15,-9.87 -28.15,-26.27 0,-23.08 15.68,-39.48 36.88,-39.48 18,0 28.15,9.69 28.15,26.26 0,23.1 -15.5,39.49 -36.88,39.49zm20.72 -265.36l-3.21 15.77c-6.07,-10.86 -17.84,-16.65 -34.09,-16.65 -30.7,0 -53.55,22.79 -53.55,54.7 0,25.07 17.67,40.14 41.76,40.14 13.57,0 24.99,-4.55 33.39,-12.44l-2.33 11.39 16.42 0 18.74 -92.91 -17.13 0zm-1851.74 71c-8.39,5.08 -17.67,7.72 -28.2,7.72 -28.92,0 -43.73,-15.09 -43.73,-37.18 0,-31.73 22.67,-57.15 58.36,-57.15 15.88,0 27.66,4.39 36.06,14.03l12.85 -10.69c-9.82,-12.11 -26.42,-18.94 -48.19,-18.94 -47.12,0 -76.93,32.96 -76.93,73.81 0,30.85 22.49,51.72 59.61,51.72 16.96,0 33.56,-5.62 45.52,-15.26l9.82 -48.21 -17.15 0 -8.02 40.15zm76.74 -57.16l2.69 -13.84 -16.43 0 -18.74 92.91 17.14 0 9.46 -46.45c4.27,-21.4 16.77,-31.21 35.69,-31.21 1.79,0 2.85,0 4.46,0.17l3.21 -16.3c-16.95,0 -28.91,4.21 -37.48,14.72zm130.47 -13.84l-10 49.27c-4.1,19.8 -16.77,29.62 -34.62,29.62 -14.45,0 -21.59,-6.83 -21.59,-18.76 0,-2.46 0.35,-5.08 0.89,-7.89l10.53 -52.24 -17.14 0 -10.52 52.06c-0.72,3.86 -1.08,7.37 -1.08,10.7 0,19.81 13.21,31.2 33.91,31.2 13.21,0 25.17,-4.2 33.91,-12.97l-2.31 11.92 16.41 0 18.74 -92.91 -17.13 0zm97.28 -0.88c-13.75,0 -24.99,4.56 -33.38,12.44l2.32 -11.56 -16.41 0 -25.71 126.92 17.13 0 10 -49.79c6.07,10.88 18.02,16.83 34.27,16.83 30.7,0 53.54,-22.96 53.54,-54.86 0,-25.08 -17.67,-39.98 -41.76,-39.98zm-12.5 80.12c-18.02,0 -28.2,-9.81 -28.2,-26.12 0,-22.97 15.53,-39.28 36.95,-39.28 18.02,0 28.2,9.65 28.2,26.14 0,22.96 -15.71,39.26 -36.95,39.26zm112.27 14.72c32.3,0 55.33,-23.31 55.33,-54.86 0,-24.37 -17.32,-39.98 -44.27,-39.98 -32.3,0 -55.51,23.32 -55.51,54.7 0,24.19 17.5,40.14 44.45,40.14zm1.07 -14.72c-18.03,0 -28.2,-9.81 -28.2,-26.12 0,-22.97 15.7,-39.28 36.94,-39.28 18.03,0 28.2,9.65 28.2,26.14 0,22.96 -15.53,39.26 -36.94,39.26zm214.36 -116.41l-10.71 53.12c-6.08,-11.04 -18.03,-16.83 -34.28,-16.83 -30.69,0 -53.53,22.79 -53.53,54.7 0,25.07 17.66,40.14 41.75,40.14 13.57,0 25,-4.55 33.38,-12.44l-2.32 11.39 16.43 0 26.42 -130.08 -17.14 0zm-53.01 116.41c-18.04,0 -28.21,-9.81 -28.21,-26.12 0,-22.97 15.71,-39.28 36.96,-39.28 18.01,0 28.19,9.65 28.19,26.14 0,22.96 -15.53,39.26 -36.94,39.26zm170.62 -27.52c0.71,-3.86 1.25,-8.07 1.25,-12.45 0,-25.07 -16.78,-40.15 -42.29,-40.15 -30.88,0 -53.37,22.97 -53.37,54.53 0,24.54 17.31,40.31 45.33,40.31 14.46,0 28.73,-4.73 38.02,-13.31l-7.31 -12.11c-6.79,6.49 -17.51,10.7 -29.28,10.7 -20.35,0 -29.99,-9.47 -29.99,-26.47l0 -1.05 77.64 0zm-41.77 -38.57c16.79,0 27.85,9.29 26.96,26.29l-61.04 0c4.29,-16.13 16.96,-26.29 34.08,-26.29zm217.05 -27.71l3.03 -15.25 -88.17 0 -24.99 122.72 90.85 0 3.03 -15.25 -73 0 8.03 -39.62 62.83 0 3.03 -14.9 -62.82 0 7.67 -37.7 70.51 0zm74.24 13.68c-13.57,0 -25.52,4.03 -34.27,12.79l2.32 -11.91 -16.42 0 -18.74 92.91 17.14 0 9.99 -49.08c4.11,-19.99 16.6,-29.63 34.98,-29.63 14.82,0 21.96,6.83 21.96,18.94 0,2.27 -0.36,4.9 -0.9,7.71l-10.53 52.06 17.14 0 10.53 -52.06c0.71,-3.86 1.07,-7.54 1.07,-10.87 0,-19.82 -12.85,-30.86 -34.27,-30.86zm147.96 0.88l-3.4 17c-6.24,-12.26 -19.8,-17.88 -35.33,-17.88 -31.59,0 -53.9,22.62 -53.9,52.07 0,23.5 17.13,37.87 42.12,37.87 14.1,0 25.7,-4.73 34.26,-12.81l-1.42 6.67c-4.1,20.16 -15.34,30.16 -37.66,30.16 -14.82,0 -27.67,-4.56 -34.98,-11.23l-9.46 12.98c10.18,8.42 25.16,13.15 43.19,13.15 31.41,0 49.8,-14.03 56.58,-47.69l16.24 -80.29 -16.24 0zm-47.12 74.33c-17.68,0 -28.19,-9.12 -28.19,-24.2 0,-21.03 15.52,-36.29 37.12,-36.29 17.84,0 28.19,9.12 28.19,24.03 0,21.21 -15.52,36.46 -37.12,36.46zm171.52 -22.61c0.71,-3.86 1.25,-8.07 1.25,-12.45 0,-25.07 -16.77,-40.15 -42.3,-40.15 -30.88,0 -53.36,22.97 -53.36,54.53 0,24.54 17.31,40.31 45.33,40.31 14.46,0 28.73,-4.73 38.02,-13.31l-7.32 -12.11c-6.79,6.49 -17.49,10.7 -29.27,10.7 -20.35,0 -29.99,-9.47 -29.99,-26.47l0 -1.05 77.64 0zm-41.76 -38.57c16.77,0 27.84,9.29 26.95,26.29l-61.05 0c4.29,-16.13 16.97,-26.29 34.1,-26.29zm123.68 -14.03c-13.56,0 -25.52,4.03 -34.26,12.79l2.31 -11.91 -16.41 0 -18.75 92.91 17.14 0 9.99 -49.08c4.11,-19.99 16.6,-29.63 34.99,-29.63 14.81,0 21.95,6.83 21.95,18.94 0,2.27 -0.36,4.9 -0.89,7.71l-10.54 52.06 17.14 0 10.52 -52.06c0.72,-3.86 1.09,-7.54 1.09,-10.87 0,-19.82 -12.85,-30.86 -34.28,-30.86zm121.55 0c-13.2,0 -24.64,3.68 -33.38,11.75l9.82 -48.04 -17.13 0 -26.42 130.08 17.14 0 9.99 -49.08c4.1,-19.99 16.59,-29.63 34.98,-29.63 14.82,0 21.96,6.83 21.96,18.94 0,2.27 -0.36,4.9 -0.9,7.71l-10.53 52.06 17.14 0 10.53 -52.06c0.72,-3.86 1.07,-7.54 1.07,-10.87 0,-19.82 -12.85,-30.86 -34.27,-30.86zm145.64 0.88l-3.21 15.77c-6.06,-10.86 -17.84,-16.65 -34.09,-16.65 -30.7,0 -53.55,22.79 -53.55,54.7 0,25.07 17.68,40.14 41.76,40.14 13.57,0 25,-4.55 33.38,-12.44l-2.32 11.39 16.43 0 18.73 -92.91 -17.13 0zm-45.33 79.24c-18.03,0 -28.2,-9.81 -28.2,-26.12 0,-22.97 15.71,-39.28 36.94,-39.28 18.03,0 28.2,9.65 28.2,26.14 0,22.96 -15.52,39.26 -36.94,39.26zm108.87 -65.4l2.67 -13.84 -16.41 0 -18.74 92.91 17.14 0 9.45 -46.45c4.28,-21.4 16.77,-31.21 35.69,-31.21 1.79,0 2.86,0 4.47,0.17l3.21 -16.3c-16.95,0 -28.91,4.21 -37.48,14.72zm39.45 79.07l17.13 0 18.74 -92.91 -17.14 0 -18.73 92.91zm95.13 -13.67c-18.03,0 -28.21,-9.81 -28.21,-26.12 0,-22.97 15.71,-39.28 36.95,-39.28 18.02,0 28.2,9.65 28.2,26.14 0,22.96 -15.53,39.26 -36.94,39.26zm-62.83 -97.13c7.32,0 12.5,-4.91 12.5,-12.09 0,-5.26 -4.64,-9.82 -10.89,-9.82 -7.32,0 -12.32,5.26 -12.32,11.75 0,5.6 4.46,10.16 10.71,10.16zm-1277.42 -324.34l346.95 0 -18.52 93.09 -346.95 0 18.52 -93.09zm1131.64 126.23l346.95 0 -18.51 93.09 -346.95 0 18.51 -93.09zm-1335.41 0c-17.06,5.69 -34.6,8.13 -52.63,8.13 -75.14,0 -116.95,-41.17 -116.95,-102.58 0,-91.47 60.11,-158.76 154.19,-158.76 47.04,0 82.32,13.07 112.37,50.31l92.78 -73.18c-41.16,-54.88 -107.8,-84.28 -199.27,-84.28 -173.79,0 -290.73,115.64 -290.73,274.4 0,119.57 90.16,201.23 229.97,201.23 69.25,0 133.28,-19.6 180.32,-54.88l12.08 -60.39 -122.13 0zm1385.63 -252.46l346.95 0 -18.52 93.09 -346.95 0 18.52 -93.09zm-181.93 103.28l78.42 0 17.85 -90.53 -78.42 0 21.31 -105.85 -121.13 0 -21.32 105.85 -50.36 0 -18.5 90.53 51.01 0 -22.95 114.13c-2.55,11.47 -3.19,22.31 -3.19,32.51 0,64.39 45.91,101.37 116.67,101.37 31.89,0 64.4,-5.74 89.9,-20.4l-15.3 -83.52c-12.11,6.38 -23.59,10.2 -36.34,10.2 -21.04,0 -31.88,-10.2 -31.88,-29.33 0,-3.18 0.64,-7.01 1.27,-11.47l22.96 -113.49zm-342.37 -109.01c-38.25,0 -77.78,12.74 -108.38,41.43l7.01 -35.7 -114.76 0 -68.86 345.55 121.13 0 34.44 -170.86c10.84,-52.92 39.52,-77.79 80.96,-77.79 32.52,0 47.82,15.95 47.82,45.91 0,7.01 -0.63,14.66 -2.55,22.95l-35.7 179.79 121.13 0 38.26 -191.26c3.18,-15.3 4.46,-29.33 4.46,-42.72 0,-77.14 -51,-117.3 -124.96,-117.3zm-631.93 5.73l346.94 0 -18.52 93.09 -346.94 0 18.52 -93.09zm-50.22 252.46l346.95 0 -18.52 93.09 -346.95 0 18.52 -93.09zm-50.42 -33.14l18.69 -93.44 -219.11 0 -18.69 93.44 219.11 0zm1231.24 -93.09l346.96 0 -18.52 93.09 -346.96 0 18.52 -93.09zm-326.24 -312.43l164.72 0c-11.93,-12.36 -27.08,-23.39 -34.92,-38.61 -5.7,-11.08 -9.01,-24.8 -12.24,-38.18 -4.52,-18.76 -8.87,-36.77 -18.6,-42.7 -8.91,-5.42 -16.34,-8.68 -23.31,-9.65 -6.46,-0.9 -12.75,0.21 -19.84,3.41 -6.73,3.04 -10.62,10.37 -14.89,18.38 -4.38,8.24 -9.09,17.07 -17.93,24.85 -7.54,6.65 -18.31,11.67 -29.32,16.81 -14.92,6.97 -30.4,14.2 -34.06,24.04 -3.03,8.14 -0.36,15.15 5.07,21.2 7.2,8.01 23.24,18.19 35.32,20.45zm154.25 -372.4l-71.59 0 5.25 27.3c19.38,5.42 24.37,17.67 27.23,35.23 1.99,12.15 3.94,24.05 22.54,26.06 9.02,0.98 22.23,0.8 33.99,-0.33l-17.42 -88.26zm-63.34 42.96l38.2 198.97 -22.67 0c15.91,9.61 20.14,32.7 24.16,49.39 3.11,12.86 6.3,26.07 11.43,36.05 8.87,17.22 29.07,29.25 40.85,45.03l44.84 0 -20.46 -103.74 -0.01 0c-11.13,-6.29 -20.62,-11.71 -26.46,-16.24 -10.56,-8.19 -16.24,-24.03 -22.12,-40.47 -7.98,-22.3 -14.04,-47.36 -44.5,-47.85l-2.31 -12.03c9.64,-0.32 18.58,0.75 26.19,4.07 18.11,7.91 25.92,29.69 33.37,50.53 5.41,15.11 10.62,29.68 18.86,36.06 3.25,2.52 7.95,5.47 13.59,8.77l-29.9 -151.57c-13.82,1.5 -29.15,1.82 -39.87,0.66 -26.95,-2.92 -29.51,-18.56 -32.12,-34.52 -1.33,-8.11 -4.64,-17.42 -11.07,-23.11zm-48.47 198.97l-163.54 0c-9.2,8.78 -16.02,20.52 -20.69,32.88 -6.25,16.56 -8.56,34.06 -7.57,47.22 1.38,18.51 11.08,33.14 15.86,50.37l102.05 0c-5.55,-3.56 -10.67,-7.52 -14.7,-12 -7.8,-8.68 -11.5,-19.1 -6.78,-31.77 5.78,-15.54 24.28,-24.17 42.11,-32.5 9.95,-4.64 19.66,-9.17 25.38,-14.21 6.64,-5.85 10.72,-13.51 14.53,-20.65 3.86,-7.25 7.48,-14.06 13.35,-19.34zm-179.43 0l-266.45 0c1.41,10.19 0.23,26.27 9.29,32.09 9.81,6.32 19.92,4.89 31.05,3.3 10.57,-1.5 21.92,-3.12 35.25,0.07 22.36,5.36 38.63,28.86 46.2,47.3 6.33,15.4 9.14,32.48 6.52,47.71l127.27 0c-5.44,-16.35 -13.41,-29.41 -14.78,-47.68 -1.09,-14.58 1.45,-33.9 8.33,-52.13 4.13,-10.94 9.85,-21.56 17.32,-30.66zm-280.34 0l-77.69 0 -143.78 130.47 350.56 0c2.29,-13.05 -0.28,-28.16 -5.97,-42 -6.24,-15.19 -20.32,-36.87 -38.86,-41.3 -10.9,-2.6 -20.81,-1.19 -30.04,0.12 -13.76,1.95 -26.25,3.73 -39.81,-5 -15.18,-9.76 -10.99,-27.2 -14.41,-42.29zm-58.77 -120.8l292.92 0 4.64 -24.53 -282.03 0 -15.53 24.53zm474.7 -357.02l-64.23 0 6.18 36.84 65.33 0 -7.28 -36.84zm-56.9 43.69l2.21 13.2 65.94 0 -2.61 -13.2 -65.54 0zm3.36 20.05l18.95 113.06 69.55 0 -22.36 -113.06 -17.92 0 8.05 67.59 -6.62 1.87 -8.26 -69.46 -41.39 0zm20.1 119.91l4.51 26.91 70.56 0 -5.32 -26.91 -69.75 0zm5.66 33.77l9.52 56.79 -69.16 0 -12 147.37 -6.64 0.51 189.52 0 -40.47 -204.67 -70.77 0zm-72.82 56.79l-52.37 0 -27.99 147.88 68.31 0 12.05 -147.88zm-65.51 0l-129.37 0 -13.98 51.42 133.62 0 9.73 -51.42zm-136 0l-120.14 0 -32.58 51.42 138.74 0 13.98 -51.42zm-134.85 0l-60.38 0 -112.01 147.88 78.73 0 93.66 -147.88zm-75.97 0l-129.46 0 -144.04 147.88 161.62 0c14.66,-19.41 29.33,-38.81 44.01,-58.21l-148.92 0 6.67 -6.86 147.44 0c14.1,-18.64 28.2,-37.28 42.31,-55.91l-135.28 0 6.67 -6.86 133.8 0 15.18 -20.04zm-2.99 147.88l328.4 0 -6.52 -0.24 10.97 -57.97 -295.98 0 -36.87 58.21zm116.49 -493.74c-44.17,0 -106.17,35.23 -69.41,68.84 14.76,13.49 38.32,19.97 59.64,19.97 21.1,0 45.9,-5.78 64.47,-18.91 27.18,-19.23 20.81,-43.37 -2.11,-57.39 -13.88,-8.49 -33.43,-12.51 -52.59,-12.51zm-0.75 24.83c-11.35,0 -24.47,5.04 -27.77,14.48 -3.3,9.43 8.96,18.06 23.17,18.06 14.21,0 28.66,-8.09 28.27,-18.06 -0.38,-9.97 -12.33,-14.48 -23.67,-14.48zm-62.37 -26.65c40.88,-21.33 98.52,-21.61 133.4,-0.28 18.07,11.05 31.09,30.09 27.79,53.5 -2.47,17.44 -14.03,32.86 -30.82,44.73 -46.94,33.19 -119.9,32.45 -156.89,-1.37 -12.92,-11.82 -19.83,-26.81 -17.52,-43.2 3.29,-23.31 23.18,-42.5 44.04,-53.38z"/>
 </g>
</svg>
