<?xml version="1.0" encoding="UTF-8"?>
<!DOCTYPE svg PUBLIC "-//W3C//DTD SVG 1.1//EN" "http://www.w3.org/Graphics/SVG/1.1/DTD/svg11.dtd">
<!-- Creator: CorelDRAW 2020 (64 Bit) -->
<svg xmlns="http://www.w3.org/2000/svg" xml:space="preserve" width="54.2293mm" height="38.8056mm" version="1.1" style="shape-rendering:geometricPrecision; text-rendering:geometricPrecision; image-rendering:optimizeQuality; fill-rule:evenodd; clip-rule:evenodd"
viewBox="0 0 129.31 92.53"
 xmlns:xlink="http://www.w3.org/1999/xlink"
 xmlns:xodm="http://www.corel.com/coreldraw/odm/2003">
 <defs>
  <style type="text/css">
   <![CDATA[
    .fil0 {fill:white;fill-rule:nonzero}
   ]]>
  </style>
 </defs>
 <g id="Camada_x0020_1">
  <metadata id="CorelCorpID_0Corel-Layer"/>
  <path class="fil0" d="M40.27 66.65c-7.95,0 -14.39,-6.44 -14.39,-14.39 0,-7.95 6.44,-14.39 14.39,-14.39 7.95,0 14.38,6.44 14.38,14.39 0,7.95 -6.43,14.39 -14.38,14.39zm0 -34.46c-11.1,0 -20.08,8.99 -20.08,20.07 0,11.09 8.98,20.08 20.08,20.08 11.1,0 20.07,-8.99 20.07,-20.08 0,-11.09 -8.97,-20.07 -20.07,-20.07z"/>
  <path class="fil0" d="M40.27 77.9c-14.17,0 -25.64,-11.48 -25.64,-25.64 0,-14.17 11.47,-25.64 25.64,-25.64 14.17,0 25.64,11.47 25.64,25.64 0,14.16 -11.47,25.64 -25.64,25.64zm34.24 -36.01l2.77 -6.05 -3.96 -6.87 -6.43 -0.61c-0.68,-0.77 -1.4,-1.5 -2.14,-2.2l-0.63 -6.64 -6.87 -3.96 -5.85 2.68c-0.98,-0.32 -1.98,-0.6 -2.98,-0.83l-3.85 -5.42 -7.93 0 -3.74 5.26c-1,0.21 -2.01,0.47 -2.99,0.76l-6.05 -2.76 -6.86 3.96 -0.61 6.43c-0.76,0.68 -1.5,1.4 -2.19,2.15l-6.64 0.62 -3.97 6.87 2.68 5.86c-0.32,0.98 -0.6,1.97 -0.83,2.98l-5.42 3.85 0 7.93 5.25 3.73c0.21,1.01 0.46,2.01 0.77,3l-2.77 6.05 3.97 6.86 6.43 0.61c0.68,0.76 1.4,1.49 2.14,2.19l0.64 6.64 6.86 3.97 5.85 -2.68c0.98,0.32 1.98,0.6 2.98,0.83l3.85 5.42 7.94 0 3.73 -5.25c1.02,-0.22 2.02,-0.47 3,-0.77l6.05 2.77 6.86 -3.97 0.61 -6.43c0.77,-0.68 1.5,-1.4 2.2,-2.14l6.65 -0.63 3.96 -6.87 -2.68 -5.85c0.32,-0.98 0.6,-1.97 0.83,-2.98l5.42 -3.85 0 -7.94 -5.26 -3.73c-0.21,-1.02 -0.47,-2.01 -0.76,-3z"/>
  <path class="fil0" d="M101.78 37.37c-5.43,0 -9.84,-4.4 -9.84,-9.84 0,-5.44 4.42,-9.84 9.84,-9.84 5.43,0 9.83,4.4 9.83,9.84 0,5.43 -4.4,9.84 -9.83,9.84zm0 -23.56c-7.57,0 -13.72,6.14 -13.72,13.72 0,7.58 6.15,13.72 13.72,13.72 7.59,0 13.73,-6.14 13.73,-13.72 0,-7.58 -6.14,-13.72 -13.73,-13.72z"/>
  <path class="fil0" d="M101.78 45.06c-9.67,0 -17.53,-7.85 -17.53,-17.53 0,-9.68 7.86,-17.53 17.53,-17.53 9.68,0 17.53,7.85 17.53,17.53 0,9.68 -7.85,17.53 -17.53,17.53zm27.52 -14.6l0 -5.42 -3.58 -2.55c-0.15,-0.69 -0.33,-1.37 -0.52,-2.05l1.89 -4.14 -2.7 -4.69 -4.41 -0.41c-0.46,-0.52 -0.95,-1.02 -1.46,-1.5l-0.43 -4.54 -4.69 -2.71 -4 1.83c-0.67,-0.22 -1.35,-0.41 -2.03,-0.56l-2.64 -3.71 -5.42 0 -2.56 3.6c-0.7,0.14 -1.38,0.32 -2.04,0.53l-4.14 -1.9 -4.69 2.71 -0.41 4.39c-0.52,0.47 -1.03,0.96 -1.5,1.47l-4.53 0.42 -2.71 4.69 1.83 4.01c-0.23,0.67 -0.41,1.35 -0.58,2.03l-3.7 2.64 0 5.42 3.6 2.56c0.14,0.7 0.31,1.38 0.52,2.05l-1.9 4.14 2.72 4.69 4.39 0.42c0.46,0.52 0.96,1.02 1.46,1.5l0.43 4.54 4.7 2.71 4 -1.83c0.67,0.22 1.35,0.41 2.04,0.58l2.63 3.7 5.43 0 2.55 -3.59c0.69,-0.14 1.38,-0.32 2.04,-0.52l4.13 1.9 4.69 -2.71 0.42 -4.4c0.52,-0.47 1.02,-0.96 1.5,-1.47l4.53 -0.43 2.71 -4.69 -1.83 -4c0.23,-0.67 0.41,-1.35 0.57,-2.04l3.7 -2.64z"/>
 </g>
</svg>
